<svg width="18" height="27" viewBox="0 0 18 27" fill="none" xmlns="http://www.w3.org/2000/svg">
<path fill-rule="evenodd" clip-rule="evenodd" d="M8.99882 0.377228C9.24746 0.377228 9.48591 0.475998 9.66173 0.651814C9.83754 0.827629 9.93632 1.06609 9.93632 1.31473L9.93632 23.4266L15.8351 17.526C15.9222 17.4388 16.0257 17.3697 16.1396 17.3225C16.2535 17.2753 16.3755 17.251 16.4988 17.251C16.6221 17.251 16.7441 17.2753 16.858 17.3225C16.9719 17.3697 17.0754 17.4388 17.1626 17.526C17.2497 17.6131 17.3189 17.7166 17.366 17.8305C17.4132 17.9444 17.4375 18.0665 17.4375 18.1897C17.4375 18.313 17.4132 18.4351 17.366 18.5489C17.3189 18.6628 17.2497 18.7663 17.1626 18.8535L9.66257 26.3535C9.57548 26.4408 9.47203 26.5101 9.35813 26.5573C9.24423 26.6046 9.12213 26.6289 8.99882 26.6289C8.8755 26.6289 8.7534 26.6046 8.6395 26.5573C8.52561 26.5101 8.42215 26.4408 8.33507 26.3535L0.835066 18.8535C0.7479 18.7663 0.678757 18.6628 0.631584 18.5489C0.58441 18.4351 0.560131 18.313 0.560131 18.1897C0.560131 18.0665 0.58441 17.9444 0.631584 17.8305C0.678757 17.7166 0.7479 17.6131 0.835066 17.526C0.92223 17.4388 1.02571 17.3697 1.1396 17.3225C1.25348 17.2753 1.37555 17.251 1.49882 17.251C1.62208 17.251 1.74415 17.2753 1.85803 17.3225C1.97192 17.3697 2.0754 17.4388 2.16257 17.526L8.06132 23.4266L8.06132 1.31473C8.06132 1.06609 8.16009 0.827629 8.3359 0.651814C8.51172 0.475998 8.75018 0.377228 8.99882 0.377228Z" fill="#2C2C31"/>
</svg>
