<svg width="20" height="21" viewBox="0 0 20 21" fill="none" xmlns="http://www.w3.org/2000/svg">
<path d="M4.16667 6.19727H5C5.44203 6.19727 5.86595 6.02167 6.17851 5.70911C6.49107 5.39655 6.66667 4.97263 6.66667 4.5306C6.66667 4.30959 6.75446 4.09762 6.91074 3.94134C7.06702 3.78506 7.27899 3.69727 7.5 3.69727H12.5C12.721 3.69727 12.933 3.78506 13.0893 3.94134C13.2455 4.09762 13.3333 4.30959 13.3333 4.5306C13.3333 4.97263 13.5089 5.39655 13.8215 5.70911C14.134 6.02167 14.558 6.19727 15 6.19727H15.8333C16.2754 6.19727 16.6993 6.37286 17.0118 6.68542C17.3244 6.99798 17.5 7.4219 17.5 7.86393V15.3639C17.5 15.806 17.3244 16.2299 17.0118 16.5424C16.6993 16.855 16.2754 17.0306 15.8333 17.0306H4.16667C3.72464 17.0306 3.30072 16.855 2.98816 16.5424C2.67559 16.2299 2.5 15.806 2.5 15.3639V7.86393C2.5 7.4219 2.67559 6.99798 2.98816 6.68542C3.30072 6.37286 3.72464 6.19727 4.16667 6.19727Z" stroke="currentColor" stroke-width="1.66667" stroke-linecap="round" stroke-linejoin="round"/>
<path d="M7.5 11.1973C7.5 11.8603 7.76339 12.4962 8.23223 12.965C8.70107 13.4339 9.33696 13.6973 10 13.6973C10.663 13.6973 11.2989 13.4339 11.7678 12.965C12.2366 12.4962 12.5 11.8603 12.5 11.1973C12.5 10.5342 12.2366 9.89834 11.7678 9.4295C11.2989 8.96066 10.663 8.69727 10 8.69727C9.33696 8.69727 8.70107 8.96066 8.23223 9.4295C7.76339 9.89834 7.5 10.5342 7.5 11.1973Z" stroke="currentColor" stroke-width="1.66667" stroke-linecap="round" stroke-linejoin="round"/>
</svg>
