<svg width="16" height="15" viewBox="0 0 16 15" fill="none" xmlns="http://www.w3.org/2000/svg">
<path d="M2.85876 0.479141L8.00543 5.62581L13.1254 0.505807C13.2385 0.385431 13.3748 0.289133 13.526 0.22269C13.6772 0.156247 13.8403 0.121026 14.0054 0.119141C14.359 0.119141 14.6982 0.259616 14.9482 0.509665C15.1983 0.759713 15.3388 1.09885 15.3388 1.45247C15.3419 1.61594 15.3115 1.77832 15.2496 1.92965C15.1877 2.08098 15.0955 2.21805 14.9788 2.33247L9.79209 7.45247L14.9788 12.6391C15.1985 12.8541 15.3274 13.1453 15.3388 13.4525C15.3388 13.8061 15.1983 14.1452 14.9482 14.3953C14.6982 14.6453 14.359 14.7858 14.0054 14.7858C13.8355 14.7929 13.666 14.7645 13.5076 14.7025C13.3492 14.6405 13.2054 14.5463 13.0854 14.4258L8.00543 9.27914L2.87209 14.4125C2.75943 14.5288 2.62484 14.6217 2.47609 14.6858C2.32734 14.7499 2.16738 14.7839 2.00543 14.7858C1.6518 14.7858 1.31266 14.6453 1.06262 14.3953C0.812568 14.1452 0.672092 13.8061 0.672092 13.4525C0.668983 13.289 0.699312 13.1266 0.761219 12.9753C0.823125 12.824 0.915301 12.6869 1.03209 12.5725L6.21876 7.45247L1.03209 2.26581C0.812339 2.05082 0.683478 1.75969 0.672092 1.45247C0.672092 1.09885 0.812568 0.759713 1.06262 0.509665C1.31266 0.259616 1.6518 0.119141 2.00543 0.119141C2.32543 0.123141 2.63209 0.252474 2.85876 0.479141Z" fill="#2C2C31"/>
</svg>
