<svg width="20" height="21" viewBox="0 0 20 21" fill="none" xmlns="http://www.w3.org/2000/svg">
<path d="M9.95703 14.2031H10.0404" stroke="#0084CF" stroke-width="2.5" stroke-linecap="round" stroke-linejoin="round"/>
<path d="M10 10.4531V6.28646M2.5 10.4531C2.5 8.464 3.29018 6.55635 4.6967 5.14982C6.10322 3.7433 8.01088 2.95313 10 2.95312V2.95312C11.9891 2.95313 13.8968 3.7433 15.3033 5.14982C16.7098 6.55635 17.5 8.464 17.5 10.4531V10.4531C17.5 12.4422 16.7098 14.3499 15.3033 15.7564C13.8968 17.1629 11.9891 17.9531 10 17.9531V17.9531C8.01088 17.9531 6.10322 17.1629 4.6967 15.7564C3.29018 14.3499 2.5 12.4422 2.5 10.4531V10.4531Z" stroke="#0084CF" stroke-width="1.66667" stroke-linecap="round" stroke-linejoin="round"/>
</svg>
