<svg width="25" height="25" viewBox="0 0 25 25" fill="none" xmlns="http://www.w3.org/2000/svg">
<path d="M18.1523 13.1094V4.10938C18.1523 3.84416 18.047 3.5898 17.8595 3.40227C17.6719 3.21473 17.4176 3.10938 17.1523 3.10938H5.15234C4.88713 3.10938 4.63277 3.21473 4.44524 3.40227C4.2577 3.5898 4.15234 3.84416 4.15234 4.10938V20.1094C4.15234 20.3746 4.2577 20.6289 4.44524 20.8165C4.63277 21.004 4.88713 21.1094 5.15234 21.1094H12.1523" stroke="#2C2C31" stroke-width="2" stroke-linecap="round" stroke-linejoin="round"/>
<path d="M18.1523 17.1094V21.1094M8.15234 3.10938H14.1523V6.10938C14.1523 6.37459 14.047 6.62895 13.8595 6.81648C13.6719 7.00402 13.4176 7.10938 13.1523 7.10938H9.15234C8.88713 7.10938 8.63277 7.00402 8.44524 6.81648C8.2577 6.62895 8.15234 6.37459 8.15234 6.10938V3.10938ZM8.15234 17.1094H12.1523H8.15234ZM8.15234 13.1094H14.1523H8.15234ZM16.1523 19.1094H20.1523H16.1523Z" stroke="#2C2C31" stroke-width="2" stroke-linecap="round" stroke-linejoin="round"/>
</svg>
