<svg width="24" height="25" viewBox="0 0 24 25" fill="none" xmlns="http://www.w3.org/2000/svg">
<path d="M16.24 12.5039H7.76M21 12.5039C21 14.2839 20.4722 16.024 19.4832 17.504C18.4943 18.9841 17.0887 20.1376 15.4442 20.8188C13.7996 21.5 11.99 21.6782 10.2442 21.331C8.49836 20.9837 6.89472 20.1265 5.63604 18.8679C4.37737 17.6092 3.5202 16.0055 3.17294 14.2597C2.82567 12.5139 3.0039 10.7043 3.68509 9.05976C4.36628 7.41522 5.51983 6.00961 6.99987 5.02068C8.47991 4.03175 10.22 3.50391 12 3.50391C14.387 3.50391 16.6761 4.45212 18.364 6.13995C20.0518 7.82777 21 10.117 21 12.5039V12.5039Z" stroke="currentColor" stroke-width="2" stroke-linecap="round" stroke-linejoin="round"/>
</svg>
