<svg width="21" height="20" viewBox="0 0 21 20" fill="none" xmlns="http://www.w3.org/2000/svg">
<path d="M13.9435 10H6.87683M17.9102 10C17.9102 11.4834 17.4703 12.9334 16.6462 14.1668C15.8221 15.4001 14.6507 16.3614 13.2803 16.9291C11.9098 17.4968 10.4018 17.6453 8.94698 17.3559C7.49213 17.0665 6.15575 16.3522 5.10686 15.3033C4.05796 14.2544 3.34366 12.918 3.05427 11.4632C2.76488 10.0083 2.91341 8.50032 3.48106 7.12987C4.04872 5.75943 5.01001 4.58809 6.24338 3.76398C7.47675 2.93987 8.9268 2.5 10.4102 2.5C12.3993 2.5 14.3069 3.29018 15.7135 4.6967C17.12 6.10322 17.9102 8.01088 17.9102 10V10Z" stroke="currentColor" stroke-width="1.66667" stroke-linecap="round" stroke-linejoin="round"/>
</svg>
