<svg width="15" height="11" viewBox="0 0 15 11" fill="none" xmlns="http://www.w3.org/2000/svg">
<path d="M4.99891 8.95268L2.08224 6.03602C2.00597 5.95882 1.91514 5.89752 1.815 5.85569C1.71487 5.81386 1.60743 5.79232 1.49891 5.79232C1.39039 5.79232 1.28295 5.81386 1.18281 5.85569C1.08268 5.89752 0.991844 5.95882 0.915575 6.03602C0.838375 6.11229 0.777082 6.20312 0.735249 6.30325C0.693416 6.40339 0.671875 6.51083 0.671875 6.61935C0.671875 6.72787 0.693416 6.83531 0.735249 6.93545C0.777082 7.03558 0.838375 7.12641 0.915575 7.20268L4.40724 10.6944C4.73224 11.0194 5.25724 11.0194 5.58224 10.6944L14.4156 1.86935C14.4928 1.79308 14.5541 1.70225 14.5959 1.60211C14.6377 1.50198 14.6593 1.39454 14.6593 1.28602C14.6593 1.1775 14.6377 1.07005 14.5959 0.969921C14.5541 0.869787 14.4928 0.778953 14.4156 0.702684C14.3393 0.625484 14.2485 0.564191 14.1483 0.522358C14.0482 0.480525 13.9408 0.458984 13.8322 0.458984C13.7237 0.458984 13.6163 0.480525 13.5161 0.522358C13.416 0.564191 13.3252 0.625484 13.2489 0.702684L4.99891 8.95268Z" fill="#0F582D"/>
</svg>
