<svg width="25" height="25" viewBox="0 0 25 25" fill="none" xmlns="http://www.w3.org/2000/svg">
<path d="M19.9336 6.04938C20.8502 6.96961 21.3649 8.21554 21.3649 9.51437C21.3649 10.8132 20.8502 12.0591 19.9336 12.9794L12.3636 20.6094L4.79363 12.9794C4.11288 12.294 3.64941 11.4231 3.46124 10.4756C3.27308 9.52812 3.36858 8.54618 3.73579 7.6527C4.103 6.75923 4.7256 5.99392 5.52566 5.45259C6.32572 4.91125 7.26768 4.61794 8.23363 4.60938C9.52528 4.61721 10.7616 5.13474 11.6736 6.04938C11.9396 6.3126 12.1715 6.60826 12.3636 6.92938C12.5558 6.60826 12.7876 6.3126 13.0536 6.04938C13.503 5.59343 14.0386 5.23137 14.6291 4.98424C15.2197 4.73711 15.8535 4.60985 16.4936 4.60985C17.1338 4.60985 17.7676 4.73711 18.3582 4.98424C18.9487 5.23137 19.4843 5.59343 19.9336 6.04938V6.04938Z" stroke="#2C2C31" stroke-width="2" stroke-linecap="round" stroke-linejoin="round"/>
</svg>
