<svg width="47" height="47" viewBox="0 0 47 47" fill="none" xmlns="http://www.w3.org/2000/svg">
<path d="M38.2623 10.7004C40.0507 12.496 41.0549 14.927 41.0549 17.4614C41.0549 19.9957 40.0507 22.4267 38.2623 24.2223L23.4915 39.1101L8.72081 24.2223C7.3925 22.8851 6.48817 21.1857 6.12102 19.3369C5.75387 17.4882 5.94021 15.5722 6.65671 13.8288C7.37322 12.0855 8.58806 10.5922 10.1491 9.53592C11.7102 8.47966 13.5482 7.90735 15.433 7.89062C17.9533 7.90592 20.3656 8.91572 22.1452 10.7004C22.6642 11.214 23.1166 11.7909 23.4915 12.4175C23.8665 11.7909 24.3188 11.214 24.8379 10.7004C25.7147 9.81073 26.7597 9.10427 27.912 8.62207C29.0643 8.13987 30.3009 7.89155 31.5501 7.89155C32.7992 7.89155 34.0359 8.13987 35.1882 8.62207C36.3405 9.10427 37.3854 9.81073 38.2623 10.7004V10.7004Z" stroke="white" fill="currentColor" stroke-width="2" stroke-linecap="round" stroke-linejoin="round"/>
</svg>
