<svg width="12" height="18" viewBox="0 0 12 18" fill="none" xmlns="http://www.w3.org/2000/svg">
<path fill-rule="evenodd" clip-rule="evenodd" d="M6.03437 0.250836C6.20013 0.250836 6.3591 0.316684 6.47631 0.433894C6.59352 0.551104 6.65937 0.710076 6.65937 0.875836L6.65937 15.6171L10.5919 11.6833C10.65 11.6252 10.719 11.5791 10.7949 11.5477C10.8708 11.5162 10.9522 11.5 11.0344 11.5C11.1165 11.5 11.1979 11.5162 11.2738 11.5477C11.3498 11.5791 11.4188 11.6252 11.4769 11.6833C11.535 11.7414 11.5811 11.8104 11.6125 11.8864C11.644 11.9623 11.6602 12.0437 11.6602 12.1258C11.6602 12.208 11.644 12.2894 11.6125 12.3653C11.5811 12.4412 11.535 12.5102 11.4769 12.5683L6.47687 17.5683C6.41881 17.6265 6.34984 17.6727 6.27391 17.7042C6.19798 17.7357 6.11658 17.752 6.03437 17.752C5.95216 17.752 5.87076 17.7357 5.79483 17.7042C5.71889 17.6727 5.64992 17.6265 5.59187 17.5683L0.591867 12.5683C0.533757 12.5102 0.487662 12.4412 0.456213 12.3653C0.424764 12.2894 0.408578 12.208 0.408578 12.1258C0.408578 12.0437 0.424764 11.9623 0.456213 11.8864C0.487662 11.8104 0.533757 11.7414 0.591867 11.6833C0.649977 11.6252 0.718963 11.5791 0.794888 11.5477C0.870812 11.5162 0.952187 11.5 1.03437 11.5C1.11655 11.5 1.19792 11.5162 1.27385 11.5477C1.34977 11.5791 1.41876 11.6252 1.47687 11.6833L5.40937 15.6171L5.40937 0.875836C5.40937 0.710076 5.47521 0.551104 5.59242 0.433894C5.70964 0.316684 5.86861 0.250836 6.03437 0.250836Z" fill="#2C2C31"/>
</svg>
