<svg width="65" height="41" viewBox="0 0 65 41" fill="none" xmlns="http://www.w3.org/2000/svg">
<g clip-path="url(#clip0_1366_23290)">
<path d="M24.2373 4.77734H41.5248V36.2333H24.2373V4.77734Z" fill="#FF5F00"/>
<path d="M25.3353 20.5073C25.3353 14.1162 28.2988 8.44734 32.8538 4.77924C29.5063 2.11165 25.2806 0.5 20.6706 0.5C9.74883 0.5 0.913086 9.44759 0.913086 20.5073C0.913086 31.5668 9.74883 40.5147 20.6703 40.5147C25.2803 40.5147 29.5061 38.903 32.8538 36.2352C28.2988 32.6228 25.3353 26.8985 25.3353 20.5073Z" fill="#FF0000"/>
<path d="M64.8499 20.5073C64.8499 31.5668 56.0142 40.5147 45.0927 40.5147C40.4827 40.5147 36.2569 38.903 32.9092 36.2352C37.5192 32.5673 40.4279 26.8985 40.4279 20.5073C40.4279 14.1162 37.4642 8.44734 32.9092 4.77924C36.2567 2.11165 40.4827 0.5 45.0927 0.5C56.0142 0.5 64.8502 9.50329 64.8502 20.5073H64.8499Z" fill="#FCB040"/>
</g>
<defs>
<clipPath id="clip0_1366_23290">
<rect width="64" height="40" fill="white" transform="translate(0.914062 0.5)"/>
</clipPath>
</defs>
</svg>
