<svg width="83" height="25" viewBox="0 0 83 25" fill="none" xmlns="http://www.w3.org/2000/svg">
<path fill-rule="evenodd" clip-rule="evenodd" d="M8.0317 0.504095C8.76887 0.499393 10.9597 0.288993 11.8877 3.62862C12.5128 5.87823 13.5086 9.5632 14.875 14.6835H15.4314C16.8968 9.28531 17.9034 5.60035 18.4513 3.62862C19.389 0.254205 21.7331 0.504162 22.6708 0.504162L29.905 0.504171V24.4999H22.5317V10.3588H22.0372L17.927 24.4999H12.3794L8.26916 10.3484H7.77473V24.4999H0.401367V0.504171L8.0317 0.504095ZM40.493 0.504171V14.6558H41.0812L46.081 3.01902C47.0516 0.703263 49.1201 0.504171 49.1201 0.504171H56.2553V24.5H48.728V10.3484H48.1398L43.238 21.9852C42.2675 24.2904 40.1009 24.5 40.1009 24.5H32.9657V0.504171H40.493ZM82.2732 11.9071C81.2232 15.0798 77.9258 17.352 74.2752 17.352H66.3813V24.5H59.2232V11.9071H82.2732Z" fill="#0F582D"/>
<path fill-rule="evenodd" clip-rule="evenodd" d="M74.6193 0.503906H58.8467C59.2221 5.84619 63.5366 10.4195 68.0031 10.4195H82.7694C83.6215 5.97947 80.6881 0.503906 74.6193 0.503906Z" fill="#0084CF"/>
</svg>
