<svg width="18" height="18" viewBox="0 0 18 18" fill="none" xmlns="http://www.w3.org/2000/svg">
<path d="M12.3302 8.95312H5.26355M16.2969 8.95312C16.2969 10.4365 15.857 11.8865 15.0329 13.1199C14.2088 14.3533 13.0374 15.3146 11.667 15.8822C10.2966 16.4499 8.78856 16.5984 7.3337 16.309C5.87884 16.0196 4.54247 15.3053 3.49358 14.2564C2.44468 13.2075 1.73038 11.8712 1.44099 10.4163C1.1516 8.96144 1.30012 7.45344 1.86778 6.083C2.43544 4.71255 3.39673 3.54121 4.6301 2.7171C5.86347 1.89299 7.31352 1.45313 8.79688 1.45312C10.786 1.45313 12.6937 2.2433 14.1002 3.64982C15.5067 5.05635 16.2969 6.964 16.2969 8.95312V8.95312Z" stroke="#FF0000" stroke-width="1.66667" stroke-linecap="round" stroke-linejoin="round"/>
</svg>
