<svg width="20" height="20" viewBox="0 0 20 20" fill="none" xmlns="http://www.w3.org/2000/svg">
<path fill-rule="evenodd" clip-rule="evenodd" d="M9.99921 1.25084C10.165 1.25084 10.3239 1.31668 10.4412 1.43389C10.5584 1.5511 10.6242 1.71008 10.6242 1.87584L10.6242 16.6171L14.5567 12.6833C14.6148 12.6252 14.6838 12.5791 14.7597 12.5477C14.8357 12.5162 14.917 12.5 14.9992 12.5C15.0814 12.5 15.1628 12.5162 15.2387 12.5477C15.3146 12.5791 15.3836 12.6252 15.4417 12.6833C15.4998 12.7414 15.5459 12.8104 15.5774 12.8864C15.6088 12.9623 15.625 13.0437 15.625 13.1258C15.625 13.208 15.6088 13.2894 15.5774 13.3653C15.5459 13.4412 15.4998 13.5102 15.4417 13.5683L10.4417 18.5683C10.3837 18.6265 10.3147 18.6727 10.2388 18.7042C10.1628 18.7357 10.0814 18.752 9.99921 18.752C9.917 18.752 9.8356 18.7357 9.75967 18.7042C9.68374 18.6727 9.61477 18.6265 9.55671 18.5683L4.55671 13.5683C4.4986 13.5102 4.45251 13.4412 4.42106 13.3653C4.38961 13.2894 4.37342 13.208 4.37342 13.1258C4.37342 13.0437 4.38961 12.9623 4.42106 12.8864C4.45251 12.8104 4.4986 12.7414 4.55671 12.6833C4.61482 12.6252 4.68381 12.5791 4.75973 12.5477C4.83566 12.5162 4.91703 12.5 4.99921 12.5C5.08139 12.5 5.16277 12.5162 5.23869 12.5477C5.31461 12.5791 5.3836 12.6252 5.44171 12.6833L9.37421 16.6171L9.37421 1.87584C9.37421 1.71008 9.44006 1.5511 9.55727 1.43389C9.67448 1.31668 9.83345 1.25084 9.99921 1.25084Z" fill="#2C2C31"/>
</svg>
