<svg width="15" height="15" viewBox="0 0 15 15" fill="none" xmlns="http://www.w3.org/2000/svg">
<g clip-path="url(#clip0_1250_18237)">
<rect x="0.140625" y="0.765625" width="13.8999" height="13.8999" rx="1.15833" fill="#D93025"/>
<g clip-path="url(#clip1_1250_18237)">
<rect width="14.5949" height="12.1624" transform="translate(-0.148438 2.50195)" fill="white"/>
<path d="M0.235231 14.9678C0.0941077 14.9678 -0.0412356 14.9117 -0.141025 14.812C-0.240814 14.7122 -0.296875 14.5768 -0.296875 14.4357V2.72937C-0.296875 2.58825 -0.240814 2.45291 -0.141025 2.35312C-0.0412356 2.25333 0.0941077 2.19727 0.235231 2.19727H7.15261H14.07C14.2111 2.19727 14.3465 2.25333 14.4462 2.35312C14.546 2.45291 14.6021 2.58825 14.6021 2.72937V14.4357C14.6021 14.5768 14.546 14.7122 14.4462 14.812C14.3465 14.9117 14.2111 14.9678 14.07 14.9678H0.235231ZM5.4818 11.1686L4.33564 10.0224C4.23586 9.92266 4.10054 9.86662 3.95944 9.86662C3.81835 9.86662 3.68303 9.92266 3.58324 10.0224L0.767337 12.8404H13.7156L9.68969 8.00893C9.63976 7.94886 9.57721 7.90052 9.50649 7.86734C9.43577 7.83417 9.35861 7.81697 9.2805 7.81697C9.20239 7.81697 9.12523 7.83417 9.05451 7.86734C8.98379 7.90052 8.92124 7.94886 8.87131 8.00893L6.26718 11.1335C6.21981 11.1903 6.16111 11.2366 6.09483 11.2695C6.02855 11.3023 5.95615 11.321 5.88224 11.3243C5.80833 11.3276 5.73455 11.3155 5.6656 11.2887C5.59665 11.2618 5.53405 11.2209 5.4818 11.1686Z" fill="#D93025"/>
</g>
</g>
<defs>
<clipPath id="clip0_1250_18237">
<rect x="0.140625" y="0.765625" width="13.8999" height="13.8999" rx="1.15833" fill="white"/>
</clipPath>
<clipPath id="clip1_1250_18237">
<rect width="14.5949" height="12.1624" fill="white" transform="translate(-0.148438 2.50195)"/>
</clipPath>
</defs>
</svg>
