<svg width="25" height="25" viewBox="0 0 25 25" fill="none" xmlns="http://www.w3.org/2000/svg">
  <path d="M2.01071 10.9498L10.7449 10.9498L10.7449 2.26091C10.7387 2.0628 10.7726 1.86549 10.8445 1.6808C10.9165 1.49611 11.025 1.32785 11.1635 1.18611C11.4636 0.886048 11.8705 0.717478 12.2949 0.717478C12.7192 0.717478 13.1262 0.886048 13.4262 1.18611C13.5676 1.32218 13.6796 1.4857 13.7555 1.66663C13.8314 1.84756 13.8695 2.04209 13.8675 2.23828L13.8109 10.9838L22.613 10.9838C22.9819 10.9797 23.3382 11.1174 23.6086 11.3684C23.9086 11.6685 24.0772 12.0755 24.0772 12.4998C24.0772 12.9242 23.9086 13.3311 23.6086 13.6312C23.4704 13.7814 23.3025 13.9011 23.1155 13.9829C22.9285 14.0648 22.7266 14.1068 22.5225 14.1064L13.8449 14.0498L13.8449 22.7613C13.848 22.9557 13.8126 23.1487 13.7408 23.3293C13.6689 23.5099 13.562 23.6745 13.4262 23.8135C13.1262 24.1136 12.7192 24.2822 12.2949 24.2822C11.8705 24.2822 11.4636 24.1136 11.1635 23.8135C11.0222 23.6775 10.9101 23.5139 10.8342 23.333C10.7584 23.1521 10.7203 22.9575 10.7223 22.7613L10.7788 14.0159L1.97677 14.0159C1.60788 14.0199 1.25151 13.8822 0.981164 13.6312C0.681106 13.3311 0.512535 12.9242 0.512535 12.4998C0.512535 12.0755 0.681106 11.6685 0.981164 11.3684C1.25609 11.1003 1.62605 10.9498 2.01071 10.9498Z" fill="currentColor"/>
</svg>
  
