<svg width="15" height="14" viewBox="0 0 15 14" fill="none" xmlns="http://www.w3.org/2000/svg">
<path d="M2.83438 14V12.34H0.834375V10.74H2.83438V9.48H0.834375V6.56H2.83438V-9.53674e-07H9.43438C10.1944 -9.53674e-07 10.881 0.113333 11.4944 0.339999C12.121 0.566666 12.6544 0.893333 13.0944 1.32C13.5477 1.73333 13.8944 2.24 14.1344 2.84C14.3744 3.42667 14.4944 4.08 14.4944 4.8C14.4944 5.50667 14.3677 6.14667 14.1144 6.72C13.861 7.29333 13.501 7.78667 13.0344 8.2C12.581 8.61333 12.0277 8.93333 11.3744 9.16C10.721 9.37333 9.99438 9.48 9.19438 9.48H6.53438V10.74H10.3944V12.34H6.53438V14H2.83438ZM6.53438 6.56H8.61438C9.06771 6.56 9.44771 6.49333 9.75438 6.36C10.0744 6.22667 10.3144 6.02667 10.4744 5.76C10.6344 5.49333 10.7144 5.17333 10.7144 4.8C10.7144 4.4 10.6344 4.06 10.4744 3.78C10.3144 3.5 10.0744 3.28667 9.75438 3.14C9.44771 2.99333 9.06771 2.92 8.61438 2.92H6.53438V6.56Z" fill="#0F582D"/>
</svg>
