<svg width="24" height="25" viewBox="0 0 24 25" fill="none" xmlns="http://www.w3.org/2000/svg">
<path d="M12.0492 17.0039H11.9492" stroke="currentColor" stroke-width="3" stroke-linecap="round" stroke-linejoin="round"/>
<path d="M9 3.50391H15M12 12.5039V10.5039V12.5039ZM17.3 8.70391L18.8 7.20391L17.3 8.70391ZM6.7 8.70391L5.2 7.20391L6.7 8.70391ZM4.5 14.0039C4.5 15.4873 4.93987 16.9373 5.76398 18.1707C6.58809 19.4041 7.75943 20.3653 9.12987 20.933C10.5003 21.5007 12.0083 21.6492 13.4632 21.3598C14.918 21.0704 16.2544 20.3561 17.3033 19.3072C18.3522 18.2583 19.0665 16.9219 19.3559 15.4671C19.6453 14.0122 19.4968 12.5042 18.9291 11.1338C18.3614 9.76333 17.4001 8.59199 16.1668 7.76788C14.9334 6.94377 13.4834 6.50391 12 6.50391C10.0109 6.50391 8.10322 7.29408 6.6967 8.70061C5.29018 10.1071 4.5 12.0148 4.5 14.0039V14.0039ZM12 6.50391V3.50391V6.50391Z" stroke="currentColor" stroke-width="2" stroke-linecap="round" stroke-linejoin="round"/>
</svg>
