<svg width="28" height="31" viewBox="0 0 28 31" fill="none" xmlns="http://www.w3.org/2000/svg">
<path d="M2.29688 8.10005H26.2969H2.29688ZM20.2969 8.10005V3.66014C20.2969 3.26763 20.1388 2.8912 19.8575 2.61365C19.5762 2.3361 19.1947 2.18018 18.7969 2.18018H9.79688C9.39905 2.18018 9.01752 2.3361 8.73622 2.61365C8.45491 2.8912 8.29687 3.26763 8.29688 3.66014V8.10005H20.2969ZM23.2969 27.3396V8.10005H5.29688V27.3396C5.29688 27.7322 5.45491 28.1086 5.73622 28.3861C6.01752 28.6637 6.39905 28.8196 6.79688 28.8196H21.7969C22.1947 28.8196 22.5762 28.6637 22.8575 28.3861C23.1388 28.1086 23.2969 27.7322 23.2969 27.3396Z" stroke="currentColor" stroke-width="3" stroke-linecap="round" stroke-linejoin="round"/>
</svg>
