<svg width="75" height="25" viewBox="0 0 75 25" fill="none" xmlns="http://www.w3.org/2000/svg">
<path d="M39.1721 8.14213C39.1299 11.4721 42.1398 13.3302 44.407 14.435C46.7365 15.5685 47.5189 16.2955 47.5097 17.3093C47.4923 18.8606 45.6516 19.5453 43.9291 19.5719C40.9239 19.6185 39.1765 18.7605 37.7874 18.1117L36.7048 23.1774C38.0985 23.8196 40.6792 24.3797 43.3554 24.4043C49.6373 24.4043 53.7471 21.3034 53.7693 16.4956C53.7939 10.3938 45.3294 10.0561 45.3873 7.32873C45.4072 6.50175 46.1963 5.61924 47.9255 5.39485C48.7814 5.28151 51.1441 5.19476 53.8228 6.4283L54.8742 1.5271C53.4336 1.00257 51.5822 0.500301 49.277 0.500301C43.3643 0.500301 39.2057 3.64343 39.1721 8.14213ZM64.9768 0.922468C63.8297 0.922468 62.863 1.59158 62.4316 2.61837L53.4582 24.0443H59.7355L60.9847 20.5921H68.6554L69.38 24.0443H74.9128L70.0847 0.922468H64.9768ZM65.8549 7.16854L67.6665 15.851H62.7051L65.8549 7.16854ZM31.5612 0.922758L26.6132 24.044H32.595L37.5407 0.92218H31.5612M22.7122 0.92218L16.4861 16.6601L13.9675 3.27881C13.672 1.78502 12.505 0.922468 11.209 0.922468H1.03123L0.888672 1.59389C2.97812 2.04729 5.35209 2.77856 6.79036 3.56102C7.67055 4.039 7.92154 4.45683 8.2107 5.59264L12.9809 24.0443H19.3022L28.9935 0.922468H22.7122" fill="url(#paint0_linear_1366_23284)"/>
<defs>
<linearGradient id="paint0_linear_1366_23284" x1="34.9205" y1="24.8838" x2="35.6124" y2="0.334056" gradientUnits="userSpaceOnUse">
<stop stop-color="#222357"/>
<stop offset="1" stop-color="#254AA5"/>
</linearGradient>
</defs>
</svg>
