<svg width="515" height="201" viewBox="0 0 515 201" fill="none" xmlns="http://www.w3.org/2000/svg"><path d="M128.002 198.291H97.757v-37.645H0v-23.563L96.137.708h1.62v46.73h30.245v88.02h27.815v25.188h-27.815v37.645zm-30.245-62.833v-88.02l-65.621 88.02h65.62zM257.053 201c-9.722 0-18.723-1.445-27.005-4.334-8.281-2.889-15.663-7.041-22.144-12.458-6.481-5.597-11.972-12.278-16.473-20.042-4.5-7.944-7.921-16.972-10.261-27.083-2.341-10.292-3.511-21.486-3.511-33.583 0-12.098 1.17-23.202 3.511-33.313 2.34-10.11 5.761-19.139 10.261-27.083 4.501-7.945 9.992-14.625 16.473-20.042 6.481-5.597 13.863-9.84 22.144-12.729C238.33 7.444 247.331 6 257.053 6c10.081 0 19.263 1.444 27.545 4.333 8.281 2.889 15.662 7.132 22.143 12.73 6.481 5.416 11.972 12.096 16.473 20.04 4.501 7.945 7.922 16.973 10.262 27.084 2.34 10.111 3.511 21.215 3.511 33.313 0 12.097-1.171 23.291-3.511 33.583-2.34 10.111-5.761 19.139-10.262 27.083-4.501 7.764-9.992 14.445-16.473 20.042-6.481 5.417-13.862 9.569-22.143 12.458-8.282 2.889-17.464 4.334-27.545 4.334zm0-26c5.941 0 11.342-.993 16.203-2.979 5.04-1.987 9.451-4.966 13.232-8.938 3.961-4.153 7.201-9.118 9.722-14.896 2.52-5.778 4.41-12.368 5.67-19.771 1.441-7.583 2.161-15.889 2.161-24.916 0-9.028-.72-17.243-2.161-24.646-1.26-7.584-3.15-14.264-5.67-20.042-2.521-5.778-5.761-10.653-9.722-14.625-3.781-3.972-8.192-6.951-13.232-8.937-4.861-1.986-10.262-2.98-16.203-2.98-5.761 0-11.072.994-15.933 2.98-4.861 1.986-9.272 4.965-13.232 8.937-3.781 3.972-7.021 8.847-9.722 14.625-2.52 5.778-4.501 12.459-5.941 20.042-1.26 7.403-1.89 15.618-1.89 24.646 0 9.027.63 17.333 1.89 24.916 1.44 7.403 3.421 13.993 5.941 19.771 2.701 5.778 5.941 10.743 9.722 14.896 3.96 3.972 8.371 6.951 13.232 8.938 4.861 1.986 10.172 2.979 15.933 2.979zm230.132 23.291H456.94v-37.645h-97.757v-23.563L455.32 8.708h1.62v38.73h30.245v88.02H515v25.188h-27.815v37.645zm-30.245-62.833v-88.02l-65.621 88.02h65.621z" fill="#fff"/></svg>