<svg width="79" height="78" viewBox="0 0 79 78" fill="none" xmlns="http://www.w3.org/2000/svg"><rect x="16.146" width="64" height="63.996" rx="12.441" transform="rotate(13.933 16.146 0)" fill="#749E85"/><g clip-path="url(#clip0_5181_38388)" stroke="#FCB040" stroke-width="3.122" stroke-linecap="round" stroke-linejoin="round"><path d="M20.59 50.153l26.473-15.95m0 0l3.03.753a6.244 6.244 0 007.564-4.557l.752-3.03-3.03-.752a6.244 6.244 0 00-7.564 4.557l-.752 3.03zm-20.686 2.154l2.893-1.742 1.743 2.893a5.463 5.463 0 01-1.857 7.484l-2.893 1.743-1.743-2.893a5.463 5.463 0 011.857-7.484zm7.564-4.556l2.893-1.743 1.743 2.893a5.463 5.463 0 01-1.857 7.484l-2.893 1.743-1.743-2.893a5.464 5.464 0 011.857-7.484zm7.563-4.557l2.894-1.743 1.742 2.893a5.463 5.463 0 01-1.856 7.485L41.39 37.62l-1.743-2.893a5.463 5.463 0 011.856-7.484zM36.641 46.85l1.743 2.893-2.893 1.743a5.463 5.463 0 01-7.484-1.857l-1.743-2.893 2.893-1.743a5.463 5.463 0 017.484 1.857zm7.564-4.557l1.743 2.893-2.893 1.743a5.464 5.464 0 01-7.484-1.857l-1.743-2.893 2.893-1.743a5.463 5.463 0 017.484 1.857zm7.564-4.557l1.743 2.893-2.894 1.743a5.463 5.463 0 01-7.484-1.856l-1.743-2.893 2.893-1.743a5.463 5.463 0 017.485 1.856z"/></g><rect x="6.444" y="10.707" width="64" height="63.996" rx="12.441" fill="#0F582D"/><path d="M48.779 33.98a6.751 6.751 0 010 9.529L38.37 54 27.961 43.509A6.75 6.75 0 0132.691 32a6.738 6.738 0 014.73 1.98c.366.362.685.769.95 1.21a6.13 6.13 0 01.948-1.21 6.642 6.642 0 019.46 0z" fill="#ECF4ED"/><defs><clipPath id="clip0_5181_38388"><path fill="#fff" transform="rotate(13.933 -52.845 113.733)" d="M0 0h37.463v37.463H0z"/></clipPath></defs></svg>