<svg width="308" height="100" viewBox="0 0 308 100" fill="none" xmlns="http://www.w3.org/2000/svg">
<path d="M83.4876 89.0832C83.4876 88.3152 83.5776 87.6012 83.7576 86.9412C83.9376 86.2692 84.1956 85.6692 84.5316 85.1412C84.8796 84.6012 85.2936 84.1452 85.7736 83.7732C86.2656 83.3892 86.8176 83.0952 87.4296 82.8912C88.0416 82.6872 88.7076 82.5852 89.4276 82.5852C90.4596 82.5852 91.3536 82.7532 92.1096 83.0892C92.8656 83.4252 93.4836 83.9112 93.9636 84.5472C94.4436 85.1832 94.7916 85.9572 95.0076 86.8692L93.2256 87.2112C93.0816 86.5512 92.8476 85.9872 92.5236 85.5192C92.2116 85.0392 91.7976 84.6732 91.2816 84.4212C90.7776 84.1692 90.1596 84.0432 89.4276 84.0432C88.9116 84.0432 88.4316 84.1212 87.9876 84.2772C87.5556 84.4212 87.1716 84.6372 86.8356 84.9252C86.4996 85.2132 86.2176 85.5672 85.9896 85.9872C85.7616 86.3952 85.5876 86.8632 85.4676 87.3912C85.3476 87.9072 85.2876 88.4712 85.2876 89.0832C85.2876 89.6952 85.3476 90.2652 85.4676 90.7932C85.5876 91.3092 85.7616 91.7712 85.9896 92.1792C86.2176 92.5872 86.4996 92.9352 86.8356 93.2232C87.1716 93.5112 87.5556 93.7332 87.9876 93.8892C88.4196 94.0332 88.8996 94.1052 89.4276 94.1052C90.1596 94.1052 90.7896 93.9792 91.3176 93.7272C91.8576 93.4632 92.2896 93.0852 92.6136 92.5932C92.9496 92.1012 93.1716 91.5072 93.2796 90.8112L95.0256 91.1532C94.8696 92.0892 94.5456 92.8872 94.0536 93.5472C93.5616 94.1952 92.9256 94.6932 92.1456 95.0412C91.3656 95.3772 90.4596 95.5452 89.4276 95.5452C88.8036 95.5452 88.2216 95.4792 87.6816 95.3472C87.1416 95.2032 86.6496 94.9992 86.2056 94.7352C85.7616 94.4592 85.3716 94.1352 85.0356 93.7632C84.6996 93.3792 84.4176 92.9472 84.1896 92.4672C83.9616 91.9872 83.7876 91.4652 83.6676 90.9012C83.5476 90.3252 83.4876 89.7192 83.4876 89.0832ZM102.071 95.3652V82.7652H103.835V88.1112H111.035V82.7652H112.799V95.3652H111.035V89.5692H103.835V95.3652H102.071ZM125.351 95.3652L124.019 91.9812H118.205L116.873 95.3652H115.145L120.257 82.7652H122.039L127.151 95.3652H125.351ZM123.443 90.5232L121.121 84.6372L118.781 90.5232H123.443ZM129.493 95.3652V82.7652H131.473L136.063 91.3152L140.635 82.7652H142.579V95.3652H140.995V85.1952L136.819 92.9532H135.289L131.077 85.1952V95.3652H129.493ZM148.271 95.3652H146.597V82.7652H148.271V92.8272L155.561 82.7652H157.235V95.3652H155.561V85.3212L148.271 95.3652ZM163.694 94.0152C164.018 93.9792 164.318 93.9072 164.594 93.7992C164.87 93.6792 165.104 93.4872 165.296 93.2232C165.428 93.0552 165.542 92.8332 165.638 92.5572C165.734 92.2812 165.812 91.9392 165.872 91.5312C165.932 91.1112 165.98 90.6012 166.016 90.0012C166.064 89.3892 166.1 88.6752 166.124 87.8592C166.148 87.0312 166.172 86.0772 166.196 84.9972L166.232 82.7652H175.286V95.3652H173.54V84.2232H167.906L167.888 85.2132C167.864 86.4492 167.828 87.5292 167.78 88.4532C167.744 89.3652 167.69 90.1512 167.618 90.8112C167.558 91.4712 167.474 92.0292 167.366 92.4852C167.27 92.9412 167.15 93.3252 167.006 93.6372C166.862 93.9372 166.694 94.2012 166.502 94.4292C166.298 94.6692 166.064 94.8672 165.8 95.0232C165.548 95.1792 165.26 95.2932 164.936 95.3652C164.624 95.4372 164.264 95.4912 163.856 95.5272L163.694 94.0152ZM179.292 95.3652V82.7652H187.77V84.2232H181.056V88.1832H186.996V89.6412H181.056V93.9072H187.86V95.3652H179.292ZM190.665 95.3652V82.7652H198.981V84.2232H192.429V95.3652H190.665ZM201.423 95.3652V82.7652H203.151V88.7952L209.397 82.7652H211.467L205.113 88.7772L211.755 95.3652H209.559L203.151 89.0832V95.3652H201.423ZM218.576 95.5452C217.82 95.5452 217.124 95.4432 216.488 95.2392C215.864 95.0352 215.306 94.7472 214.814 94.3752C214.334 94.0032 213.926 93.5532 213.59 93.0252C213.254 92.4852 212.996 91.8852 212.816 91.2252C212.648 90.5652 212.564 89.8512 212.564 89.0832C212.564 88.3152 212.648 87.6012 212.816 86.9412C212.996 86.2692 213.254 85.6692 213.59 85.1412C213.926 84.6012 214.334 84.1452 214.814 83.7732C215.306 83.3892 215.864 83.0952 216.488 82.8912C217.124 82.6872 217.82 82.5852 218.576 82.5852C219.344 82.5852 220.04 82.6872 220.664 82.8912C221.3 83.0952 221.858 83.3892 222.338 83.7732C222.83 84.1452 223.244 84.6012 223.58 85.1412C223.916 85.6692 224.168 86.2632 224.336 86.9232C224.516 87.5832 224.606 88.2972 224.606 89.0652C224.606 89.8332 224.516 90.5472 224.336 91.2072C224.168 91.8672 223.916 92.4672 223.58 93.0072C223.244 93.5352 222.83 93.9912 222.338 94.3752C221.858 94.7472 221.3 95.0352 220.664 95.2392C220.04 95.4432 219.344 95.5452 218.576 95.5452ZM218.576 94.0872C219.14 94.0872 219.644 94.0092 220.088 93.8532C220.544 93.6972 220.94 93.4752 221.276 93.1872C221.612 92.8992 221.894 92.5512 222.122 92.1432C222.35 91.7352 222.518 91.2732 222.626 90.7572C222.746 90.2412 222.806 89.6772 222.806 89.0652C222.806 88.4652 222.746 87.9072 222.626 87.3912C222.518 86.8752 222.35 86.4132 222.122 86.0052C221.894 85.5852 221.612 85.2312 221.276 84.9432C220.94 84.6552 220.544 84.4332 220.088 84.2772C219.644 84.1212 219.14 84.0432 218.576 84.0432C218.024 84.0432 217.52 84.1212 217.064 84.2772C216.62 84.4332 216.23 84.6552 215.894 84.9432C215.558 85.2312 215.276 85.5852 215.048 86.0052C214.82 86.4132 214.646 86.8752 214.526 87.3912C214.418 87.9072 214.364 88.4712 214.364 89.0832C214.364 89.6952 214.418 90.2592 214.526 90.7752C214.646 91.2792 214.82 91.7412 215.048 92.1612C215.276 92.5692 215.558 92.9172 215.894 93.2052C216.23 93.4932 216.62 93.7152 217.064 93.8712C217.52 94.0152 218.024 94.0872 218.576 94.0872Z" fill="white"/>
<path d="M0.860352 13.8838L17.9719 24.6898C24.3968 28.7472 28.2927 35.8153 28.2927 43.414V52.1833L11.6781 42.293C4.97033 38.3 0.860352 31.0703 0.860352 23.2641V13.8838Z" fill="white"/>
<path d="M51.7578 0.000976562L35.445 10.7487C30.9819 13.6892 28.2956 18.6761 28.2956 24.0208V33.7558L44.2257 23.9009C48.9081 21.0042 51.7578 15.8904 51.7578 10.3844V0.000976562Z" fill="white"/>
<path d="M13.0763 60.9427L13.043 50.5174L15.711 52.2586C19.0335 54.427 19.3512 57.8207 19.1928 62.1834V63.5119C19.6159 63.2902 18.7696 63.7335 19.1928 63.5119L28.4928 58.6584C32.3243 56.6513 34.7137 52.7588 34.7137 48.5243V44.9103C34.7137 40.8685 37.4457 37.0735 41.3833 35.7881V60.9097C41.3844 63.6749 36.2609 69.4355 32.1775 73.5588C29.6969 76.0635 26.2794 77.3656 22.7542 77.3656H13.0448L13.0448 73.626C13.0448 73.3441 13.0554 73.0638 13.0763 72.7854L13.0763 60.9427Z" fill="white"/>
<path d="M89.4133 47.3381C89.4133 48.7917 89.1058 50.0637 88.4908 51.1539C87.9038 52.2442 87.0512 53.1667 85.933 53.9215C84.8148 54.6483 83.4729 55.1934 81.9075 55.5568C80.342 55.9202 78.5948 56.1019 76.6659 56.1019C74.2339 56.1019 72.0813 55.7665 70.2084 55.0956C68.3633 54.3967 66.8817 53.3344 65.7635 51.9087C64.6453 50.4551 63.9604 48.61 63.7088 46.3736L71.3825 44.906C71.4663 46.0801 71.69 47.0585 72.0534 47.8413C72.4168 48.5961 72.9619 49.1691 73.6887 49.5605C74.4435 49.9239 75.4219 50.1056 76.624 50.1056C77.4067 50.1056 78.0916 50.0357 78.6787 49.896C79.2657 49.7562 79.7549 49.5605 80.1463 49.3089C80.5377 49.0573 80.8172 48.7358 80.985 48.3445C81.1806 47.9531 81.2785 47.5198 81.2785 47.0446C81.2785 46.3457 81.0968 45.7726 80.7334 45.3253C80.3979 44.8501 79.8947 44.5007 79.2238 44.277C78.5529 44.0534 77.7003 43.9416 76.6659 43.9416H73.4791V38.0291H76.6659C77.3928 38.0291 78.0357 37.9592 78.5948 37.8195C79.1539 37.6797 79.6152 37.484 79.9786 37.2324C80.3699 36.9529 80.6495 36.6174 80.8172 36.226C81.0129 35.8067 81.1108 35.3315 81.1108 34.8003C81.1108 34.353 81.0129 33.9477 80.8172 33.5843C80.6495 33.2209 80.3699 32.8994 79.9786 32.6198C79.6152 32.3403 79.1539 32.1306 78.5948 31.9909C78.0637 31.8511 77.4487 31.7812 76.7498 31.7812C75.6596 31.7812 74.751 31.9489 74.0242 32.2844C73.2974 32.6198 72.7103 33.137 72.263 33.8359C71.8437 34.5068 71.5642 35.3874 71.4244 36.4776L64.1701 34.9681C64.5615 32.9833 65.2603 31.3199 66.2667 29.9781C67.301 28.6363 68.6848 27.6299 70.418 26.959C72.1512 26.2601 74.2478 25.9107 76.7079 25.9107C78.6088 25.9107 80.314 26.0924 81.8236 26.4558C83.3332 26.7913 84.6191 27.3084 85.6814 28.0073C86.7716 28.7062 87.5963 29.5728 88.1554 30.6071C88.7145 31.6414 88.994 32.8435 88.994 34.2133C88.994 35.2197 88.7844 36.1422 88.365 36.9808C87.9737 37.7915 87.3726 38.5043 86.562 39.1194C85.8351 39.6785 84.9825 40.1537 84.0041 40.5451C84.2557 40.6289 84.5212 40.7128 84.8008 40.7966C86.3104 41.3837 87.4565 42.2223 88.2392 43.3126C89.022 44.4028 89.4133 45.7447 89.4133 47.3381ZM94.2195 55.6826V26.33H115.437V32.6198H101.977V37.7356H113.299V43.8577H101.977V49.3928H115.899V55.6826H94.2195ZM121.123 55.6826V26.33H134.961C136.554 26.33 137.994 26.5816 139.28 27.0848C140.594 27.56 141.712 28.2589 142.635 29.1814C143.585 30.1039 144.312 31.2081 144.815 32.494C145.318 33.78 145.57 35.2196 145.57 36.8131C145.57 38.8538 145.109 40.6429 144.186 42.1804C143.264 43.7179 141.964 44.92 140.286 45.7866C138.637 46.6252 136.694 47.0446 134.458 47.0446H128.881V55.6826H121.123ZM128.881 32.4521V40.9224H133.242C134.192 40.9224 134.989 40.7687 135.632 40.4612C136.303 40.1257 136.806 39.6505 137.141 39.0355C137.477 38.4205 137.645 37.6797 137.645 36.8131C137.645 35.8626 137.477 35.0659 137.141 34.4229C136.806 33.78 136.303 33.2908 135.632 32.9553C134.989 32.6198 134.192 32.4521 133.242 32.4521H128.881ZM150.198 55.6826V26.33H157.955V37.4421H169.612V26.33H177.37V55.6826H169.612V43.7319H157.955V55.6826H150.198ZM197.355 56.1019C195.566 56.1019 193.889 55.8783 192.323 55.431C190.786 54.9558 189.402 54.2849 188.172 53.4183C186.97 52.5237 185.936 51.4614 185.069 50.2314C184.203 49.0014 183.532 47.6176 183.056 46.0801C182.609 44.5146 182.385 42.8234 182.385 41.0063C182.385 39.1892 182.609 37.5119 183.056 35.9744C183.532 34.409 184.203 33.0112 185.069 31.7812C185.936 30.5232 186.97 29.4609 188.172 28.5943C189.402 27.7277 190.786 27.0708 192.323 26.6235C193.889 26.1483 195.566 25.9107 197.355 25.9107C199.172 25.9107 200.85 26.1483 202.387 26.6235C203.925 27.0708 205.294 27.7277 206.497 28.5943C207.727 29.4609 208.775 30.5232 209.641 31.7812C210.508 33.0112 211.165 34.409 211.612 35.9744C212.088 37.5119 212.325 39.1892 212.325 41.0063C212.325 42.8234 212.088 44.5146 211.612 46.0801C211.165 47.6176 210.508 49.0014 209.641 50.2314C208.775 51.4614 207.727 52.5237 206.497 53.4183C205.294 54.2849 203.925 54.9558 202.387 55.431C200.85 55.8783 199.172 56.1019 197.355 56.1019ZM197.355 49.8121C198.25 49.8121 199.061 49.6863 199.787 49.4347C200.542 49.1831 201.199 48.8197 201.758 48.3445C202.345 47.8692 202.82 47.2822 203.184 46.5833C203.575 45.8565 203.869 45.0318 204.064 44.1093C204.26 43.1868 204.358 42.1525 204.358 41.0063C204.358 39.8602 204.26 38.8258 204.064 37.9033C203.869 36.9808 203.575 36.1701 203.184 35.4712C202.82 34.7444 202.345 34.1434 201.758 33.6682C201.199 33.1929 200.542 32.8295 199.787 32.5779C199.061 32.3263 198.25 32.2005 197.355 32.2005C196.461 32.2005 195.636 32.3263 194.881 32.5779C194.154 32.8295 193.498 33.1929 192.91 33.6682C192.351 34.1434 191.876 34.7444 191.485 35.4712C191.121 36.1701 190.842 36.9808 190.646 37.9033C190.45 38.8258 190.353 39.8602 190.353 41.0063C190.353 42.1525 190.45 43.1868 190.646 44.1093C190.842 45.0318 191.121 45.8565 191.485 46.5833C191.876 47.2822 192.351 47.8692 192.91 48.3445C193.498 48.8197 194.154 49.1831 194.881 49.4347C195.636 49.6863 196.461 49.8121 197.355 49.8121ZM214.21 62.3918V49.3928H216.516C216.712 49.1971 216.893 48.9874 217.061 48.7638C217.508 48.1767 217.886 47.4359 218.193 46.5414C218.501 45.6468 218.752 44.5007 218.948 43.1029C219.144 41.6772 219.298 39.9161 219.409 37.8195C219.521 35.7228 219.605 33.165 219.661 30.1458L219.745 26.33H242.221V49.3928H245.156V62.3918H237.818V55.6826H221.548V62.3918H214.21ZM224.357 49.3928H234.673V32.6198H226.957C226.929 33.5424 226.915 34.395 226.915 35.1777C226.859 36.6873 226.789 38.0431 226.706 39.2452C226.65 40.4193 226.552 41.4955 226.412 42.4739C226.3 43.4244 226.133 44.319 225.909 45.1576C225.518 46.6113 225.042 47.9391 224.483 49.1412C224.427 49.225 224.385 49.3089 224.357 49.3928ZM269.743 55.6826L267.688 50.0637H256.282L254.228 55.6826H246.596L258.211 26.33H266.094L277.71 55.6826H269.743ZM265.507 44.0254L261.985 34.5068L258.505 44.0254H265.507ZM281.072 55.6826V26.33H294.91C296.503 26.33 297.943 26.5816 299.229 27.0848C300.543 27.56 301.661 28.2589 302.583 29.1814C303.534 30.1039 304.261 31.2081 304.764 32.494C305.267 33.78 305.519 35.2196 305.519 36.8131C305.519 38.8538 305.057 40.6429 304.135 42.1804C303.212 43.7179 301.913 44.92 300.235 45.7866C298.586 46.6252 296.643 47.0446 294.407 47.0446H288.83V55.6826H281.072ZM288.83 32.4521V40.9224H293.191C294.141 40.9224 294.938 40.7687 295.581 40.4612C296.252 40.1257 296.755 39.6505 297.09 39.0355C297.426 38.4205 297.594 37.6797 297.594 36.8131C297.594 35.8626 297.426 35.0659 297.09 34.4229C296.755 33.78 296.252 33.2908 295.581 32.9553C294.938 32.6198 294.141 32.4521 293.191 32.4521H288.83Z" fill="white"/>
</svg>
