<svg fill="none" height="64" viewBox="0 0 266 64" width="266" xmlns="http://www.w3.org/2000/svg"><g fill="#0a2540"><path d="M136.578 19.367h-8.748l-6.191 10.784h-3.187l-.101-23.338h-8.282v42.149h8.282l.101-11.568h3.167l8.22 11.568h9.175l-10.717-15.33zm62.681 13.883a22.077 22.077 0 00-5.42-2.515l-1.827-.684-.494-.184c-1.135-.422-2.327-.865-2.368-2.01a2.007 2.007 0 01.894-1.73 3.958 3.958 0 012.029-.684 6.618 6.618 0 014.425 1.308l.224.14 4.425-5.049-.224-.18a11.137 11.137 0 00-1.786-1.289 11.981 11.981 0 00-3.674-1.348 13.68 13.68 0 00-5.643 0 10.571 10.571 0 00-4.953 2.012 8.892 8.892 0 00-2.278 2.626 8.817 8.817 0 00-1.091 3.29A8.451 8.451 0 00183 32.866a12.202 12.202 0 006.089 3.621l.366.121.832.282c3.004 1.006 3.857 1.408 4.344 2.012.226.303.354.668.365 1.046 0 1.428-1.766 2.012-2.963 2.374a6.284 6.284 0 01-4.831-1.087 9.977 9.977 0 01-2.801-2.796c-.123.127-.53.53-1.062 1.057-1.493 1.479-3.971 3.933-3.911 3.993l.142.2a15.423 15.423 0 008.768 5.393 19.11 19.11 0 002.396.302h.832c2.734.056 5.413-.77 7.632-2.354a9.212 9.212 0 003.309-4.225 8.206 8.206 0 00-.731-6.961 8.506 8.506 0 00-2.517-2.596zm21.355-2.516a21.93 21.93 0 015.399 2.515 8.566 8.566 0 012.476 2.575 8.215 8.215 0 01.731 6.961 9.206 9.206 0 01-3.309 4.225 12.684 12.684 0 01-7.632 2.354h-.832a18.43 18.43 0 01-2.395-.302 15.426 15.426 0 01-8.769-5.391l-.162-.202c-.04-.052 1.917-1.999 3.397-3.47.777-.772 1.422-1.413 1.576-1.58a10.525 10.525 0 002.801 2.797 6.328 6.328 0 004.851 1.086c1.198-.362 2.943-.945 2.943-2.373a1.62 1.62 0 00-.345-1.047c-.487-.603-1.339-1.006-4.364-2.011l-.832-.282-.345-.12a12.2 12.2 0 01-6.09-3.622 8.34 8.34 0 01-1.502-5.915c.149-1.157.527-2.273 1.112-3.285s1.366-1.898 2.298-2.61a10.732 10.732 0 014.953-2.012 13.758 13.758 0 015.663 0c1.285.246 2.52.702 3.654 1.348.647.365 1.252.796 1.807 1.288l.203.18-4.425 5.05-.203-.14a6.66 6.66 0 00-4.425-1.308 3.958 3.958 0 00-2.03.684 2.16 2.16 0 00-.914 1.73c.061 1.147 1.239 1.59 2.396 2.012l.466.181z"/><path clip-rule="evenodd" d="M163.777 19.367v2.897h-.365a12.235 12.235 0 00-8.546-3.54 14.11 14.11 0 00-5.73 1.093 14.002 14.002 0 00-4.784 3.313 15.77 15.77 0 00-4.06 10.944 16.27 16.27 0 004.06 11.166c1.31 1.426 2.914 2.555 4.704 3.312s3.723 1.123 5.668 1.074a13.79 13.79 0 008.728-3.32h.325v2.595h8.607V19.367zm.426 14.868a9.616 9.616 0 01-2.253 6.538c-.737.818-1.646 1.466-2.663 1.897s-2.117.635-3.223.598a7.183 7.183 0 01-3.109-.65 7.12 7.12 0 01-2.514-1.925 9.804 9.804 0 01-2.192-6.619 9.445 9.445 0 012.233-6.378 7.265 7.265 0 012.535-1.893 7.325 7.325 0 013.108-.642 7.49 7.49 0 013.198.61 7.427 7.427 0 012.627 1.905 9.68 9.68 0 012.253 6.559zm93.191-11.97v-2.897H266v29.534h-8.606v-2.596h-.325a13.794 13.794 0 01-8.728 3.32 13.661 13.661 0 01-5.668-1.073 13.557 13.557 0 01-4.705-3.313 16.269 16.269 0 01-4.059-11.166 15.769 15.769 0 014.059-10.944 14.098 14.098 0 014.796-3.31 14.2 14.2 0 015.739-1.096 12.233 12.233 0 018.525 3.54zm-1.827 18.509a9.522 9.522 0 002.253-6.539 9.586 9.586 0 00-2.253-6.559 7.43 7.43 0 00-2.628-1.905 7.487 7.487 0 00-3.198-.61 7.317 7.317 0 00-3.107.642 7.26 7.26 0 00-2.536 1.894 9.444 9.444 0 00-2.232 6.377 9.798 9.798 0 002.192 6.62 7.11 7.11 0 002.514 1.924 7.177 7.177 0 003.108.65 7.608 7.608 0 003.223-.598 7.546 7.546 0 002.664-1.896z" fill-rule="evenodd"/></g><path clip-rule="evenodd" d="M26.442 31.71C26.49 14.24 40.933 0 59.082 0c17.973 0 32.847 14.288 32.64 31.796 0 17.508-14.667 31.796-32.64 31.796-17.943 0-32.592-14.04-32.64-31.709v23.66H14.874L0 9.256h26.442zm20.452.086c0 6.44 5.578 11.873 12.188 11.873 6.817 0 12.188-5.433 12.188-11.873s-5.577-11.873-12.188-11.873c-6.61 0-12.188 5.433-12.188 11.873z" fill="#0070f0" fill-rule="evenodd"/></svg>