<svg width="40" height="41" viewBox="0 0 40 41" fill="none" xmlns="http://www.w3.org/2000/svg"><g clip-path="url(#clip0_1409_27849)"><path d="M20.004.185a20.006 20.006 0 00-20 20 20.006 20.006 0 0020 20 20.006 20.006 0 0020-20 20.006 20.006 0 00-20-20z" fill="url(#paint0_linear_1409_27849)"/><path d="M9.06 19.972c5.83-2.54 9.718-4.215 11.662-5.024 5.556-2.31 6.71-2.712 7.462-2.725.166-.003.535.038.775.233.2.164.256.386.285.541.025.156.059.51.03.787-.3 3.163-1.602 10.837-2.265 14.38-.278 1.498-.831 2-1.365 2.05-1.163.107-2.044-.768-3.17-1.505-1.759-1.154-2.752-1.872-4.462-2.998-1.975-1.301-.693-2.016.432-3.185.293-.306 5.412-4.96 5.509-5.383.012-.053.025-.25-.094-.354-.115-.104-.287-.068-.412-.04-.178.04-2.988 1.899-8.438 5.576-.797.548-1.518.815-2.168.801-.713-.015-2.088-.403-3.11-.735-1.25-.407-2.247-.623-2.16-1.314.045-.36.541-.729 1.488-1.105z" fill="#fff"/></g><defs><linearGradient id="paint0_linear_1409_27849" x1="2000" y1=".185" x2="2000" y2="4000.18" gradientUnits="userSpaceOnUse"><stop stop-color="#2AABEE"/><stop offset="1" stop-color="#229ED9"/></linearGradient><clipPath id="clip0_1409_27849"><path fill="#fff" transform="translate(0 .186)" d="M0 0h40v40H0z"/></clipPath></defs></svg>