<svg width="40" height="41" viewBox="0 0 40 41" fill="none" xmlns="http://www.w3.org/2000/svg"><g clip-path="url(#clip0_1409_27847)"><path d="M20 .982C9.398.982.8 9.578.8 20.182s8.597 19.2 19.2 19.2c10.605 0 19.2-8.596 19.2-19.2S30.606.982 20 .982zm7.385 21.662s1.698 1.676 2.116 2.454c.012.016.018.032.022.04.17.286.21.508.126.674-.14.276-.62.412-.784.424h-3c-.208 0-.644-.054-1.172-.418-.406-.284-.806-.75-1.196-1.204-.582-.676-1.086-1.26-1.594-1.26a.61.61 0 00-.19.03c-.384.124-.876.672-.876 2.132 0 .456-.36.718-.614.718h-1.374c-.468 0-2.906-.164-5.066-2.442-2.644-2.79-5.024-8.386-5.044-8.438-.15-.362.16-.556.498-.556h3.03c.404 0 .536.246.628.464.108.254.504 1.264 1.154 2.4 1.054 1.852 1.7 2.604 2.218 2.604a.599.599 0 00.278-.072c.676-.376.55-2.786.52-3.286 0-.094-.002-1.078-.348-1.55-.248-.342-.67-.472-.926-.52a1.1 1.1 0 01.398-.338c.464-.232 1.3-.266 2.13-.266h.462c.9.012 1.132.07 1.458.152.66.158.674.584.616 2.042-.018.414-.036.882-.036 1.434 0 .12-.006.248-.006.384-.02.742-.044 1.584.48 1.93a.432.432 0 00.228.066c.182 0 .73 0 2.214-2.546.457-.82.855-1.67 1.19-2.548.03-.052.118-.212.222-.274a.532.532 0 01.248-.058h3.562c.388 0 .654.058.704.208.088.238-.016.964-1.642 3.166l-.726.958c-1.474 1.932-1.474 2.03.092 3.496z" fill="#0084CF"/></g><defs><clipPath id="clip0_1409_27847"><path fill="#fff" transform="translate(0 .186)" d="M0 0h40v40H0z"/></clipPath></defs></svg>