<svg width="185" height="40" viewBox="0 0 185 40" fill="none" xmlns="http://www.w3.org/2000/svg">
<g clip-path="url(#clip0_1281_21544)">
<mask id="mask0_1281_21544" style="mask-type:luminance" maskUnits="userSpaceOnUse" x="0" y="0" width="185" height="40">
<path d="M0.0839844 0.0996094H184.765V40H0.0839844V0.0996094Z" fill="white"/>
</mask>
<g mask="url(#mask0_1281_21544)">
<path d="M31.5464 17.0214C31.8016 18.3545 31.7899 19.7249 31.5121 21.0533C31.2342 22.3818 30.6957 23.642 29.9277 24.761C28.367 27.0321 25.9726 28.5951 23.2655 29.11C21.9186 29.36 20.5357 29.3441 19.1949 29.0631C17.856 28.7825 16.5851 28.2418 15.4545 27.4717C14.3278 26.7045 13.3638 25.7223 12.6179 24.5814C11.8741 23.4443 11.3641 22.1705 11.1174 20.8342C10.5983 18.1449 11.177 15.3619 12.7285 13.0946C14.2882 10.8226 16.683 9.25928 19.3906 8.7457C20.7379 8.49572 22.121 8.51162 23.4621 8.79251C24.8034 9.07336 26.0749 9.61379 27.2043 10.3831C28.332 11.1501 29.2972 12.1323 30.0443 13.2734C30.7885 14.4108 31.2991 15.6849 31.5464 17.0214Z" fill="white" stroke="#00365F" stroke-width="0.444255" stroke-miterlimit="10"/>
<path fill-rule="evenodd" clip-rule="evenodd" d="M12.9776 12.8636C14.0201 12.6066 15.0967 10.6151 16.0346 10.4577H16.2397C16.5503 10.4577 16.7427 10.7896 17.2542 10.8185L17.4499 11.0338C17.6644 10.9428 17.8695 10.9513 17.9827 10.7521L18.8201 10.7938C19.5869 10.0091 21.3333 10.3002 21.6942 9.18787L22.2091 9.21681C22.318 9.11723 22.7537 8.62362 22.9588 8.63638C20.867 8.30664 18.7243 8.62968 16.8227 9.56149C15.9844 10.0296 14.1588 11.1751 13.2661 12.3657L13.0984 12.644L12.9776 12.8636ZM21.3878 14.8466L21.3546 15.564C21.4508 15.564 21.7486 15.7879 21.8567 15.7964C22.0543 15.7199 22.2683 15.6956 22.478 15.7257L22.6737 15.9377C22.5614 16.0372 22.3554 16.1283 22.255 16.2236C22.1546 16.1198 22.1546 16.1198 21.9452 16.2236H21.7401C21.4337 16.1079 21.124 16.0908 20.8269 15.9751H20.718C20.3401 16.0091 19.9588 15.9896 19.5869 15.9172L19.478 16.0168C19.2771 16.0168 18.8831 15.5726 18.6865 15.4602C18.6865 15.3564 18.7954 15.2611 18.7997 15.1581C18.6993 15.1581 18.5018 14.9377 18.381 14.9334C18.3339 14.8651 18.2714 14.8088 18.1985 14.7692C18.1256 14.7295 18.0443 14.7077 17.9614 14.7053V14.5019C17.6343 14.6808 17.2787 14.8017 16.9103 14.8594C16.278 15.033 15.3103 15.8091 14.6942 15.7717C14.0371 16.564 14.0031 17.1819 13.9452 18.3147C14.3299 18.8457 14.4899 19.6755 14.8788 20.2108C15.4976 20.1587 16.1197 20.1587 16.7384 20.2108L16.7095 20.7249C16.9435 20.7896 17.1895 20.8023 17.4295 20.7623C17.5223 20.9743 17.404 21.2764 17.3835 21.6832C17.7691 22.2185 18.284 22.347 18.2218 23.376L17.9954 23.6738C17.9359 24.9189 19.1223 25.8943 19.7044 26.7445C20.2193 26.7734 20.7427 26.4917 21.3801 26.5206C21.5223 26.1445 21.7954 25.8313 22.1503 25.6372L22.1801 25.0185C22.7997 25.0474 23.2525 24.2466 23.4908 23.6415C23.3903 23.5334 23.1929 23.4211 23.0933 23.3138C23.0933 23.0074 23.2312 22.6994 23.244 22.484C23.3691 21.9777 25.2967 20.7377 25.1912 20.6253C25.221 20.1113 25.2167 20.2108 25.5393 19.9283L24.9197 19.8951C24.7061 20.0908 24.2993 19.9657 24.0814 19.9538C23.972 19.7104 23.8281 19.484 23.6542 19.2815C23.5623 19.0738 23.5665 18.97 23.4746 18.7589C23.3818 18.6508 23.055 18.5343 22.9759 18.427C22.884 18.2108 22.9759 18.0117 22.9044 17.8049C22.9044 17.5972 22.7163 17.4849 22.6201 17.2738C22.5359 16.9623 22.1418 16.5308 22.1588 16.2194C22.4686 16.2194 22.6363 16.9666 22.8542 16.7717L23.2354 17.5351L23.2984 18.2568L23.9895 18.9079L24.2618 19.6423C25.1878 19.6874 25.8746 18.3981 26.6993 18.4304L26.8252 18.016C26.8252 17.9164 26.7376 17.7045 26.7418 17.6015H26.4312L26.2354 17.3811C25.7197 17.3564 24.9776 17.4228 24.6184 16.7879C24.4082 16.7879 24.3248 16.3734 24.232 16.1496C24.5554 15.9623 25.0405 16.6006 25.221 17.0245C25.6397 17.0245 26.1342 17.3768 26.5571 17.1947L26.7495 17.41C26.8942 17.3223 27.0337 17.2262 27.1691 17.124H27.4746C27.575 17.2321 27.8686 17.5394 28.0695 17.564C28.0695 17.7674 28.2491 18.0866 28.2457 18.1938C28.2866 17.7461 28.2752 17.2951 28.2116 16.85C28.4091 17.17 28.6771 17.8049 28.5597 18.0951C28.5597 18.0951 28.7563 18.3147 28.8652 18.3147C28.8397 18.6262 28.9112 19.3521 29.2167 19.3683C29.2215 19.4733 29.264 19.5731 29.3364 19.6494C29.4087 19.7256 29.5061 19.7733 29.6108 19.7836C29.6108 19.5794 29.7282 19.4806 29.7367 19.3683C29.6193 19.5674 29.8542 19.0619 29.8542 19.0619L29.7657 18.7504L29.7112 17.8211C29.8159 17.7215 30.1299 17.5309 30.2474 17.4355C30.1554 17.2236 30.1554 17.2236 30.2729 16.9249C30.3776 16.9249 30.4737 17.033 30.6916 17.0449C30.6746 17.2202 30.7257 17.3955 30.8329 17.5343C30.9414 17.6742 31.0989 17.7679 31.2737 17.7964C31.2737 17.5887 31.1776 17.5887 31.3027 17.2815H31.6091C31.4278 16.1577 31.0656 15.0707 30.5367 14.0628C29.8134 12.6839 28.7776 11.4933 27.512 10.5862C26.7956 9.99617 25.9801 9.538 25.1035 9.23298C25.1035 9.23298 24.9359 9.10532 24.8908 9.12574C24.844 9.14617 24.8908 9.12574 24.7435 9.29596C24.7116 9.33624 24.6696 9.36743 24.6218 9.3864C24.574 9.40537 24.5221 9.41145 24.4712 9.40404C24.5631 9.6151 24.4712 9.50362 24.5631 9.71468H24.2542C24.2542 10.0219 24.4303 10.2372 24.4261 10.3411C24.3214 10.4364 24.0074 10.3411 23.7095 10.3036C23.7095 10.1011 23.6346 9.68234 23.324 9.66957C23.324 9.76915 23.2074 9.97255 23.1988 10.084C23.2993 10.1921 23.4916 10.4994 23.5878 10.6194C23.1691 10.6194 22.8389 11.096 22.3316 10.8645C22.5614 10.3623 21.4354 10.2006 21.2303 10.1921L21.0125 10.387C20.8108 10.2704 19.9486 11.0508 19.7299 11.25L19.9188 11.6645C20.7563 11.1964 20.7563 11.4032 21.0874 11.0049C21.2882 11.0049 21.3342 10.9598 21.5061 11.1045C21.678 11.2491 21.1418 11.6398 21.1418 11.7266C21.1418 11.8143 21.238 11.9385 21.2303 12.0415C21.0159 12.1334 20.7061 12.2168 20.6976 12.324C20.5929 12.324 20.501 12.2083 20.3963 12.204C20.3963 12.1002 20.6176 11.9053 20.6227 11.7896C20.5265 11.6772 20.5265 11.6772 20.5342 11.5768C20.4295 11.5768 20.4176 11.673 20.3171 11.6687H20.1112V11.9802C20.0065 12.0755 19.7886 12.2696 19.6925 12.2662C19.9061 12.0713 19.1733 12.3411 19.0686 12.3368L18.7418 12.6313C18.4034 12.56 18.056 12.5419 17.712 12.5777C17.7135 12.631 17.734 12.6821 17.7699 12.7216C17.8059 12.7612 17.8548 12.7865 17.9078 12.793C17.8949 12.9836 17.8115 13.1626 17.6737 13.2951C17.5733 13.2951 17.5776 13.187 17.364 13.2951L16.9784 12.764C16.9202 12.8154 16.8465 12.846 16.7691 12.8508C16.7691 13.1657 16.6346 13.4653 16.6218 13.6806L16.295 14.096L16.2703 14.5104C16.375 14.5104 16.4754 14.6185 16.5767 14.6313C16.8899 14.5394 17.1537 14.7266 17.4686 14.7428C17.4686 14.6389 17.724 14.3777 17.7282 14.2781C17.9376 14.2781 18.0346 14.3947 18.2388 14.4023C18.4567 14.2117 18.6831 13.8091 18.9929 13.8219L19.3742 14.4602C19.3321 14.4981 19.2996 14.5453 19.2792 14.5981C19.2588 14.6509 19.2511 14.7077 19.2567 14.764C19.2567 14.764 19.0474 14.764 19.1393 14.9623C19.1393 15.17 19.5333 15.3777 19.6252 15.5019C19.7384 15.4066 19.9606 15.004 20.1742 14.913L20.1997 14.4977L20.3878 14.7138V15.1283C20.5971 15.1283 20.7861 15.4568 20.7733 15.6645C20.8695 15.273 21.0278 14.8985 21.2423 14.5564C21.3469 14.5564 21.4397 14.7717 21.5401 14.776L21.6533 14.6806C21.7537 14.6806 21.7452 14.7845 21.8542 14.793C21.8848 14.6194 21.9282 14.4491 21.9835 14.2823C22.2899 14.2823 22.4823 14.5147 22.792 14.5317C22.8482 14.3649 22.8916 14.1938 22.9223 14.0211L23.1401 13.8253C22.9137 14.2406 23.7137 14.7845 23.9061 14.9998C23.6888 15.0633 23.4603 15.079 23.2363 15.0457L23.044 14.8304C22.7984 14.832 22.555 14.7854 22.3274 14.6934L21.9963 14.9828C21.7954 14.9828 21.6984 14.8636 21.5776 14.8594L21.3886 14.8466H21.3878ZM25.4814 15.2738L24.9699 15.2534C24.9548 15.1045 24.9982 14.9556 25.0908 14.8381L24.798 14.5104H24.4882C24.3908 14.4279 24.323 14.3158 24.295 14.1913L24.404 14.0917C24.5129 14.0917 24.7103 14.2117 24.8227 14.2194C24.8559 14.0134 24.8993 13.8083 24.9529 13.6066C24.9631 13.7138 24.9929 13.8194 25.0405 13.9172C25.2457 13.9172 25.2457 13.9172 25.3469 14.0381C25.3056 14.0762 25.2736 14.1232 25.2532 14.1755C25.2329 14.2279 25.2247 14.2842 25.2295 14.3402C25.3299 14.3402 25.3214 14.4483 25.4261 14.5564C25.3001 14.8594 25.6108 14.8713 25.7069 15.0832L25.4814 15.2738ZM11.5069 22.1649C11.8418 21.8789 12.2006 21.622 12.5793 21.3972C12.3361 21.0958 12.1176 20.7753 11.9257 20.4389V20.0236C11.82 19.9982 11.7186 19.9578 11.6244 19.9036L11.4269 19.7913C11.3316 19.4837 11.1701 19.2008 10.9537 18.9623C10.9409 20.0547 11.1284 21.1401 11.5069 22.1649ZM24.2491 25.3879C24.1486 25.3879 23.8303 25.2636 23.7384 25.2594C23.7384 25.1598 23.855 25.0602 23.964 24.9606L23.7631 24.7487V24.5377L23.9852 24.3419L24.404 24.3674C24.6218 24.1717 25.1699 23.5836 25.4763 23.5998C25.3674 23.6951 25.158 23.787 25.0576 23.8857L25.2499 24.0985C25.1584 24.2898 25.1113 24.4992 25.112 24.7113C24.6933 24.9981 24.4584 25.4006 24.2533 25.3879H24.2491ZM31.4746 21.0194L31.4201 20.5002L30.8337 19.8534L30.8635 19.2355C30.7434 19.0884 30.6808 18.9028 30.6874 18.713C30.8993 18.9206 31.1316 19.1053 31.3827 19.2645L31.3571 19.6798L31.6593 19.9036C31.6432 20.283 31.5812 20.6591 31.4746 21.0236V21.0202V21.0194Z" fill="#00365F"/>
<path d="M20.9368 29.2921L21.8875 8.71593M11.8475 23.0861C16.8747 27.9559 26.1445 28.4419 30.3037 24.1398L11.8475 23.0861ZM11.199 16.7304C10.3607 23.0487 32.5283 23.7006 31.6858 17.8053L11.199 16.7304ZM12.6815 13.241C12.296 16.71 31.033 18.3108 30.5173 14.1789L12.6815 13.2419V13.241ZM15.9743 10.0972C13.4858 12.1295 29.9726 13.1091 27.6109 10.7313L15.9743 10.0972ZM21.8875 8.61636C25.599 8.80274 28.4679 13.5653 28.1709 19.2938C27.9862 24.9278 24.639 29.4785 20.9241 29.2921C17.2083 29.1049 14.4398 24.3432 14.6407 18.7091C14.9343 12.9798 18.1683 8.5287 21.9003 8.61551H21.8875V8.61636Z" stroke="#00365F" stroke-width="0.444255" stroke-linecap="round" stroke-linejoin="round"/>
<path d="M15.5785 29.0841C13.7626 28.0689 12.2494 26.5891 11.1938 24.7964C10.1429 23.0106 9.5901 20.9757 9.59292 18.9037C9.58903 17.3718 9.8899 15.8544 10.478 14.4398C11.068 13.0214 11.9328 11.7337 13.0227 10.6509C14.1163 9.5645 15.4126 8.70339 16.838 8.11645C18.267 7.52777 19.7972 7.22392 21.3427 7.22198C23.0138 7.22077 24.666 7.5753 26.1895 8.26198C27.709 8.94652 29.0642 9.94857 30.164 11.2007L35.5385 6.49602C33.766 4.48541 31.5842 2.87698 29.1393 1.77857C26.6876 0.67669 24.0298 0.108393 21.3419 0.11134C16.328 0.117425 11.5188 2.10061 7.95803 5.63049C6.20521 7.36788 4.81413 9.43546 3.86519 11.7137C2.91626 13.992 2.4283 16.4357 2.42952 18.9037C2.42728 22.5183 3.47674 26.0555 5.44994 29.0841H15.5785ZM40.2423 18.9037C40.2437 16.9462 39.9385 15.0007 39.3376 13.1377C39.1704 12.6284 38.983 12.1258 38.7759 11.6313C38.5716 11.1377 38.0355 10.1054 38.0355 10.1054H34.0721L32.187 14.4118C32.7846 15.8326 33.0908 17.3589 33.0874 18.9003C33.0907 20.4212 32.7938 21.9278 32.2137 23.3338C31.6336 24.7397 30.7818 26.0174 29.707 27.0935C27.5442 29.28 24.6101 30.531 21.535 30.5777H0.0839844V37.7096H21.535C26.5085 37.6643 31.2645 35.6644 34.7759 32.142C36.5126 30.4031 37.8894 28.3388 38.8274 26.0672C39.7653 23.7956 40.2462 21.3613 40.2423 18.9037ZM38.0219 30.5956C35.7568 33.7851 32.6261 36.2596 28.9997 37.7267H42.5921V30.5828L38.0219 30.5956Z" fill="url(#paint0_linear_1281_21544)"/>
<path d="M52.0288 33.7608V38.0459H51.3624V34.3829H49.6535V38.0459H48.9922V33.7608H52.0288ZM52.9292 35.1625C52.9292 34.611 52.9292 34.171 52.8952 33.7608H53.4952L53.5284 34.4944C53.6398 34.2459 53.8228 34.0348 54.0543 33.8867C54.2865 33.7394 54.5564 33.6625 54.8313 33.6655C55.7233 33.6655 56.3888 34.5404 56.3888 35.8433C56.3888 37.3821 55.5854 38.1412 54.7139 38.1412C54.4818 38.1436 54.2536 38.0822 54.0541 37.9636C53.8546 37.845 53.6916 37.6739 53.5828 37.4689V39.7965H52.925L52.9292 35.1625ZM53.5871 36.3029C53.5896 36.4101 53.5998 36.5174 53.616 36.6229C53.6535 36.8655 53.7735 37.0884 53.9564 37.2535C54.1394 37.4187 54.3743 37.5174 54.622 37.531C55.3292 37.531 55.7403 36.8587 55.7403 35.8714C55.7403 35.0135 55.3505 34.2791 54.6424 34.2791C54.3892 34.303 54.1515 34.4116 53.9675 34.5872C53.7842 34.7622 53.6662 34.9946 53.633 35.2459C53.6067 35.3506 53.5905 35.4569 53.5871 35.565V36.3038V36.3029ZM60.3854 35.868C60.3854 37.4527 59.4433 38.1412 58.5556 38.1412C57.5581 38.1412 56.7956 37.3114 56.7956 35.9387C56.7956 34.5029 57.5998 33.6646 58.6177 33.6646C59.6356 33.6646 60.3854 34.5446 60.3854 35.868ZM57.4535 35.9131C57.4535 36.851 57.9139 37.5727 58.5675 37.5727C59.2211 37.5727 59.6858 36.8714 59.6858 35.9131C59.6858 35.188 59.3718 34.2535 58.5845 34.2535C57.7964 34.2535 57.4696 35.1004 57.4696 35.9131H57.4526H57.4535ZM63.833 33.7608V37.4484H64.2143L64.1769 39.3855H63.6526L63.6186 38.0246H61.0764L61.0475 39.3863H60.5156L60.4816 37.4484H60.7964C60.9561 37.174 61.0786 36.8795 61.1607 36.5727C61.3054 36.0152 61.3777 35.4408 61.3735 34.8638V33.748L63.833 33.7608ZM61.9735 35.0629C61.976 35.5991 61.9122 36.1352 61.7845 36.6561C61.7079 36.9293 61.6092 37.1957 61.4867 37.4527H63.1633V34.354H61.9556L61.9735 35.0629ZM65.0433 33.7608L65.8475 36.2952C65.9318 36.577 66.0237 36.9131 66.0824 37.1701C66.1539 36.9131 66.2288 36.5855 66.3207 36.2748L67.0501 33.7608H67.7581L66.7522 36.8135C66.2756 38.2825 65.9479 39.0374 65.496 39.4978C65.2718 39.7433 64.9807 39.9178 64.6586 39.9999L64.4909 39.348C64.7105 39.2629 64.9105 39.1327 65.0773 38.9667C65.3275 38.7225 65.519 38.4263 65.639 38.0995C65.6661 38.0401 65.6842 37.977 65.6926 37.9123C65.6862 37.843 65.6707 37.7749 65.6467 37.7097L64.2892 33.7608H65.0433ZM68.8467 33.7608V35.6229H69.0058L70.3879 33.7608H71.2007L69.6007 35.7012C70.1913 35.7727 70.5471 36.2331 70.8364 36.9999C70.9471 37.3557 71.079 37.7046 71.2305 38.0459H70.5309C70.3968 37.7625 70.2834 37.4698 70.1913 37.1701C69.9403 36.4774 69.6007 36.1625 68.9769 36.1625H68.8467V38.0459H68.1845V33.7608H68.8467ZM74.2467 33.7608V34.3821H73.0816V38.0459H72.4245V34.3829H71.2764V33.7608H74.2467ZM75.2892 33.7608V35.2204C75.4865 35.1813 75.6873 35.1633 75.8884 35.1667C76.6756 35.1667 77.4756 35.5489 77.4756 36.6025C77.4856 36.7852 77.4568 36.968 77.3913 37.1389C77.3257 37.3097 77.2248 37.4648 77.0952 37.594C76.6852 37.9452 76.1549 38.1234 75.616 38.091C75.2858 38.091 74.9556 38.0697 74.6279 38.0289V33.7616L75.2892 33.7608ZM75.2892 37.4944C75.4424 37.5157 75.5956 37.5267 75.7505 37.5276C76.2611 37.5276 76.8143 37.2825 76.8143 36.6187C76.8143 35.9548 76.2824 35.714 75.7794 35.714C75.6149 35.7122 75.4506 35.7276 75.2892 35.7599V37.4944ZM78.5981 33.7608V38.0459H77.9369V33.7608H78.5981ZM83.9471 33.7608V38.0459H83.2773V34.3829H81.5684V38.0459H80.9062V33.7608H83.9471ZM85.4552 33.7608V35.5693C85.4552 36.2501 85.4552 36.6731 85.4177 37.2867H85.4432C85.6654 36.7727 85.7905 36.4569 86.0339 35.9761L87.1811 33.7608H87.965V38.0459H87.3241V36.2331C87.3241 35.5318 87.3241 35.1667 87.3701 34.4782H87.3488C87.1595 34.9267 86.9569 35.3695 86.7411 35.8059C86.3896 36.4697 85.9871 37.2952 85.5939 38.0459H84.8109V33.7608H85.4552ZM91.3199 33.7608V34.3821H90.1726V38.0459H89.5147V34.3829H88.3667V33.7608H91.3199ZM94.2433 37.034C94.239 37.3778 94.2603 37.7216 94.3062 38.0621H93.6994L93.645 37.5233C93.5273 37.7169 93.3619 37.8769 93.1646 37.9881C92.9672 38.0993 92.7446 38.1579 92.5181 38.1582C92.3602 38.1557 92.2043 38.1209 92.0603 38.0559C91.9163 37.991 91.7871 37.8972 91.6807 37.7803C91.5745 37.6644 91.4941 37.5272 91.4449 37.3778C91.3958 37.2285 91.379 37.0703 91.3956 36.914C91.3956 35.8757 92.1828 35.3123 93.6067 35.3199V35.234C93.6067 34.8765 93.519 34.2425 92.7692 34.2425C92.4252 34.2451 92.0908 34.3569 91.8143 34.5616L91.6594 34.0476C92.0106 33.7953 92.433 33.6614 92.8654 33.6655C93.9922 33.6655 94.2645 34.5616 94.2645 35.417L94.2433 37.034ZM93.6067 35.8595C92.8781 35.8595 92.0484 35.9923 92.0484 36.8263C92.0484 37.3284 92.3377 37.5684 92.6816 37.5684C92.888 37.5637 93.087 37.4908 93.2476 37.361C93.4082 37.2312 93.5213 37.0518 93.5692 36.851C93.5922 36.7761 93.605 36.6978 93.6067 36.6187V35.8595ZM95.7811 33.7608V35.4859H97.5275V33.7616H98.1854V38.0467H97.5275V36.1097H95.7811V38.0467H95.119V33.7616L95.7811 33.7608ZM99.7062 33.7608V35.5693C99.7062 36.2501 99.7062 36.6731 99.6679 37.2867C99.8901 36.7727 100.02 36.4569 100.263 35.9761L101.411 33.7608H102.19V38.0459H101.566V36.2331C101.566 35.5318 101.566 35.1667 101.612 34.4782H101.591C101.399 34.9252 101.196 35.3678 100.984 35.8059C100.631 36.4697 100.23 37.2952 99.8356 38.0459H99.0654V33.7608H99.7062ZM105.817 38.0459H105.16V36.2501H104.665C104.552 36.2435 104.438 36.261 104.332 36.3017C104.226 36.3423 104.129 36.4051 104.049 36.4859C103.777 36.7429 103.676 37.274 103.534 37.6935C103.49 37.8127 103.44 37.931 103.384 38.0459H102.667C102.757 37.891 102.833 37.7284 102.893 37.5608C103.057 37.1455 103.145 36.5855 103.471 36.2663C103.584 36.1446 103.729 36.0587 103.89 36.0169V35.9923C103.623 35.9694 103.375 35.8473 103.194 35.6501C103.014 35.4538 102.915 35.1964 102.918 34.9301C102.912 34.7464 102.953 34.5643 103.039 34.4014C103.124 34.2385 103.25 34.1005 103.404 34.0008C103.779 33.7897 104.206 33.6894 104.636 33.7114C105.031 33.7123 105.426 33.7412 105.817 33.7982V38.0459ZM105.16 34.2748C104.977 34.246 104.792 34.232 104.607 34.2331C104.15 34.2331 103.61 34.3829 103.61 34.9761C103.61 35.5693 104.192 35.7182 104.59 35.7182H105.16V34.2748ZM108.75 33.7608V35.5693C108.75 36.2501 108.75 36.6731 108.716 37.2867H108.737C108.955 36.7727 109.085 36.4569 109.328 35.9761L110.476 33.7608H111.259V38.0459H110.622V36.2331C110.622 35.5318 110.622 35.1667 110.668 34.4782H110.643C110.452 34.926 110.25 35.3687 110.036 35.8059C109.684 36.4697 109.282 37.2952 108.888 38.0459H108.122V33.7608H108.75ZM116.6 33.7608V38.0459H115.929V34.3829H114.22V38.0459H113.558V33.7608H116.6ZM118.107 33.7608V35.5693C118.107 36.2501 118.107 36.6731 118.07 37.2867H118.095C118.313 36.7727 118.442 36.4569 118.686 35.9761L119.833 33.7608H120.613V38.0459H119.996V36.2331C119.996 35.5318 119.996 35.1667 120.042 34.4782H119.996C119.804 34.9253 119.602 35.368 119.39 35.8059C119.037 36.4697 118.636 37.2952 118.242 38.0459H117.483V33.7608H118.107ZM122.15 33.7608V37.4484H123.436V33.7727H124.085V37.4484H125.371V33.7727H126.033V37.4484H126.402L126.368 39.3855H125.861L125.831 38.0246H121.509V33.7608H122.15ZM127.352 36.0467C127.352 37.1004 127.943 37.5318 128.608 37.5318C128.962 37.5446 129.311 37.4689 129.626 37.3114L129.739 37.8672C129.36 38.0574 128.94 38.1515 128.516 38.1412C127.385 38.1412 126.707 37.2663 126.707 35.9761C126.707 34.6859 127.365 33.6655 128.433 33.6655C129.635 33.6655 129.953 34.9097 129.953 35.6808C129.952 35.8031 129.944 35.9254 129.928 36.0467H127.352ZM129.312 35.4859C129.312 34.9923 129.137 34.2212 128.387 34.2212C127.708 34.2212 127.415 34.9472 127.361 35.4859H129.312ZM130.578 33.8144C130.965 33.7484 131.358 33.7165 131.75 33.7191C132.366 33.7191 133.384 33.8306 133.384 34.7889C133.387 35.0138 133.312 35.233 133.172 35.4087C133.031 35.5843 132.834 35.7055 132.613 35.7514V35.7889C132.877 35.8135 133.122 35.937 133.296 36.1344C133.47 36.3318 133.562 36.5889 133.551 36.851C133.551 37.9752 132.333 38.1165 131.612 38.1165C131.193 38.1165 130.774 38.0791 130.578 38.0621V33.8144ZM131.21 37.548C131.389 37.5752 131.569 37.588 131.75 37.5855C132.198 37.5855 132.865 37.4612 132.865 36.8425C132.865 36.2246 132.333 36.0876 131.696 36.0876H131.21V37.548ZM131.21 35.5735H131.725C132.219 35.5735 132.73 35.4076 132.73 34.9012C132.73 34.4867 132.412 34.2748 131.742 34.2748C131.569 34.2748 131.397 34.2867 131.226 34.308L131.21 35.5735ZM134.85 33.7608V35.2204C135.047 35.1813 135.248 35.1633 135.449 35.1667C136.236 35.1667 137.036 35.5489 137.036 36.6025C137.047 36.7853 137.018 36.9682 136.952 37.1392C136.887 37.3101 136.785 37.4651 136.655 37.594C136.246 37.9451 135.715 38.1233 135.177 38.091C134.845 38.0899 134.513 38.0692 134.184 38.0289V33.7616L134.85 33.7608ZM134.85 37.4944C135.002 37.5157 135.156 37.5267 135.31 37.5276C135.822 37.5276 136.375 37.2825 136.375 36.6187C136.375 35.9548 135.842 35.714 135.34 35.714C135.176 35.7121 135.011 35.7275 134.85 35.7599V37.4944ZM138.159 33.7608V38.0459H137.498V33.7608H138.159ZM139.437 36.0467C139.437 37.1004 140.028 37.5318 140.693 37.5318C141.046 37.5445 141.396 37.4688 141.711 37.3114L141.825 37.8672C141.445 38.0573 141.025 38.1514 140.602 38.1412C139.47 38.1412 138.792 37.2663 138.792 35.9761C138.792 34.6859 139.445 33.6655 140.517 33.6655C141.72 33.6655 142.034 34.9097 142.034 35.6808C142.034 35.8033 142.027 35.925 142.013 36.0467H139.437ZM141.393 35.4859C141.393 34.9923 141.221 34.2212 140.467 34.2212C139.793 34.2212 139.496 34.9472 139.442 35.4859H141.393ZM144.71 33.7608V35.5693C144.71 36.2501 144.71 36.6731 144.669 37.2867H144.694C144.916 36.7727 145.042 36.4569 145.285 35.9761L146.432 33.7608H147.224V38.0459H146.587V36.2331C146.587 35.5318 146.587 35.1667 146.629 34.4782C146.44 34.9269 146.238 35.3696 146.022 35.8059C145.674 36.4697 145.268 37.2952 144.874 38.0459H144.108V33.7608H144.71ZM148.762 33.7608V35.4859H150.508V33.7616H151.17V38.0467H150.508V36.1097H148.762V38.0467H148.099V33.7616L148.762 33.7608ZM154.316 33.7608V34.3906H152.72V38.0459H152.058V33.7608H154.316ZM154.764 35.1625C154.764 34.611 154.764 34.171 154.73 33.7608H155.333L155.363 34.4944C155.476 34.2441 155.659 34.0325 155.891 33.8859C156.124 33.7382 156.394 33.6613 156.67 33.6646C157.558 33.6646 158.224 34.5404 158.224 35.8433C158.224 37.3821 157.419 38.1412 156.549 38.1412C156.316 38.1441 156.087 38.0828 155.887 37.9642C155.687 37.8461 155.525 37.6745 155.418 37.4689V39.7965H154.764V35.1625ZM155.425 36.3029C155.427 36.411 155.436 36.5174 155.455 36.6229C155.491 36.8639 155.608 37.0855 155.787 37.2507C155.966 37.4159 156.197 37.5148 156.44 37.531C157.147 37.531 157.558 36.8587 157.558 35.8714C157.558 35.0135 157.168 34.2791 156.465 34.2791C156.21 34.3021 155.971 34.4101 155.788 34.5855C155.604 34.7616 155.487 34.994 155.455 35.2459C155.426 35.3499 155.411 35.4571 155.409 35.565L155.425 36.3038V36.3029ZM159.259 36.0467C159.259 37.1004 159.853 37.5318 160.515 37.5318C160.867 37.5445 161.217 37.4688 161.533 37.3114L161.646 37.8672C161.267 38.0573 160.847 38.1514 160.423 38.1412C159.292 38.1412 158.618 37.2663 158.618 35.9761C158.618 34.6859 159.27 33.6655 160.339 33.6655C161.541 33.6655 161.859 34.9097 161.859 35.6808V36.0467H159.259ZM161.219 35.4859C161.219 34.9923 161.042 34.2212 160.293 34.2212C159.614 34.2212 159.317 34.9472 159.266 35.4859H161.219ZM165.374 33.7608V37.4484H165.751L165.713 39.3855H165.19L165.161 38.0246H162.613L162.585 39.3863H162.061L162.031 37.4484H162.341C162.501 37.1735 162.624 36.8791 162.705 36.5727C162.853 36.0152 162.925 35.4408 162.919 34.8638V33.748L165.374 33.7608ZM163.514 35.0629C163.516 35.5999 163.451 36.135 163.322 36.6561C163.249 36.9308 163.15 37.1976 163.025 37.4527H164.721V34.354H163.514V35.0629ZM166.974 33.7608V35.5693C166.974 36.2501 166.974 36.6731 166.937 37.2867H166.957C167.179 36.7727 167.31 36.4569 167.552 35.9761L168.7 33.7608H169.479V38.0459H168.842V36.2331C168.842 35.5318 168.842 35.1667 168.888 34.4782H168.868C168.679 34.9267 168.476 35.3695 168.26 35.8059C167.912 36.4697 167.506 37.2952 167.112 38.0459H166.346V33.7608H166.974ZM170.749 36.0467C170.749 37.1004 171.344 37.5318 172.005 37.5318C172.359 37.5438 172.71 37.4681 173.027 37.3114L173.136 37.8672C172.757 38.0573 172.337 38.1514 171.913 38.1412C170.782 38.1412 170.108 37.2663 170.108 35.9761C170.108 34.6859 170.761 33.6655 171.833 33.6655C173.031 33.6655 173.35 34.9097 173.35 35.6808C173.356 35.8025 173.356 35.925 173.35 36.0467H170.749ZM172.709 35.4859C172.709 34.9923 172.533 34.2212 171.783 34.2212C171.109 34.2212 170.811 34.9472 170.756 35.4859H172.709ZM174.64 33.7608V35.4859H176.382V33.7616H177.044V38.0467H176.382V36.1097H174.64V38.0467H173.978V33.7616L174.64 33.7608ZM180.412 33.7608V34.3821H179.265V38.0459H178.602V34.3829H177.454V33.7608H180.412ZM181.451 33.7608V35.2204C181.648 35.1816 181.848 35.1637 182.049 35.1667C182.842 35.1667 183.637 35.5489 183.637 36.6025C183.647 36.7849 183.619 36.9675 183.554 37.1383C183.489 37.3091 183.389 37.4643 183.26 37.594C182.849 37.9429 182.318 38.1216 181.777 38.091C181.447 38.0901 181.117 38.0693 180.789 38.0289V33.7616L181.451 33.7608ZM181.451 37.4944C181.604 37.5157 181.76 37.5267 181.916 37.5276C182.047 37.5443 182.18 37.5335 182.307 37.4958C182.434 37.4582 182.552 37.3945 182.653 37.3089C182.753 37.2236 182.834 37.118 182.89 36.9992C182.946 36.8804 182.977 36.751 182.979 36.6195C182.979 35.9259 182.443 35.7148 181.945 35.7148C181.779 35.713 181.613 35.7281 181.451 35.7599V37.4944ZM184.764 33.7608V38.0459H184.085V33.7608H184.764ZM66.0952 4.1778H60.0169L48.9922 29.8978H55.2747C55.2747 29.8978 57.5369 24.2399 57.5871 24.0901H68.6501C68.7003 24.2272 71.096 29.8978 71.096 29.8978H77.5258L66.1956 4.17865L66.0952 4.1778ZM59.393 19.5931C59.5096 19.3318 62.8194 11.0476 63.0245 10.5497C63.2254 11.0476 66.6015 19.3327 66.7181 19.5931H59.393ZM97.9386 20.3982C97.4696 22.2399 96.6815 23.605 95.6552 24.4433C94.5928 25.3083 93.2552 25.7631 91.8858 25.725C90.9841 25.755 90.0865 25.5901 89.2543 25.2416C88.4247 24.8944 87.6803 24.3714 87.0722 23.7089C85.8407 22.3769 85.2041 20.0748 85.2041 16.8842C85.2041 13.885 85.8407 11.6901 87.0892 10.3633C87.7194 9.701 88.4832 9.18027 89.3301 8.83567C90.1787 8.48993 91.0908 8.32751 92.0067 8.35908C93.332 8.31896 94.6341 8.71382 95.7139 9.48333C96.7285 10.2363 97.4415 11.3262 97.725 12.5574L97.7454 12.6655L103.518 11.3999L103.484 11.2918C102.843 9.2178 101.876 7.63312 100.615 6.54631C98.4909 4.68333 95.6892 3.74206 92.279 3.74206C88.3922 3.74206 85.2041 4.94121 82.8126 7.30121C80.4211 9.66206 79.2101 13.0221 79.2101 17.2578C79.2101 21.2816 80.4169 24.5055 82.7956 26.828C85.1752 29.1514 88.2416 30.3344 91.9403 30.3344C94.9267 30.3344 97.4228 29.6493 99.3667 28.2842C101.31 26.9199 102.718 24.8118 103.556 22.0204L103.585 21.9293L97.9513 20.2697L97.9386 20.3974V20.3982ZM184.642 4.1778H178.942V14.217H168.197V4.1778H162.358V29.8978H168.197V18.7514H178.942V29.9063H184.764V4.18546L184.642 4.1778ZM106.404 4.1778V8.71142H114.459V29.9063H120.185V8.71142H128.219V4.17865L106.404 4.1778ZM144.543 3.74206C142.477 3.70407 140.423 4.05306 138.486 4.77099C137.131 5.29339 135.892 6.07542 134.837 7.07312C133.767 8.09118 132.884 9.28887 132.228 10.6118C131.39 12.3838 130.95 14.5906 130.95 17.2042C130.95 21.274 132.207 24.5131 134.641 26.8365C137.075 29.1599 140.459 30.3429 144.619 30.3429C148.715 30.3429 152.041 29.1472 154.5 26.811C156.959 24.4765 158.202 21.2025 158.202 17.0663C158.202 12.9301 156.946 9.59993 154.483 7.28504C152.02 4.97014 148.653 3.74206 144.543 3.74206ZM139.135 23.5301C137.703 22.0578 136.973 19.8706 136.973 17.0255C136.973 14.1795 137.677 11.9395 139.068 10.508C140.459 9.07738 142.319 8.35908 144.589 8.35908C146.859 8.35908 148.711 9.07312 150.081 10.4791C151.45 11.8859 152.145 14.0757 152.145 16.9591C152.145 19.8425 151.434 22.0867 150.052 23.5344C149.348 24.2581 148.5 24.8263 147.563 25.2025C146.624 25.5801 145.617 25.7581 144.606 25.725C143.59 25.7579 142.579 25.5796 141.636 25.2016C140.695 24.8246 139.843 24.2553 139.135 23.5301Z" fill="#00365F"/>
</g>
</g>
<defs>
<linearGradient id="paint0_linear_1281_21544" x1="0.0839844" y1="18.9079" x2="42.5921" y2="18.9079" gradientUnits="userSpaceOnUse">
<stop stop-color="#E30613"/>
<stop offset="1" stop-color="#8A1002"/>
</linearGradient>
<clipPath id="clip0_1281_21544">
<rect width="184.681" height="40" fill="white" transform="translate(0.0859375)"/>
</clipPath>
</defs>
</svg>
