<svg width="84" height="40" viewBox="0 0 84 40" fill="none" xmlns="http://www.w3.org/2000/svg"><g clip-path="url(#clip0_1281_21525)" fill-rule="evenodd" clip-rule="evenodd"><path d="M36.625 16.364c1.07.16 2.12.441 3.13.837l1.236-1.874c.171-.26.502-.363.772-.207l2.556 1.476c.27.155.346.494.207.772L43.52 19.38a14.63 14.63 0 012.29 2.29l2.01-1.008c.28-.139.617-.062.773.207l1.476 2.557c.156.27.052.601-.207.772l-1.808 1.193h-2.41c-.407 0-.743.095-1 .27a11.301 11.301 0 00-10.195-6.419c-4.74 0-8.799 2.92-10.477 7.058H23.9a4.22 4.22 0 00-.367-.228 5.106 5.106 0 00-.874-.38 5.75 5.75 0 00-1.021-.227 8.06 8.06 0 00-.786-.068l-1.816-1.199c-.26-.17-.362-.503-.207-.772l1.476-2.557c.155-.268.494-.346.772-.206l2.012 1.006a14.607 14.607 0 012.29-2.29l-1.007-2.011c-.14-.278-.062-.617.207-.772l2.556-1.476c.27-.155.601-.053.772.207l1.237 1.874a14.447 14.447 0 013.13-.837l.134-2.243c.019-.31.254-.565.565-.565h2.952c.311 0 .547.255.565.565l.135 2.243z" fill="#524945"/><path d="M6.166 32.322l-.873-2.551-.156-.466-.258.744-.767 2.273h2.054zm3.604 3.83c-.36 0-1.69.033-1.943-.04a.763.763 0 01-.25-.124.984.984 0 01-.313-.407l-.503-1.486H3.51c-.11.327-.46 1.488-.625 1.7a.885.885 0 01-.724.356H.264l3.673-9.488h2.398c1.223 3.163 2.448 6.326 3.673 9.488H9.77zm6.47-7.584h-3.471v7.583h-2.465v-9.488h6.1v1.906h-.164zm4.307 2.59c.978 0 1.395-.45 1.395-1.339 0-1.43-1.365-1.238-2.338-1.238v2.578h.943zm0-4.495c1.249 0 2.59.306 3.332 1.37.801 1.149.692 3.13-.431 4.146-1.08.975-2.52.91-3.844.91v3.062H17.15v-9.488h3.396z" fill="#2FA51C"/><path d="M53.181 36.15H50.88v-7.582h-3.112v7.582h-2.465v-9.488h8.042v9.488h-.164zm5.005-4.992c.979 0 1.396-.45 1.396-1.34 0-1.43-1.364-1.238-2.339-1.238v2.578h.943zm0-4.496c1.25 0 2.59.306 3.332 1.37h.001c.8 1.15.692 3.131-.432 4.146-1.08.975-2.519.91-3.844.91v3.062h-2.452v-9.488h3.395zm13.921 4.741c0-3.292-2.805-5.33-5.968-4.749-5.171.95-5.164 8.555 0 9.504 3.172.583 5.968-1.456 5.968-4.755zm-2.503 0c0 1.285-.504 2.464-1.868 2.714-.659.12-1.437.028-1.991-.364v-.001a2.036 2.036 0 01-.611-.697c-.71-1.289-.633-4.412 2.056-4.412 1.67 0 2.414 1.201 2.414 2.76zm14.053-4.577v9.324h-2.2v-5.506l-2.081 4.028c-.278.538-.705.535-1.176.535a.96.96 0 01-.887-.535l-2.082-4.04.001 5.518h-2.2v-9.488c.22 0 1.928-.024 2.159.023.04.008.078.02.112.032.176.068.277.194.363.36l2.358 4.646.32.67.329-.691 2.425-4.748c.198-.287.452-.292.774-.292h1.785v.164z" fill="#524945"/><path d="M35.647 22.631c.59.089 1.167.243 1.722.46l.68-1.03c.095-.143.277-.2.425-.114l1.407.812c.149.086.19.272.114.425l-.554 1.107c.465.372.888.795 1.26 1.26l1.107-.554c.153-.076.34-.035.425.114l.813 1.407c.085.148.028.33-.114.425l-1.032.68a7.9 7.9 0 01.46 1.723l1.235.073c.17.01.311.14.311.311v1.625c0 .171-.14.3-.31.311l-1.235.074a7.947 7.947 0 01-.46 1.722l1.03.68c.143.095.2.277.114.426l-.812 1.407c-.085.148-.272.19-.425.113l-1.107-.553a8.039 8.039 0 01-1.26 1.26l.554 1.107c.077.153.034.339-.114.425l-1.407.812c-.148.085-.33.029-.425-.114l-.68-1.031a7.934 7.934 0 01-1.723.46l-.073 1.235c-.01.17-.14.31-.312.31h-1.624c-.171 0-.301-.14-.311-.31l-.074-1.235a7.935 7.935 0 01-1.722-.46l-.68 1.031c-.095.143-.278.2-.426.114l-1.407-.812c-.148-.086-.19-.272-.114-.425l.554-1.108a8.054 8.054 0 01-1.26-1.26l-1.107.555c-.153.076-.34.034-.425-.114l-.812-1.407c-.086-.148-.029-.331.114-.425l1.031-.68a7.935 7.935 0 01-.46-1.723l-1.235-.074c-.17-.01-.31-.14-.31-.311V29.73c0-.17.14-.3.31-.31l1.235-.075c.088-.59.243-1.167.46-1.722l-1.03-.68c-.144-.094-.2-.277-.115-.425l.812-1.407c.086-.148.272-.19.425-.114l1.108.554a8.046 8.046 0 011.26-1.26l-.555-1.107c-.076-.153-.034-.34.114-.425l1.407-.813c.148-.085.331-.029.425.114l.68 1.032a7.95 7.95 0 011.723-.46l.074-1.235c.01-.171.14-.312.311-.312h1.625c.17 0 .3.14.31.312l.075 1.235zm-1.198 2.31a5.602 5.602 0 100 11.203 5.602 5.602 0 000-11.203zm8.48-10.185c.628-1.678 2.148-.913 3.667-1.412-1.069 1.545-1.234 2.518-3.245 2.277.265-.511.724-.413 1.017-1.025-.457.168-.905.28-1.438.16z" fill="#2FA51C"/><path d="M46.236 13.094c.326-1.761 1.998-1.177 3.376-1.853-1.167 1.799-.789 2.626-2.765 2.624.172-.549.452-.562.694-1.133-.443.177-.739.346-1.305.362zm3.024-2.193c.063-1.79 1.78-1.512 3.043-2.384-.889 1.95-.37 2.767-2.325 3.056.09-.568.364-.622.52-1.222-.412.24-.68.45-1.238.55z" fill="#2FA51C"/><path d="M51.908 8.21c.533-1.44.912-1.24 1.873-1.862.285-.185.63-.4.942-.745.814-.902 1.767-2.493 3.595-5.268.215-.273.177-.18.093-.024-2.374 3.788-3.669 5.613-4.137 6.823-.414 1.07-.396 1.345-1.572 1.703.065-.572.34-.623.47-1.23-.401.258-.712.48-1.264.603z" fill="#2FA51C"/><path d="M52.527 9.39c.292-.102.633-.163 1.032-.376.3-.16.638-.462.978-.777.89-.825 2.04-2.3 4.26-5.532.238-.253.191-.163.094-.015-2.527 3.865-4.288 5.855-4.862 7.019-.508 1.028-.923 1.413-2.216 1.49a1.35 1.35 0 01.015-.055 1.62 1.62 0 00.32-.56c.182-.199.414-.354.666-.51a2.246 2.246 0 00-.503.002c.061-.205.128-.433.216-.686zm-3.83 1.537c.222-.36.031-.653.158-1.087.096-.326.323-.718.563-1.116.628-1.039 1.877-2.436 3.292-5.383.169-.33.07-.25-.005-.096-1.763 3.459-3.496 5.523-4.504 6.366-.735.616-1.256.99-1.297 1.845.243-.13.526-.207.83-.274.092-.281.197-.607.329-.758.047.153.06.441.033.682.16-.032.319-.068.477-.107l.123-.072z" fill="#2FA51C"/><path d="M52.295 6.482c.665-1.015 2.848-3.01 4.058-6.253.17-.33.07-.249-.004-.095-1.126 3.162-4.2 6.19-5.206 7.034-.736.615-1.245.935-1.43 1.996.242-.13.526-.207.829-.274.047-.35.228-.861.443-1.024.047.153-.053.707-.08.948.16-.032.318-.068.476-.107.407-.255.223-1.17.914-2.225zm-2.353 5.413c1.007-.192 1.29.362 2.839-.35.528-.243 1.367-.806 2.205-1.574 1.153-1.058 2.346-2.476 3.091-3.71.164-.264.206-.183.108.017-3.004 4.622-5.606 5.356-6.662 6.485-.879.94-1.383 1.163-2.787.931.353-.17.537-.456.741-.864.3-.018.596.065 1.03-.18-.203-.09-.81 0-.902-.083.096-.2.203-.424.337-.672zm-4.063 1.121c.486-.929-.018-1.12.58-2.104-1.243.912-2.313 1.183-2.441 2.363.212-.07.443-.107.687-.135.157-.292.334-.57.605-.694-.073.19-.154.418-.219.658.31-.026.46-.02.788-.088zm.7 1.126c.838-.189.837.218 2.241.014-1.436.72-1.61 1.897-3.212 1.442.155-.16.29-.351.421-.558.332-.013.659-.05.89-.24a6.77 6.77 0 01-.688-.092c.16-.266.143-.302.347-.566zm-1.458 4.103c1.528-2.281 3.524-.602 5.965-.81-2.14 1.926-2.73 3.319-5.642 2.249.575-.668 1.225-.36 1.878-1.17-.74.09-1.449.1-2.201-.27z" fill="#2FA51C"/><path d="M50.639 16.933c1.108-2.511 3.394-1.05 5.689-1.571-2.376 2.27-2.104 3.638-5.05 2.937.45-.758.871-.679 1.435-1.444-.724.107-1.225.253-2.074.078zm5.284-2.202c.726-2.648 3.187-1.627 5.38-2.481-2.015 2.596-1.53 3.996-4.547 3.738.333-.816.762-.8 1.207-1.64-.7.212-1.174.43-2.04.383z" fill="#2FA51C"/><path d="M60.822 11.654c1.303-1.958 1.798-1.527 3.45-2.116.49-.174 1.083-.373 1.67-.778 1.53-1.057 3.514-3.093 7.22-6.587.418-.33.327-.204.148-.001-4.878 4.81-7.454 7.074-8.58 8.713-.996 1.45-1.066 1.866-2.945 1.984.3-.83.727-.809 1.135-1.667-.69.243-1.23.463-2.098.452z" fill="#2FA51C"/><path d="M61.331 13.633c.472-.05 1.002-.02 1.672-.196.503-.132 1.115-.463 1.734-.813 1.62-.916 3.854-2.71 8.305-6.746.445-.292.344-.175.147.012-5.134 4.87-8.463 7.217-9.73 8.749-1.12 1.354-1.875 1.782-3.831 1.44l.043-.077c.265-.178.473-.42.675-.722.34-.231.74-.38 1.172-.525a3.385 3.385 0 00-.75-.174c.163-.285.343-.601.563-.948zm-6.255.94c.46-.459.278-.963.621-1.565.258-.452.735-.957 1.234-1.466 1.303-1.327 3.659-2.97 6.81-6.864.369-.434.191-.348.027-.145-3.851 4.535-7.165 7.001-8.965 7.903-1.315.658-2.222 1.03-2.586 2.293.408-.108.857-.123 1.333-.116.238-.387.51-.836.76-1.014.016.244-.066.679-.192 1.028.245.007.495.013.748.01.069-.02.139-.042.21-.065z" fill="#2FA51C"/><path d="M62.011 9.214c1.35-1.279 5.31-3.481 8.261-7.89.368-.434.19-.347.027-.144-2.636 4.165-8.449 7.749-10.248 8.65-1.315.659-2.187.956-2.838 2.473.408-.108.857-.123 1.333-.116.194-.505.644-1.204 1.023-1.37.017.244-.33 1.035-.455 1.384.245.007.495.013.748.01.697-.238.746-1.668 2.15-2.997zm-5.512 7.21c1.57.07 1.888 1.027 4.449.512.873-.176 2.36-.718 3.88-1.568 2.093-1.17 4.336-2.864 5.884-4.442.337-.335.372-.198.155.064-6.165 5.86-10.196 5.997-12.226 7.319-1.653 1.076-2.549 1.253-4.561.412.586-.13.978-.567 1.426-1.103.454.08.925.376 1.659.162-.27-.203-1.3-.316-1.406-.471.214-.265.453-.561.74-.884zm-6.364.269c1.052-1.215.369-1.678 1.607-2.934-2.174.921-3.866.948-4.474 2.662a5.14 5.14 0 011.071.042c.338-.38.7-.731 1.15-.822-.177.258-.379.57-.56.904.47.07.693.132 1.206.148zm.645 1.925c1.318.015 1.173.622 3.339.813-2.396.567-3.071 2.26-5.3 1.016a5.21 5.21 0 00.826-.684c.5.098 1 .157 1.412-.043a10.417 10.417 0 01-.994-.38c.332-.34.32-.4.717-.722zm.476 3.21c1.594-1.42 2.769.232 4.646.55-1.984 1.033-2.699 1.966-4.683.595.563-.39.992-.032 1.64-.514-.574-.077-1.108-.207-1.603-.631z" fill="#2FA51C"/><path d="M55.662 21.913c1.322-1.674 2.758-.13 4.586-.076-2.229 1.246-2.29 2.328-4.37 1.228.485-.483.787-.341 1.36-.808-.566-.06-.97-.047-1.576-.344zm4.404-.63c1.06-1.85 2.714-.603 4.53-.82-2.02 1.561-1.928 2.709-4.148 1.928.41-.55.73-.454 1.227-1-.568.025-.967.097-1.61-.107z" fill="#2FA51C"/><path d="M64.352 19.921c1.36-1.22 1.649-.799 3.006-.92.403-.037.887-.071 1.407-.262 1.358-.497 3.246-1.643 6.713-3.551.379-.168.286-.09.111.027-4.605 2.67-6.983 3.873-8.148 4.887-1.031.898-1.165 1.197-2.601.92.386-.565.704-.467 1.177-1.033-.565.049-1.015.109-1.665-.068z" fill="#2FA51C"/><path d="M64.347 21.509c.365.055.758.18 1.296.177.404-.001.929-.131 1.463-.275 1.396-.374 3.426-1.29 7.56-3.46.391-.134.292-.065.108.037-4.856 2.628-7.725 3.709-9.021 4.69-1.09.826-1.757.977-3.162.339l.047-.05c.234-.082.437-.223.648-.411.301-.108.631-.143.983-.167a2.665 2.665 0 00-.53-.277c.178-.182.376-.385.608-.603zm-4.888-.51c.435-.255.397-.67.771-1.056.282-.29.74-.577 1.213-.863 1.238-.745 3.33-1.523 6.459-3.84.36-.255.21-.224.048-.104-3.78 2.663-6.752 3.875-8.281 4.203-1.118.24-1.873.344-2.392 1.222.328-.001.67.074 1.026.172.254-.245.546-.53.768-.615-.035.187-.181.498-.343.736.183.053.37.107.56.153l.171-.008z" fill="#2FA51C"/><path d="M65.72 18.316c1.264-.7 4.671-1.587 7.748-4.33.362-.255.212-.224.048-.104-2.704 2.399-6.836 3.993-9.391 4.516-1.12.23-1.831.294-2.616 1.309.328-.002.67.074 1.026.172.244-.342.719-.78 1.036-.832-.035.187-.449.715-.611.953.183.053.37.106.56.152.57-.042.886-1.109 2.2-1.836zm-5.486 4.394c1.167.357 1.158 1.099 3.184 1.209.692.037 1.888-.09 3.197-.433 1.803-.473 3.847-1.304 5.318-2.19.318-.187.318-.078.103.078-5.705 3.265-8.944 2.59-10.62 3.13-1.46.468-2.102.455-3.453-.569.466.017.82-.182 1.261-.498.326.148.591.4 1.184.381-.163-.205-.853-.45-.903-.587.212-.158.45-.334.729-.52zm-4.903-1.076c1.028-.71.603-1.19 1.78-1.895-1.815.27-3.093-.039-3.884 1.133.262.044.526.133.798.24.328-.221.668-.414 1.024-.395-.183.16-.395.355-.597.571.34.144.496.235.879.346zm.111 1.573c.989.268.761.696 2.354 1.261-1.913-.039-2.75 1.104-4.185-.265.252-.082.5-.209.754-.355.357.171.722.313 1.071.242a8.088 8.088 0 01-.674-.478c.316-.192.318-.24.68-.405zm-20.993.691a6.644 6.644 0 110 13.289 6.644 6.644 0 010-13.289zm0 1.148a5.497 5.497 0 100 10.993 5.497 5.497 0 000-10.993z" fill="#2FA51C"/></g><defs><clipPath id="clip0_1281_21525"><path fill="#fff" transform="translate(.266)" d="M0 0h83.394v40H0z"/></clipPath></defs></svg>