<svg width="185" height="40" viewBox="0 0 185 40" fill="none" xmlns="http://www.w3.org/2000/svg"><g clip-path="url(#clip0_1281_21544)"><mask id="mask0_1281_21544" style="mask-type:luminance" maskUnits="userSpaceOnUse" x="0" y="0" width="185" height="40"><path d="M.084.1h184.681V40H.084V.1z" fill="#fff"/></mask><g mask="url(#mask0_1281_21544)"><path d="M31.546 17.021a10.267 10.267 0 01-1.618 7.74 10.454 10.454 0 01-6.663 4.349c-1.346.25-2.73.234-4.07-.047a10.453 10.453 0 01-3.74-1.591 10.346 10.346 0 01-2.837-2.89 10.242 10.242 0 01-1.5-3.748c-.52-2.69.059-5.472 1.61-7.74a10.441 10.441 0 016.663-4.348 10.504 10.504 0 017.813 1.637 10.356 10.356 0 012.84 2.89 10.253 10.253 0 011.502 3.748z" fill="#fff" stroke="#00365F" stroke-width=".444" stroke-miterlimit="10"/><path fill-rule="evenodd" clip-rule="evenodd" d="M12.978 12.864c1.042-.257 2.119-2.249 3.057-2.406h.205c.31 0 .503.332 1.014.36l.196.216c.214-.091.42-.083.533-.282l.837.042c.767-.785 2.513-.494 2.874-1.606l.515.029c.109-.1.545-.593.75-.58a10.3 10.3 0 00-6.136.924c-.839.469-2.664 1.614-3.557 2.805l-.168.278-.12.22zm8.41 1.983l-.033.717c.096 0 .394.224.502.232.197-.076.411-.1.621-.07l.196.212c-.113.1-.319.19-.419.286-.1-.104-.1-.104-.31 0h-.205c-.306-.116-.616-.133-.913-.249h-.109c-.378.034-.76.015-1.131-.058l-.109.1c-.2 0-.595-.444-.792-.557 0-.104.11-.199.114-.302-.1 0-.298-.22-.419-.225a.528.528 0 00-.42-.228v-.203a3.21 3.21 0 01-1.05.357c-.633.174-1.6.95-2.217.913-.657.792-.69 1.41-.749 2.543.385.53.545 1.36.934 1.896.619-.052 1.24-.052 1.86 0l-.03.514c.235.065.48.077.72.037.093.212-.025.514-.045.921.385.535.9.664.838 1.693l-.227.298c-.06 1.245 1.127 2.22 1.71 3.07.514.03 1.038-.252 1.675-.223.142-.377.415-.69.77-.884l.03-.619c.62.03 1.073-.771 1.31-1.377-.1-.108-.297-.22-.397-.327 0-.307.138-.615.151-.83.125-.506 2.053-1.746 1.947-1.859.03-.514.026-.414.348-.697l-.62-.033c-.213.196-.62.07-.838.059a2.784 2.784 0 00-.427-.672c-.092-.208-.087-.312-.18-.523-.092-.108-.419-.225-.498-.332-.092-.216 0-.415-.072-.622 0-.208-.188-.32-.284-.531-.084-.312-.478-.743-.461-1.055.31 0 .477.748.695.553l.381.763.063.722.692.65.272.735c.926.045 1.613-1.244 2.437-1.212l.126-.414c0-.1-.087-.311-.083-.414h-.31l-.197-.22c-.515-.026-1.257.04-1.617-.594-.21 0-.293-.415-.386-.638.323-.188.809.45.989.875.419 0 .913.352 1.336.17l.193.215c.144-.088.284-.184.42-.286h.305c.1.108.394.415.595.44 0 .203.18.523.176.63a5.81 5.81 0 00-.034-1.344c.197.32.465.955.348 1.245 0 0 .196.22.305.22-.025.311.046 1.037.352 1.053a.437.437 0 00.394.416c0-.205.117-.303.126-.416-.118.2.117-.306.117-.306l-.088-.312-.055-.929c.105-.1.419-.29.536-.386-.092-.211-.092-.211.026-.51.105 0 .2.108.419.12a.692.692 0 00.582.751c0-.207-.096-.207.029-.514h.306a10.54 10.54 0 00-1.072-3.22 9.982 9.982 0 00-3.025-3.476 7.842 7.842 0 00-2.409-1.353s-.167-.128-.212-.107c-.047.02 0 0-.147.17a.293.293 0 01-.273.108c.092.211 0 .1.092.31h-.309c0 .308.176.523.172.627-.105.095-.419 0-.716-.037 0-.203-.075-.622-.386-.634 0 .1-.117.303-.125.414.1.108.293.415.389.535-.419 0-.75.477-1.256.245.23-.502-.897-.663-1.102-.672l-.218.195c-.201-.117-1.063.664-1.282.863l.189.415c.837-.469.837-.262 1.168-.66.201 0 .247-.045.42.1.171.144-.365.535-.365.622 0 .087.096.211.088.314-.214.092-.524.176-.532.283-.105 0-.197-.116-.302-.12 0-.104.222-.299.227-.414-.097-.113-.097-.113-.089-.213-.104 0-.116.096-.217.092h-.206v.311c-.105.095-.322.29-.419.286.214-.195-.519.075-.623.07l-.327.295a3.325 3.325 0 00-1.03-.053.223.223 0 00.196.215.768.768 0 01-.234.502c-.1 0-.096-.108-.31 0l-.386-.531a.349.349 0 01-.209.087c0 .315-.134.614-.147.83l-.327.415-.025.414c.105 0 .205.108.307.121.313-.092.577.096.892.112 0-.104.255-.365.26-.465.209 0 .306.117.51.124.218-.19.444-.593.754-.58l.381.638a.36.36 0 00-.117.304s-.21 0-.118.198c0 .208.394.416.486.54.113-.095.336-.498.55-.589l.025-.415.188.216v.414c.21 0 .398.329.385.537.096-.392.255-.766.47-1.109.104 0 .197.216.297.22l.113-.095c.1 0 .092.104.201.112.03-.174.074-.344.13-.51.306 0 .498.232.808.249.056-.167.1-.338.13-.51l.218-.197c-.226.416.574.96.766 1.175a1.58 1.58 0 01-.67.046l-.192-.216a1.88 1.88 0 01-.717-.137l-.33.29c-.202 0-.299-.12-.42-.124l-.188-.012h-.001zm4.093.427l-.511-.02a.577.577 0 01.12-.416l-.292-.328h-.31a.587.587 0 01-.193-.319l.109-.1c.109 0 .306.12.419.128.033-.206.076-.41.13-.612.01.107.04.212.088.31.205 0 .205 0 .306.121a.37.37 0 00-.117.302c.1 0 .091.108.196.216-.126.303.185.315.28.527l-.225.19zm-13.974 6.89a7.718 7.718 0 011.072-.767 7.234 7.234 0 01-.653-.958v-.415a1.136 1.136 0 01-.302-.12l-.197-.113a2.204 2.204 0 00-.473-.829 8.941 8.941 0 00.553 3.203zm12.742 3.224c-.1 0-.419-.124-.51-.129 0-.1.116-.199.225-.298l-.2-.212v-.211l.221-.196.419.025c.218-.195.766-.783 1.072-.767-.109.095-.318.187-.418.286l.192.213a1.41 1.41 0 00-.138.612c-.419.287-.654.69-.859.677h-.004zm7.226-4.369l-.055-.519-.586-.647.03-.618a.783.783 0 01-.177-.522c.212.208.445.392.696.552l-.026.415.302.224a4.7 4.7 0 01-.184 1.12v-.004z" fill="#00365F"/><path d="M20.937 29.292l.95-20.576m-10.04 14.37c5.028 4.87 14.298 5.356 18.457 1.054l-18.456-1.054zM11.2 16.73c-.838 6.319 21.33 6.97 20.487 1.075L11.199 16.73zm1.482-3.489c-.385 3.469 18.352 5.07 17.836.938l-17.835-.937v-.001zm3.293-3.144c-2.488 2.033 13.999 3.012 11.637.634l-11.637-.634zm5.913-1.48c3.712.186 6.58 4.948 6.284 10.677-.185 5.634-3.532 10.184-7.247 9.998-3.716-.187-6.484-4.949-6.283-10.583.293-5.73 3.527-10.18 7.26-10.093h-.014v0z" stroke="#00365F" stroke-width=".444" stroke-linecap="round" stroke-linejoin="round"/><path d="M15.579 29.084a11.732 11.732 0 01-4.385-4.288 11.588 11.588 0 01-1.601-5.892 11.55 11.55 0 01.885-4.464 11.645 11.645 0 012.545-3.79 11.775 11.775 0 013.815-2.534 11.866 11.866 0 014.505-.894 11.774 11.774 0 014.846 1.04 11.67 11.67 0 013.975 2.939l5.374-4.705a18.803 18.803 0 00-6.399-4.717A18.97 18.97 0 0021.342.11 19.043 19.043 0 007.958 5.63 18.676 18.676 0 002.43 18.903a18.628 18.628 0 003.02 10.18h10.128zm24.663-10.18a18.74 18.74 0 00-.904-5.766 20.254 20.254 0 00-.562-1.507c-.204-.493-.74-1.526-.74-1.526h-3.964l-1.885 4.307a11.49 11.49 0 01.9 4.488 11.558 11.558 0 01-3.38 8.194 11.745 11.745 0 01-8.172 3.484H.084v7.132h21.451a18.94 18.94 0 0013.24-5.568 18.692 18.692 0 005.467-13.238zm-2.22 11.692A20.492 20.492 0 0129 37.726h13.592v-7.143l-4.57.013z" fill="url(#paint0_linear_1281_21544)"/><path d="M52.029 33.76v4.286h-.667v-3.663h-1.709v3.663h-.66V33.76h3.036zm.9 1.403c0-.552 0-.992-.034-1.402h.6l.033.733a1.405 1.405 0 011.303-.828c.892 0 1.558.874 1.558 2.177 0 1.54-.804 2.298-1.675 2.298a1.265 1.265 0 01-1.131-.672v2.328h-.658l.004-4.634zm.658 1.14c.003.107.013.214.029.32a1.081 1.081 0 001.006.908c.707 0 1.118-.672 1.118-1.66 0-.858-.39-1.592-1.098-1.592a1.14 1.14 0 00-.675.308 1.112 1.112 0 00-.334.659 1.5 1.5 0 00-.046.319v.739-.001zm6.798-.435c0 1.585-.942 2.273-1.83 2.273-.997 0-1.76-.83-1.76-2.202 0-1.436.805-2.274 1.823-2.274 1.018 0 1.767.88 1.767 2.203zm-2.931.045c0 .938.46 1.66 1.114 1.66.653 0 1.118-.702 1.118-1.66 0-.725-.314-1.66-1.102-1.66s-1.114.847-1.114 1.66h-.017zm6.379-2.152v3.687h.381l-.037 1.938h-.524l-.034-1.361h-2.543l-.029 1.361h-.531l-.034-1.938h.314a3.57 3.57 0 00.365-.875 6.611 6.611 0 00.212-1.71v-1.115l2.46.013zm-1.86 1.302a6.57 6.57 0 01-.188 1.593c-.077.273-.176.54-.298.797h1.676v-3.099h-1.207l.017.709zm3.07-1.302l.804 2.534c.085.282.177.618.235.875.072-.257.147-.584.239-.895l.73-2.514h.707l-1.006 3.052c-.476 1.47-.804 2.224-1.256 2.685-.224.245-.515.42-.837.502l-.168-.652c.22-.085.42-.215.586-.381.25-.245.442-.54.562-.867a.654.654 0 00.054-.188.8.8 0 00-.046-.202l-1.358-3.95h.754zm3.804 0v1.862h.159l1.382-1.862h.813l-1.6 1.94c.59.072.946.532 1.235 1.299.111.356.243.705.395 1.046h-.7a6.537 6.537 0 01-.34-.876c-.25-.693-.59-1.008-1.214-1.008h-.13v1.884h-.662V33.76h.662zm5.4 0v.621h-1.165v3.664h-.657v-3.663h-1.149v-.622h2.97zm1.042 0v1.46c.198-.04.398-.058.6-.054.787 0 1.587.382 1.587 1.435a1.3 1.3 0 01-.38.992c-.41.351-.941.53-1.48.497a8 8 0 01-.988-.062v-4.267l.661-.001zm0 3.733c.153.022.307.033.462.034.51 0 1.063-.245 1.063-.91 0-.663-.532-.904-1.035-.904a2.366 2.366 0 00-.49.046v1.734zm3.31-3.733v4.285h-.662V33.76h.661zm5.348 0v4.285h-.67v-3.663h-1.709v3.663h-.662V33.76h3.041zm1.508 0v1.808c0 .681 0 1.104-.037 1.718h.025c.222-.514.347-.83.59-1.31l1.148-2.216h.784v4.285h-.64v-1.813c0-.701 0-1.066.045-1.755h-.021c-.19.449-.392.892-.608 1.328-.351.664-.754 1.49-1.147 2.24h-.783V33.76h.644zm5.865 0v.621h-1.147v3.664h-.658v-3.663h-1.148v-.622h2.953zm2.923 3.273a7.04 7.04 0 00.063 1.028H93.7l-.054-.539a1.322 1.322 0 01-1.127.635 1.158 1.158 0 01-.837-.378 1.11 1.11 0 01-.285-.866c0-1.038.787-1.602 2.21-1.594v-.086c0-.358-.087-.992-.837-.992a1.626 1.626 0 00-.955.32l-.155-.514a2.034 2.034 0 011.206-.383c1.127 0 1.4.897 1.4 1.752l-.022 1.617zm-.636-1.175c-.729 0-1.559.133-1.559.967 0 .502.29.742.634.742a.934.934 0 00.887-.717.855.855 0 00.038-.232v-.76zm2.174-2.098v1.725h1.746v-1.724h.658v4.285h-.657V36.11H95.78v1.937h-.662v-4.285l.662-.001zm3.925 0v1.808c0 .681 0 1.104-.038 1.718.222-.514.352-.83.595-1.31l1.148-2.216h.779v4.285h-.624v-1.813c0-.701 0-1.066.046-1.755h-.021c-.192.447-.395.89-.607 1.328-.353.664-.754 1.49-1.148 2.24h-.77V33.76h.64zm6.111 4.285h-.657V36.25h-.495a.8.8 0 00-.616.236c-.272.257-.373.788-.515 1.208a3.873 3.873 0 01-.15.352h-.717c.09-.155.166-.318.226-.485.164-.416.252-.975.578-1.295a.868.868 0 01.419-.25v-.024a1.068 1.068 0 01-.696-.342 1.048 1.048 0 01-.276-.72 1.057 1.057 0 01.486-.93 2.274 2.274 0 011.232-.289c.395.001.79.03 1.181.087v4.248zm-.657-3.771a3.427 3.427 0 00-.553-.042c-.457 0-.997.15-.997.743s.582.742.98.742h.57v-1.443zm3.59-.514v1.808c0 .681 0 1.104-.034 1.718h.021c.218-.514.348-.83.591-1.31l1.148-2.216h.783v4.285h-.637v-1.813c0-.701 0-1.066.046-1.755h-.025c-.191.448-.393.89-.607 1.328-.352.664-.754 1.49-1.148 2.24h-.766V33.76h.628zm7.85 0v4.285h-.671v-3.663h-1.709v3.663h-.662V33.76h3.042zm1.507 0v1.808c0 .681 0 1.104-.037 1.718h.025c.218-.514.347-.83.591-1.31l1.147-2.216h.78v4.285h-.617v-1.813c0-.701 0-1.066.046-1.755h-.046c-.192.447-.394.89-.606 1.328-.353.664-.754 1.49-1.148 2.24h-.759V33.76h.624zm4.043 0v3.687h1.286v-3.675h.649v3.675h1.286v-3.675h.662v3.675h.369l-.034 1.938h-.507l-.03-1.361h-4.322V33.76h.641zm5.202 2.286c0 1.053.591 1.485 1.256 1.485.354.013.703-.063 1.018-.22l.113.555a2.58 2.58 0 01-1.223.274c-1.131 0-1.809-.875-1.809-2.165s.658-2.31 1.726-2.31c1.202 0 1.52 1.244 1.52 2.015a2.985 2.985 0 01-.025.366h-2.576zm1.96-.561c0-.494-.175-1.265-.925-1.265-.679 0-.972.726-1.026 1.265h1.951zm1.266-1.672c.387-.066.78-.097 1.172-.095.616 0 1.634.112 1.634 1.07a.969.969 0 01-.771.962v.038a1.023 1.023 0 01.938 1.062c0 1.124-1.218 1.266-1.939 1.266-.419 0-.838-.038-1.034-.055v-4.248zm.632 3.734c.179.027.359.04.54.038.448 0 1.115-.125 1.115-.743s-.532-.755-1.169-.755h-.486v1.46zm0-1.974h.515c.494 0 1.005-.166 1.005-.673 0-.414-.318-.626-.988-.626a4.23 4.23 0 00-.516.033l-.016 1.266zm3.64-1.813v1.46c.197-.04.398-.058.599-.054.787 0 1.587.382 1.587 1.435a1.285 1.285 0 01-.381.992 2.08 2.08 0 01-1.478.497 8.401 8.401 0 01-.993-.062v-4.267l.666-.001zm0 3.733c.152.022.306.033.46.034.512 0 1.065-.245 1.065-.91 0-.663-.533-.904-1.035-.904a2.351 2.351 0 00-.49.046v1.734zm3.309-3.733v4.285h-.661V33.76h.661zm1.278 2.286c0 1.053.591 1.485 1.256 1.485.353.013.703-.063 1.018-.22l.114.555c-.38.19-.8.284-1.223.274-1.132 0-1.81-.875-1.81-2.165s.653-2.31 1.725-2.31c1.203 0 1.517 1.244 1.517 2.015 0 .122-.007.244-.021.366h-2.576zm1.956-.561c0-.494-.172-1.265-.926-1.265-.674 0-.971.726-1.025 1.265h1.951zm3.317-1.725v1.808c0 .681 0 1.104-.041 1.718h.025c.222-.514.348-.83.591-1.31l1.147-2.216h.792v4.285h-.637v-1.813c0-.701 0-1.066.042-1.755-.189.449-.391.892-.607 1.328-.348.664-.754 1.49-1.148 2.24h-.766V33.76h.602zm4.052 0v1.725h1.746v-1.724h.662v4.285h-.662V36.11h-1.746v1.937h-.663v-4.285l.663-.001zm5.554 0v.63h-1.596v3.655h-.662V33.76h2.258zm.448 1.401c0-.551 0-.991-.034-1.401h.603l.03.733a1.4 1.4 0 01.528-.608c.233-.148.503-.225.779-.221.888 0 1.554.875 1.554 2.178 0 1.54-.805 2.298-1.675 2.298a1.267 1.267 0 01-.662-.177c-.2-.118-.362-.29-.469-.495v2.328h-.654v-4.634zm.661 1.14c.002.109.011.215.03.32a1.07 1.07 0 00.985.909c.707 0 1.118-.672 1.118-1.66 0-.858-.39-1.592-1.093-1.592a1.124 1.124 0 00-.677.306 1.105 1.105 0 00-.333.66 1.275 1.275 0 00-.046.32l.016.739v-.001zm3.834-.255c0 1.053.594 1.485 1.256 1.485.352.013.702-.063 1.018-.22l.113.555c-.379.19-.799.284-1.223.274-1.131 0-1.805-.875-1.805-2.165s.652-2.31 1.721-2.31c1.202 0 1.52 1.244 1.52 2.015v.366h-2.6zm1.96-.561c0-.494-.177-1.265-.926-1.265-.679 0-.976.726-1.027 1.265h1.953zm4.155-1.725v3.687h.377l-.038 1.938h-.523l-.029-1.361h-2.548l-.028 1.361h-.524l-.03-1.938h.31c.16-.275.283-.569.364-.875.148-.558.22-1.132.214-1.71v-1.115l2.455.013zm-1.86 1.302a6.53 6.53 0 01-.192 1.593 4.346 4.346 0 01-.297.797h1.696v-3.099h-1.207v.709zm3.46-1.302v1.808c0 .681 0 1.104-.037 1.718h.02c.222-.514.353-.83.595-1.31l1.148-2.216h.779v4.285h-.637v-1.813c0-.701 0-1.066.046-1.755h-.02a24.03 24.03 0 01-.608 1.328c-.348.664-.754 1.49-1.148 2.24h-.766V33.76h.628zm3.775 2.286c0 1.053.595 1.485 1.256 1.485a2.15 2.15 0 001.022-.22l.109.555c-.379.19-.799.284-1.223.274-1.131 0-1.805-.875-1.805-2.165s.653-2.31 1.725-2.31c1.198 0 1.517 1.244 1.517 2.015.006.122.006.244 0 .366h-2.601zm1.96-.561c0-.494-.176-1.265-.926-1.265-.674 0-.972.726-1.027 1.265h1.953zm1.931-1.725v1.725h1.742v-1.724h.662v4.285h-.662V36.11h-1.742v1.937h-.662v-4.285l.662-.001zm5.772 0v.621h-1.147v3.664h-.663v-3.663h-1.148v-.622h2.958zm1.039 0v1.46a2.87 2.87 0 01.598-.054c.793 0 1.588.382 1.588 1.435a1.305 1.305 0 01-.377.992 2.108 2.108 0 01-1.483.497c-.33 0-.66-.022-.988-.062v-4.267l.662-.001zm0 3.733c.153.022.309.033.465.034a.95.95 0 00.974-.529.924.924 0 00.089-.38c0-.693-.536-.904-1.034-.904a2.431 2.431 0 00-.494.045v1.734zm3.313-3.733v4.285h-.679V33.76h.679zM66.095 4.178h-6.078l-11.025 25.72h6.283s2.262-5.658 2.312-5.808H68.65c.05.137 2.446 5.808 2.446 5.808h6.43l-11.33-25.72h-.1zm-6.702 15.415c.117-.261 3.426-8.545 3.632-9.043.2.498 3.577 8.783 3.693 9.043h-7.325zm38.546.805c-.47 1.842-1.257 3.207-2.284 4.045a5.718 5.718 0 01-3.77 1.282c-.9.03-1.799-.135-2.63-.483a6.224 6.224 0 01-2.183-1.533c-1.231-1.332-1.868-3.634-1.868-6.825 0-2.999.637-5.194 1.885-6.52a6.447 6.447 0 012.241-1.528 6.5 6.5 0 012.677-.477 6.071 6.071 0 013.707 1.124 5.313 5.313 0 012.011 3.074l.02.108 5.773-1.265-.034-.108c-.641-2.074-1.608-3.659-2.869-4.746-2.124-1.863-4.926-2.804-8.336-2.804-3.887 0-7.075 1.2-9.466 3.56-2.392 2.36-3.603 5.72-3.603 9.956 0 4.024 1.207 7.248 3.586 9.57 2.38 2.323 5.446 3.506 9.144 3.506 2.987 0 5.483-.685 7.427-2.05 1.943-1.364 3.351-3.472 4.189-6.264l.029-.09-5.634-1.66-.012.127v.001zm86.703-16.22h-5.7v10.039h-10.745V4.177h-5.839v25.72h5.839V18.752h10.745v11.155h5.822V4.186l-.122-.008zm-78.238 0V8.71h8.055v21.195h5.726V8.711h8.034V4.18l-21.815-.001zm38.139-.436a16.551 16.551 0 00-6.057 1.029 11.145 11.145 0 00-3.649 2.302 12.628 12.628 0 00-2.609 3.539c-.838 1.772-1.278 3.979-1.278 6.592 0 4.07 1.257 7.31 3.691 9.633 2.434 2.323 5.818 3.506 9.978 3.506 4.096 0 7.422-1.196 9.881-3.532 2.459-2.334 3.702-5.608 3.702-9.745 0-4.136-1.256-7.466-3.719-9.781-2.463-2.315-5.83-3.543-9.94-3.543zm-5.408 19.788c-1.432-1.472-2.162-3.66-2.162-6.505 0-2.845.704-5.085 2.095-6.517 1.391-1.43 3.251-2.149 5.521-2.149s4.122.714 5.492 2.12c1.369 1.407 2.064 3.597 2.064 6.48 0 2.884-.711 5.128-2.093 6.575a7.231 7.231 0 01-2.489 1.669 7.287 7.287 0 01-2.957.522 7.342 7.342 0 01-2.97-.523 7.278 7.278 0 01-2.501-1.672z" fill="#00365F"/></g></g><defs><linearGradient id="paint0_linear_1281_21544" x1=".084" y1="18.908" x2="42.592" y2="18.908" gradientUnits="userSpaceOnUse"><stop stop-color="#E30613"/><stop offset="1" stop-color="#8A1002"/></linearGradient><clipPath id="clip0_1281_21544"><path fill="#fff" transform="translate(.086)" d="M0 0h184.681v40H0z"/></clipPath></defs></svg>