<svg width="231" height="40" viewBox="0 0 231 40" fill="none" xmlns="http://www.w3.org/2000/svg"><g clip-path="url(#clip0_1281_21609)"><mask id="mask0_1281_21609" style="mask-type:luminance" maskUnits="userSpaceOnUse" x="0" y="0" width="231" height="40"><path d="M230.429 0H.799v40h229.63V0z" fill="#fff"/></mask><g mask="url(#mask0_1281_21609)" fill-rule="evenodd" clip-rule="evenodd" fill="#383A3F"><path d="M.799 4.438h4.208v13.339H8.83a15.45 15.45 0 015.52-9.875 15.312 15.312 0 0110.742-3.43 15.332 15.332 0 0110.18 4.862 15.473 15.473 0 014.136 10.535c0 3.911-1.478 7.677-4.135 10.535a15.332 15.332 0 01-10.18 4.862 15.312 15.312 0 01-10.743-3.43 15.45 15.45 0 01-5.52-9.874H5.007V35.3H.8V4.438zm23.253 3.575c2.334 0 4.616.695 6.556 1.998a11.846 11.846 0 014.347 5.322 11.91 11.91 0 01.672 6.851 11.876 11.876 0 01-3.23 6.071 11.785 11.785 0 01-6.043 3.246 11.76 11.76 0 01-6.819-.675 11.81 11.81 0 01-5.296-4.368 11.898 11.898 0 01-1.99-6.587 11.91 11.91 0 013.464-8.378 11.799 11.799 0 018.339-3.48zm39.056-3.575v4.228H47.912v26.64h-4.209V4.438h19.405zm142.85 0h4.208v22.706l16.054-22.7h4.211v30.862h-4.205V12.585l-16.056 22.7h-4.212V4.438zm-59.085 0l4.205.053 8.876 18.555 7.597-18.608h4.215l-10.43 25.543c-1.64 4.377-6.23 5.356-10.878 4.647v-3.996c3.216.83 9.182.207 6.578-4.9L146.861 4.437h.012zm-12.477 0h.034a10.246 10.246 0 013.992.735 10.286 10.286 0 013.4 2.229 10.372 10.372 0 010 14.749c-.975.962-2.13 1.72-3.4 2.229a10.245 10.245 0 01-3.992.735h-8.155V35.3h-4.209V4.438h12.33zm.034 3.373a6.92 6.92 0 014.905 2.042 6.986 6.986 0 012.032 4.928 6.986 6.986 0 01-2.032 4.928 6.92 6.92 0 01-4.905 2.042h-8.161V7.81h8.161zm53.18-3.373c2.848.005 5.638.803 8.061 2.307a15.436 15.436 0 015.662 6.212h-4.15a11.802 11.802 0 00-5.89-4.345 11.75 11.75 0 00-7.309-.026 11.803 11.803 0 00-5.921 4.303 11.897 11.897 0 000 13.963 11.803 11.803 0 005.921 4.303 11.75 11.75 0 007.309-.025 11.803 11.803 0 005.89-4.345h4.15a15.41 15.41 0 01-5.376 6.031 15.303 15.303 0 01-15.539.687 15.393 15.393 0 01-5.881-5.534 15.482 15.482 0 01-2.284-7.764 15.481 15.481 0 011.944-7.858 15.405 15.405 0 015.636-5.787 15.302 15.302 0 017.777-2.122zm-76.524 20.02c-2.238 10.043-8.325 10.774-9.632 12.48a1.847 1.847 0 00-.49 1.432c.096.786.752 1.4 1.622 1.635h-8.238v-8.298l.027.049a.246.246 0 01-.021-.04c2.466 4.767 8.966-.195 8.559-7.258h8.173zM99.51 6.29a3.73 3.73 0 01-.139.422c-.543 1.314-1.825 2.032-2.858 1.605-1.033-.428-1.434-1.859-.894-3.166l.018-.04c.05-.116.106-.227.17-.335a8.387 8.387 0 013.49-3.218 8.479 8.479 0 01.216 4.724l-.003.009zm4.869 4.359a2.95 2.95 0 01-.308.356c-1.002 1.003-2.466 1.177-3.253.384-.786-.793-.616-2.261.383-3.268l.037-.031a3.32 3.32 0 01.277-.242 8.355 8.355 0 014.452-1.632 8.448 8.448 0 01-1.597 4.436l.009-.003zm3.114 5.751c-.127.09-.26.173-.398.245-1.255.657-2.7.381-3.215-.62-.515-1 .086-2.344 1.341-3.001l.043-.019a3.73 3.73 0 01.336-.149 8.341 8.341 0 014.736-.21 8.448 8.448 0 01-2.849 3.751l.006.003zm-.273 6.627a3.32 3.32 0 01-.472.034c-1.412 0-2.568-.93-2.568-2.038 0-1.11 1.156-2.039 2.568-2.039h.052c.126.002.252.011.376.028a8.378 8.378 0 014.292 2.008 8.4 8.4 0 01-4.248 2.004v.003zM89.243 8.683l.87-.505V0h1.562v7.27l.873-.508V1.496h1.56v27.77l-4.865 2.835v7.822H87.68V1.512h1.563v7.17zm.422 17.799l2.467-1.44c.231-.137.422.027.422.365v.96a1.086 1.086 0 01-.422.861l-2.467 1.438c-.234.136-.425-.028-.425-.363v-.963a1.076 1.076 0 01.425-.858zm0-4.873l2.467-1.437c.231-.136.422.028.422.362v.967a1.09 1.09 0 01-.422.858l-2.467 1.437c-.234.136-.425-.028-.425-.362v-.964a1.082 1.082 0 01.425-.86zm0-4.87l2.467-1.437c.231-.136.422.028.422.366v.96a1.087 1.087 0 01-.422.861l-2.467 1.438c-.234.136-.425-.028-.425-.363v-.963a1.082 1.082 0 01.425-.861zm0-4.869l2.467-1.437c.231-.136.422.028.422.365v.96a1.086 1.086 0 01-.422.862l-2.467 1.437c-.234.136-.425-.028-.425-.365v-.96a1.082 1.082 0 01.425-.862zm-18.419-1.618l2.399 2.1 5.08-6.464-7.479 4.364zM85.168 5.49h.025l.127.068h-.022l-.105-.058h-.059l-.037-.038-.03-.024-.028-.019-.028-.019h-.031l-.027-.021h-.016a1.891 1.891 0 01-.467-2.23 1.873 1.873 0 012.009-1.06V.679c-.108 0-.216-.015-.324-.015a3.26 3.26 0 00-2.08.749 3.3 3.3 0 00-.799 4.102c.36.67.943 1.194 1.646 1.48v4.176H80.51v2.345h4.396v16.325c-.46.39-5.472-.016-7.667-1.453-1.015-.867-1.348-1.769 1.64-4.148h-9.715l1.958 9.172c2.584-4.857 3.761-1.548 6.638 1.041 2.876 2.59 4.581 4.009 8.71 5.217V5.735h-.673l-.114-.028-.068-.019h-.129l-.105-.043h-.018l-.17-.093-.025-.062z"/></g></g><defs><clipPath id="clip0_1281_21609"><path fill="#fff" transform="translate(.613)" d="M0 0h230v40H0z"/></clipPath></defs></svg>