<svg width="107" height="40" viewBox="0 0 107 40" fill="none" xmlns="http://www.w3.org/2000/svg"><g clip-path="url(#clip0_1281_21555)"><mask id="mask0_1281_21555" style="mask-type:luminance" maskUnits="userSpaceOnUse" x="0" y="0" width="107" height="40"><path d="M106.614 0H.768v40h105.846V0z" fill="#fff"/></mask><g mask="url(#mask0_1281_21555)"><path d="M9.598 1.459H6.33v3.268h3.268V1.459zm-5.6 5.667H.73v3.268h3.268V7.126zm0-5.667H.73v3.268h3.268V1.459z" fill="#76BC21"/><path d="M40.078 34.53a.677.677 0 00-.714.104c-.215.136 0 .48.204.345.061-.043.19-.142.27-.117.08.024 0 .148 0 .221a2.366 2.366 0 01-.357.567c-.277.33-.577.64-.898.929-.65.6-1.36 1.128-2.123 1.575a.203.203 0 00.203.345 12.702 12.702 0 002.634-2.056c.397-.356.712-.795.923-1.286a.46.46 0 00-.142-.627zm41.004-2.431a2.02 2.02 0 00-.831.117c-.372.119-.73.28-1.065.48a4.172 4.172 0 00-1.661 1.717c-.148.32-.166.713.197.892.354.114.735.114 1.089 0 .252-.05.148-.437-.105-.388a1.801 1.801 0 01-.726.037c-.258-.068-.147-.301-.055-.48a3.892 3.892 0 011.33-1.372 3.62 3.62 0 011.618-.616.831.831 0 01.178 0l-.037.08c-.032.054-.07.106-.11.154a3.29 3.29 0 01-.32.339 3.798 3.798 0 01-1.976 1.034c-.252.049-.142.43.11.387a4.204 4.204 0 002.148-1.138c.279-.21.492-.493.616-.819.03-.246-.166-.4-.4-.424zm4.166.276a.617.617 0 00-.376-.221v-.037a1.719 1.719 0 00-1.028-1.514l.48-.086a13.077 13.077 0 011.982-.167h.474c.252 0 .135.203 0 .339-.136.135.11.48.283.283.172-.197.437-.726.037-.948a1.355 1.355 0 00-.646-.08h-.751c-.489.02-.976.072-1.459.154a9.6 9.6 0 00-.732.142.75.75 0 00-.486.252c-.099.135.037.283.172.302a1.392 1.392 0 011.231 1.316 3.917 3.917 0 00-.75.191 4.592 4.592 0 00-2.272 1.71c-.221.32-.51.844-.166 1.176a1.469 1.469 0 001.231.179 3.945 3.945 0 002.43-1.41c.382-.4.745-1.07.346-1.581zm-.228.56c-.037.27-.153.522-.332.726a3.569 3.569 0 01-2.284 1.342c-.273.08-.566.057-.824-.062-.203-.166.154-.615.258-.763a4.16 4.16 0 011.926-1.44c.2-.078.405-.135.616-.172a1.776 1.776 0 01-.326.615.204.204 0 00-.143-.305.203.203 0 00-.128.022 1.95 1.95 0 00-.923 1.157.204.204 0 00.246.246 2.61 2.61 0 001.692-1.735h.074l.03.037.069.104c.035.07.052.15.049.228zm-.96.24a2.388 2.388 0 01-.548.48c.132-.176.3-.323.492-.43a.149.149 0 00.056-.05zm-6.855-1.083a2.412 2.412 0 00-.99.197 5.197 5.197 0 00-1.232.677c-.371.27-.703.59-.984.954-.216.283-.499.695-.382 1.07.117.376.542.4.855.4a6.454 6.454 0 001.773-.332c.246-.074.141-.461-.105-.388a8.69 8.69 0 01-1.169.277c-.257.04-.519.04-.775 0-.16 0-.228-.055-.197-.221.079-.262.218-.503.406-.702a4.506 4.506 0 011.477-1.181c.4-.245.86-.375 1.329-.376h.055c.031 0 .043 0 0 .093a1.88 1.88 0 01-.203.24c-.126.123-.266.23-.418.32a.217.217 0 00-.197-.099 1.125 1.125 0 00-.51.246.233.233 0 000 .431c.215.099.498-.037.694-.129.229-.108.437-.253.616-.43.206-.149.35-.368.406-.616a.476.476 0 00-.45-.43zm-44.61 2.985c.252-.05.148-.437-.104-.388a9.966 9.966 0 01-1.65.24 1.292 1.292 0 01-.344-.03.322.322 0 010-.136c.025-.1.062-.198.11-.29.386.058.78.017 1.145-.116a3.943 3.943 0 001.342-.615c.387-.267.716-.61.966-1.01a.4.4 0 00-.326-.615 2.524 2.524 0 00-1.145.246 5.02 5.02 0 00-1.452.868c-.38.32-.696.711-.93 1.15-.153.302-.24.782.173.917a3.07 3.07 0 001.23 0c.314-.104.653-.166.985-.221zm-1.44-1.317a4.264 4.264 0 012.216-1.23c.112-.016.226-.016.338 0-.043.06-.082.124-.117.19-.063.082-.13.16-.203.234a5.75 5.75 0 01-.45.418 3.366 3.366 0 01-1.23.616 2.95 2.95 0 01-.91.172c.122-.19.258-.314.356-.412v.012zm-1.281-.93a2.127 2.127 0 01-.418.32.215.215 0 00-.197-.098 1.127 1.127 0 00-.511.246.233.233 0 000 .43c.215.1.498-.036.695-.129.229-.107.437-.253.616-.43.206-.149.35-.368.406-.616a.474.474 0 00-.486-.474 2.395 2.395 0 00-.991.197 5.199 5.199 0 00-1.23.677 4.822 4.822 0 00-.955.954c-.215.283-.498.696-.381 1.07.117.376.541.4.855.4a6.486 6.486 0 001.797-.3c.246-.075.142-.462-.105-.388a8.79 8.79 0 01-1.169.277c-.257.04-.518.04-.775 0-.166 0-.228-.056-.197-.222a1.75 1.75 0 01.4-.695 4.512 4.512 0 011.477-1.182 2.623 2.623 0 011.348-.375h.037c.043.074.049 0 0 .092-.065.088-.137.17-.216.246zm39.94-.953c-.77-.062-1.846.246-2.074 1.077a1.312 1.312 0 00.283 1.23c.108.128.237.236.381.32l-.086.099c-.529.043-1.064 0-1.594.05-.252 0-.252.424 0 .4.425-.044.868 0 1.299 0-.08.165-.062.393.16.43.26-.006.514-.071.744-.19l.363-.124c.111 0 .253-.037.333-.13a.265.265 0 000-.368 2.316 2.316 0 001.298-1.613.998.998 0 00-.24-.91 1.335 1.335 0 00-.867-.271zm.35 1.846c-.278.3-.616.542-.99.708l-.087-.037.185-.203c.332-.339.67-.665 1.015-.991.191-.179-.092-.462-.283-.283-.344.326-.683.652-1.015.997l-.295.307a1.02 1.02 0 01-.585-.664c-.154-.616.357-1.003.88-1.17a2.25 2.25 0 01.861-.086c.182.003.36.051.518.142.393.283.049.985-.204 1.255v.025zm19.655-1.458a.667.667 0 00-.234-.216 2.574 2.574 0 00-1.01-.227 3.774 3.774 0 00-1.636.184 1.144 1.144 0 00-.868 1.102c.043.37.351.541.659.683.281.127.568.24.861.338-.16.134-.311.276-.455.425h-.215a7.96 7.96 0 00-1.379.062c-.258.043-.148.424.105.387a7.13 7.13 0 011.144-.043.223.223 0 000 .086c0 .308.333.345.548.283.379-.102.751-.23 1.114-.381.197-.08.388-.16.578-.252.191-.093.283-.191.179-.357a.45.45 0 00-.24-.16c.34-.24.618-.558.806-.93.077-.179.119-.37.123-.566l.197-.16c.203-.141-.099-.424-.277-.258zm-3.268 1.009c-.27-.21 0-.615.253-.757a2.46 2.46 0 011.064-.277 4.16 4.16 0 011.071.056c.166.037.455.067.548.233l-1.563 1.317a11.427 11.427 0 01-.77-.277 2.404 2.404 0 01-.603-.295zm1.453 1.028h.086c-.08.047-.165.087-.253.117l.167-.117zm1.027-.69c-.16.16-.33.308-.51.444l-.167-.062c.345-.295.702-.615 1.059-.874a1.66 1.66 0 01-.382.492zm-23.188 1.169a1.778 1.778 0 01-.258.062h-.074a2.9 2.9 0 01.265-.536c.35-.583.745-1.139 1.181-1.661.086-.105.074-.308-.086-.339a.727.727 0 00-.468.111l.037-.037c.191-.178-.092-.455-.283-.283-.424.41-.816.85-1.175 1.317-.542.342-1.053.731-1.526 1.163-.16.166-.48.45-.339.708.142.258.486.135.677 0 .473-.394.901-.84 1.274-1.33l.178-.22.653-.456.166-.117c-.298.388-.564.8-.794 1.23-.092.185-.246.45-.172.665.11.333.615.173.849.105.234-.068.142-.455-.105-.382zm-48.01-2.904c-.77-.062-1.846.246-2.074 1.077a1.297 1.297 0 00.283 1.23c.108.128.237.236.382.32l-.086.099c-.53.043-1.065 0-1.594.05-.252 0-.252.424 0 .4.425-.044.868 0 1.298 0-.08.165-.061.393.16.43.26-.006.515-.071.745-.19l.363-.124c.11 0 .252-.037.332-.13a.265.265 0 00-.03-.368 2.32 2.32 0 001.31-1.588.997.997 0 00-.24-.91 1.335 1.335 0 00-.849-.296zm.35 1.846c-.278.3-.615.542-.99.708l-.086-.037.185-.203c.332-.339.67-.665 1.015-.991.19-.179-.092-.462-.283-.283-.345.326-.683.652-1.015.997l-.296.307a1.022 1.022 0 01-.56-.689c-.154-.615.357-1.003.88-1.17.279-.083.572-.113.862-.085.181.002.36.05.517.141.369.308.024 1.01-.228 1.28v.025zm-4.32 1.058c-.085.027-.17.048-.258.062h-.074c.07-.187.158-.367.264-.536.35-.583.745-1.139 1.182-1.661.086-.105.074-.308-.086-.339a.726.726 0 00-.468.111l.037-.037c.19-.178-.092-.455-.283-.283-.424.41-.817.85-1.176 1.317a10.85 10.85 0 00-1.526 1.17c-.16.166-.48.449-.338.707.141.259.486.136.677 0 .47-.4.893-.852 1.261-1.348l.179-.221.652-.456.166-.116a8.928 8.928 0 00-.794 1.23c-.092.185-.246.45-.172.665.11.332.615.172.85.105.233-.068.153-.444-.093-.37zm49.502-1.199l.215-.221c.111-.105.222-.21.327-.32a.266.266 0 00.043-.08l.037-.043a.202.202 0 00-.093-.333.77.77 0 00-.203-.486 1.325 1.325 0 00-1.194-.344 2.64 2.64 0 00-1.23.707 2.363 2.363 0 00-.806 1.182.695.695 0 00.615.904c.267.003.531-.052.775-.16l.32-.135-1.286 1.366-2.53.215c-.405.037-.811.062-1.23.124-.258.037-.615.073-.615.4.014.175.054.347.117.51.067.265.117.536.166.806.092.511.172 1.016.24 1.533 0 .184.05.394.234.492.184.099.412-.086.56-.24l1.003-1.058 2.246-2.4h.08a.216.216 0 00.184-.277l.068-.074c.659-.695 1.305-1.385 1.957-2.068zm-2.498.48c-.216-.221.086-.683.227-.874a3.45 3.45 0 01.825-.757 1.44 1.44 0 01.96-.295c.27.03.615.19.615.51a.757.757 0 01-.178.4l-.056.062c-.221.197-.462.37-.72.517a.941.941 0 01-.572 0c-.129 0-.197-.098-.154-.24a.615.615 0 01.376-.375c.234-.105.03-.45-.203-.345a.83.83 0 00-.523 1.046.553.553 0 00.276.265c-.246.13-.664.295-.873.086zm-1.41 3.077l-1.944 2.068-.08.086v-.247c0-.208-.056-.418-.086-.615-.08-.486-.16-.978-.265-1.464 0-.13-.172-.45-.068-.56.105-.111.616-.086.77-.099l.683-.061 2.055-.179c-.381.345-.72.708-1.065 1.065v.006zM9.63 34.634a12.755 12.755 0 00-1.373-.061H6.885c.757-.85 1.508-1.711 2.27-2.566.924-.94 1.749-1.97 2.462-3.077.203-.345.487-.893.062-1.188-.425-.295-1.065-.05-1.526.13a7.187 7.187 0 00-1.557.842c-.216.164-.421.34-.616.53-.153.141-.35.283-.344.504.006.222.412.259.4 0 0-.098.45-.418.517-.474.197-.157.402-.303.615-.437h.056a58.673 58.673 0 00-5.471 5.73H1.076c-.092 0-.117.036-.179.129a.197.197 0 000 .221c.222.34.491.644.8.905a.203.203 0 00.283-.283 3.611 3.611 0 01-.473-.462l-.087-.098-.049-.062 5.317.05H9.15c.19.006.379.024.566.055.258.037.32.037.092.21a3.735 3.735 0 01-.51.282c-.234.105-.031.45.202.345.333-.16 1.164-.499.917-.99-.141-.222-.553-.204-.787-.235zm.695-6.326a.19.19 0 00.062-.098l.092-.037c.238-.1.492-.159.75-.173.462 0 .216.493.08.72-.274.46-.587.897-.935 1.305-1.267 1.55-2.646 3.034-3.981 4.523h-2.13a59.524 59.524 0 016.062-6.24zm88.565-1.846a90.16 90.16 0 01-5.537 7.132c-.173.191.11.474.282.283a58.903 58.903 0 002.388-2.873.16.16 0 00.166-.062 40.431 40.431 0 003.077-4.308c.105-.172-.227-.369-.375-.172zm-6.37 8.553c-.197-.197-.467.13-.283.314.185.185.474-.13.283-.314z" fill="#2C2C31"/><path d="M37.401 34.541c-.531.174-1.08.29-1.637.345-.24.018-.48.018-.72 0a.4.4 0 01-.332-.172 44.673 44.673 0 005.502-3.84c.203-.166-.087-.45-.283-.284a42.93 42.93 0 01-5.28 3.693 2.24 2.24 0 01.338-.85 3.2 3.2 0 01.972-.996c.216-.142 0-.486-.203-.345a3.379 3.379 0 00-1.47 1.988 1.7 1.7 0 00-.037.437c-1.077.615-2.185 1.23-3.317 1.729-.234.11 0 .455.203.344a42.118 42.118 0 003.224-1.68.634.634 0 00.166.198c.398.208.859.26 1.293.147a7.919 7.919 0 001.686-.357c.246-.055.141-.437-.105-.357zm18.284-2.677h-.037c-.554.425-1.102.862-1.63 1.311l-.616.492-.29.222c.335-.506.707-.985 1.114-1.434.173-.19-.11-.474-.283-.283a12.583 12.583 0 00-1.606 2.21 4.463 4.463 0 01-.375.209c-.239.129-.49.232-.751.307-.1.029-.204.046-.308.05h-.08a.868.868 0 01.08-.413c.081-.214.182-.42.302-.615.128-.23.276-.449.443-.653l.492-.4c.185-.147-.05-.412-.24-.313a.786.786 0 000-.117c.05-.468-.504-.548-.837-.45a3.72 3.72 0 00-1.23.77 6.02 6.02 0 00-1.059 1.107l-.215.327-.868.27-.443.142-.215.067h-.074l.061-.166c.043-.104.099-.209.154-.313a1.27 1.27 0 00.24-.665.203.203 0 00-.252-.197 2.75 2.75 0 00-.708.345 5.38 5.38 0 00.548-.776 21.73 21.73 0 003.55-2.72c.185-.178-.098-.461-.283-.283-.908.856-1.89 1.63-2.935 2.314.437-.523.874-1.046 1.292-1.588.234-.301.468-.615.683-.923.148-.227.394-.578.093-.794a.197.197 0 00-.24.031 10.41 10.41 0 00-.776.85c-.11.14-.215.295-.32.442a1.27 1.27 0 00-.264.511.203.203 0 00.061.197c-.498.616-1.015 1.23-1.538 1.846-.358.197-.694.43-1.003.696-.415.327-.791.7-1.12 1.114-.11.118-.195.258-.246.412a.26.26 0 00.295.332c.278-.074.54-.202.77-.375.227-.15.445-.315.651-.492.191-.173.37-.351.542-.536a.228.228 0 00.055.154.21.21 0 00.284 0c.11-.085.228-.161.35-.228v.043a3.353 3.353 0 00-.215.419 2.41 2.41 0 00-.136.406.29.29 0 00.259.35.99.99 0 00.462-.08l.486-.153.615-.19a.696.696 0 000 .418c.154.412.658.227.93.067.457-.31.892-.653 1.298-1.027l.104-.087a2.937 2.937 0 00-.209.616c-.068.277-.068.615.27.707a2.16 2.16 0 001.269-.307.197.197 0 00.32.221l.313-.295a.58.58 0 00.542.135 9.577 9.577 0 001.76-.393c.246-.074.142-.462-.105-.382a10.504 10.504 0 01-1.797.394c-.055 0-.086 0-.098-.037.437-.406.88-.8 1.335-1.182l1.68-1.347c.117-.117-.117-.431-.301-.29zm-9.994 2.074a5.39 5.39 0 01-1.126.874c.28-.331.59-.638.923-.917.242-.21.499-.4.77-.572a7.85 7.85 0 01-.567.615zm4.923-1.23c.16-.11.328-.205.505-.284a.615.615 0 01.307-.061c.13 0 .099.105.05.21a2.34 2.34 0 01-.616.725 5.538 5.538 0 01-1.741.831 5.59 5.59 0 011.434-1.415l.061-.006zm-1.612 2.184a.411.411 0 01-.222.074c-.061 0-.037 0 0-.08a.53.53 0 01.062-.228l1.003-.357c-.276.235-.58.435-.905.597l.062-.006zm-22.955-2.96a.214.214 0 00-.068 0 21.15 21.15 0 003.502-3.73c.172-.251.51-.615.48-.984-.056-.523-.616-.037-.813.105a18.906 18.906 0 00-2.418 2.394 54.976 54.976 0 00-1.926 2.375l-.179.068a3.94 3.94 0 00-1.317.99.793.793 0 00-.264.696.344.344 0 00.301.258c-.098.16-.197.327-.283.493a.892.892 0 00-.184.615c.073.259.344.283.56.21a4.956 4.956 0 001.169-.616 7.21 7.21 0 001.083-.905c.141-.147.27-.307.4-.467a2.34 2.34 0 00.406-.616.653.653 0 00-.45-.886zm2.461-3.538l.548-.493a3.16 3.16 0 01.265-.209h.037c-.117.185-.24.357-.363.53a17.096 17.096 0 01-2.031 2.289c-.45.43-.917.855-1.391 1.267a31.512 31.512 0 012.935-3.384zm-4.972 5.354c-.08 0-.117 0-.092-.093a1.28 1.28 0 01.369-.461c.142-.14.294-.267.455-.382 0 0-.467.616-.677.942l-.055-.006zm2.462-.856a5.6 5.6 0 01-1.508 1.514c-.29.213-.599.398-.923.554a1.541 1.541 0 01-.179.074.522.522 0 00-.104.037c0-.056.049-.13.074-.179.024-.05.117-.215.178-.326.062-.11.172-.277.259-.412a.22.22 0 00.16-.24c.197-.283.658-.856.664-.862a12.7 12.7 0 01.954-.794.956.956 0 01.314 0c.086.031.215.068.252.166.037.099-.055.357-.141.468zm8-25.766v3.132h-8.77v2.203h6.518v2.954h-6.517v2.148h9.108v3.157H21.955V7.126h12.043zm13.595 5.114a4.805 4.805 0 00-4.308-2.375 4.061 4.061 0 100 8.117 4.708 4.708 0 004.308-2.234l2.64 1.483c-1.379 2.578-4.007 3.858-6.985 3.858-4.148 0-7.385-2.726-7.385-7.132s3.391-7.126 7.385-7.126c3.077 0 5.588 1.299 6.985 3.859l-2.64 1.55zm47.753 0a4.807 4.807 0 00-4.308-2.375 4.059 4.059 0 00-3.895 2.468 4.07 4.07 0 000 3.181 4.064 4.064 0 003.895 2.468 4.704 4.704 0 004.308-2.234l2.652 1.483c-1.378 2.578-4.006 3.858-6.985 3.858-4.147 0-7.384-2.726-7.384-7.132s3.39-7.126 7.384-7.126c3.077 0 5.588 1.299 6.985 3.859l-2.652 1.55zM11.29 7.126H6.244v5.046h5.046V7.126z" fill="#2C2C31"/><path d="M13.875 7.126h-.234v3.157h.492a2 2 0 012.191 2.068 2.066 2.066 0 01-2.19 2.172h-7.89v6.197h3.274v-3.034h4.357c3.268 0 5.68-2.092 5.68-5.31 0-3.22-2.412-5.25-5.68-5.25zm48.763 10.406l3.544-10.406h-3.329L60.908 13.2h-3.821a.781.781 0 01-.745-.554l-1.661-5.539h-3.286l1.993 6.259c.665 1.97 1.92 2.695 4.087 2.695h2.56l-.191.671a1.594 1.594 0 01-1.532 1.114h-4.154l-.948 2.905h4.978a4.696 4.696 0 004.45-3.219zM15.702 2.105h-1.397v2.621h-.664V1.471h2.061v.634zm3.718.461a1.058 1.058 0 01-1.157 1.126h-.702v1.053h-.665V1.47h1.367a1.046 1.046 0 011.157 1.095zm-.671 0c0-.289-.166-.467-.511-.467h-.677v.941h.677c.375 0 .51-.184.51-.468v-.006zm2.892 2.16h-.745l.616-1.126-1.145-2.13h.739l.75 1.41.733-1.41h.738l-1.686 3.256zm5.656 0h-.683V2.105h-1.428v2.621h-.665V1.471h2.776v3.255zm4.197 0h-.665V2.105h-1.446v2.621h-.664V1.471h2.775v3.255zm3.495-.769h-1.317l-.29.77h-.689l1.231-3.256h.837l1.23 3.255h-.731l-.271-.77zm-.234-.616L34.33 2.16l-.43 1.18h.855zm6.628.616h-1.348l-.283.77h-.701l1.23-3.256h.844l1.23 3.255h-.707l-.265-.77zm-.234-.616l-.43-1.181-.425 1.181h.855zm4.438-1.236h-1.391v2.621h-.665V1.471h2.056v.634zm3.721.462a1.058 1.058 0 01-1.157 1.126h-.701v1.052h-.665V1.471h1.366a1.052 1.052 0 011.157 1.096zm-.677 0c0-.29-.166-.468-.51-.468h-.671v.941h.701c.314 0 .48-.184.48-.467v-.006zm5.196.51a1.698 1.698 0 11-1.699-1.686 1.662 1.662 0 011.699 1.686zm-2.72 0a1.022 1.022 0 102.044 0 1.022 1.022 0 00-2.044 0zm6.768 1.649h-.665V2.105h-1.446v2.621H55.1V1.471h2.775v3.255zm3.945-2.159a1.058 1.058 0 01-1.157 1.107h-.701v1.053h-.665V1.47h1.366a1.052 1.052 0 011.157 1.096zm-.67 0c0-.29-.167-.468-.512-.468h-.676v.941h.676c.345 0 .511-.184.511-.467v-.006zm2.614-.462v.652h1.391v.615h-1.39v.702h1.52v.615H63.1V1.471h2.184v.615l-1.52.019zm6.166 1.987v1.28h-.664v-.646h-2.203v.646h-.665v-1.28h.462a.785.785 0 00.154-.43l.35-2.191h2.1v2.621h.467zm-2.35 0h1.23V2.105h-.873l-.259 1.618a2.546 2.546 0 01-.098.37zm6.32.634h-.664V2.105H71.79v2.621h-.665V1.471H73.9v3.255zm3.945-2.16a1.056 1.056 0 01-1.157 1.108h-.701v1.052h-.665V1.471h1.366a1.048 1.048 0 011.157 1.095zm-.67 0c0-.289-.167-.467-.511-.467h-.677v.941h.677c.344 0 .51-.184.51-.468v-.006zm4.706-1.096v3.256h-.665v-1.36l.062-.917-1.415 2.277H79.1V1.471h.664v1.36l-.061.917 1.421-2.277h.757zm3.872 0v3.256h-.677v-1.12h-.419l-.794 1.12h-.818l.874-1.188a.967.967 0 01-.69-1.003 1 1 0 011.108-1.064h1.416zm-.677 1.533v-.899h-.665c-.344 0-.51.179-.51.45 0 .27.166.449.51.449h.665zm4.406-.898h-.942v2.621h-.664V2.105h-.954v-.616h2.535l.025.616zm3.956-.635v3.256h-.665v-1.36l.062-.917-1.416 2.277h-.763V1.471h.665v1.36l-.062.917 1.416-2.277h.763zm4.16 0v3.256h-.665v-1.36l.062-.917-1.416 2.277h-.763V1.471h.665v1.36l-.061.917 1.415-2.277h.763zM95.426.389V.265h.523v.104a.257.257 0 00.255.298.261.261 0 00.196-.09.265.265 0 00.06-.208V.265h.523v.123a.782.782 0 01-1.557 0zM75.967 7.126h-7.631V20.72h3.274v-3.034h4.357c3.267 0 5.68-2.092 5.68-5.31 0-3.22-2.413-5.25-5.68-5.25zm.258 7.385H71.61v-4.228h4.615a2 2 0 012.19 2.068 2.06 2.06 0 01-.608 1.576 2.064 2.064 0 01-1.582.596v-.012z" fill="#2C2C31"/></g></g><defs><clipPath id="clip0_1281_21555"><path fill="#fff" transform="translate(.768)" d="M0 0h105.846v40H0z"/></clipPath></defs></svg>