<svg width="107" height="40" viewBox="0 0 107 40" fill="none" xmlns="http://www.w3.org/2000/svg">
<g clip-path="url(#clip0_1281_21555)">
<mask id="mask0_1281_21555" style="mask-type:luminance" maskUnits="userSpaceOnUse" x="0" y="0" width="107" height="40">
<path d="M106.614 0H0.767578V40H106.614V0Z" fill="white"/>
</mask>
<g mask="url(#mask0_1281_21555)">
<path d="M9.59775 1.45898H6.33008V4.72668H9.59775V1.45898Z" fill="#76BC21"/>
<path d="M3.99816 7.12598H0.730469V10.3937H3.99816V7.12598Z" fill="#76BC21"/>
<path d="M3.99816 1.45898H0.730469V4.72668H3.99816V1.45898Z" fill="#76BC21"/>
<path d="M40.0783 34.5295C39.9616 34.4779 39.8326 34.4603 39.7063 34.4788C39.58 34.4974 39.4615 34.5512 39.3645 34.6342C39.1491 34.7695 39.3645 35.1142 39.5676 34.9788C39.6291 34.9357 39.7583 34.8372 39.8383 34.8619C39.9183 34.8865 39.8383 35.0095 39.8383 35.0834C39.7467 35.2881 39.6266 35.4787 39.4814 35.6495C39.2043 35.9801 38.904 36.2907 38.583 36.5788C37.9339 37.1786 37.2221 37.7068 36.4599 38.1542C36.4236 38.1852 36.3993 38.228 36.3915 38.2751C36.3836 38.3222 36.3926 38.3705 36.4168 38.4117C36.4411 38.4529 36.479 38.4841 36.524 38.5001C36.5691 38.5159 36.6182 38.5155 36.663 38.4988C37.6276 37.9326 38.5132 37.2415 39.2968 36.4434C39.6939 36.0865 40.0088 35.6476 40.2199 35.1572C40.2827 35.0548 40.303 34.9319 40.2765 34.8147C40.2501 34.6975 40.179 34.5951 40.0783 34.5295Z" fill="#2C2C31"/>
<path d="M81.0818 32.0986C80.8 32.079 80.5169 32.1188 80.251 32.2155C79.8793 32.3349 79.5218 32.4959 79.1864 32.6955C78.4769 33.0936 77.8997 33.6904 77.5249 34.4125C77.3772 34.7325 77.3587 35.1263 77.7218 35.3048C78.0757 35.4187 78.4572 35.4187 78.811 35.3048C79.0633 35.2555 78.9587 34.8679 78.7064 34.9171C78.4695 34.9786 78.2221 34.9912 77.9803 34.954C77.7218 34.8863 77.8326 34.6525 77.9249 34.474C78.2467 33.9132 78.704 33.4415 79.2541 33.1017C79.736 32.7687 80.291 32.5575 80.8726 32.4863C80.9317 32.4799 80.992 32.4799 81.051 32.4863L81.0141 32.5663C80.9815 32.6204 80.944 32.6718 80.9033 32.7202C80.8049 32.8403 80.6978 32.9535 80.5833 33.0586C80.043 33.5931 79.355 33.9533 78.608 34.0925C78.3556 34.1417 78.4664 34.5232 78.7187 34.4802C79.531 34.3205 80.2781 33.9245 80.8664 33.3417C81.1446 33.1324 81.3581 32.8487 81.4818 32.5232C81.5126 32.2771 81.3156 32.1232 81.0818 32.0986Z" fill="#2C2C31"/>
<path d="M85.2475 32.375C85.1533 32.2578 85.0198 32.1791 84.8721 32.1535V32.1166C84.861 31.793 84.7583 31.4792 84.5767 31.2113C84.3952 30.9435 84.141 30.7325 83.8444 30.6027L84.3244 30.5166C84.6567 30.4612 84.989 30.4181 85.3275 30.3935C85.666 30.3689 85.9798 30.3504 86.306 30.3504C86.466 30.3504 86.626 30.3504 86.7798 30.3504C87.0321 30.3504 86.9152 30.5535 86.7798 30.6889C86.6444 30.8242 86.8906 31.1689 87.0629 30.9719C87.2352 30.775 87.4998 30.2458 87.0998 30.0242C86.8943 29.9454 86.6721 29.918 86.4537 29.9442C86.2014 29.9442 85.9552 29.9442 85.7029 29.9442C85.2143 29.9647 84.7269 30.0161 84.2444 30.0981C83.9983 30.135 83.7521 30.1842 83.5121 30.2396C83.3238 30.2595 83.1503 30.3496 83.026 30.4919C82.9275 30.6273 83.0629 30.775 83.1983 30.7935C83.5263 30.8311 83.8303 30.9843 84.0561 31.2256C84.2813 31.4668 84.4137 31.7805 84.429 32.1104C84.173 32.1491 83.9213 32.213 83.6783 32.3012C82.7595 32.6168 81.9644 33.2158 81.4075 34.0119C81.186 34.3319 80.8967 34.855 81.2413 35.1873C81.421 35.3052 81.6241 35.3822 81.837 35.413C82.0494 35.4439 82.2666 35.4278 82.4721 35.3658C83.4278 35.2103 84.293 34.7087 84.9029 33.9566C85.2844 33.5566 85.6475 32.8858 85.2475 32.375ZM85.0198 32.935C84.9829 33.2046 84.8672 33.4572 84.6875 33.6612C84.1269 34.3846 83.309 34.8649 82.4044 35.0027C82.1312 35.0822 81.8383 35.0604 81.5798 34.9412C81.3767 34.775 81.7337 34.3258 81.8383 34.1781C82.3244 33.519 82.9946 33.018 83.7644 32.7381C83.9632 32.6604 84.1693 32.6026 84.3798 32.5658C84.3127 32.7905 84.202 32.9996 84.0537 33.1812C84.0764 33.143 84.0863 33.0984 84.0813 33.0542C84.0764 33.0099 84.0567 32.9685 84.026 32.9364C83.9952 32.9042 83.9552 32.883 83.9109 32.8761C83.8672 32.8692 83.8223 32.8769 83.7829 32.8981C83.3349 33.1475 83.0038 33.5631 82.8598 34.055C82.8512 34.089 82.8518 34.1246 82.861 34.1584C82.8703 34.1922 82.8887 34.223 82.9133 34.2478C82.938 34.2725 82.9687 34.2905 83.0026 34.2998C83.0364 34.3092 83.0721 34.3097 83.106 34.3012C83.5072 34.1704 83.8709 33.9442 84.1657 33.6419C84.4604 33.3397 84.6777 32.9704 84.7983 32.5658H84.8352H84.8721L84.9029 32.6027L84.9706 32.7073C85.0063 32.7777 85.0235 32.8561 85.0198 32.935ZM84.0598 33.175C83.9029 33.362 83.7183 33.5238 83.5121 33.655C83.6444 33.4788 83.8124 33.3321 84.0044 33.2242C84.0266 33.2128 84.0457 33.1959 84.0598 33.175Z" fill="#2C2C31"/>
<path d="M77.2049 32.0921C76.8645 32.087 76.5267 32.1542 76.2141 32.289C75.7753 32.4578 75.3612 32.6855 74.9833 32.9659C74.6116 33.2354 74.2799 33.5566 73.9987 33.9198C73.7833 34.2028 73.5002 34.6151 73.6172 34.9905C73.7341 35.3659 74.1587 35.3905 74.4725 35.3905C75.0756 35.3628 75.6726 35.251 76.2449 35.0582C76.491 34.9844 76.3864 34.5967 76.1402 34.6705C75.7575 34.7896 75.3667 34.8822 74.971 34.9474C74.7138 34.9875 74.4522 34.9875 74.1956 34.9474C74.0356 34.9474 73.9679 34.8921 73.9987 34.7259C74.0775 34.4636 74.2166 34.2233 74.4049 34.0244C74.8079 33.5306 75.3113 33.1279 75.8818 32.8428C76.2818 32.598 76.7421 32.4681 77.211 32.4674H77.2664C77.2972 32.4674 77.3095 32.4674 77.2664 32.5598C77.2055 32.6452 77.1378 32.7255 77.0633 32.7998C76.9372 32.9231 76.7969 33.0306 76.6449 33.1198C76.6239 33.0871 76.5944 33.0608 76.5599 33.0434C76.5255 33.0261 76.4867 33.0185 76.4479 33.0213C76.2596 33.0584 76.0836 33.1431 75.9372 33.2674C75.8947 33.2854 75.8584 33.3153 75.8332 33.3536C75.8079 33.3919 75.7944 33.4369 75.7944 33.4828C75.7944 33.5288 75.8079 33.5737 75.8332 33.612C75.8584 33.6503 75.8947 33.6803 75.9372 33.6982C76.1526 33.7967 76.4356 33.6613 76.6325 33.569C76.8609 33.4614 77.0689 33.3157 77.2479 33.1382C77.4541 32.99 77.5987 32.7709 77.6541 32.5228C77.6436 32.4089 77.5926 32.3025 77.5101 32.2233C77.4276 32.1442 77.3193 32.0975 77.2049 32.0921Z" fill="#2C2C31"/>
<path d="M32.5952 35.0768C32.8475 35.0276 32.7429 34.6399 32.4906 34.6892C31.9485 34.8151 31.3968 34.8954 30.8413 34.9292C30.7256 34.9344 30.6096 34.9241 30.4967 34.8984C30.4871 34.8538 30.4871 34.8076 30.4967 34.763C30.5217 34.6624 30.5589 34.5653 30.6075 34.4738C30.9928 34.5308 31.3863 34.4905 31.7521 34.3568C32.234 34.238 32.6891 34.0292 33.0936 33.7415C33.4815 33.4748 33.8103 33.1313 34.0598 32.7322C34.0979 32.6725 34.1196 32.6038 34.1225 32.533C34.1254 32.4623 34.1094 32.392 34.0762 32.3294C34.0431 32.2668 33.9939 32.2141 33.9336 32.1768C33.8735 32.1394 33.8044 32.1188 33.7336 32.1168C33.3381 32.108 32.9459 32.1924 32.589 32.363C32.0593 32.568 31.5682 32.8614 31.1367 33.2307C30.7565 33.5516 30.4411 33.9422 30.2075 34.3815C30.0536 34.683 29.9675 35.163 30.3798 35.2984C30.7858 35.3813 31.2045 35.3813 31.6106 35.2984C31.9244 35.1938 32.2629 35.1322 32.5952 35.0768ZM31.1552 33.7599C31.7519 33.1346 32.5244 32.7055 33.3706 32.5292C33.4829 32.5143 33.5967 32.5143 33.709 32.5292C33.6656 32.5899 33.6266 32.6536 33.5921 32.7199C33.5293 32.802 33.4615 32.88 33.389 32.9538C33.2468 33.1012 33.0969 33.2408 32.9398 33.3722C32.5763 33.6599 32.1573 33.8694 31.709 33.9876C31.4163 34.0926 31.109 34.1508 30.7983 34.1599C30.9213 33.9692 31.0567 33.8461 31.1552 33.7476V33.7599Z" fill="#2C2C31"/>
<path d="M29.8742 32.8302C29.7483 32.9536 29.6078 33.0611 29.4557 33.1502C29.4348 33.1176 29.4054 33.0912 29.3708 33.0739C29.3361 33.0566 29.2974 33.0489 29.2588 33.0517C29.0703 33.0889 28.8945 33.1736 28.748 33.2979C28.7057 33.3158 28.6695 33.3458 28.6442 33.3841C28.6188 33.4224 28.6052 33.4673 28.6052 33.5133C28.6052 33.5592 28.6188 33.6042 28.6442 33.6425C28.6695 33.6808 28.7057 33.7107 28.748 33.7287C28.9634 33.8271 29.2465 33.6917 29.4434 33.5994C29.6715 33.4918 29.8796 33.3461 30.0588 33.1687C30.2652 33.0204 30.4098 32.8013 30.4649 32.5533C30.465 32.49 30.4523 32.4274 30.4278 32.3691C30.4031 32.3107 30.3671 32.2579 30.3219 32.2138C30.2765 32.1696 30.2228 32.135 30.1639 32.1119C30.105 32.0888 30.042 32.0778 29.9788 32.0794C29.6383 32.0738 29.3005 32.141 28.988 32.2763C28.549 32.4452 28.135 32.673 27.7572 32.9533C27.3963 33.225 27.0752 33.5461 26.8034 33.9071C26.588 34.1902 26.3049 34.6025 26.4219 34.9779C26.5388 35.3533 26.9634 35.3779 27.2772 35.3779C27.8875 35.3624 28.4924 35.2609 29.0742 35.0763C29.3203 35.0025 29.2157 34.6148 28.9695 34.6887C28.5867 34.8078 28.196 34.9003 27.8003 34.9656C27.5434 35.0055 27.2819 35.0055 27.0249 34.9656C26.8588 34.9656 26.7972 34.9102 26.828 34.744C26.9059 34.4845 27.0428 34.2464 27.228 34.0487C27.6313 33.5549 28.1347 33.1522 28.7049 32.8671C29.1119 32.6223 29.5777 32.4925 30.0526 32.4917H30.0895C30.1326 32.5656 30.1388 32.4917 30.0895 32.584C30.025 32.6722 29.9529 32.7545 29.8742 32.8302Z" fill="#2C2C31"/>
<path d="M69.8136 31.8767C69.0444 31.8152 67.9675 32.1229 67.7398 32.9537C67.6801 33.1661 67.6745 33.3901 67.7244 33.6052C67.7736 33.8203 67.8764 34.0194 68.0228 34.1844C68.1312 34.3121 68.2598 34.4203 68.4044 34.5044L68.3182 34.6029C67.789 34.646 67.2536 34.6029 66.7244 34.6521C66.4721 34.6521 66.4721 35.0767 66.7244 35.0521C67.149 35.0091 67.5921 35.0521 68.0228 35.0521C67.9428 35.2183 67.9613 35.446 68.1829 35.4829C68.4425 35.4772 68.6973 35.4119 68.9275 35.2921L69.2905 35.1691C69.4013 35.1691 69.5428 35.1321 69.6228 35.0398C69.6708 34.9904 69.6979 34.9241 69.6979 34.8552C69.6979 34.7862 69.6708 34.7199 69.6228 34.6706C69.9496 34.5207 70.2364 34.2971 70.4616 34.0173C70.6875 33.7375 70.8444 33.4092 70.9213 33.0583C70.9595 32.8984 70.9576 32.7316 70.9158 32.5727C70.8739 32.4139 70.7933 32.2678 70.6813 32.1475C70.4327 31.9585 70.1256 31.8627 69.8136 31.8767ZM70.1644 33.7229C69.8856 34.0238 69.5484 34.2646 69.1736 34.4306L69.0875 34.3937L69.2721 34.1906C69.6044 33.8521 69.9428 33.526 70.2875 33.1998C70.4782 33.0214 70.1952 32.7383 70.0044 32.9167C69.6598 33.2429 69.3213 33.5691 68.989 33.9137L68.6936 34.2214C68.5527 34.1615 68.4265 34.0707 68.3256 33.9556C68.2247 33.8406 68.1502 33.7043 68.109 33.5567C67.9552 32.9414 68.4659 32.5537 68.989 32.3875C69.2678 32.3033 69.5607 32.274 69.8505 32.3014C70.0321 32.3036 70.2099 32.3524 70.3675 32.4429C70.7613 32.726 70.4167 33.4275 70.1644 33.6983V33.7229Z" fill="#2C2C31"/>
<path d="M89.819 32.2648C89.7593 32.1751 89.6793 32.1012 89.5851 32.0494C89.2676 31.906 88.9242 31.8285 88.5759 31.8217C88.0233 31.7619 87.4645 31.825 86.939 32.0063C86.6928 32.0677 86.4737 32.2093 86.3168 32.4087C86.1599 32.608 86.0731 32.854 86.0713 33.1079C86.1143 33.4771 86.422 33.6494 86.7297 33.7909C87.011 33.9181 87.2983 34.0311 87.5913 34.1294C87.4319 34.2629 87.2799 34.4047 87.1359 34.554H86.9205C86.4602 34.5346 85.9986 34.5552 85.542 34.6156C85.2836 34.6586 85.3943 35.0402 85.6466 35.0032C86.0263 34.9582 86.4091 34.9438 86.7913 34.9602C86.7857 34.9886 86.7857 35.0179 86.7913 35.0463C86.7913 35.354 87.1236 35.3909 87.3389 35.3294C87.718 35.2272 88.0903 35.0997 88.4528 34.9479C88.6497 34.8679 88.8405 34.7879 89.0313 34.6956C89.222 34.6032 89.3143 34.5048 89.2097 34.3386C89.1494 34.2604 89.0651 34.2041 88.9697 34.1786C89.3106 33.9397 89.5876 33.6206 89.7759 33.2494C89.8528 33.0704 89.8946 32.8781 89.899 32.6832L90.0959 32.5232C90.299 32.3817 89.9974 32.0986 89.819 32.2648ZM86.5513 33.274C86.2805 33.0648 86.5513 32.6586 86.8036 32.5171C87.1328 32.3456 87.4971 32.251 87.8682 32.2402C88.2257 32.2124 88.5857 32.231 88.939 32.2956C89.1051 32.3325 89.3943 32.3632 89.4866 32.5294L87.9236 33.8463C87.6651 33.7602 87.4066 33.674 87.1543 33.5694C86.9402 33.4996 86.7377 33.4002 86.5513 33.274ZM88.0036 34.3017H88.0897C88.0097 34.3493 87.9254 34.3885 87.8374 34.4186L88.0036 34.3017ZM89.0313 33.6125C88.8713 33.7716 88.7008 33.9196 88.5205 34.0556L88.3543 33.994C88.699 33.6986 89.0559 33.3786 89.4128 33.1202C89.318 33.3069 89.1882 33.474 89.0313 33.6125Z" fill="#2C2C31"/>
<path d="M65.8434 34.7814C65.7591 34.8083 65.6723 34.8289 65.585 34.8429H65.5111C65.5807 34.6558 65.6693 34.4763 65.7757 34.3075C66.1259 33.7238 66.521 33.1682 66.9573 32.646C67.0434 32.5414 67.0311 32.3383 66.8711 32.3075C66.7074 32.2903 66.5425 32.3293 66.4034 32.4183L66.4403 32.3814C66.6311 32.2029 66.348 31.926 66.1573 32.0983C65.7333 32.5075 65.3407 32.9477 64.9819 33.4152C64.4397 33.757 63.929 34.1463 63.4557 34.5783C63.2957 34.7444 62.9757 35.0275 63.1173 35.286C63.2588 35.5444 63.6034 35.4214 63.7942 35.286C64.2674 34.8924 64.6951 34.4465 65.068 33.9567L65.2465 33.7352L65.8988 33.2798L66.065 33.1629C65.7671 33.5506 65.5013 33.9623 65.2711 34.3937C65.1788 34.5783 65.025 34.8429 65.0988 35.0583C65.2096 35.3906 65.7142 35.2306 65.948 35.1629C66.1819 35.0952 66.0896 34.7075 65.8434 34.7814Z" fill="#2C2C31"/>
<path d="M17.8331 31.8767C17.0639 31.8152 15.987 32.1229 15.7593 32.9537C15.6978 33.1659 15.6915 33.3904 15.7411 33.6057C15.7906 33.8211 15.8943 34.0203 16.0424 34.1844C16.1503 34.3121 16.2794 34.4203 16.4239 34.5044L16.3378 34.6029C15.8085 34.646 15.2731 34.6029 14.7439 34.6521C14.4916 34.6521 14.4916 35.0767 14.7439 35.0521C15.1685 35.0091 15.6116 35.0521 16.0424 35.0521C15.9624 35.2183 15.9808 35.446 16.2024 35.4829C16.4619 35.4772 16.7167 35.4119 16.947 35.2921L17.3101 35.1691C17.4208 35.1691 17.5624 35.1321 17.6424 35.0398C17.6866 34.9865 17.7081 34.9179 17.7024 34.8489C17.6967 34.7799 17.664 34.7158 17.6116 34.6706C17.9375 34.5247 18.2254 34.3055 18.4527 34.0301C18.6801 33.7547 18.8408 33.4305 18.9224 33.0829C18.9605 32.923 18.9586 32.7563 18.9167 32.5974C18.8748 32.4385 18.7943 32.2924 18.6824 32.1721C18.442 31.9784 18.1418 31.874 17.8331 31.8767ZM18.1839 33.7229C17.9053 34.0238 17.5682 34.2646 17.1932 34.4306L17.107 34.3937L17.2916 34.1906C17.6239 33.8521 17.9624 33.526 18.307 33.1998C18.4978 33.0214 18.2147 32.7383 18.0239 32.9167C17.6793 33.2429 17.3408 33.5691 17.0085 33.9137L16.7131 34.2214C16.5739 34.156 16.4513 34.0601 16.3543 33.9407C16.2573 33.8214 16.1886 33.6817 16.1531 33.5321C15.9993 32.9167 16.5101 32.5291 17.0331 32.3629C17.312 32.2787 17.6046 32.2494 17.8947 32.2767C18.0762 32.279 18.2542 32.3278 18.4116 32.4183C18.7808 32.726 18.4362 33.4275 18.1839 33.6983V33.7229Z" fill="#2C2C31"/>
<path d="M13.863 34.7814C13.7785 34.8083 13.6921 34.8289 13.6045 34.8429H13.5306C13.6001 34.6558 13.6888 34.4763 13.7953 34.3075C14.1454 33.7238 14.5404 33.1682 14.9768 32.646C15.063 32.5414 15.0506 32.3383 14.8906 32.3075C14.7267 32.2903 14.5617 32.3293 14.423 32.4183L14.4599 32.3814C14.6506 32.2029 14.3676 31.926 14.1768 32.0983C13.7529 32.5075 13.3601 32.9477 13.0014 33.4152C12.4591 33.759 11.9484 34.1503 11.4753 34.5844C11.3153 34.7506 10.9953 35.0337 11.1368 35.2921C11.2783 35.5506 11.623 35.4275 11.8137 35.2921C12.2839 34.8921 12.7072 34.44 13.0753 33.9444L13.2537 33.7229L13.906 33.2675L14.0722 33.1506C13.7742 33.5383 13.5087 33.95 13.2783 34.3814C13.186 34.566 13.0322 34.8306 13.106 35.046C13.2168 35.3783 13.7214 35.2183 13.9553 35.1506C14.1891 35.0829 14.1091 34.7075 13.863 34.7814Z" fill="#2C2C31"/>
<path d="M63.3651 33.5822L63.5805 33.3607C63.6913 33.256 63.8021 33.1514 63.9067 33.0407C63.9258 33.0167 63.9399 32.9896 63.9498 32.9607L63.9867 32.9176C64.0101 32.8922 64.0267 32.8612 64.0347 32.8277C64.0427 32.7941 64.0421 32.759 64.0328 32.7258C64.0236 32.6925 64.0058 32.6621 63.9818 32.6376C63.9578 32.613 63.9276 32.595 63.8944 32.5853C63.8858 32.4044 63.8144 32.2322 63.6913 32.0991C63.5356 31.9487 63.3455 31.8388 63.1368 31.7787C62.9288 31.7186 62.7091 31.7103 62.4975 31.7545C62.0303 31.8736 61.6046 32.1183 61.2667 32.4622C60.8823 32.7633 60.6007 33.1761 60.4605 33.6437C60.4285 33.7442 60.4199 33.8505 60.4351 33.9548C60.4503 34.0591 60.4889 34.1586 60.5482 34.2457C60.6075 34.3328 60.6858 34.4053 60.7772 34.4578C60.8686 34.5102 60.9707 34.5412 61.0759 34.5484C61.3427 34.5506 61.6071 34.496 61.8512 34.3884L62.1713 34.253L60.8852 35.6191L58.3559 35.8345C57.9498 35.8714 57.5436 35.896 57.1252 35.9576C56.8667 35.9945 56.5098 36.0314 56.5098 36.3576C56.5242 36.5325 56.5636 36.7045 56.6267 36.8684C56.6944 37.133 56.7436 37.4037 56.7928 37.6745C56.8851 38.1853 56.9651 38.6899 57.0328 39.2068C57.0328 39.3914 57.0821 39.6007 57.2667 39.6991C57.4513 39.7976 57.679 39.613 57.8267 39.4591L58.8298 38.4007L61.0759 36.0007H61.1559C61.1875 35.9975 61.2181 35.9873 61.2454 35.9709C61.2727 35.9545 61.296 35.9323 61.3136 35.9058C61.3313 35.8793 61.3429 35.8493 61.3475 35.8178C61.3522 35.7863 61.3498 35.7541 61.3405 35.7237L61.4082 35.6499C62.0666 34.9545 62.7128 34.2653 63.3651 33.5822ZM60.8667 34.0622C60.6513 33.8407 60.9528 33.3791 61.0944 33.1884C61.3262 32.8928 61.6047 32.6372 61.9189 32.4314C62.1932 32.2209 62.5338 32.116 62.879 32.136C63.1498 32.1668 63.4944 32.3268 63.4944 32.6468C63.4753 32.7948 63.4138 32.934 63.3159 33.0468L63.2605 33.1084C63.039 33.3052 62.7978 33.4784 62.5405 33.6253C62.3541 33.6847 62.1543 33.6847 61.9682 33.6253C61.839 33.6253 61.7713 33.5268 61.8144 33.3853C61.845 33.2986 61.8945 33.22 61.9595 33.155C62.0244 33.09 62.1031 33.0405 62.1898 33.0099C62.4236 32.9053 62.2205 32.5607 61.9866 32.6653C61.7792 32.7354 61.6078 32.8848 61.5098 33.0807C61.4119 33.2766 61.3952 33.5033 61.4636 33.7114C61.5215 33.8298 61.6197 33.9236 61.7405 33.976C61.4944 34.1053 61.0759 34.2714 60.8667 34.0622ZM59.4574 37.1391L57.5128 39.2068L57.4328 39.293C57.4328 39.293 57.4328 39.293 57.4328 39.256C57.4328 39.2191 57.4328 39.1145 57.4328 39.0468C57.4328 38.8376 57.3775 38.6284 57.3467 38.4314C57.2667 37.9453 57.1867 37.453 57.0821 36.9668C57.0821 36.8376 56.9098 36.5176 57.0144 36.4068C57.119 36.296 57.6298 36.3207 57.7836 36.3084L58.4666 36.2468L60.5221 36.0684C60.1405 36.413 59.802 36.776 59.4574 37.133V37.1391Z" fill="#2C2C31"/>
<path d="M9.62972 34.6342C9.17372 34.5891 8.71562 34.5685 8.25741 34.5727H6.88508C7.64202 33.7235 8.39279 32.8619 9.15587 32.0066C10.0789 31.0674 10.9037 30.0364 11.6174 28.9296C11.8205 28.585 12.1036 28.0373 11.6789 27.7419C11.2543 27.4466 10.6143 27.6927 10.1528 27.8712C9.60104 28.087 9.07809 28.3701 8.59587 28.7142C8.38024 28.8781 8.17476 29.0549 7.98049 29.2435C7.82664 29.385 7.62972 29.5266 7.63587 29.7481C7.64202 29.9696 8.04818 30.0066 8.03587 29.7481C8.03587 29.6496 8.4851 29.3296 8.55279 29.2742C8.74966 29.1174 8.95513 28.9715 9.16818 28.8373H9.22356C7.27298 30.6216 5.44521 32.5358 3.75277 34.5666H1.07585C0.983543 34.5666 0.958927 34.6035 0.897388 34.6958C0.875164 34.7285 0.863281 34.767 0.863281 34.8066C0.863281 34.8461 0.875164 34.8847 0.897388 34.9173C1.11864 35.2562 1.38814 35.561 1.69739 35.8219C1.73651 35.8496 1.78415 35.8626 1.83189 35.8586C1.87964 35.8545 1.92441 35.8337 1.9583 35.7998C1.99218 35.7659 2.01299 35.7211 2.01705 35.6734C2.0211 35.6256 2.00815 35.578 1.98047 35.5389C1.80873 35.3998 1.65012 35.2454 1.50662 35.0773L1.42047 34.9789L1.37123 34.9173L6.68815 34.9666C7.50664 34.9666 8.3251 34.9666 9.14972 34.9666C9.33938 34.9728 9.52855 34.9914 9.71587 35.0219C9.97433 35.0589 10.0359 35.0589 9.80818 35.2312C9.64553 35.3387 9.47476 35.4334 9.29741 35.5142C9.06356 35.6189 9.26664 35.9635 9.50049 35.8589C9.83279 35.6989 10.6636 35.3604 10.4174 34.8681C10.2759 34.6466 9.86356 34.665 9.62972 34.6342ZM10.3251 28.3081C10.3553 28.2825 10.3769 28.2481 10.3866 28.2096L10.4789 28.1727C10.7173 28.0724 10.9714 28.0141 11.2297 28.0004C11.6913 28.0004 11.4451 28.4927 11.3097 28.7204C11.0345 29.1804 10.7216 29.6168 10.3743 30.025C9.10664 31.5758 7.72818 33.0589 6.39278 34.5481H4.26354C6.12918 32.323 8.15507 30.2375 10.3251 28.3081Z" fill="#2C2C31"/>
<path d="M98.8909 26.4621C97.1648 28.9306 95.3168 31.311 93.3525 33.5944C93.1802 33.7852 93.4632 34.0682 93.6355 33.8775C94.4663 32.9482 95.254 31.9821 96.0232 31.0036C96.054 31.0109 96.086 31.0089 96.1155 30.998C96.1451 30.987 96.1709 30.9676 96.1894 30.9421C97.3082 29.5749 98.3358 28.1359 99.2663 26.6344C99.3709 26.4621 99.0386 26.2652 98.8909 26.4621Z" fill="#2C2C31"/>
<path d="M92.5204 35.0152C92.3235 34.8183 92.0527 35.1444 92.2374 35.329C92.422 35.5137 92.7112 35.1998 92.5204 35.0152Z" fill="#2C2C31"/>
<path d="M37.4013 34.5413C36.8697 34.7149 36.3208 34.8305 35.7644 34.8859C35.5247 34.9043 35.284 34.9043 35.0444 34.8859C34.9791 34.8865 34.9148 34.8711 34.8568 34.8411C34.7989 34.811 34.7492 34.7673 34.7121 34.7136C36.6396 33.5733 38.4786 32.2897 40.2136 30.8736C40.4167 30.7075 40.1274 30.4244 39.9305 30.5905C38.2655 31.9518 36.5005 33.186 34.6505 34.2828C34.7037 33.9795 34.819 33.6904 34.989 33.4336C35.236 33.034 35.5679 32.6936 35.9613 32.4367C36.1767 32.2952 35.9613 31.9505 35.7582 32.0921C35.0344 32.545 34.5089 33.2552 34.2874 34.0798C34.2563 34.2232 34.2439 34.37 34.2505 34.5167C33.1736 35.1321 32.0659 35.7475 30.9336 36.2459C30.6997 36.3567 30.9336 36.7013 31.1367 36.5905C32.2382 36.0798 33.309 35.5136 34.3613 34.9105C34.4021 34.9872 34.4588 35.0543 34.5274 35.1075C34.9249 35.3158 35.3856 35.3684 35.8197 35.2552C36.3931 35.1979 36.9585 35.0782 37.5059 34.8982C37.7521 34.8428 37.6474 34.4613 37.4013 34.5413Z" fill="#2C2C31"/>
<path d="M55.6848 31.8644H55.6479C55.094 32.289 54.5463 32.7259 54.0171 33.1752L53.4017 33.6675L53.1125 33.889C53.4468 33.3835 53.8192 32.9041 54.2263 32.4552C54.3986 32.2644 54.1156 31.9813 53.9433 32.1721C53.3293 32.848 52.7908 33.5888 52.3371 34.3813C52.214 34.4552 52.0909 34.529 51.9617 34.5905C51.7233 34.7198 51.4716 34.8229 51.2109 34.8982C51.1108 34.927 51.0074 34.9436 50.9033 34.9475H50.8232C50.8157 34.8056 50.8433 34.664 50.9033 34.5352C50.9841 34.3209 51.0851 34.1149 51.2048 33.9198C51.3325 33.6894 51.4808 33.471 51.6479 33.2675L52.1402 32.8675C52.3248 32.7198 52.0909 32.4552 51.9002 32.5536C51.9031 32.5147 51.9031 32.4756 51.9002 32.4367C51.9494 31.969 51.3956 31.889 51.0633 31.9875C50.6065 32.1606 50.1883 32.422 49.8325 32.7567C49.434 33.0793 49.0782 33.4516 48.774 33.8644L48.5586 34.1905L47.6909 34.4613L47.2479 34.6028L47.0325 34.6705H46.9586L47.0202 34.5044C47.0633 34.3998 47.1186 34.2952 47.174 34.1905C47.3154 33.9962 47.3986 33.7657 47.414 33.5259C47.414 33.4951 47.407 33.4646 47.3935 33.4369C47.3799 33.4092 47.3602 33.3849 47.3359 33.3659C47.3116 33.347 47.2833 33.3337 47.2531 33.3273C47.2229 33.3209 47.1917 33.3215 47.1617 33.329C46.9108 33.4099 46.6725 33.5259 46.454 33.6736C46.6593 33.432 46.8426 33.1724 47.0017 32.8982C48.2757 32.1161 49.4656 31.2046 50.5525 30.1782C50.7371 29.9998 50.454 29.7167 50.2694 29.8952C49.361 30.7514 48.3788 31.5257 47.334 32.209C47.7709 31.6859 48.2079 31.1628 48.6263 30.6213C48.8602 30.3198 49.094 30.0059 49.3094 29.6982C49.4571 29.4705 49.7033 29.1198 49.4017 28.9044C49.364 28.882 49.3199 28.873 49.2764 28.8785C49.233 28.8841 49.1926 28.9041 49.1617 28.9352C48.8879 29.2038 48.629 29.4873 48.3863 29.7844C48.2756 29.9259 48.1709 30.0798 48.0663 30.2275C47.9402 30.3752 47.8497 30.5499 47.8017 30.7382C47.7935 30.7736 47.7948 30.8105 47.8057 30.8451C47.8164 30.8797 47.8364 30.9108 47.8633 30.9352C47.3648 31.5505 46.8479 32.1659 46.3248 32.7813C45.9675 32.9781 45.6314 33.2112 45.3217 33.4767C44.9067 33.8035 44.5309 34.1773 44.2017 34.5905C44.0911 34.7088 44.0072 34.8494 43.9556 35.0028C43.942 35.0456 43.9397 35.0912 43.949 35.135C43.9583 35.1789 43.9788 35.2196 44.0086 35.2531C44.0384 35.2867 44.0764 35.3118 44.1189 35.3262C44.1614 35.3406 44.2069 35.3437 44.2509 35.3352C44.5291 35.2606 44.7903 35.1332 45.0202 34.9598C45.2478 34.8096 45.4657 34.6452 45.6725 34.4675C45.8633 34.2952 46.0417 34.1167 46.214 33.9321C46.2128 33.9884 46.2325 34.0433 46.2694 34.0859C46.3081 34.1214 46.3585 34.1411 46.4109 34.1411C46.4634 34.1411 46.5139 34.1214 46.5525 34.0859C46.6632 34.0009 46.7805 33.9247 46.9033 33.8582V33.9013C46.8218 34.0356 46.7498 34.1754 46.6879 34.3198C46.6308 34.4509 46.5855 34.5868 46.5525 34.7259C46.5436 34.7662 46.5434 34.808 46.5519 34.8483C46.5605 34.8887 46.5776 34.9268 46.602 34.96C46.6265 34.9932 46.6578 35.0209 46.6939 35.041C46.7299 35.0611 46.7698 35.0733 46.8109 35.0767C46.969 35.0873 47.1273 35.0599 47.2725 34.9967L47.7586 34.8428L48.374 34.6521C48.3311 34.7883 48.3311 34.9344 48.374 35.0705C48.5279 35.4828 49.0325 35.2982 49.3033 35.1382C49.7614 34.8289 50.1955 34.4854 50.6017 34.1105L50.7063 34.0244C50.614 34.2211 50.5439 34.4275 50.4971 34.6398C50.4294 34.9167 50.4294 35.2552 50.7679 35.3475C51.2121 35.378 51.6548 35.2705 52.0356 35.0398C52.0151 35.082 52.0103 35.1303 52.0223 35.1758C52.0342 35.2212 52.062 35.2609 52.1007 35.2876C52.1393 35.3144 52.1862 35.3265 52.233 35.3216C52.2797 35.3168 52.3233 35.2954 52.3556 35.2613L52.6694 34.9659C52.7409 35.0323 52.8281 35.0796 52.9228 35.1033C53.0175 35.1269 53.1166 35.1262 53.2109 35.1013C53.8087 35.0257 54.398 34.8938 54.9709 34.7075C55.2171 34.6336 55.1125 34.2459 54.8663 34.3259C54.393 34.4748 53.9098 34.5899 53.4202 34.6705C53.3042 34.6934 53.1872 34.7099 53.0694 34.7198C53.014 34.7198 52.9833 34.7198 52.9709 34.6828C53.4079 34.2767 53.8509 33.8828 54.3063 33.5013L55.9863 32.1536C56.1033 32.0367 55.8694 31.7228 55.6848 31.8644ZM45.6909 33.9382C45.3561 34.2783 44.9774 34.5722 44.5648 34.8121C44.8459 34.4808 45.1547 34.174 45.4879 33.8952C45.7296 33.6854 45.9868 33.4941 46.2571 33.3228C46.0798 33.5382 45.8908 33.7436 45.6909 33.9382ZM50.614 32.7075C50.7731 32.5977 50.942 32.5029 51.1186 32.4244C51.2142 32.3776 51.3202 32.3564 51.4263 32.3628C51.5556 32.3628 51.5248 32.4675 51.4756 32.5721C51.3224 32.8537 51.1129 33.1009 50.8602 33.2982C50.3328 33.6749 49.7433 33.9561 49.1186 34.129C49.5069 33.5742 49.9927 33.0947 50.5525 32.7136L50.614 32.7075ZM49.0017 34.8921C48.9365 34.9376 48.8596 34.9632 48.7802 34.9659C48.7186 34.9659 48.7432 34.9659 48.7802 34.8859C48.7833 34.8064 48.8044 34.7285 48.8417 34.6582L49.8448 34.3013C49.5685 34.5361 49.2647 34.7365 48.9402 34.8982L49.0017 34.8921Z" fill="#2C2C31"/>
<path d="M26.0469 31.9321C26.0244 31.9285 26.0016 31.9285 25.9792 31.9321C27.2929 30.8353 28.4687 29.5831 29.4807 28.2029C29.653 27.9506 29.9915 27.5875 29.9607 27.2183C29.9053 26.6952 29.3453 27.1813 29.1484 27.3229C28.2719 28.0466 27.4625 28.8477 26.73 29.7167C26.0592 30.4859 25.4315 31.2859 24.8038 32.0921L24.6253 32.1598C24.1214 32.3935 23.6726 32.7312 23.3084 33.1506C23.2108 33.236 23.1357 33.3441 23.0896 33.4653C23.0434 33.5866 23.0277 33.7173 23.0438 33.8459C23.0612 33.9149 23.0996 33.9767 23.1536 34.023C23.2076 34.0693 23.2745 34.0977 23.3453 34.1044C23.2469 34.2644 23.1484 34.4306 23.0623 34.5967C22.9264 34.7719 22.8606 34.9912 22.8776 35.2121C22.9515 35.4706 23.2223 35.4952 23.4376 35.4213C23.8531 35.2693 24.2463 35.0623 24.6069 34.8059C24.9965 34.5405 25.3593 34.2375 25.69 33.9013C25.8315 33.7536 25.9607 33.5936 26.09 33.4336C26.257 33.2513 26.3941 33.0436 26.4961 32.8183C26.5326 32.7311 26.5497 32.6371 26.5463 32.5427C26.5428 32.4482 26.5189 32.3557 26.4762 32.2714C26.4335 32.1871 26.373 32.1131 26.2988 32.0546C26.2247 31.996 26.1387 31.9542 26.0469 31.9321ZM28.5084 28.3936L29.0561 27.9013C29.1402 27.8266 29.2286 27.7568 29.3207 27.6921H29.3576C29.2407 27.8767 29.1176 28.049 28.9946 28.2213C28.3874 29.0436 27.7078 29.8098 26.9638 30.5106C26.5146 30.9413 26.0469 31.3659 25.573 31.7783C26.4699 30.5818 27.4509 29.4508 28.5084 28.3936ZM23.5361 33.7475C23.4561 33.7475 23.4192 33.7475 23.4438 33.6552C23.5292 33.4746 23.6556 33.3166 23.813 33.1936C23.9547 33.0549 24.1069 32.9273 24.2684 32.8121C24.2684 32.8121 23.8007 33.4275 23.5915 33.7536L23.5361 33.7475ZM25.9976 32.8921C25.5968 33.4888 25.085 34.0028 24.49 34.4059C24.2 34.6187 23.891 34.8041 23.5669 34.9598C23.509 34.9881 23.4493 35.0128 23.3884 35.0336C23.3523 35.0422 23.3172 35.0546 23.2838 35.0706C23.2838 35.0152 23.333 34.9413 23.3576 34.8921C23.3823 34.8429 23.4746 34.6767 23.5361 34.5659C23.5976 34.4552 23.7084 34.289 23.7946 34.1536C23.8455 34.1394 23.8896 34.1073 23.9189 34.0632C23.9483 34.0192 23.9609 33.9662 23.9546 33.9136C24.1515 33.6306 24.613 33.0583 24.6192 33.0521C24.9236 32.7716 25.2419 32.5067 25.573 32.2583C25.6769 32.241 25.7829 32.241 25.8869 32.2583C25.973 32.289 26.1023 32.3259 26.1392 32.4244C26.1761 32.5229 26.0838 32.7813 25.9976 32.8921Z" fill="#2C2C31"/>
<path d="M33.9982 7.12598V10.2583H25.2289V12.4614H31.7458V15.4152H25.2289V17.5629H34.3366V20.7198H21.9551V7.12598H33.9982Z" fill="#2C2C31"/>
<path d="M47.5925 12.2403C47.1551 11.493 46.5239 10.8778 45.7656 10.4597C45.0073 10.0416 44.1502 9.8361 43.2848 9.8649C42.7386 9.84361 42.1936 9.93284 41.6827 10.1272C41.1717 10.3216 40.7053 10.6171 40.3113 10.996C39.9173 11.3751 39.6038 11.8296 39.3897 12.3327C39.1756 12.8356 39.0653 13.3767 39.0653 13.9234C39.0653 14.47 39.1756 15.0111 39.3897 15.5141C39.6038 16.0171 39.9173 16.4717 40.3113 16.8506C40.7053 17.2296 41.1717 17.5251 41.6827 17.7195C42.1936 17.9139 42.7386 18.0031 43.2848 17.9818C44.138 18.0357 44.9897 17.8562 45.7487 17.4627C46.5076 17.0691 47.145 16.4763 47.5925 15.748L50.2325 17.2311C48.854 19.8095 46.2264 21.0895 43.2479 21.0895C39.1002 21.0895 35.8633 18.3634 35.8633 13.9572C35.8633 9.55105 39.2541 6.83105 43.2479 6.83105C46.3248 6.83105 48.8356 8.12952 50.2325 10.6895L47.5925 12.2403Z" fill="#2C2C31"/>
<path d="M95.3458 12.2403C94.9083 11.493 94.2769 10.8778 93.5188 10.4597C92.7606 10.0416 91.9034 9.8361 91.0381 9.8649C90.4917 9.84361 89.9471 9.93284 89.4363 10.1272C88.9249 10.3216 88.4584 10.6171 88.0646 10.996C87.6708 11.3751 87.3569 11.8296 87.1428 12.3327C86.9292 12.8356 86.8184 13.3767 86.8184 13.9234C86.8184 14.47 86.9292 15.0111 87.1428 15.5141C87.3569 16.0171 87.6708 16.4717 88.0646 16.8506C88.4584 17.2296 88.9249 17.5251 89.4363 17.7195C89.9471 17.9139 90.4917 18.0031 91.0381 17.9818C91.8917 18.0363 92.7434 17.8572 93.5028 17.4636C94.2615 17.0699 94.8991 16.4768 95.3458 15.748L97.9981 17.2311C96.6197 19.8095 93.992 21.0895 91.0135 21.0895C86.8658 21.0895 83.6289 18.3634 83.6289 13.9572C83.6289 9.55105 87.0197 6.83105 91.0135 6.83105C94.0904 6.83105 96.6012 8.12952 97.9981 10.6895L95.3458 12.2403Z" fill="#2C2C31"/>
<path d="M11.2903 7.12598H6.24414V12.1721H11.2903V7.12598Z" fill="#2C2C31"/>
<path d="M13.8749 7.12598H13.6411V10.2829H14.1334C14.4174 10.2555 14.704 10.2891 14.9739 10.3816C15.2439 10.4741 15.4909 10.6233 15.6984 10.8191C15.9059 11.015 16.0691 11.253 16.1771 11.5171C16.285 11.7813 16.3351 12.0654 16.3241 12.3506C16.3394 12.6415 16.2931 12.9323 16.1881 13.204C16.0832 13.4757 15.922 13.7222 15.7152 13.9273C15.5083 14.1324 15.2605 14.2915 14.9879 14.3941C14.7153 14.4967 14.4241 14.5406 14.1334 14.5229H6.24414V20.7198H9.51798V17.686H13.8749C17.1426 17.686 19.5549 15.5937 19.5549 12.3752C19.5549 9.15675 17.1426 7.12598 13.8749 7.12598Z" fill="#2C2C31"/>
<path d="M62.6376 17.5321L66.1822 7.12588H62.853L60.9084 13.1998H57.0868C56.9198 13.1991 56.7574 13.145 56.6235 13.0453C56.4894 12.9456 56.3909 12.8057 56.3422 12.6459L54.6807 7.10742H51.3945L53.3884 13.3659C54.053 15.3351 55.3084 16.0613 57.4745 16.0613H60.0345L59.8438 16.732C59.7411 17.0572 59.5369 17.3408 59.2611 17.5413C58.9852 17.7418 58.6524 17.8486 58.3115 17.8459H54.1576L53.2099 20.7506H58.1884C59.174 20.7489 60.134 20.4371 60.9326 19.8595C61.7311 19.2819 62.3275 18.4676 62.6376 17.5321Z" fill="#2C2C31"/>
<path d="M15.7022 2.10455H14.3052V4.72609H13.6406V1.4707H15.7022V2.10455Z" fill="#2C2C31"/>
<path d="M19.4196 2.56627C19.4301 2.71953 19.4071 2.87325 19.3522 3.01675C19.2974 3.16025 19.2119 3.29009 19.1018 3.39724C18.9917 3.5044 18.8597 3.58631 18.7148 3.63729C18.5698 3.68826 18.4156 3.70707 18.2626 3.69242H17.5611V4.74473H16.8965V1.47088H18.2626C18.4132 1.45463 18.5656 1.47129 18.7092 1.51971C18.8527 1.56813 18.9841 1.64716 19.0941 1.75132C19.2041 1.8555 19.2902 1.98231 19.3464 2.12302C19.4026 2.26373 19.4276 2.41497 19.4196 2.56627ZM18.7488 2.56627C18.7488 2.27703 18.5826 2.09857 18.238 2.09857H17.5611V3.04011H18.238C18.6134 3.04011 18.7488 2.8555 18.7488 2.57242V2.56627Z" fill="#2C2C31"/>
<path d="M21.641 4.72609H20.8964L21.5118 3.59993L20.3672 1.4707H21.1056L21.8564 2.87993L22.5887 1.4707H23.3272L21.641 4.72609Z" fill="#2C2C31"/>
<path d="M27.2969 4.72609H26.6138V2.10455H25.1861V4.72609H24.5215V1.4707H27.2969V4.72609Z" fill="#2C2C31"/>
<path d="M31.4941 4.72609H30.8295V2.10455H29.3834V4.72609H28.7188V1.4707H31.4941V4.72609Z" fill="#2C2C31"/>
<path d="M34.9887 3.95686H33.6718L33.3826 4.72609H32.6934L33.9241 1.4707H34.7611L35.9918 4.72609H35.2595L34.9887 3.95686ZM34.7549 3.34147L34.3303 2.15993L33.8995 3.34147H34.7549Z" fill="#2C2C31"/>
<path d="M41.3831 3.95686H40.0354L39.7523 4.72609H39.0508L40.2816 1.4707H41.1246L42.3554 4.72609H41.6477L41.3831 3.95686ZM41.1492 3.34147L40.7185 2.15993L40.2939 3.34147H41.1492Z" fill="#2C2C31"/>
<path d="M45.5866 2.10455H44.1959V4.72609H43.5312V1.4707H45.5866V2.10455Z" fill="#2C2C31"/>
<path d="M49.3082 2.56653C49.3188 2.7198 49.2958 2.87352 49.241 3.01702C49.1861 3.16052 49.1007 3.29035 48.9906 3.39751C48.8805 3.50467 48.7484 3.58658 48.6035 3.63755C48.4586 3.68852 48.3042 3.70734 48.1513 3.69268H47.4498V4.74499H46.7852V1.47114H48.1513C48.3018 1.45596 48.4537 1.47335 48.5968 1.52217C48.7399 1.57097 48.8708 1.65004 48.9805 1.75399C49.0903 1.85794 49.1764 1.98432 49.233 2.12454C49.2895 2.26475 49.3152 2.4155 49.3082 2.56653ZM48.6313 2.56653C48.6313 2.2773 48.4652 2.09884 48.1205 2.09884H47.4498V3.04038H48.1513C48.4652 3.04038 48.6313 2.85576 48.6313 2.57268V2.56653Z" fill="#2C2C31"/>
<path d="M53.8266 3.07719C53.829 3.41363 53.7315 3.74321 53.5463 4.02414C53.3612 4.30506 53.0968 4.52468 52.7866 4.65511C52.4765 4.78556 52.1346 4.82095 51.8043 4.75681C51.4741 4.69268 51.1703 4.53189 50.9315 4.29485C50.6928 4.05781 50.5298 3.75521 50.4632 3.42541C50.3967 3.09561 50.4296 2.75348 50.5578 2.44241C50.6859 2.13134 50.9037 1.86534 51.1832 1.67816C51.4628 1.49098 51.7917 1.39105 52.1281 1.39104C52.3515 1.38605 52.5736 1.42616 52.7811 1.50897C52.9886 1.59179 53.1773 1.71561 53.3358 1.87301C53.4944 2.03042 53.6195 2.2182 53.7039 2.4251C53.7882 2.63201 53.8299 2.85379 53.8266 3.07719ZM51.1066 3.07719C51.1066 3.21134 51.133 3.34418 51.1843 3.46812C51.2357 3.59206 51.3109 3.70467 51.4058 3.79953C51.5007 3.89439 51.6132 3.96964 51.7371 4.02097C51.8611 4.07231 51.9939 4.09873 52.1281 4.09873C52.2623 4.09873 52.3951 4.07231 52.5191 4.02097C52.643 3.96964 52.7556 3.89439 52.8504 3.79953C52.9453 3.70467 53.0205 3.59206 53.0719 3.46812C53.1232 3.34418 53.1496 3.21134 53.1496 3.07719C53.1496 2.94305 53.1232 2.81021 53.0719 2.68627C53.0205 2.56233 52.9453 2.44972 52.8504 2.35485C52.7556 2.26 52.643 2.18475 52.5191 2.13342C52.3951 2.08208 52.2623 2.05566 52.1281 2.05566C51.9939 2.05566 51.8611 2.08208 51.7371 2.13342C51.6132 2.18475 51.5007 2.26 51.4058 2.35485C51.3109 2.44972 51.2357 2.56233 51.1843 2.68627C51.133 2.81021 51.1066 2.94305 51.1066 3.07719Z" fill="#2C2C31"/>
<path d="M57.875 4.72609H57.2104V2.10455H55.7642V4.72609H55.0996V1.4707H57.875V4.72609Z" fill="#2C2C31"/>
<path d="M61.82 2.56653C61.8277 2.7183 61.8027 2.86996 61.7465 3.01119C61.6905 3.15242 61.6046 3.27992 61.4948 3.38502C61.3851 3.49011 61.254 3.57034 61.1105 3.62024C60.9669 3.67015 60.8143 3.68855 60.663 3.67422H59.9615V4.72653H59.2969V1.47114H60.663C60.8134 1.45596 60.9654 1.47335 61.1084 1.52217C61.2516 1.57097 61.3825 1.65004 61.4923 1.75399C61.602 1.85794 61.6881 1.98432 61.7447 2.12454C61.8012 2.26475 61.8269 2.4155 61.82 2.56653ZM61.1492 2.56653C61.1492 2.2773 60.983 2.09884 60.6384 2.09884H59.9615V3.04038H60.6384C60.983 3.04038 61.1492 2.85576 61.1492 2.57268V2.56653Z" fill="#2C2C31"/>
<path d="M63.7642 2.10455V2.75686H65.155V3.37224H63.7642V4.07378H65.2842V4.68916H63.0996V1.4707H65.2842V2.08609L63.7642 2.10455Z" fill="#2C2C31"/>
<path d="M69.9307 4.09224V5.37224H69.2661V4.72609H67.0631V5.37224H66.3984V4.09224H66.86C66.9529 3.96703 67.0064 3.81712 67.0138 3.66147L67.3646 1.4707H69.4631V4.09224H69.9307ZM67.58 4.09224H68.8107V2.10455H67.9369L67.6784 3.72301C67.6551 3.84838 67.6218 3.9718 67.58 4.09224Z" fill="#2C2C31"/>
<path d="M73.9004 4.72609H73.2358V2.10455H71.7896V4.72609H71.125V1.4707H73.9004V4.72609Z" fill="#2C2C31"/>
<path d="M77.8453 2.56627C77.8533 2.71803 77.8281 2.86969 77.7721 3.01092C77.7161 3.15215 77.63 3.27966 77.5204 3.38475C77.4103 3.48985 77.2792 3.57007 77.1358 3.61998C76.9924 3.66988 76.8398 3.68829 76.6884 3.67396H75.9869V4.72626H75.3223V1.47088H76.6884C76.8392 1.45463 76.9912 1.47129 77.1352 1.51971C77.2786 1.56813 77.4096 1.64716 77.5198 1.75132C77.63 1.8555 77.7161 1.98231 77.7721 2.12302C77.8281 2.26373 77.8533 2.41497 77.8453 2.56627ZM77.1746 2.56627C77.1746 2.27703 77.0084 2.09857 76.6638 2.09857H75.9869V3.04011H76.6638C77.0084 3.04011 77.1746 2.8555 77.1746 2.57242V2.56627Z" fill="#2C2C31"/>
<path d="M81.8811 1.4707V4.72609H81.2165V3.36609L81.2781 2.44916L79.8627 4.72609H79.0996V1.4707H79.7642V2.8307L79.7027 3.74763L81.1242 1.4707H81.8811Z" fill="#2C2C31"/>
<path d="M85.7526 1.47055V4.72594H85.0757V3.60594H84.6572L83.8634 4.72594H83.0449L83.9188 3.53825C83.7065 3.47543 83.5218 3.34149 83.3963 3.15887C83.2708 2.97625 83.2117 2.75605 83.2295 2.53517C83.2197 2.38909 83.2418 2.24262 83.2948 2.10607C83.3477 1.96951 83.4295 1.84618 83.5354 1.74472C83.6406 1.64326 83.7674 1.56614 83.9058 1.51878C84.0443 1.47141 84.1914 1.45495 84.3372 1.47055H85.7526ZM85.0757 3.00286V2.1044H84.4111C84.0665 2.1044 83.9003 2.28286 83.9003 2.55363C83.9003 2.8244 84.0665 3.00286 84.4111 3.00286H85.0757Z" fill="#2C2C31"/>
<path d="M89.4819 2.10464H88.5403V4.72618H87.8757V2.10464H86.9219V1.48926H89.4573L89.4819 2.10464Z" fill="#2C2C31"/>
<path d="M93.4378 1.4707V4.72609H92.7732V3.36609L92.8347 2.44916L91.4193 4.72609H90.6562V1.4707H91.3209V2.8307L91.2593 3.74763L92.6747 1.4707H93.4378Z" fill="#2C2C31"/>
<path d="M97.5979 1.4708V4.72619H96.9333V3.36619L96.9949 2.44926L95.5795 4.72619H94.8164V1.4708H95.481V2.8308L95.4195 3.74772L96.8349 1.4708H97.5979ZM95.4256 0.387725V0.264648H95.9487V0.369264C95.9432 0.406124 95.945 0.443789 95.9555 0.479672C95.9659 0.515556 95.9838 0.548807 96.0078 0.577141C96.0318 0.605476 96.0619 0.628223 96.0958 0.643816C96.1296 0.65941 96.1666 0.66749 96.2041 0.66749C96.2416 0.66749 96.2779 0.65941 96.3124 0.643816C96.3463 0.628223 96.3764 0.605476 96.4004 0.577141C96.4244 0.548807 96.4423 0.515556 96.4527 0.479672C96.4632 0.443789 96.465 0.406124 96.4595 0.369264V0.264648H96.9826V0.387725C96.9653 0.58224 96.8755 0.763226 96.7315 0.895047C96.5875 1.02687 96.3992 1.09998 96.2041 1.09998C96.009 1.09998 95.8207 1.02687 95.6767 0.895047C95.5327 0.763226 95.4429 0.58224 95.4256 0.387725Z" fill="#2C2C31"/>
<path d="M75.9667 7.12598H68.3359V20.7198H71.6098V17.686H75.9667C79.2344 17.686 81.6467 15.5937 81.6467 12.3752C81.6467 9.15675 79.2344 7.12598 75.9667 7.12598ZM76.2252 14.5106H71.6098V10.2829H76.2252C76.5095 10.2555 76.7956 10.2891 77.0658 10.3816C77.3359 10.4741 77.5827 10.6233 77.7901 10.8191C77.9975 11.015 78.1612 11.253 78.2689 11.5171C78.3766 11.7813 78.427 12.0654 78.4159 12.3506C78.4313 12.6415 78.3852 12.9323 78.2799 13.204C78.1747 13.4757 78.0141 13.7222 77.8067 13.9273C77.5999 14.1324 77.3526 14.2915 77.0799 14.3941C76.8073 14.4967 76.5156 14.5406 76.2252 14.5229V14.5106Z" fill="#2C2C31"/>
</g>
</g>
<defs>
<clipPath id="clip0_1281_21555">
<rect width="105.846" height="40" fill="white" transform="translate(0.767578)"/>
</clipPath>
</defs>
</svg>
