<svg width="210" height="210" viewBox="0 0 210 210" fill="none" xmlns="http://www.w3.org/2000/svg"><circle cx="105" cy="105" r="49.5" stroke="#ECF0F4"/><circle opacity=".7" cx="105" cy="105" r="78.5" stroke="#ECF0F4"/><circle opacity=".5" cx="105" cy="105" r="104.5" stroke="#ECF0F4"/><rect x="79" y="79" width="52" height="52" rx="26" fill="#ECF0F4"/><path d="M117 117l-5.787-5.787m3.12-7.546a10.668 10.668 0 01-6.584 9.854 10.658 10.658 0 01-6.163.607 10.66 10.66 0 01-8.381-8.38 10.667 10.667 0 1121.128-2.081z" stroke="#2C2C31" stroke-width="2.5" stroke-linecap="round" stroke-linejoin="round"/><g opacity=".8"><rect x="159" y="7" width="38.003" height="38" rx="10.44" fill="#ECF0F4"/><path d="M184.046 35.072h-12.091a1.01 1.01 0 01-1.008-1.008v-16.12a1.007 1.007 0 011.008-1.008h7.053l6.045 6.045v11.083a1.007 1.007 0 01-1.007 1.008zm1.007-12.091l-6.045-6.046L178 21.974l7.053 1.008z" stroke="#8C8C8C" stroke-width="2" stroke-linecap="round" stroke-linejoin="round" opacity=".5"/></g><g opacity=".8"><rect x="129" y="155" width="47" height="46.997" rx="10.44" fill="#ECF0F4"/><path d="M141.037 189.962l16.049-16.049m0 0h2.293a4.585 4.585 0 004.585-4.585v-2.293h-2.293a4.585 4.585 0 00-4.585 4.586v2.292zm-14.364 5.193l1.754-1.754 1.754 1.754a4.013 4.013 0 010 5.663l-1.754 1.754-1.754-1.754a4.011 4.011 0 010-5.663zm4.586-4.585l1.753-1.754 1.754 1.754a4.012 4.012 0 010 5.663l-1.754 1.754-1.753-1.754a4.013 4.013 0 010-5.663zm4.585-4.586l1.754-1.754 1.754 1.754a4.012 4.012 0 010 5.663l-1.754 1.754-1.754-1.754a4.012 4.012 0 010-5.663zm0 14.835l1.754 1.754-1.754 1.754a4.011 4.011 0 01-5.663 0l-1.753-1.754 1.753-1.754a4.015 4.015 0 015.663 0zm4.586-4.585l1.754 1.754-1.754 1.753a4.013 4.013 0 01-5.663 0l-1.754-1.753 1.754-1.754a4.012 4.012 0 015.663 0zm4.585-4.586l1.754 1.754-1.754 1.754a4.012 4.012 0 01-5.663 0l-1.754-1.754 1.754-1.754a4.012 4.012 0 015.663 0z" opacity=".5" stroke="#8C8C8C" stroke-width="2.5" stroke-linecap="round" stroke-linejoin="round"/></g><g opacity=".8"><rect x="29" y="35" width="29.689" height="29.689" rx="8" fill="#ECF0F4"/><path d="M50.128 54.792v-9.896a.707.707 0 00-.707-.706h-11.31a.707.707 0 00-.707.706v9.896m12.724 0a.707.707 0 01-.707.707m.707-.707v-2.311l-4.036-4.05-3.38 3.393 3.677 3.675m3.032 0h-11.31m11.31 0H46.39m-8.278 0a.707.707 0 01-.707-.707m.707.707h8.278m-8.985-.707v-1.618l3.33-3.33 5.655 5.655" stroke="#8C8C8C" stroke-width="2" stroke-linecap="round" stroke-linejoin="round" opacity=".5"/></g></svg>