<?xml version="1.0" standalone="no"?>
<!DOCTYPE svg PUBLIC "-//W3C//DTD SVG 20010904//EN"
 "http://www.w3.org/TR/2001/REC-SVG-20010904/DTD/svg10.dtd">
<svg version="1.0" xmlns="http://www.w3.org/2000/svg"
 width="502.000000pt" height="502.000000pt" viewBox="0 0 502.000000 502.000000"
 preserveAspectRatio="xMidYMid meet">
<metadata>
Created by potrace 1.14, written by Peter Selinger 2001-2017
</metadata>
<g transform="translate(0.000000,502.000000) scale(0.100000,-0.100000)"
fill="#000000" stroke="none">
<path d="M2581 4951 c-14 -31 -38 -85 -54 -121 -16 -36 -63 -141 -104 -235
-41 -93 -87 -198 -104 -233 -16 -35 -29 -65 -29 -67 0 -3 -16 -40 -36 -82
-153 -330 -190 -467 -188 -698 0 -145 15 -237 60 -371 49 -149 67 -180 324
-563 41 -61 77 -111 80 -111 5 0 33 55 156 315 108 228 144 304 201 425 123
258 144 307 168 402 46 174 52 351 19 548 -9 58 -71 234 -105 301 -30 60 -342
533 -357 543 -4 2 -18 -21 -31 -53z"/>
<path d="M914 3168 c2 -178 7 -336 10 -353 49 -236 82 -323 184 -485 59 -94
137 -180 246 -275 51 -44 274 -184 293 -185 6 0 13 -3 15 -8 2 -6 156 -101
223 -138 24 -13 154 -90 175 -104 8 -6 26 -16 40 -22 14 -7 31 -19 39 -26 7
-7 21 -10 29 -7 9 3 13 3 9 -1 -4 -4 3 -14 16 -23 12 -9 22 -14 22 -11 0 2 22
-11 49 -29 27 -19 55 -34 62 -34 7 0 16 -7 18 -14 3 -8 10 -11 16 -8 5 3 10 2
10 -3 0 -6 6 -12 13 -15 11 -4 13 54 11 317 l-1 321 -31 117 c-53 205 -151
382 -295 534 -100 106 -149 143 -415 310 -120 74 -273 171 -342 215 -69 43
-147 93 -175 111 -27 17 -79 50 -115 73 -36 23 -75 47 -87 54 l-22 11 3 -322z"/>
<path d="M4069 3452 c-31 -20 -82 -53 -113 -72 -31 -19 -89 -56 -129 -81 -40
-26 -184 -117 -322 -204 -372 -235 -407 -260 -505 -357 -130 -131 -247 -319
-289 -463 -54 -184 -60 -243 -60 -574 l0 -282 29 18 c17 9 30 21 30 25 0 4 3
7 8 6 12 -4 92 42 92 53 0 6 4 8 9 5 5 -3 14 1 21 9 7 8 16 12 21 9 5 -3 9 -1
9 4 0 5 8 12 18 16 9 3 35 17 57 31 22 14 50 31 63 37 12 6 22 15 22 20 0 5 4
7 9 4 12 -8 72 39 63 49 -4 5 -1 5 6 0 9 -4 25 1 43 14 15 11 33 21 39 21 5 0
10 5 10 12 0 6 3 9 6 5 4 -3 26 7 50 23 23 17 45 30 47 30 15 0 272 162 270
170 -2 5 4 7 12 4 8 -4 15 -1 15 5 0 6 5 11 11 11 19 0 135 97 201 169 120
129 208 280 263 446 48 147 54 208 55 553 0 177 -1 322 -2 321 -2 0 -28 -17
-59 -37z m-1254 -1872 c3 -6 -1 -7 -9 -4 -18 7 -21 14 -7 14 6 0 13 -4 16 -10z"/>
<path d="M919 2063 c-1 -7 -2 -19 -3 -25 -1 -7 3 -19 8 -27 8 -11 8 -13 0 -8
-8 4 -11 -3 -10 -23 0 -17 5 -30 10 -30 4 0 4 -6 -1 -12 -8 -11 -10 -122 -3
-138 1 -3 1 -9 0 -15 -8 -29 -5 -111 4 -117 7 -5 6 -8 -3 -8 -11 0 -11 -3 0
-17 8 -9 9 -14 4 -11 -7 4 -10 -17 -10 -58 0 -35 3 -64 8 -64 4 0 7 -5 7 -11
0 -5 -5 -7 -12 -3 -7 4 -8 3 -4 -5 4 -6 9 -30 12 -54 8 -83 16 -122 26 -128 6
-4 5 -9 -3 -12 -10 -4 -9 -6 3 -6 9 -1 20 -5 23 -11 3 -6 -1 -7 -9 -4 -20 8
-21 -10 -1 -29 10 -10 11 -17 4 -19 -8 -3 -6 -10 5 -20 9 -9 11 -18 6 -20 -6
-2 -4 -12 5 -23 9 -11 14 -15 11 -10 -2 6 0 17 5 25 7 12 8 10 6 -7 -2 -12 -6
-25 -9 -29 -4 -3 -3 -14 2 -23 5 -9 23 -45 39 -81 17 -36 37 -74 44 -85 6 -11
13 -21 13 -23 1 -1 11 -4 22 -7 15 -3 20 1 19 16 -1 21 -12 25 -20 9 -3 -6 -4
-5 -3 2 5 24 31 14 31 -12 0 -14 -5 -25 -12 -25 -6 0 -15 -3 -19 -8 -4 -4 -3
-7 3 -7 5 0 15 -11 21 -25 6 -14 18 -25 26 -25 8 0 27 -15 44 -34 27 -31 31
-33 46 -18 10 11 16 12 16 4 0 -7 -5 -12 -11 -12 -5 0 -8 -4 -5 -8 2 -4 -3 -8
-13 -9 -11 -1 -23 9 -29 22 -6 13 -21 29 -33 36 -17 9 -13 1 14 -32 41 -48
114 -121 104 -103 -7 12 21 29 31 19 3 -3 0 -5 -6 -5 -7 0 -12 -9 -12 -20 0
-34 31 -19 36 18 3 19 13 27 21 18 4 -4 3 -10 -2 -14 -11 -8 -19 -42 -10 -42
22 0 43 54 25 65 -5 3 -10 11 -10 18 0 6 6 2 14 -8 9 -12 19 -16 32 -11 14 4
12 1 -6 -14 -14 -11 -21 -20 -16 -20 5 0 1 -9 -9 -20 -16 -18 -16 -20 -1 -26
9 -3 13 -10 11 -15 -3 -4 -15 1 -25 11 -22 22 -40 26 -40 10 0 -5 4 -10 9 -10
6 0 24 -13 42 -30 25 -22 36 -27 46 -19 7 6 10 16 6 22 -4 6 -1 7 7 2 8 -5 11
-3 8 6 -3 8 -13 13 -23 11 -14 -3 -15 -1 -4 11 12 13 16 12 29 -9 8 -13 18
-24 23 -24 4 0 5 5 2 10 -3 6 -1 10 5 10 17 0 6 -25 -11 -25 -19 -1 -39 -14
-39 -27 0 -6 6 -6 15 2 9 7 18 10 22 6 3 -3 1 -6 -5 -6 -7 0 -12 -7 -12 -16 0
-14 3 -14 15 -4 9 7 18 10 22 6 3 -3 1 -6 -5 -6 -7 0 -12 -5 -12 -12 0 -6 3
-8 7 -5 3 4 12 -1 19 -11 12 -16 14 -16 27 2 8 11 19 16 26 12 7 -4 15 2 20
16 6 14 10 17 10 7 1 -9 -9 -24 -21 -35 -12 -10 -18 -13 -14 -6 4 6 2 12 -3
12 -6 0 -11 -6 -11 -14 0 -17 54 -58 64 -49 3 3 6 1 6 -6 0 -7 4 -10 8 -7 5 3
23 -6 40 -20 17 -14 34 -25 38 -24 4 1 11 -4 16 -12 7 -9 8 -7 3 7 -3 11 -7
25 -8 30 -3 14 -29 32 -49 34 -41 3 -46 5 -41 18 3 7 0 13 -6 13 -6 0 -11 -8
-11 -17 -1 -17 -1 -17 -11 0 -6 9 -16 14 -22 11 -13 -8 27 40 53 64 13 12 13
13 -2 8 -10 -3 -18 -1 -18 4 0 20 25 9 52 -22 24 -29 25 -33 10 -44 -13 -10
-19 -9 -28 5 -7 9 -10 18 -8 21 3 2 9 -2 14 -10 5 -8 12 -11 16 -7 4 4 0 15
-9 24 -16 16 -19 16 -45 -11 -21 -22 -23 -27 -8 -22 13 4 26 -1 39 -15 18 -19
21 -19 29 -5 6 11 18 14 41 10 65 -10 91 -4 69 18 -7 7 -12 17 -12 23 0 5 5 2
11 -7 5 -10 15 -18 21 -18 7 0 6 5 -2 15 -9 10 -9 15 -1 15 6 0 11 -5 11 -12
0 -6 10 -3 23 8 29 27 81 59 73 46 -3 -5 1 -12 9 -16 17 -6 20 -26 4 -26 -5 0
-8 4 -5 9 14 23 -45 15 -64 -8 -24 -29 -85 -71 -96 -67 -16 6 -19 -10 -4 -19
6 -3 24 3 40 15 17 12 37 19 45 16 8 -3 18 2 23 11 8 14 10 14 15 -1 4 -9 14
-16 22 -16 15 0 15 1 1 16 -23 22 -20 30 4 9 16 -15 22 -15 35 -5 8 7 15 17
15 22 0 6 -7 5 -15 -2 -13 -11 -18 -11 -28 0 -10 10 -8 12 6 7 11 -4 20 -1 24
8 5 13 7 13 18 -2 11 -15 10 -20 -6 -31 -19 -13 -17 -32 3 -32 6 0 9 3 5 6 -3
4 4 15 16 25 17 14 19 21 9 27 -9 6 -4 9 15 9 l28 0 -32 -34 c-18 -18 -33 -38
-33 -45 0 -6 -8 -4 -18 5 -29 26 -38 20 -12 -8 26 -27 40 -32 40 -12 1 6 14
28 31 47 18 21 27 27 23 15 -7 -18 -6 -18 9 -6 10 7 17 9 17 3 0 -6 -6 -12
-12 -15 -7 -2 -10 -8 -6 -12 4 -4 15 -2 25 6 11 9 14 10 9 2 -4 -7 -2 -13 3
-13 6 0 11 -5 11 -11 0 -8 -6 -7 -17 2 -15 12 -16 12 -9 -5 7 -19 6 -19 -14
-1 -11 10 -20 13 -20 7 0 -6 4 -13 10 -17 5 -3 7 -12 4 -20 -4 -8 -10 -13 -14
-10 -13 8 -39 -35 -33 -54 4 -12 3 -13 -5 -3 -7 11 -10 10 -16 -3 -9 -23 -8
-25 9 -19 15 6 20 -5 15 -35 -1 -12 1 -13 13 -3 8 7 21 10 29 7 18 -7 23 19
15 75 -5 31 2 52 14 44 5 -3 9 0 9 7 0 9 3 9 14 0 10 -8 16 -9 21 -1 3 5 1 10
-5 10 -7 0 -10 6 -7 14 3 8 -3 26 -14 40 -14 18 -16 24 -5 20 15 -6 29 -30 30
-53 1 -8 7 -16 14 -19 8 -2 10 2 5 14 -6 15 -3 14 17 -4 32 -29 50 -28 22 1
-12 13 -22 27 -22 32 0 4 11 -5 25 -21 14 -16 25 -32 25 -35 0 -14 -29 -17
-34 -3 -3 8 -11 14 -18 14 -9 0 -9 -3 0 -12 18 -18 15 -37 -5 -37 -43 -1 -53
-5 -51 -20 5 -29 38 -37 38 -10 0 6 -5 7 -12 3 -7 -4 -8 -3 -4 4 11 19 24 14
28 -10 2 -17 10 -22 35 -23 26 -1 32 2 30 17 -2 10 -9 24 -16 31 -11 10 -12 8
-6 -10 4 -15 2 -23 -5 -23 -6 0 -8 4 -5 10 3 5 2 10 -4 10 -5 0 -12 -6 -14
-12 -3 -7 -6 -8 -6 -2 -1 6 11 21 26 35 14 13 23 18 18 10 -5 -9 -3 -12 6 -9
8 3 13 14 11 24 -2 16 -1 16 7 4 5 -8 13 -11 17 -7 4 4 2 13 -4 19 -15 15 -16
28 -2 28 6 0 9 -5 8 -11 -2 -6 2 -13 8 -16 7 -2 11 4 10 14 0 10 5 18 13 18
29 0 20 -23 -19 -50 -22 -15 -40 -32 -40 -37 0 -11 13 -4 63 35 20 16 35 33
31 38 -3 5 0 9 5 9 14 0 14 -17 1 -25 -5 -3 -10 -11 -10 -17 0 -7 6 -6 15 2
10 9 15 9 15 1 0 -11 -13 -15 -37 -12 -7 1 -13 -3 -13 -9 0 -5 5 -10 12 -10 6
0 8 -3 5 -6 -4 -4 -13 -1 -22 6 -15 12 -22 0 -7 -14 4 -4 7 -13 7 -19 0 -5 6
-12 13 -15 7 -2 10 2 6 12 -3 9 -1 16 6 16 6 0 8 -4 5 -10 -3 -5 -1 -10 4 -10
6 0 11 5 11 10 0 6 5 10 11 10 5 0 8 -4 5 -8 -3 -5 8 -20 24 -35 29 -27 51
-37 32 -14 -8 9 -5 19 9 37 11 14 18 18 17 10 -2 -8 -10 -20 -18 -27 -13 -10
-13 -12 2 -18 22 -9 13 -25 -13 -25 -11 0 -17 -5 -14 -10 4 -6 10 -8 15 -5 4
3 13 -1 19 -9 9 -10 8 -15 -3 -19 -9 -4 -13 -1 -10 6 2 7 -4 13 -14 14 -17 1
-18 -2 -8 -22 6 -13 13 -22 16 -20 3 2 12 0 20 -6 8 -5 10 -9 4 -9 -6 0 -11
-7 -11 -15 0 -8 3 -12 7 -10 3 2 6 -5 7 -15 1 -11 -2 -22 -8 -25 -5 -3 -6 1
-3 9 3 8 -3 19 -15 25 -27 15 -30 14 -26 -6 2 -10 4 -20 4 -23 1 -3 5 1 10 9
6 9 11 10 15 2 4 -6 1 -11 -6 -11 -10 0 -9 -3 1 -9 22 -14 23 -69 3 -73 -14
-3 -13 -6 6 -16 20 -12 22 -11 23 15 5 101 4 150 -4 161 -6 7 -6 12 0 12 5 0
9 38 8 84 0 71 -3 86 -17 89 -10 3 -18 -3 -21 -14 -3 -11 -11 -19 -19 -19 -10
0 -11 2 0 9 7 4 14 19 15 32 1 13 10 33 21 44 20 20 20 20 3 -7 -14 -23 -15
-27 -1 -32 9 -3 17 -6 18 -6 6 0 -3 143 -9 149 -4 3 -12 6 -18 6 -16 0 -15 28
1 31 7 1 8 0 2 -3 -15 -7 -12 -20 6 -20 12 0 14 8 8 41 -3 23 -10 43 -15 44
-5 2 -9 8 -9 13 0 6 6 7 13 4 6 -4 1 4 -13 16 -17 15 -19 20 -7 16 20 -7 23 6
5 25 -7 7 -14 22 -15 33 -4 51 -22 107 -34 100 -5 -3 -6 0 -3 8 5 15 -51 148
-68 158 -5 3 -10 10 -11 15 -1 5 -6 8 -10 6 -5 -1 -6 2 -2 7 10 17 -76 132
-165 221 -94 94 -103 101 -191 162 -49 33 -63 38 -70 27 -8 -11 -9 -11 -7 3 3
15 -60 68 -81 68 -5 0 -14 7 -21 15 -7 9 -19 14 -27 11 -8 -3 -12 -2 -9 2 2 4
-23 25 -57 46 -34 21 -74 47 -89 57 -15 11 -32 19 -38 19 -5 0 -10 5 -10 11 0
5 -4 8 -9 5 -5 -4 -11 -3 -13 2 -3 7 -144 103 -163 111 -5 2 -29 17 -53 33
-24 16 -48 26 -55 22 -6 -4 -9 -4 -5 1 8 8 -53 55 -71 55 -6 0 -11 3 -11 8 0
4 -17 16 -37 27 -21 11 -40 23 -43 27 -3 3 -12 8 -20 10 -8 2 -22 12 -32 23
-11 13 -18 15 -19 8z m242 -250 c13 -16 12 -17 -3 -4 -10 7 -18 15 -18 17 0 8
8 3 21 -13z m-191 -33 c0 -5 -5 -10 -11 -10 -5 0 -7 5 -4 10 3 6 8 10 11 10 2
0 4 -4 4 -10z m55 -88 c-3 -3 -11 0 -18 7 -9 10 -8 11 6 5 10 -3 15 -9 12 -12z
m50 8 c-3 -5 -12 -10 -18 -10 -7 0 -6 4 3 10 19 12 23 12 15 0z m413 -45 c-3
-3 -9 2 -12 12 -6 14 -5 15 5 6 7 -7 10 -15 7 -18z m-303 -43 c-3 -3 -11 0
-18 7 -9 10 -8 11 6 5 10 -3 15 -9 12 -12z m60 9 c3 -5 2 -12 -3 -15 -5 -3 -9
1 -9 9 0 17 3 19 12 6z m-260 -21 c3 -5 1 -10 -4 -10 -6 0 -11 5 -11 10 0 6 2
10 4 10 3 0 8 -4 11 -10z m79 -2 c-3 -4 -11 -5 -19 -1 -21 7 -19 12 4 10 11 0
18 -5 15 -9z m161 -27 c3 -5 2 -12 -3 -15 -5 -3 -9 1 -9 9 0 17 3 19 12 6z
m-235 -5 c0 -3 -4 -8 -10 -11 -5 -3 -10 -1 -10 4 0 6 5 11 10 11 6 0 10 -2 10
-4z m40 0 c0 -3 -4 -8 -10 -11 -5 -3 -10 -1 -10 4 0 6 5 11 10 11 6 0 10 -2
10 -4z m116 -11 c-1 -8 -5 -17 -8 -21 -5 -4 -4 16 1 34 3 9 9 -1 7 -13z m338
-21 c3 -8 2 -12 -4 -9 -6 3 -10 10 -10 16 0 14 7 11 14 -7z m-259 -13 c3 -5 2
-12 -3 -15 -5 -3 -9 1 -9 9 0 17 3 19 12 6z m-261 -19 c3 -5 -1 -9 -9 -9 -8 0
-12 4 -9 9 3 4 7 8 9 8 2 0 6 -4 9 -8z m387 -5 c-6 -8 -7 -18 -3 -22 4 -5 1
-5 -6 -1 -10 6 -10 11 -1 22 6 8 14 14 16 14 3 0 0 -6 -6 -13z m-161 -17 c0
-5 -5 -10 -11 -10 -5 0 -7 5 -4 10 3 6 8 10 11 10 2 0 4 -4 4 -10z m40 6 c0
-3 -4 -8 -10 -11 -5 -3 -10 -1 -10 4 0 6 5 11 10 11 6 0 10 -2 10 -4z m84 -4
c3 -5 -1 -9 -9 -9 -8 0 -12 4 -9 9 3 4 7 8 9 8 2 0 6 -4 9 -8z m-223 -19 c13
-16 12 -17 -3 -4 -10 7 -18 15 -18 17 0 8 8 3 21 -13z m-150 -16 c-10 -9 -11
-8 -5 6 3 10 9 15 12 12 3 -3 0 -11 -7 -18z m485 8 c-1 -8 -5 -17 -8 -21 -5
-4 -4 16 1 34 3 9 9 -1 7 -13z m178 7 c3 -5 -1 -9 -9 -9 -8 0 -12 4 -9 9 3 4
7 8 9 8 2 0 6 -4 9 -8z m-479 -21 c3 -5 2 -12 -3 -15 -5 -3 -9 1 -9 9 0 17 3
19 12 6z m338 -16 c-7 -21 -12 -19 -10 4 0 11 5 18 9 15 4 -3 5 -11 1 -19z
m-493 -25 c0 -5 -2 -10 -4 -10 -3 0 -8 5 -11 10 -3 6 -1 10 4 10 6 0 11 -4 11
-10z m116 -26 c0 -13 -2 -22 -5 -19 -3 3 -6 17 -7 31 0 13 2 22 5 19 3 -3 6
-17 7 -31z m-78 -5 c9 -12 9 -16 -1 -16 -7 0 -14 9 -14 20 -1 11 -1 18 0 16 2
-2 8 -11 15 -20z m288 9 c3 -4 -1 -5 -10 -4 -8 1 -18 5 -22 8 -3 4 1 5 10 4 8
-1 18 -5 22 -8z m-242 -16 c3 -5 -1 -9 -9 -9 -8 0 -12 4 -9 9 3 4 7 8 9 8 2 0
6 -4 9 -8z m536 -2 c0 -5 -2 -10 -4 -10 -3 0 -8 5 -11 10 -3 6 -1 10 4 10 6 0
11 -4 11 -10z m155 1 c3 -5 2 -12 -3 -15 -5 -3 -9 1 -9 9 0 17 3 19 12 6z
m-496 -14 c8 -10 7 -14 -2 -14 -8 0 -14 6 -14 14 0 7 1 13 2 13 2 0 8 -6 14
-13z m-263 -9 c3 -4 -1 -5 -10 -4 -8 1 -18 5 -22 8 -3 4 1 5 10 4 8 -1 18 -5
22 -8z m495 -5 c13 -16 12 -17 -3 -4 -10 7 -18 15 -18 17 0 8 8 3 21 -13z
m429 13 c0 -3 -4 -8 -10 -11 -5 -3 -10 -1 -10 4 0 6 5 11 10 11 6 0 10 -2 10
-4z m-85 -15 c3 -5 2 -12 -3 -15 -5 -3 -9 1 -9 9 0 17 3 19 12 6z m-805 -26
c-7 -8 -17 -15 -23 -15 -6 0 -2 7 9 15 25 19 30 19 14 0z m865 6 c3 -5 2 -12
-3 -15 -5 -3 -9 1 -9 9 0 17 3 19 12 6z m-717 -22 c9 -12 9 -16 -1 -16 -7 0
-14 9 -14 20 -1 11 -1 18 0 16 2 -2 8 -11 15 -20z m127 11 c-3 -5 -12 -10 -18
-10 -7 0 -6 4 3 10 19 12 23 12 15 0z m430 -8 c-3 -3 -11 0 -18 7 -9 10 -8 11
6 5 10 -3 15 -9 12 -12z m45 8 c0 -5 -4 -10 -10 -10 -5 0 -10 5 -10 10 0 6 5
10 10 10 6 0 10 -4 10 -10z m-715 -19 c-9 -8 -36 -10 -30 -2 2 4 11 8 20 8 8
0 13 -3 10 -6z m81 -3 c3 -4 -1 -5 -10 -4 -8 1 -18 5 -22 8 -3 4 1 5 10 4 8
-1 18 -5 22 -8z m71 -3 c0 -8 -4 -12 -9 -9 -5 3 -6 10 -3 15 9 13 12 11 12 -6z
m80 -10 c0 -8 -4 -12 -9 -9 -5 3 -6 10 -3 15 9 13 12 11 12 -6z m148 -4 c-9
-8 -36 -10 -30 -2 2 4 11 8 20 8 8 0 13 -3 10 -6z m489 1 c3 -5 -1 -9 -9 -9
-8 0 -12 4 -9 9 3 4 7 8 9 8 2 0 6 -4 9 -8z m46 4 c0 -3 -4 -8 -10 -11 -5 -3
-10 -1 -10 4 0 6 5 11 10 11 6 0 10 -2 10 -4z m-923 -21 c0 -8 -4 -15 -9 -15
-10 0 -11 14 -1 23 9 10 10 9 10 -8z m118 -3 c-3 -3 0 -11 6 -19 17 -20 5 -16
-14 5 -15 16 -15 19 -2 19 8 0 13 -3 10 -5z m51 -4 c3 -4 -1 -5 -10 -4 -8 1
-18 5 -22 8 -3 4 1 5 10 4 8 -1 18 -5 22 -8z m118 4 c2 -4 -4 -8 -14 -8 -10 0
-16 4 -14 8 3 4 9 8 14 8 5 0 11 -4 14 -8z m41 -2 c-3 -5 -12 -10 -18 -10 -7
0 -6 4 3 10 19 12 23 12 15 0z m-108 -15 c0 -8 -3 -13 -5 -10 -3 3 -12 -1 -21
-7 -10 -8 -9 -4 3 10 23 26 23 26 23 7z m-193 -3 c3 -5 -1 -9 -9 -9 -8 0 -12
4 -9 9 3 4 7 8 9 8 2 0 6 -4 9 -8z m50 -1 c-9 -9 -34 -9 -34 -1 0 5 9 8 20 7
10 -1 17 -3 14 -6z m590 1 c3 -5 -1 -9 -9 -9 -8 0 -12 4 -9 9 3 4 7 8 9 8 2 0
6 -4 9 -8z m131 -1 c3 -5 2 -12 -3 -15 -5 -3 -9 1 -9 9 0 17 3 19 12 6z m-636
-28 c-7 -10 -14 -19 -15 -21 -1 -1 -7 4 -14 13 -11 13 -10 14 3 10 8 -4 18 -2
22 4 3 6 9 11 12 11 3 0 -1 -8 -8 -17z m251 13 c0 -2 -8 -10 -17 -17 -16 -13
-17 -12 -4 4 13 16 21 21 21 13z m-403 -28 c-3 -8 -6 -5 -6 6 -1 11 2 17 5 13
3 -3 4 -12 1 -19z m197 1 c-10 -12 -17 -24 -16 -28 22 -39 22 -40 9 -36 -7 3
-13 21 -13 40 0 18 4 32 7 29 4 -2 10 0 14 6 3 5 9 10 12 10 3 0 -2 -9 -13
-21z m107 -6 c17 -20 18 -23 3 -10 -11 9 -23 15 -26 12 -2 -3 -5 2 -5 10 0 19
-1 20 28 -12z m127 2 c-3 -3 -9 2 -12 12 -6 14 -5 15 5 6 7 -7 10 -15 7 -18z
m204 11 c10 6 11 4 0 -7 -10 -11 -15 -10 -30 6 -15 17 -15 18 0 6 9 -7 23 -9
30 -5z m-528 -4 c3 -5 -1 -9 -9 -9 -8 0 -12 4 -9 9 3 4 7 8 9 8 2 0 6 -4 9 -8z
m260 -8 c3 -8 2 -12 -4 -9 -6 3 -10 10 -10 16 0 14 7 11 14 -7z m186 -9 c14
-19 14 -19 -2 -6 -10 7 -18 18 -18 24 0 6 1 8 3 6 1 -2 9 -13 17 -24z m113 10
c4 -8 3 -16 -1 -19 -4 -3 -9 4 -9 15 -2 23 3 25 10 4z m-596 -27 c2 -18 0 -20
-7 -8 -12 18 -13 30 -2 30 4 0 9 -10 9 -22z m88 12 c-3 -5 -12 -10 -18 -10 -7
0 -6 4 3 10 19 12 23 12 15 0z m319 2 c2 -4 -4 -8 -14 -8 -10 0 -16 4 -14 8 3
4 9 8 14 8 5 0 11 -4 14 -8z m236 0 c0 -5 -7 -9 -15 -9 -8 0 -12 4 -9 9 3 4 9
8 15 8 5 0 9 -4 9 -8z m-593 -8 c-3 -3 -12 -4 -19 -1 -8 3 -5 6 6 6 11 1 17
-2 13 -5z m187 -23 c-2 -3 -12 3 -22 13 -16 17 -16 18 5 5 12 -7 20 -15 17
-18z m58 14 c2 3 5 -2 5 -10 0 -19 0 -19 -23 7 -12 14 -13 18 -3 10 9 -6 18
-10 21 -7z m384 -9 c0 -14 -3 -23 -7 -20 -6 3 -6 22 0 42 3 10 7 -2 7 -22z
m324 20 c0 -2 -8 -10 -17 -17 -16 -13 -17 -12 -4 4 13 16 21 21 21 13z m-1078
-30 c4 3 9 0 14 -7 4 -7 3 -10 -4 -5 -5 3 -12 1 -14 -5 -2 -6 -9 2 -16 17 -11
25 -10 27 1 12 8 -10 16 -15 19 -12z m867 10 c9 -11 9 -16 -1 -22 -7 -4 -10
-4 -6 1 4 4 3 14 -3 22 -6 7 -9 13 -6 13 2 0 10 -6 16 -14z m-593 -5 c-4 -5 0
-11 6 -14 7 -3 3 -4 -9 -4 -17 1 -19 4 -11 14 12 15 22 18 14 4z m-160 -26 c2
-12 -2 -12 -17 -5 -23 13 -25 22 -2 13 12 -5 14 -3 8 8 -5 8 -4 11 0 6 5 -4
10 -14 11 -22z m235 8 c13 -16 12 -17 -3 -4 -17 13 -22 21 -14 21 2 0 10 -8
17 -17z m152 -8 c9 2 17 -1 17 -6 0 -5 -10 -7 -22 -5 -13 1 -29 -4 -36 -13
-11 -14 -12 -13 -3 5 7 15 7 25 -2 35 -7 7 -3 6 8 -3 11 -8 28 -14 38 -13z
m97 11 c-7 -7 -13 -7 -20 0 -6 6 -3 10 10 10 13 0 16 -4 10 -10z m90 10 c0 -2
-8 -10 -17 -17 -16 -13 -17 -12 -4 4 13 16 21 21 21 13z m34 -4 c3 -5 -1 -9
-9 -9 -8 0 -12 4 -9 9 3 4 7 8 9 8 2 0 6 -4 9 -8z m-488 -28 c1 -9 0 -13 -4
-10 -3 4 -7 14 -8 22 -1 9 0 13 4 10 3 -4 7 -14 8 -22z m201 9 c0 -7 -3 -11
-5 -8 -3 3 -10 1 -16 -5 -8 -6 -12 -3 -12 8 0 10 8 18 16 18 9 0 17 -6 17 -13z
m660 2 c0 -8 -4 -12 -9 -9 -5 3 -6 10 -3 15 9 13 12 11 12 -6z m-1037 0 c0 -2
-10 -9 -22 -15 -22 -11 -22 -10 -4 4 21 17 26 19 26 11z m511 -12 c13 -16 12
-17 -3 -5 -9 8 -23 10 -29 6 -8 -4 -9 -3 -5 4 10 17 21 15 37 -5z m339 12 c0
-2 -6 -8 -13 -14 -10 -8 -14 -7 -14 2 0 8 6 14 14 14 7 0 13 -1 13 -2z m150
-1 c0 -8 -19 -13 -24 -6 -3 5 1 9 9 9 8 0 15 -2 15 -3z m-984 -19 c-1 -8 -5
-17 -8 -21 -5 -4 -4 16 1 34 3 9 9 -1 7 -13z m764 11 c0 -2 -8 -10 -17 -17
-16 -13 -17 -12 -4 4 13 16 21 21 21 13z m-652 -37 c-3 -8 -7 -3 -11 10 -4 17
-3 21 5 13 5 -5 8 -16 6 -23z m88 8 c1 -9 -2 -17 -8 -17 -6 0 -8 6 -5 14 3 8
2 17 -4 20 -5 2 -4 3 2 2 7 -1 13 -10 15 -19z m481 0 c1 -11 1 -18 0 -16 -2 2
-8 11 -15 20 -9 12 -9 16 1 16 7 0 14 -9 14 -20z m239 -11 c-2 -38 -12 -39
-12 -1 0 18 3 32 7 30 3 -3 5 -15 5 -29z m-988 11 c14 4 14 3 2 -5 -16 -12
-30 -7 -29 11 0 9 2 9 5 0 3 -7 13 -9 22 -6z m368 -6 c0 -12 -4 -17 -11 -12
-5 5 -18 7 -27 6 -10 -2 -18 1 -18 7 0 6 6 8 13 5 8 -3 20 -1 28 4 8 5 14 9
14 9 1 0 1 -9 1 -19z m138 -10 c-2 -3 -12 3 -22 13 -16 17 -16 18 5 5 12 -7
20 -15 17 -18z m542 9 c0 -12 -4 -16 -9 -11 -5 5 -6 14 -3 20 10 15 12 14 12
-9z m38 -10 c-6 -6 -10 -3 -10 10 0 13 4 16 10 10 7 -7 7 -13 0 -20z m-989 10
c3 -5 1 -10 -4 -10 -6 0 -11 5 -11 10 0 6 2 10 4 10 3 0 8 -4 11 -10z m812 -5
c0 -8 -4 -12 -9 -9 -5 3 -6 10 -3 15 9 13 12 11 12 -6z m-862 -4 c3 -5 0 -13
-6 -17 -8 -4 -9 -3 -5 4 9 15 1 15 -27 1 -21 -10 -21 -10 -3 5 23 18 32 20 41
7z m745 5 c0 -2 -8 -10 -17 -17 -16 -13 -17 -12 -4 4 13 16 21 21 21 13z m355
-5 c3 -5 2 -12 -3 -15 -5 -3 -9 1 -9 9 0 17 3 19 12 6z m-1084 -32 c-5 -13
-10 -19 -10 -12 -1 15 10 45 15 40 3 -2 0 -15 -5 -28z m245 6 c1 -8 -1 -13 -6
-10 -5 3 -10 0 -12 -7 -3 -7 -7 -3 -10 9 -4 17 -2 20 10 16 11 -5 13 -3 7 8
-5 8 -4 11 0 6 5 -4 10 -14 11 -22z m80 0 c0 -14 -6 -27 -13 -29 -9 -4 -9 3
-1 25 12 36 16 37 14 4z m73 3 c-11 -21 -15 -22 -25 -6 -5 7 -3 8 6 3 9 -6 12
-4 8 7 -4 8 0 15 7 15 10 0 11 -5 4 -19z m95 14 c2 -4 -4 -8 -14 -8 -10 0 -16
4 -14 8 3 4 9 8 14 8 5 0 11 -4 14 -8z m-453 -29 c-12 -20 -14 -14 -5 12 4 9
9 14 11 11 3 -2 0 -13 -6 -23z m386 12 c0 -8 -4 -12 -9 -9 -5 3 -6 10 -3 15 9
13 12 11 12 -6z m240 -7 c0 -13 -1 -17 -4 -10 -3 9 -9 10 -17 3 -9 -8 -13 -7
-13 4 0 8 4 12 8 9 4 -2 10 0 14 6 9 14 11 13 12 -12z m83 18 c0 -2 -8 -10
-17 -17 -16 -13 -17 -12 -4 4 13 16 21 21 21 13z m-787 -21 c4 -8 1 -17 -5
-21 -7 -4 -8 -3 -4 4 4 7 2 12 -4 12 -6 0 -8 5 -5 10 8 14 12 13 18 -5z m124
-5 c-1 -11 -5 -20 -9 -20 -10 0 -10 4 -2 24 8 22 13 20 11 -4z m86 5 c-3 -9
-8 -14 -10 -11 -3 3 -2 9 2 15 9 16 15 13 8 -4z m631 7 c3 -5 -1 -9 -9 -9 -8
0 -12 4 -9 9 3 4 7 8 9 8 2 0 6 -4 9 -8z m260 -3 c3 -2 -10 -5 -29 -5 -18 0
-32 3 -30 7 5 7 52 6 59 -2z m-294 -3 c0 -2 -8 -10 -17 -17 -16 -13 -17 -12
-4 4 13 16 21 21 21 13z m-632 -20 c-10 -7 -15 -16 -11 -20 4 -4 -1 -4 -11 0
-17 6 -16 8 5 20 31 17 39 17 17 0z m427 6 c-3 -3 1 -12 8 -20 10 -13 9 -14
-1 -8 -7 4 -19 3 -26 -3 -9 -8 -13 -7 -13 4 0 8 5 11 10 8 6 -4 8 0 5 9 -4 9
0 15 8 15 8 0 12 -3 9 -5z m43 -9 c-6 -7 -12 -13 -13 -13 -2 0 -5 6 -8 13 -3
7 3 13 14 13 13 0 15 -3 7 -13z m292 13 c0 -2 -8 -10 -17 -17 -16 -13 -17 -12
-4 4 13 16 21 21 21 13z m65 -4 c-3 -3 2 -14 12 -24 24 -27 10 -22 -15 5 -17
18 -19 24 -7 24 8 0 13 -3 10 -5z m-758 -29 c1 -22 -1 -24 -8 -10 -6 9 -7 22
-4 27 9 14 10 13 12 -17z m250 21 c-3 -3 -12 -4 -19 -1 -8 3 -5 6 6 6 11 1 17
-2 13 -5z m270 -9 c0 -8 -4 -12 -9 -9 -5 3 -6 10 -3 15 9 13 12 11 12 -6z m59
-4 c0 -11 -5 -17 -13 -14 -10 4 -11 9 -2 19 15 18 15 18 15 -5z m244 15 c0 -2
-8 -10 -17 -17 -16 -13 -17 -12 -4 4 13 16 21 21 21 13z m-1040 -16 c0 -5 -4
-10 -10 -10 -5 0 -10 5 -10 10 0 6 5 10 10 10 6 0 10 -4 10 -10z m59 0 c-6 -5
-18 -6 -26 -3 -19 8 -16 11 13 11 17 0 22 -3 13 -8z m200 -24 c-3 -3 -11 5
-18 17 -13 21 -12 21 5 5 10 -10 16 -20 13 -22z m51 24 c8 -5 11 -10 5 -10 -5
0 -17 5 -25 10 -8 5 -10 10 -5 10 6 0 17 -5 25 -10z m101 -17 c-12 -20 -14
-14 -5 12 4 9 9 14 11 11 3 -2 0 -13 -6 -23z m528 24 c-2 -1 -13 -9 -24 -17
-19 -14 -19 -14 -6 3 7 9 18 17 24 17 6 0 8 -1 6 -3z m-866 -45 c-3 -13 2 -18
16 -18 12 0 21 6 21 13 0 16 16 17 26 1 4 -6 3 -8 -4 -4 -5 3 -12 1 -14 -6 -7
-19 -48 -16 -59 4 -7 12 -6 18 1 18 6 0 8 5 4 12 -4 6 -3 8 4 5 5 -4 8 -15 5
-25z m122 17 c4 -5 -2 -6 -11 -2 -12 4 -15 3 -10 -5 4 -7 2 -12 -3 -12 -6 0
-11 5 -11 11 0 5 -5 7 -12 3 -6 -4 -8 -3 -5 2 7 13 45 15 52 3z m256 -12 c-8
-8 -14 -7 -23 2 -11 10 -9 11 6 5 15 -6 17 -4 11 6 -6 9 -4 11 4 5 9 -5 10
-10 2 -18z m409 19 c0 -2 -7 -7 -16 -10 -8 -3 -12 -2 -9 4 6 10 25 14 25 6z
m205 -5 c-9 -8 -36 -10 -30 -2 2 4 11 8 20 8 8 0 13 -3 10 -6z m-828 -23 c-3
-8 -6 -5 -6 6 -1 11 2 17 5 13 3 -3 4 -12 1 -19z m49 7 c-11 -8 -25 -15 -30
-15 -6 1 0 7 14 15 32 19 40 18 16 0z m229 5 c-3 -5 -12 -10 -18 -10 -7 0 -6
4 3 10 19 12 23 12 15 0z m238 -5 c-3 -9 -8 -14 -10 -11 -3 3 -2 9 2 15 9 16
15 13 8 -4z m-383 -1 c0 -8 -19 -13 -24 -6 -3 5 1 9 9 9 8 0 15 -2 15 -3z
m250 -4 c0 -5 -2 -10 -4 -10 -3 0 -8 5 -11 10 -3 6 -1 10 4 10 6 0 11 -4 11
-10z m80 0 c0 -5 -4 -10 -10 -10 -5 0 -10 5 -10 10 0 6 5 10 10 10 6 0 10 -4
10 -10z m97 -6 c0 -7 -7 -10 -15 -6 -11 4 -13 1 -7 -8 5 -8 4 -11 -3 -6 -6 4
-9 12 -6 20 6 16 31 17 31 0z m143 6 c0 -5 -4 -10 -10 -10 -5 0 -10 5 -10 10
0 6 5 10 10 10 6 0 10 -4 10 -10z m160 6 c0 -3 -4 -8 -10 -11 -5 -3 -10 -1
-10 4 0 6 5 11 10 11 6 0 10 -2 10 -4z m-882 -31 c-3 -3 -9 2 -12 12 -6 14 -5
15 5 6 7 -7 10 -15 7 -18z m118 7 c1 -7 0 -8 -3 -2 -2 5 -9 10 -14 10 -6 0 -7
-5 -3 -12 4 -7 3 -8 -5 -4 -14 9 -4 29 12 23 6 -2 12 -9 13 -15z m66 11 c-6
-2 -9 -10 -6 -15 4 -7 2 -8 -5 -4 -13 9 -5 26 12 25 9 0 8 -2 -1 -6z m-207
-34 c0 -19 -6 -24 -24 -24 -16 0 -25 6 -27 19 -4 27 1 33 28 31 17 -1 23 -8
23 -26z m98 18 c3 -8 2 -20 -3 -26 -5 -9 -7 -4 -7 13 0 29 2 32 10 13z m207 9
c0 -3 -4 -8 -10 -11 -5 -3 -10 -1 -10 4 0 6 5 11 10 11 6 0 10 -2 10 -4z m163
-13 c-5 -12 -3 -14 7 -8 9 5 11 4 6 -4 -6 -9 -11 -9 -22 0 -12 10 -12 14 -2
20 18 12 18 11 11 -8z m-303 -8 c0 -8 -4 -15 -10 -15 -5 0 -7 7 -4 15 4 8 8
15 10 15 2 0 4 -7 4 -15z m105 -6 c-5 -16 -4 -19 5 -14 9 6 11 4 5 -4 -10 -18
-27 2 -19 22 9 25 17 21 9 -4z m275 2 c0 -5 -8 -11 -18 -13 -11 -3 -19 0 -19
7 0 8 7 11 15 7 11 -4 13 -1 7 8 -5 9 -4 11 3 6 7 -4 12 -11 12 -15z m157 13
c-3 -3 -12 -4 -19 -1 -8 3 -5 6 6 6 11 1 17 -2 13 -5z m140 -16 c1 -13 -1 -18
-5 -13 -4 6 -17 10 -29 9 -13 -1 -23 3 -23 8 0 5 9 7 19 3 11 -3 22 -1 26 5 9
14 11 13 12 -12z m76 7 c9 2 15 0 12 -5 -3 -5 -13 -7 -23 -5 -9 1 -22 -1 -27
-6 -7 -5 -11 -1 -11 11 0 13 4 16 16 11 8 -5 23 -7 33 -6z m-1053 -9 c0 -20
-17 -29 -26 -15 -5 8 -3 9 6 4 10 -6 12 -4 7 8 -3 10 -2 17 3 17 6 0 10 -6 10
-14z m67 -8 c-3 -8 -6 -5 -6 6 -1 11 2 17 5 13 3 -3 4 -12 1 -19z m136 4 c-3
-7 -9 -10 -12 -5 -3 4 -10 11 -15 15 -4 4 1 6 12 5 12 -1 18 -6 15 -15z m132
0 c-3 -3 -11 0 -18 7 -9 10 -8 11 6 5 10 -3 15 -9 12 -12z m25 -2 c-6 -11 -15
-20 -20 -20 -6 0 -2 9 7 20 10 11 19 20 21 20 1 0 -2 -9 -8 -20z m111 3 c12
-16 12 -17 -2 -6 -9 7 -19 10 -22 6 -4 -3 -7 -1 -7 5 0 17 16 15 31 -5z m289
5 c0 -4 -4 -8 -9 -8 -6 0 -12 4 -15 8 -3 5 1 9 9 9 8 0 15 -4 15 -9z m97 -10
c-3 -8 -6 -5 -6 6 -1 11 2 17 5 13 3 -3 4 -12 1 -19z m-817 2 c0 -5 -4 -10
-10 -10 -5 0 -10 5 -10 10 0 6 5 10 10 10 6 0 10 -4 10 -10z m223 -11 c-8 -8
-13 -7 -18 2 -5 8 -4 10 3 5 7 -4 12 -2 12 5 0 7 3 9 7 6 4 -4 2 -12 -4 -18z
m292 12 c3 -5 2 -12 -3 -15 -5 -3 -9 1 -9 9 0 17 3 19 12 6z m560 -12 c-4 -5
-12 -9 -18 -8 -9 0 -8 2 1 6 6 2 9 10 6 15 -4 7 -2 8 5 4 6 -4 9 -12 6 -17z
m-951 -8 c-10 -10 -21 -16 -24 -14 -3 3 4 11 14 19 28 20 33 17 10 -5z m544
-6 c-3 -3 -9 2 -12 12 -6 14 -5 15 5 6 7 -7 10 -15 7 -18z m83 2 c-8 -8 -14
-7 -23 2 -11 10 -9 11 6 5 15 -6 17 -4 11 6 -6 9 -4 11 4 5 9 -5 10 -10 2 -18z
m-476 2 c11 -16 1 -19 -13 -3 -7 8 -8 14 -3 14 5 0 13 -5 16 -11z m122 -9 c-1
-12 -5 -16 -10 -11 -5 5 -6 14 -3 20 11 16 15 13 13 -9z m57 5 c-4 -8 -10 -12
-15 -9 -5 3 -9 0 -9 -7 0 -7 -3 -9 -7 -5 -5 4 1 14 11 22 25 18 27 18 20 -1z
m407 1 c5 3 9 1 9 -4 0 -21 -26 -19 -27 2 0 11 1 15 4 8 3 -6 9 -10 14 -6z
m-855 -8 c-9 -5 -23 -5 -32 0 -12 6 -7 9 16 9 23 0 28 -3 16 -9z m49 -6 c-3
-3 -11 0 -18 7 -9 10 -8 11 6 5 10 -3 15 -9 12 -12z m122 12 c-2 -3 -17 -7
-33 -10 -17 -2 -24 -1 -17 4 13 8 58 14 50 6z m83 -9 c0 -2 -9 -3 -19 -2 -11
0 -18 5 -15 9 4 6 34 0 34 -7z m228 -10 c-3 -3 -9 2 -12 12 -6 14 -5 15 5 6 7
-7 10 -15 7 -18z m109 5 c1 -11 -2 -20 -5 -20 -4 0 -8 9 -9 20 -1 11 2 20 5
20 4 0 8 -9 9 -20z m46 3 c-5 -12 -3 -14 7 -8 9 6 11 4 5 -4 -5 -9 -11 -9 -17
-3 -6 6 -7 15 -4 21 11 17 16 13 9 -6z m55 -8 c-3 -3 -9 2 -12 12 -6 14 -5 15
5 6 7 -7 10 -15 7 -18z m239 3 c-3 -8 -6 -5 -6 6 -1 11 2 17 5 13 3 -3 4 -12
1 -19z m167 10 c-4 -5 -9 -7 -12 -4 -3 3 -12 0 -21 -7 -14 -10 -14 -10 -4 4
13 16 46 23 37 7z m-62 -16 c-7 -2 -10 -8 -7 -12 3 -5 0 -12 -6 -16 -8 -4 -9
-3 -5 4 4 7 1 12 -6 13 -10 0 -10 2 0 6 6 2 10 9 7 14 -4 5 2 6 11 2 11 -4 13
-8 6 -11z m-1003 -6 c9 -10 9 -16 1 -21 -13 -8 -42 14 -34 26 8 13 20 11 33
-5z m57 -4 c3 -25 6 -26 14 -7 7 17 9 17 9 3 1 -10 6 -18 11 -18 6 0 10 -5 10
-11 0 -8 -5 -8 -15 1 -20 16 -19 0 1 -28 17 -25 12 -41 -14 -40 -9 0 -24 -1
-32 -3 -11 -3 -15 4 -15 25 0 16 6 30 13 32 7 1 8 0 2 -3 -17 -8 -11 -23 8
-17 15 5 14 3 -2 -10 -26 -21 -16 -30 12 -10 21 15 21 16 5 47 -9 18 -16 35
-15 40 1 4 -2 7 -8 7 -5 0 -10 -5 -10 -12 0 -6 -3 -9 -6 -5 -9 9 6 29 19 24 7
-2 13 -9 13 -15z m117 0 c-4 -15 13 -16 20 -2 3 6 4 5 3 -2 -2 -7 -9 -13 -17
-13 -8 0 -13 6 -11 13 1 6 -7 12 -18 12 -11 0 -19 -6 -17 -12 1 -7 -4 -13 -12
-13 -8 0 -15 6 -17 13 -1 7 0 8 3 2 5 -12 24 -14 22 -2 -3 18 3 23 24 20 12
-2 21 -9 20 -16z m123 6 c4 -6 3 -8 -4 -4 -5 3 -12 0 -15 -6 -2 -7 -8 -9 -13
-5 -5 4 -2 12 6 17 19 12 17 12 26 -2z m154 -32 c0 -6 -7 -1 -15 10 -8 10 -15
23 -15 28 0 6 7 1 15 -10 8 -10 15 -23 15 -28z m24 28 c3 -8 2 -12 -4 -9 -6 3
-10 10 -10 16 0 14 7 11 14 -7z m54 -9 c2 -1 -5 -6 -15 -9 -9 -4 -14 -4 -10 0
4 4 -1 13 -11 21 -15 12 -14 13 8 2 14 -6 26 -13 28 -14z m109 -6 c0 -21 -3
-26 -9 -16 -4 9 -5 22 -2 31 9 23 11 20 11 -15z m177 -8 c-5 -6 -34 20 -34 30
0 5 8 1 18 -8 10 -10 17 -20 16 -22z m-580 14 c3 -8 1 -15 -4 -15 -6 0 -10 7
-10 15 0 8 2 15 4 15 2 0 6 -7 10 -15z m84 -11 c0 -17 -3 -22 -8 -13 -5 6 -6
18 -3 26 8 19 11 16 11 -13z m364 4 c-9 -9 -15 -9 -24 1 -11 10 -10 11 5 6 10
-5 17 -2 17 6 0 7 3 9 7 6 4 -4 1 -13 -5 -19z m268 7 c-7 -9 -15 -13 -19 -10
-3 3 1 10 9 15 21 14 24 12 10 -5z m-540 -7 c0 -11 -22 -10 -39 1 -10 7 -7 9
12 8 15 -1 27 -5 27 -9z m320 2 c8 -5 11 -10 5 -10 -5 0 -17 5 -25 10 -8 5
-10 10 -5 10 6 0 17 -5 25 -10z m134 2 c3 -5 -1 -9 -9 -9 -8 0 -15 4 -15 9 0
4 4 8 9 8 6 0 12 -4 15 -8z m47 -9 c13 -16 12 -17 -3 -4 -17 13 -22 21 -14 21
2 0 10 -8 17 -17z m-291 -17 c0 -2 -9 -2 -20 1 -11 3 -20 9 -20 15 0 5 9 4 20
-2 11 -6 20 -12 20 -14z m153 11 c7 3 8 2 4 -2 -14 -16 -36 -14 -29 3 4 10 7
12 10 4 2 -7 9 -9 15 -5z m303 -5 c1 -7 0 -8 -3 -2 -2 5 -9 10 -14 10 -6 0 -7
-5 -3 -12 4 -7 3 -8 -5 -4 -14 9 -4 29 12 23 6 -2 12 -9 13 -15z m-916 -2 c0
-5 -4 -10 -10 -10 -5 0 -10 5 -10 10 0 6 5 10 10 10 6 0 10 -4 10 -10z m70
-32 c0 -4 6 -7 12 -5 7 1 14 -8 16 -21 2 -12 8 -20 13 -17 5 4 9 1 9 -5 0 -21
-24 -4 -30 21 -4 16 -8 20 -14 11 -4 -6 -4 -17 0 -24 4 -7 3 -8 -5 -4 -6 4
-11 13 -10 19 3 25 -1 38 -11 32 -6 -4 -7 1 -3 12 6 16 4 16 -16 -2 l-23 -20
24 -6 c22 -7 22 -7 1 -8 -32 -1 -37 15 -11 39 21 20 23 20 35 4 7 -10 13 -21
13 -26z m63 16 c-1 -13 5 -20 18 -21 11 -1 17 2 14 7 -3 4 6 15 20 24 17 11
26 13 31 4 4 -7 3 -8 -4 -4 -7 4 -12 2 -12 -3 0 -6 -7 -11 -15 -11 -8 0 -14
-6 -12 -12 1 -8 -8 -13 -23 -13 -19 1 -25 6 -23 21 1 14 -4 20 -17 20 -11 0
-20 -5 -20 -10 0 -5 -3 -7 -6 -3 -11 11 5 24 28 22 16 -2 22 -8 21 -21z m151
-14 c-6 -5 -24 21 -24 34 0 6 6 1 14 -10 8 -10 12 -21 10 -24z m50 8 c1 -14
-2 -24 -7 -21 -5 3 -6 14 -4 25 4 14 2 18 -9 14 -8 -3 -14 -1 -14 5 0 24 33 2
34 -23z m401 -4 c1 -23 0 -24 -12 -7 -9 11 -10 19 -3 21 5 2 7 9 3 15 -3 7 -2
9 2 4 5 -4 9 -19 10 -33z m68 19 c-4 -11 -3 -14 5 -9 8 5 10 1 5 -10 -4 -11
-8 -13 -11 -6 -2 7 -8 9 -14 6 -6 -4 -5 2 1 15 14 25 23 28 14 4z m-283 -37
c0 -6 -7 -1 -15 10 -8 10 -15 23 -15 28 0 6 7 1 15 -10 8 -10 15 -23 15 -28z
m120 34 c-13 -9 -13 -12 2 -20 10 -6 14 -18 11 -30 -4 -16 -2 -19 13 -14 15 5
16 4 4 -4 -18 -13 -32 -5 -28 16 2 10 -3 22 -11 28 -15 12 -7 34 12 34 7 0 6
-4 -3 -10z m43 -3 c3 -8 -1 -14 -9 -14 -15 0 -18 9 -7 20 9 9 10 9 16 -6z
m196 -1 c9 -10 8 -15 -2 -19 -8 -3 -13 3 -13 14 0 23 0 23 15 5z m-900 -5 c9
-6 6 -8 -13 -8 -14 0 -23 3 -20 8 7 11 15 11 33 0z m266 -1 c-3 -5 -11 -10
-16 -10 -6 0 -7 5 -4 10 3 6 11 10 16 10 6 0 7 -4 4 -10z m125 0 c-8 -5 -19
-10 -25 -10 -5 0 -3 5 5 10 8 5 20 10 25 10 6 0 3 -5 -5 -10z m183 -4 c4 -10
1 -13 -9 -9 -7 3 -14 9 -14 14 0 14 17 10 23 -5z m287 -7 c-7 -11 -14 -18 -17
-15 -3 3 0 12 7 21 18 21 23 19 10 -6z m-386 -1 c-5 -8 -2 -9 9 -5 10 3 17 2
17 -3 0 -12 -27 -13 -34 -1 -3 4 -3 11 1 15 10 10 15 7 7 -6z m166 -13 c0 -2
-5 -7 -12 -11 -7 -4 -8 -3 -4 4 4 7 1 12 -8 12 -9 0 -16 5 -16 10 0 7 6 7 20
0 11 -6 20 -13 20 -15z m-391 -29 c0 -6 -3 -5 -6 2 -4 9 -8 10 -18 2 -19 -16
-30 6 -14 26 12 14 14 14 26 -2 7 -10 13 -23 12 -28z m66 4 c-3 -4 7 -11 22
-15 21 -5 24 -8 12 -16 -7 -5 -18 -9 -24 -9 -5 0 -4 4 3 9 10 6 8 10 -8 14
-12 3 -20 10 -17 14 3 5 -3 15 -14 21 -17 11 -20 10 -17 -5 2 -10 10 -24 18
-31 13 -11 12 -12 -6 -3 -18 9 -25 37 -15 59 0 1 12 -5 26 -14 14 -9 23 -20
20 -24z m25 15 c14 -19 14 -19 -2 -6 -10 7 -18 18 -18 24 0 6 1 8 3 6 1 -2 9
-13 17 -24z m72 18 c-12 -2 -20 -8 -17 -13 3 -5 -4 -14 -15 -20 -13 -7 -20 -7
-20 0 0 5 7 10 15 10 8 0 14 3 14 8 -3 17 2 22 24 21 l22 -2 -23 -4z m321 -6
c3 -8 2 -20 -3 -26 -5 -9 -7 -4 -7 13 0 29 2 32 10 13z m63 -15 c-2 -9 4 -23
13 -30 14 -11 13 -11 -7 -2 -12 6 -20 15 -17 21 4 5 0 9 -7 10 -10 0 -10 2 0
6 6 2 9 10 6 15 -4 6 -2 8 4 5 5 -4 9 -15 8 -25z m144 19 c0 -6 -4 -12 -8 -15
-5 -3 -9 1 -9 9 0 8 4 15 9 15 4 0 8 -4 8 -9z m-424 -37 c-3 -8 -10 -12 -16
-9 -5 3 -10 -3 -10 -14 0 -12 6 -20 12 -18 7 1 14 -9 15 -23 2 -24 2 -24 -5
-2 -4 13 -11 23 -17 23 -5 -1 -10 9 -10 22 0 12 5 21 13 20 6 -2 12 7 13 20 0
12 3 16 6 9 3 -7 2 -20 -1 -28z m-83 9 c-4 -10 -2 -14 5 -9 6 4 16 -3 22 -16
9 -20 9 -21 -2 -7 -7 9 -17 16 -23 17 -13 1 -19 32 -6 32 6 0 7 -7 4 -17z m42
-1 c-3 -3 -11 0 -18 7 -9 10 -8 11 6 5 10 -3 15 -9 12 -12z m122 11 c-9 -8
-47 -11 -47 -4 0 5 11 9 25 9 14 0 24 -2 22 -5z m238 -3 c3 -5 1 -10 -4 -10
-6 0 -11 5 -11 10 0 6 2 10 4 10 3 0 8 -4 11 -10z m45 0 c0 -5 -4 -10 -10 -10
-5 0 -10 5 -10 10 0 6 5 10 10 10 6 0 10 -4 10 -10z m-810 -15 c7 -9 8 -15 2
-15 -5 0 -12 7 -16 15 -3 8 -4 15 -2 15 2 0 9 -7 16 -15z m116 0 c10 -8 15
-15 9 -15 -5 0 1 -7 14 -14 20 -11 21 -14 7 -19 -10 -4 -15 -3 -11 3 3 6 0 11
-7 11 -7 1 -17 2 -23 4 -5 1 -14 3 -19 3 -5 1 -3 8 3 16 9 11 9 15 -1 19 -7 3
-8 6 -2 6 5 1 19 -6 30 -14z m570 6 c-3 -5 1 -11 9 -15 8 -3 15 -10 15 -16 0
-5 -9 -2 -19 7 -17 14 -20 33 -5 33 3 0 3 -4 0 -9z m-306 -49 c8 -2 24 -13 35
-24 20 -21 19 -21 -9 0 -15 12 -32 19 -37 16 -5 -3 -12 2 -15 10 -3 9 -9 14
-13 12 -4 -3 -8 5 -8 17 -2 20 -1 20 15 -3 9 -14 24 -26 32 -28z m87 17 c0
-21 -3 -26 -9 -16 -4 9 -5 22 -2 31 9 23 11 20 11 -15z m83 21 c0 -5 -6 -7
-13 -4 -8 3 -13 -3 -13 -16 0 -26 28 -22 38 5 6 17 7 16 5 -5 -2 -19 -8 -25
-27 -25 -23 0 -29 15 -21 50 2 9 31 5 31 -5z m320 0 c0 -5 -4 -10 -10 -10 -5
0 -10 5 -10 10 0 6 5 10 10 10 6 0 10 -4 10 -10z m-905 -42 c-30 -24 -44 -23
-17 1 12 10 22 25 22 32 0 12 2 12 9 0 7 -10 2 -20 -14 -33z m825 33 c0 -6 -5
-13 -12 -17 -6 -4 -8 -3 -4 4 3 5 0 13 -6 15 -8 3 -6 6 5 6 9 1 17 -3 17 -8z
m27 -13 c-3 -8 -6 -5 -6 6 -1 11 2 17 5 13 3 -3 4 -12 1 -19z m-787 2 c-8 -5
-19 -10 -25 -10 -5 0 -3 5 5 10 8 5 20 10 25 10 6 0 3 -5 -5 -10z m160 -2 c0
-11 -12 -10 -30 2 -12 7 -10 9 8 7 12 0 22 -5 22 -9z m310 2 c0 -5 -4 -10 -10
-10 -5 0 -10 5 -10 10 0 6 5 10 10 10 6 0 10 -4 10 -10z m189 -5 c3 -3 -7 -4
-23 -1 -16 3 -31 8 -35 11 -3 3 7 4 23 1 16 -3 31 -8 35 -11z m197 -2 c-4 -22
-48 -24 -53 -3 -3 9 -1 11 4 5 10 -12 44 -19 42 -8 -2 12 0 23 5 23 2 0 3 -8
2 -17z m-797 -32 c-1 -13 -2 -13 -6 2 -2 9 -8 15 -13 12 -5 -3 -7 -12 -3 -20
5 -16 -18 -21 -31 -8 -4 4 -15 8 -23 8 -9 0 -17 6 -19 13 -1 7 0 8 3 2 2 -5 9
-10 14 -10 6 0 7 5 3 12 -4 7 -3 8 4 4 7 -4 12 -2 12 3 0 6 5 11 11 11 8 0 9
-4 0 -13 -11 -14 -5 -27 11 -27 5 0 7 4 3 9 -3 5 -1 12 5 16 6 4 7 12 3 18 -4
7 0 6 10 -2 9 -7 16 -21 16 -30z m154 23 c12 -12 -6 -34 -27 -33 -21 0 -21 0
2 9 30 13 28 24 -4 16 -17 -5 -23 -3 -19 4 7 11 38 14 48 4z m117 -28 c0 -1
-9 -2 -19 -2 -11 0 -17 4 -15 8 3 4 0 8 -5 8 -6 0 -11 5 -11 10 0 6 11 3 25
-6 14 -9 25 -17 25 -18z m222 11 c-12 -14 -7 -27 10 -27 5 0 7 4 4 9 -3 5 5
16 19 25 14 9 25 15 26 14 11 -42 0 -73 -17 -47 -4 8 -3 9 4 5 12 -7 17 6 6
17 -9 8 -35 -4 -29 -13 9 -15 -15 -22 -30 -10 -11 9 -12 16 -2 30 6 11 13 17
16 15 2 -3 -1 -11 -7 -18z m180 9 c-2 -5 2 -13 10 -18 10 -8 10 -9 -2 -5 -8 2
-14 10 -12 16 1 6 -7 11 -18 11 -11 0 -19 -6 -17 -12 1 -7 -4 -13 -12 -13 -8
0 -15 6 -17 13 -1 7 0 8 3 2 5 -12 24 -14 22 -2 -3 18 3 23 24 20 12 -2 20 -7
19 -12z m45 -17 c-3 -21 -23 -39 -42 -38 -5 0 -1 5 10 12 11 7 21 20 23 31 2
12 -1 16 -9 10 -8 -4 -10 -3 -5 5 11 17 26 3 23 -20z m-666 -11 c11 -8 10 -8
-4 -4 -10 3 -30 -1 -45 -10 -26 -15 -26 -15 -4 1 12 10 22 25 22 34 0 13 2 13
9 2 5 -7 15 -18 22 -23z m35 17 c-3 -8 -2 -15 2 -15 4 0 16 -14 26 -31 10 -17
33 -46 51 -65 18 -19 29 -34 25 -34 -12 0 -47 38 -71 78 -12 17 -24 32 -27 32
-4 0 -13 9 -20 21 -8 12 -9 18 -3 14 6 -3 11 -1 11 4 0 6 3 11 6 11 3 0 4 -7
0 -15z m106 1 c6 4 5 -2 -1 -15 -12 -22 -31 -29 -31 -10 0 5 5 7 11 3 8 -4 9
1 5 17 -3 13 -3 18 0 11 3 -6 10 -9 16 -6z m385 -8 c-3 -8 -6 -5 -6 6 -1 11 2
17 5 13 3 -3 4 -12 1 -19z m239 2 c0 -12 -4 -16 -9 -11 -5 5 -6 14 -3 20 10
15 12 14 12 -9z m-386 0 c18 -12 2 -12 -25 0 -13 6 -15 9 -5 9 8 0 22 -4 30
-9z m307 -12 c-3 -8 -6 -5 -6 6 -1 11 2 17 5 13 3 -3 4 -12 1 -19z m-517 2 c0
-5 -5 -10 -11 -10 -5 0 -7 5 -4 10 3 6 8 10 11 10 2 0 4 -4 4 -10z m96 -24 c1
-9 -2 -14 -7 -10 -5 3 -9 0 -9 -7 0 -8 -6 -6 -18 4 -10 10 -24 17 -31 17 -7 0
-3 -9 10 -20 13 -10 18 -19 12 -20 -7 0 -13 4 -13 9 0 5 -10 13 -22 17 -20 6
-20 7 -3 17 13 7 24 6 38 -2 14 -9 22 -10 30 -2 8 8 6 11 -6 11 -9 0 -17 5
-17 10 0 17 33 -5 36 -24z m139 13 c-5 -14 -4 -19 4 -15 6 4 19 2 28 -4 15 -9
14 -10 -7 -4 -22 6 -23 5 -11 -10 7 -9 9 -16 3 -16 -5 0 -13 7 -16 16 -3 8
-11 12 -17 8 -8 -4 -7 -9 2 -15 8 -5 9 -9 3 -9 -20 0 -22 12 -6 41 20 34 26
37 17 8z m334 -20 c-8 -16 -14 -18 -22 -10 -17 17 -31 13 -17 -4 7 -9 8 -15 2
-15 -5 0 -12 7 -16 15 -3 9 -12 12 -23 8 -10 -3 -15 -3 -12 1 11 12 52 16 65
6 8 -7 13 -6 18 5 3 9 0 15 -9 15 -8 0 -15 5 -15 10 0 7 7 7 20 0 17 -9 18
-14 9 -31z m-402 7 c-8 -8 -18 -12 -22 -8 -5 4 -5 -1 -2 -10 8 -23 5 -23 -17
4 -14 16 -15 20 -3 15 8 -3 23 0 34 8 23 17 30 11 10 -9z m213 16 c0 -5 -12
-14 -27 -21 l-28 -12 25 21 c29 22 30 23 30 12z m60 -2 c0 -5 -4 -10 -10 -10
-5 0 -10 5 -10 10 0 6 5 10 10 10 6 0 10 -4 10 -10z m-520 -14 c-1 -4 9 -16
21 -27 12 -10 18 -19 12 -19 -5 0 -18 9 -28 20 -10 11 -14 20 -9 20 5 0 2 5
-6 11 -10 7 -11 9 -2 7 8 -2 13 -7 12 -12z m271 -10 c-10 -11 -8 -17 9 -29 21
-14 21 -14 -5 -14 -14 0 -28 3 -31 8 -5 9 28 60 35 53 2 -2 -2 -10 -8 -18z
m-541 4 c0 -5 -4 -10 -10 -10 -5 0 -10 5 -10 10 0 6 5 10 10 10 6 0 10 -4 10
-10z m120 -22 c0 -12 -28 3 -34 18 -4 11 -2 12 14 1 11 -6 20 -15 20 -19z m50
22 c0 -5 -6 -13 -14 -17 -7 -4 -16 -15 -19 -23 -3 -8 -5 -3 -4 11 1 19 5 25
16 21 9 -3 12 -1 7 6 -4 7 -2 12 3 12 6 0 11 -4 11 -10z m30 0 c0 -5 -2 -10
-4 -10 -3 0 -8 5 -11 10 -3 6 -1 10 4 10 6 0 11 -4 11 -10z m470 -11 c0 -5 -8
-9 -17 -8 -11 0 -13 3 -5 6 6 2 9 10 6 15 -4 7 -2 8 4 4 7 -4 12 -11 12 -17z
m100 11 c8 -5 11 -10 5 -10 -5 0 -17 5 -25 10 -8 5 -10 10 -5 10 6 0 17 -5 25
-10z m-545 -10 c3 -5 1 -10 -4 -10 -6 0 -11 5 -11 10 0 6 2 10 4 10 3 0 8 -4
11 -10z m-142 -14 c4 -10 1 -13 -8 -9 -8 3 -12 9 -9 14 7 12 11 11 17 -5z
m293 -7 c20 -22 10 -26 -12 -4 -8 8 -21 12 -29 9 -8 -4 -15 -2 -15 3 0 17 38
12 56 -8z m330 12 c-4 -5 -1 -11 6 -13 7 -3 5 -7 -6 -11 -11 -5 -15 -3 -10 5
5 8 1 9 -12 5 -18 -7 -18 -7 0 8 23 17 30 19 22 6z m35 -18 c-12 -20 -14 -14
-5 12 4 9 9 14 11 11 3 -2 0 -13 -6 -23z m59 12 c-10 -12 -10 -18 0 -30 9 -10
9 -15 1 -15 -6 0 -11 5 -11 11 0 5 -4 7 -10 4 -6 -4 -7 1 -4 12 5 16 4 16 -10
-1 -9 -11 -16 -15 -16 -9 0 14 25 34 33 26 4 -3 7 -1 7 5 0 7 5 12 11 12 8 0
8 -5 -1 -15z m-158 -9 c5 3 4 -3 -3 -14 -7 -12 -16 -19 -20 -16 -4 2 -10 -2
-12 -8 -4 -10 -6 -10 -6 0 -1 7 5 15 13 18 8 3 14 11 12 17 -1 7 -1 9 1 4 3
-4 9 -4 15 -1z m208 4 c0 8 2 11 5 8 3 -3 3 -13 -1 -22 -6 -15 -7 -15 -21 1
-14 17 -14 17 -8 -2 5 -15 3 -17 -6 -8 -17 17 -1 37 17 22 11 -9 14 -9 14 1z
m-592 -30 c13 -16 18 -30 12 -30 -5 0 -10 4 -10 8 0 5 -9 18 -20 30 -12 12
-17 22 -12 22 4 0 18 -13 30 -30z m672 22 c0 -4 -9 -13 -21 -20 -12 -8 -18 -9
-15 -4 3 6 3 12 -1 15 -5 2 -2 2 5 1 6 -2 12 1 12 6 0 6 5 10 10 10 6 0 10 -3
10 -8z m-826 -16 c-10 -8 -21 -12 -24 -10 -5 6 21 24 34 24 6 0 1 -6 -10 -14z
m253 8 c-3 -3 -12 -4 -19 -1 -8 3 -5 6 6 6 11 1 17 -2 13 -5z m-37 -14 c0 -5
-2 -10 -4 -10 -3 0 -8 5 -11 10 -3 6 -1 10 4 10 6 0 11 -4 11 -10z m140 5 c0
-2 -10 -10 -22 -16 -21 -11 -22 -11 -9 4 13 16 31 23 31 12z m217 -1 c-3 -3
-12 -4 -19 -1 -8 3 -5 6 6 6 11 1 17 -2 13 -5z m73 -31 c0 -8 -8 -5 -20 7 -11
11 -20 22 -20 25 0 3 9 0 20 -7 11 -7 20 -18 20 -25z m124 21 c3 -8 2 -13 -3
-9 -5 3 -11 0 -13 -7 -3 -8 -9 -8 -24 1 -16 10 -16 12 -1 7 11 -3 20 0 23 9 8
19 10 19 18 -1z m-130 -52 c-5 -7 -53 33 -54 45 0 7 13 0 29 -15 15 -15 27
-29 25 -30z m226 12 c0 -4 -7 -1 -15 6 -13 10 -19 10 -33 -4 -10 -9 -22 -16
-27 -16 -4 0 2 8 13 19 12 10 22 23 22 30 0 6 9 2 20 -9 11 -11 20 -23 20 -26z
m-295 27 c-3 -2 0 -10 7 -18 20 -24 4 -22 -18 2 -19 22 -20 23 -3 22 10 -1 16
-3 14 -6z m115 -1 c8 -5 11 -10 5 -10 -5 0 -17 5 -25 10 -8 5 -10 10 -5 10 6
0 17 -5 25 -10z m-380 -10 c0 -5 -5 -10 -11 -10 -5 0 -7 5 -4 10 3 6 8 10 11
10 2 0 4 -4 4 -10z m380 -16 c0 -2 -7 -4 -15 -4 -8 0 -15 4 -15 10 0 5 7 7 15
4 8 -4 15 -8 15 -10z m53 -4 c9 -11 13 -20 7 -20 -5 0 -14 8 -20 18 -10 16
-10 16 -20 0 -6 -10 -15 -18 -20 -18 -6 0 -2 9 7 20 10 11 20 20 23 20 3 0 13
-9 23 -20z m37 10 c0 -5 -8 -10 -17 -10 -15 0 -16 2 -3 10 19 12 20 12 20 0z
m51 -33 c-13 -15 -19 -30 -15 -40 4 -11 0 -19 -10 -23 -9 -3 -14 -9 -12 -13 3
-4 -4 -7 -15 -7 -19 0 -19 1 -3 13 10 7 21 13 26 13 4 0 8 5 8 11 0 5 -4 8 -9
5 -5 -3 -12 1 -15 10 -3 8 -2 13 3 10 5 -3 17 6 27 19 10 14 23 25 28 25 5 0
0 -11 -13 -23z m-167 -2 c-4 -8 -11 -12 -16 -9 -6 4 -5 10 3 15 19 12 19 11
13 -6z m131 -3 c-3 -3 -11 0 -18 7 -9 10 -8 11 6 5 10 -3 15 -9 12 -12z m-635
-32 c6 -11 9 -20 8 -20 -2 0 -11 9 -21 20 -9 11 -13 20 -7 20 5 0 14 -9 20
-20z m330 -41 c0 -5 -4 -7 -10 -4 -15 9 -12 -4 5 -21 16 -16 9 -47 -9 -41 -11
4 -17 54 -9 70 6 11 23 9 23 -4z m354 -24 c-17 -26 -34 -29 -42 -7 -2 7 1 12
8 12 6 0 8 -4 5 -10 -3 -5 -2 -10 3 -10 5 0 15 11 22 25 7 14 15 23 17 21 3
-2 -3 -16 -13 -31z"/>
<path d="M1263 898 c1 -10 8 -18 17 -18 9 0 16 8 17 18 1 11 -5 18 -17 18 -12
0 -18 -7 -17 -18z"/>
<path d="M1225 830 c3 -5 11 -10 16 -10 6 0 7 5 4 10 -3 6 -11 10 -16 10 -6 0
-7 -4 -4 -10z"/>
<path d="M1325 750 c-3 -5 -1 -10 4 -10 6 0 11 5 11 10 0 6 -2 10 -4 10 -3 0
-8 -4 -11 -10z"/>
<path d="M1607 753 c-4 -3 -7 -11 -7 -17 0 -6 5 -5 12 2 6 6 9 14 7 17 -3 3
-9 2 -12 -2z"/>
<path d="M1555 710 c-3 -5 -2 -10 4 -10 5 0 13 5 16 10 3 6 2 10 -4 10 -5 0
-13 -4 -16 -10z"/>
<path d="M1940 590 c0 -5 5 -10 11 -10 5 0 7 5 4 10 -3 6 -8 10 -11 10 -2 0
-4 -4 -4 -10z"/>
<path d="M1990 359 c0 -5 5 -7 10 -4 6 3 10 8 10 11 0 2 -4 4 -10 4 -5 0 -10
-5 -10 -11z"/>
<path d="M4096 2045 c-8 -8 -20 -15 -26 -15 -6 0 -8 -5 -5 -10 4 -6 3 -9 -2
-8 -12 4 -83 -34 -83 -44 0 -5 -6 -8 -13 -8 -7 0 -22 -8 -33 -18 -10 -10 -21
-19 -24 -19 -19 -4 -60 -28 -60 -35 0 -4 -4 -8 -10 -8 -5 0 -55 -29 -110 -65
-55 -36 -102 -65 -104 -65 -13 0 -111 -74 -108 -82 1 -5 -2 -7 -7 -4 -11 7
-78 -33 -300 -180 -58 -38 -122 -86 -144 -106 -38 -36 -41 -38 -53 -38 -4 0
-1 -7 6 -15 11 -13 10 -14 -2 -10 -10 4 -31 -10 -57 -37 -39 -41 -54 -67 -29
-52 7 4 8 3 4 -5 -4 -6 -11 -9 -16 -6 -11 7 -61 -65 -54 -77 3 -5 0 -7 -8 -6
-7 2 -12 -5 -11 -15 0 -10 -2 -16 -5 -13 -9 10 -34 -33 -26 -47 4 -6 4 -9 -1
-5 -10 9 -34 -21 -35 -44 0 -9 -6 -18 -12 -21 -10 -3 -10 -8 1 -21 12 -14 12
-16 -1 -11 -17 7 -46 -56 -43 -92 1 -12 -2 -20 -6 -17 -10 6 -22 -33 -15 -45
4 -5 2 -11 -4 -13 -5 -1 -12 -19 -15 -38 -2 -19 -9 -53 -14 -75 -6 -22 -8 -41
-6 -44 2 -2 0 -12 -6 -22 -7 -13 -6 -19 1 -19 7 0 8 -5 3 -13 -11 -18 -13
-167 -2 -167 6 0 8 4 5 8 -2 4 -1 14 4 21 9 15 30 6 30 -12 0 -7 -4 -6 -10 3
-5 8 -10 13 -11 10 0 -3 -2 -15 -5 -27 -4 -22 9 -32 19 -15 2 4 2 1 1 -6 -2
-8 4 -10 20 -6 13 3 27 1 31 -5 3 -6 11 -9 16 -6 5 3 6 0 4 -7 -4 -10 5 -13
32 -13 21 1 45 -2 54 -7 18 -8 39 8 39 31 0 11 -3 11 -13 -4 -8 -10 -19 -15
-25 -11 -15 9 -16 26 -1 26 5 0 7 -4 4 -10 -3 -5 -2 -10 3 -10 8 0 22 22 22
34 0 2 -11 2 -24 1 -34 -4 -50 9 -39 30 7 12 13 14 17 6 4 -6 2 -11 -5 -11
-18 0 -1 -13 21 -17 22 -3 27 12 8 21 -7 3 -4 4 7 3 14 -1 21 5 23 21 2 12 7
22 12 22 12 0 7 -34 -7 -43 -7 -4 -13 -13 -13 -19 0 -9 3 -9 12 0 16 16 39 15
37 -1 -3 -26 1 -48 9 -43 5 3 8 20 7 38 -3 39 10 59 33 51 16 -5 16 -5 0 12
-14 15 -19 16 -31 4 -7 -8 -16 -21 -20 -29 -4 -12 -6 -12 -6 -1 -1 8 6 23 15
33 14 14 14 20 4 33 -23 28 -1 15 30 -17 17 -17 33 -28 37 -24 4 4 -5 18 -20
32 -15 14 -27 30 -27 36 0 5 9 0 19 -13 l19 -24 24 23 c13 12 28 22 32 22 4 0
-5 -11 -20 -25 -28 -26 -27 -48 1 -25 8 7 15 9 15 5 0 -4 -10 -15 -22 -26
l-23 -19 22 -6 c12 -3 25 -14 28 -24 3 -10 12 -23 20 -30 11 -9 14 -8 12 9 -1
12 -4 21 -8 21 -4 0 -9 7 -12 14 -4 11 -1 13 10 9 11 -4 14 -2 9 5 -4 7 -3 12
2 12 6 0 9 -22 7 -49 -3 -47 -1 -49 16 -38 11 7 19 15 19 20 0 4 -4 5 -10 2
-5 -3 -10 -1 -10 5 0 7 7 9 16 6 10 -4 14 -1 12 6 -3 7 5 20 16 30 12 10 16
17 9 18 -7 0 -13 5 -13 11 0 8 6 7 17 -2 15 -12 16 -12 10 5 -5 13 -1 23 13
33 19 13 30 50 11 39 -20 -13 -20 28 0 60 17 29 24 32 40 23 11 -5 17 -14 14
-19 -3 -5 4 -11 15 -15 11 -3 20 -11 20 -17 0 -6 -10 -4 -22 5 -13 8 -22 20
-21 25 5 24 -25 18 -41 -9 -16 -27 -16 -29 4 -49 l21 -21 -28 -24 c-16 -13
-23 -25 -17 -25 6 0 17 7 24 15 7 8 17 15 23 15 6 0 3 -6 -8 -14 -28 -19 -28
-112 1 -133 18 -13 17 -14 -9 -9 -21 4 -27 2 -24 -9 8 -19 -4 -27 -20 -13 -7
6 -17 8 -20 4 -4 -4 -1 -11 6 -15 9 -6 10 -11 2 -15 -6 -4 -11 -2 -11 5 0 7
-3 10 -6 6 -3 -3 -3 -11 1 -17 5 -7 17 -4 38 12 18 13 49 32 70 42 20 11 37
23 37 28 0 5 -6 6 -12 2 -10 -6 -10 -4 0 7 17 19 15 34 -3 19 -9 -7 -14 -18
-11 -25 2 -7 -5 -11 -17 -10 -18 1 -22 8 -22 37 0 20 3 34 6 32 4 -2 10 3 13
12 4 10 13 13 25 9 10 -3 23 1 30 9 7 8 19 12 27 9 16 -6 20 13 4 20 -6 3 -5
4 2 3 7 -2 12 -14 11 -27 -3 -23 -2 -23 12 -5 14 19 15 18 11 -12 -2 -18 0
-35 5 -38 5 -3 9 -2 9 3 0 4 18 17 40 27 22 11 40 23 40 28 0 5 -15 0 -34 -12
-19 -11 -37 -17 -40 -12 -8 13 1 51 15 68 8 9 8 14 1 14 -6 0 -17 -9 -24 -19
-11 -16 -16 -17 -31 -6 -16 11 -15 14 9 39 20 19 23 26 11 26 -9 0 -23 -9 -31
-21 -16 -23 -36 -18 -35 9 0 15 1 15 7 -1 7 -16 9 -16 25 3 9 11 23 20 31 20
26 0 28 -20 4 -39 -13 -11 -20 -22 -16 -26 4 -4 17 2 29 14 21 19 23 19 35 3
7 -9 15 -14 19 -10 4 3 -3 16 -14 27 -12 12 -17 21 -13 21 4 0 13 -5 20 -12 9
-9 13 -7 18 5 3 9 10 17 16 17 5 0 7 -4 4 -9 -3 -5 3 -11 14 -14 11 -3 20 -11
20 -19 0 -9 -2 -10 -8 -1 -11 17 -44 20 -50 4 -3 -8 0 -11 7 -7 6 4 21 0 32
-8 20 -14 19 -14 -25 -12 -50 3 -55 0 -62 -39 -4 -24 -4 -24 25 -7 16 9 28 19
26 22 -2 3 8 6 22 7 18 1 22 -2 12 -7 -7 -5 -10 -12 -7 -15 4 -4 14 2 24 14
10 11 21 18 26 15 4 -3 11 3 15 13 3 10 12 25 20 34 13 15 12 19 -7 32 -17 12
-18 16 -6 20 9 4 14 12 12 19 -1 7 -1 10 1 5 3 -4 9 -5 14 -1 5 3 9 1 9 -4 0
-6 -8 -13 -17 -17 -16 -6 -16 -8 5 -25 15 -13 18 -20 10 -23 -7 -3 -4 -6 7 -6
26 0 60 25 46 34 -6 3 -11 1 -11 -4 0 -15 -13 -14 -36 5 -18 15 -18 15 3 5 15
-8 24 -8 28 -1 4 6 11 7 17 4 14 -9 58 17 58 34 0 9 -3 12 -6 9 -9 -8 -45 33
-39 43 3 5 2 10 -2 13 -5 2 -2 2 5 0 8 -2 26 5 40 16 15 10 33 16 40 14 8 -3
10 1 6 14 -6 14 -4 15 6 6 14 -13 4 -37 -14 -30 -7 3 -23 -4 -37 -15 -17 -14
-19 -18 -6 -14 11 3 16 2 12 -5 -4 -5 -16 -7 -28 -3 -21 6 -21 5 -5 -12 14
-14 20 -15 32 -4 9 7 16 19 16 26 0 8 4 14 10 14 6 0 5 -10 -2 -25 -6 -14 -15
-25 -20 -25 -5 0 -6 -5 -2 -12 5 -8 13 -4 26 11 10 13 18 21 18 17 0 -3 9 2
19 11 19 15 19 22 4 61 -7 19 -10 28 -12 40 -1 4 -6 0 -11 -8 -5 -8 -10 -10
-10 -4 0 20 13 23 34 9 27 -20 37 -19 30 3 -5 14 -4 14 4 2 14 -19 5 -32 -18
-25 -17 5 -17 3 -7 -19 14 -30 20 -32 37 -11 7 8 9 15 6 15 -4 0 10 14 29 32
24 20 35 38 32 49 -3 12 0 16 9 12 8 -3 14 -2 14 1 0 4 -12 11 -26 16 -14 6
-22 14 -19 20 3 5 -3 10 -14 10 -12 0 -20 -6 -18 -12 1 -8 -8 -13 -23 -13 -15
0 -24 5 -23 13 2 6 -6 12 -17 12 -11 0 -19 -6 -17 -12 1 -8 -8 -13 -22 -13
-19 0 -24 5 -25 27 -1 14 2 24 7 21 5 -3 7 -14 4 -24 -4 -14 0 -19 14 -19 10
0 18 6 16 13 -1 7 8 12 23 12 15 0 24 -5 23 -12 -2 -7 6 -13 17 -13 11 0 19 6
17 13 -1 7 8 12 21 12 12 0 22 -4 23 -10 1 -20 42 -26 58 -9 13 14 14 16 1 10
-8 -4 -6 0 5 9 11 9 19 23 17 32 -2 8 1 12 7 8 6 -3 11 0 11 9 0 8 -5 16 -12
18 -7 3 -5 7 6 11 10 4 15 3 11 -3 -3 -6 -1 -10 6 -10 6 0 9 8 6 20 -3 11 -1
18 4 15 11 -7 50 75 42 89 -3 6 -2 8 2 3 14 -13 46 84 33 100 -9 11 -7 12 8 6
17 -6 18 -5 4 12 -8 10 -10 16 -3 12 14 -9 20 0 27 35 5 30 -14 43 -35 25 -11
-10 -11 -9 0 5 7 9 10 21 8 25 -3 5 3 9 13 9 15 0 17 -3 7 -15 -10 -11 -9 -13
3 -9 8 3 16 13 16 24 1 10 3 22 4 27 1 4 4 21 5 37 1 17 3 31 5 33 1 1 4 28 7
61 3 46 2 56 -9 51 -10 -6 -11 -5 0 6 15 16 18 519 3 519 -5 0 -16 -7 -25 -15z
m-251 -225 c3 -5 1 -10 -4 -10 -6 0 -11 5 -11 10 0 6 2 10 4 10 3 0 8 -4 11
-10z m235 -96 c0 -8 -19 -13 -24 -6 -3 5 1 9 9 9 8 0 15 -2 15 -3z m-194 -29
c-1 -8 -5 -17 -8 -21 -5 -4 -4 16 1 34 3 9 9 -1 7 -13z m58 -17 c-3 -4 -11 -5
-19 -1 -21 7 -19 12 4 10 11 0 18 -5 15 -9z m-263 -25 c13 -16 12 -17 -3 -4
-17 13 -22 21 -14 21 2 0 10 -8 17 -17z m226 -8 c0 -8 -4 -12 -9 -9 -5 3 -6
10 -3 15 9 13 12 11 12 -6z m103 -10 c0 -2 -9 -3 -19 -2 -11 0 -18 5 -15 9 4
6 34 0 34 -7z m-235 -15 c3 -6 -1 -7 -9 -4 -18 7 -21 14 -7 14 6 0 13 -4 16
-10z m105 -16 c0 -8 -19 -13 -24 -6 -3 5 1 9 9 9 8 0 15 -2 15 -3z m27 -9 c0
-8 -4 -12 -9 -9 -5 3 -6 10 -3 15 9 13 12 11 12 -6z m-137 -9 c0 -3 -4 -8 -10
-11 -5 -3 -10 -1 -10 4 0 6 5 11 10 11 6 0 10 -2 10 -4z m-363 -41 c0 -8 -4
-12 -9 -9 -5 3 -6 10 -3 15 9 13 12 11 12 -6z m303 -5 c0 -5 -2 -10 -4 -10 -3
0 -8 5 -11 10 -3 6 -1 10 4 10 6 0 11 -4 11 -10z m190 4 c0 -8 -19 -13 -24 -6
-3 5 1 9 9 9 8 0 15 -2 15 -3z m195 -3 c-9 -8 -36 -10 -30 -2 2 4 11 8 20 8 8
0 13 -3 10 -6z m-270 -21 c3 -5 1 -10 -4 -10 -6 0 -11 5 -11 10 0 6 2 10 4 10
3 0 8 -4 11 -10z m-160 -29 c3 -5 2 -12 -3 -15 -5 -3 -9 1 -9 9 0 17 3 19 12
6z m39 -9 c3 -5 -1 -9 -9 -9 -8 0 -12 4 -9 9 3 4 7 8 9 8 2 0 6 -4 9 -8z m46
-2 c0 -5 -2 -10 -4 -10 -3 0 -8 5 -11 10 -3 6 -1 10 4 10 6 0 11 -4 11 -10z
m-236 -38 c3 -5 -1 -9 -9 -9 -8 0 -12 4 -9 9 3 4 7 8 9 8 2 0 6 -4 9 -8z m31
-2 c3 -5 1 -10 -4 -10 -6 0 -11 5 -11 10 0 6 2 10 4 10 3 0 8 -4 11 -10z m350
0 c-3 -5 -12 -10 -18 -10 -7 0 -6 4 3 10 19 12 23 12 15 0z m-665 -20 c0 -5
-5 -10 -11 -10 -5 0 -7 5 -4 10 3 6 8 10 11 10 2 0 4 -4 4 -10z m564 2 c3 -5
-1 -9 -9 -9 -8 0 -12 4 -9 9 3 4 7 8 9 8 2 0 6 -4 9 -8z m233 -9 c0 -9 -4 -10
-14 -2 -7 6 -13 12 -13 14 0 1 6 2 13 2 8 0 14 -6 14 -14z m-697 -18 c0 -2 -9
-3 -19 -2 -11 0 -18 5 -15 9 4 6 34 0 34 -7z m95 6 c-9 -8 -36 -10 -30 -2 2 4
11 8 20 8 8 0 13 -3 10 -6z m-279 -26 c-1 -8 -5 -17 -8 -21 -5 -4 -4 16 1 34
3 9 9 -1 7 -13z m354 9 c0 -8 -19 -13 -24 -6 -3 5 1 9 9 9 8 0 15 -2 15 -3z
m274 -2 c2 -4 -4 -8 -14 -8 -10 0 -16 4 -14 8 3 4 9 8 14 8 5 0 11 -4 14 -8z
m277 -5 c-6 -8 -9 -16 -6 -19 3 -2 -2 -5 -10 -5 -13 0 -13 3 2 19 19 21 31 25
14 5z m-825 -33 c1 -9 0 -13 -4 -10 -3 4 -7 14 -8 22 -1 9 0 13 4 10 3 -4 7
-14 8 -22z m199 16 c3 -5 1 -10 -4 -10 -6 0 -11 5 -11 10 0 6 2 10 4 10 3 0 8
-4 11 -10z m475 5 c0 -2 -6 -8 -13 -14 -10 -8 -14 -7 -14 2 0 8 6 14 14 14 7
0 13 -1 13 -2z m42 -20 c2 3 5 -2 5 -10 0 -10 -4 -12 -12 -5 -7 5 -14 8 -17 5
-2 -3 -5 2 -5 10 0 10 4 12 12 5 7 -5 14 -8 17 -5z m-452 -5 c0 -5 -5 -10 -11
-10 -5 0 -7 5 -4 10 3 6 8 10 11 10 2 0 4 -4 4 -10z m-424 -36 c1 -9 0 -13 -4
-10 -3 4 -7 14 -8 22 -1 9 0 13 4 10 3 -4 7 -14 8 -22z m119 17 c3 -5 2 -12
-3 -15 -5 -3 -9 1 -9 9 0 17 3 19 12 6z m825 5 c0 -2 -7 -7 -16 -10 -8 -3 -12
-2 -9 4 6 10 25 14 25 6z m37 -13 c0 -9 -4 -10 -14 -2 -7 6 -13 12 -13 14 0 1
6 2 13 2 8 0 14 -6 14 -14z m-753 -11 c3 -5 -1 -9 -9 -9 -8 0 -12 4 -9 9 3 4
7 8 9 8 2 0 6 -4 9 -8z m31 -1 c3 -5 2 -12 -3 -15 -5 -3 -9 1 -9 9 0 17 3 19
12 6z m51 -3 c3 -4 -1 -5 -10 -4 -8 1 -18 5 -22 8 -3 4 1 5 10 4 8 -1 18 -5
22 -8z m451 -5 c0 -9 -4 -10 -14 -2 -7 6 -13 12 -13 14 0 1 6 2 13 2 8 0 14
-6 14 -14z m132 3 c9 -11 9 -16 -1 -22 -7 -4 -10 -4 -6 1 4 4 3 14 -3 22 -6 7
-9 13 -6 13 2 0 10 -6 16 -14z m-769 -16 c0 -5 -5 -10 -11 -10 -5 0 -7 5 -4
10 3 6 8 10 11 10 2 0 4 -4 4 -10z m581 -3 c-6 -8 -7 -18 -3 -22 4 -5 1 -5 -6
-1 -10 6 -10 11 -1 22 6 8 14 14 16 14 3 0 0 -6 -6 -13z m164 3 c3 -6 -1 -7
-9 -4 -18 7 -21 14 -7 14 6 0 13 -4 16 -10z m85 6 c0 -2 -8 -10 -17 -17 -16
-13 -17 -12 -4 4 13 16 21 21 21 13z m-935 -15 c3 -5 2 -12 -3 -15 -5 -3 -9 1
-9 9 0 17 3 19 12 6z m710 -29 c-17 -15 -18 -15 -6 0 7 9 9 23 5 30 -6 10 -4
11 7 0 11 -10 10 -15 -6 -30z m-189 16 c3 -4 -1 -5 -10 -4 -8 1 -18 5 -22 8
-3 4 1 5 10 4 8 -1 18 -5 22 -8z m462 -9 c3 -11 1 -11 -7 1 -10 14 -16 7 -11
-15 1 -5 -2 -6 -6 -2 -4 4 -9 14 -10 21 -3 18 29 13 34 -5z m-414 -7 c3 -5 -1
-9 -9 -9 -8 0 -15 4 -15 9 0 4 4 8 9 8 6 0 12 -4 15 -8z m41 -2 c-3 -5 -12
-10 -18 -10 -7 0 -6 4 3 10 19 12 23 12 15 0z m70 -8 c-3 -3 -11 0 -18 7 -9
10 -8 11 6 5 10 -3 15 -9 12 -12z m116 1 c13 -16 12 -17 -3 -4 -10 7 -18 15
-18 17 0 8 8 3 21 -13z m129 -13 c0 -4 -8 -10 -18 -12 -11 -3 -19 0 -19 7 0 8
7 11 16 7 14 -5 14 -4 1 14 -14 18 -14 18 3 5 9 -7 17 -17 17 -21z m-183 7 c0
-8 -6 -14 -14 -14 -9 0 -10 4 -2 14 6 7 12 13 14 13 1 0 2 -6 2 -13z m-301 -9
c3 -4 -1 -5 -10 -4 -8 1 -18 5 -22 8 -3 4 1 5 10 4 8 -1 18 -5 22 -8z m80 -16
c-3 -3 0 -12 6 -21 10 -13 10 -14 -2 -4 -16 15 -23 46 -8 37 5 -3 7 -9 4 -12z
m-311 -2 c-3 -5 -12 -10 -18 -10 -7 0 -6 4 3 10 19 12 23 12 15 0z m35 0 c0
-5 -5 -10 -11 -10 -5 0 -7 5 -4 10 3 6 8 10 11 10 2 0 4 -4 4 -10z m492 -4 c9
6 9 3 -1 -9 -8 -10 -14 -16 -15 -15 -1 2 -8 12 -16 23 -14 18 -14 19 2 7 10
-8 23 -10 30 -6z m101 -3 c-3 -7 -6 -13 -8 -13 -2 0 -5 6 -8 13 -3 8 1 14 8
14 7 0 11 -6 8 -14z m-178 -2 c3 -5 2 -12 -3 -15 -5 -3 -9 1 -9 9 0 17 3 19
12 6z m198 -6 c-3 -9 -8 -14 -10 -11 -3 3 -2 9 2 15 9 16 15 13 8 -4z m105
-10 c-3 -3 -9 2 -12 12 -6 14 -5 15 5 6 7 -7 10 -15 7 -18z m-632 3 c3 -4 -1
-5 -10 -4 -8 1 -18 5 -22 8 -3 4 1 5 10 4 8 -1 18 -5 22 -8z m340 -16 c-17
-16 -18 -16 -5 5 7 12 15 20 18 17 3 -2 -3 -12 -13 -22z m139 18 c-3 -5 -12
-10 -18 -10 -7 0 -6 4 3 10 19 12 23 12 15 0z m-245 -4 c0 -2 -8 -10 -17 -17
-16 -13 -17 -12 -4 4 13 16 21 21 21 13z m301 -19 c-10 -9 -11 -8 -5 6 3 10 9
15 12 12 3 -3 0 -11 -7 -18z m-230 -4 c13 -16 12 -17 -3 -4 -10 7 -18 15 -18
17 0 8 8 3 21 -13z m289 10 c-1 -13 -30 -48 -30 -36 0 7 5 15 10 18 6 4 8 11
5 16 -4 5 -1 9 4 9 6 0 11 -3 11 -7z m-1087 -18 c-3 -9 -8 -14 -10 -11 -3 3
-2 9 2 15 9 16 15 13 8 -4z m140 0 c-3 -9 -8 -14 -10 -11 -3 3 -2 9 2 15 9 16
15 13 8 -4z m364 2 c0 -7 -9 -14 -20 -14 -19 -2 -19 -2 -1 12 11 8 19 15 20
15 0 0 1 -6 1 -13z m240 0 c0 -8 -6 -14 -14 -14 -9 0 -10 4 -2 14 6 7 12 13
14 13 1 0 2 -6 2 -13z m-580 -12 c0 -8 -4 -12 -9 -9 -5 3 -6 10 -3 15 9 13 12
11 12 -6z m243 5 c0 -5 -2 -10 -4 -10 -3 0 -8 5 -11 10 -3 6 -1 10 4 10 6 0
11 -4 11 -10z m537 -4 c5 -4 4 -7 -2 -6 -21 5 -29 -1 -15 -10 12 -7 10 -9 -7
-8 -14 2 -19 7 -15 17 4 10 1 12 -8 6 -8 -5 -11 -4 -7 2 7 11 43 11 54 -1z
m55 -4 c-3 -10 -1 -13 6 -8 8 5 10 1 5 -10 -4 -11 -8 -13 -11 -6 -2 7 -8 10
-13 7 -5 -4 -6 2 -2 11 5 13 3 15 -7 9 -8 -5 -11 -4 -7 2 10 16 36 11 29 -5z
m110 0 c-7 -2 -9 -9 -6 -14 4 -7 2 -8 -4 -4 -6 4 -9 13 -6 21 4 8 11 12 17 8
8 -5 7 -8 -1 -11z m-902 4 c0 -2 -8 -10 -17 -17 -16 -13 -17 -12 -4 4 13 16
21 21 21 13z m838 -21 c-3 -3 -9 2 -12 12 -6 14 -5 15 5 6 7 -7 10 -15 7 -18z
m-718 0 c-10 -12 -10 -18 1 -32 12 -17 12 -17 -6 -1 -15 14 -16 20 -5 32 7 9
15 16 17 16 3 0 0 -7 -7 -15z m44 7 c3 -5 -1 -9 -9 -9 -8 0 -12 4 -9 9 3 4 7
8 9 8 2 0 6 -4 9 -8z m225 -6 c9 -11 9 -16 -1 -22 -7 -4 -10 -4 -6 1 4 4 3 14
-3 22 -6 7 -9 13 -6 13 2 0 10 -6 16 -14z m122 -3 c13 -16 12 -17 -3 -4 -10 7
-18 15 -18 17 0 8 8 3 21 -13z m117 -8 c-3 -3 -9 2 -12 12 -6 14 -5 15 5 6 7
-7 10 -15 7 -18z m-811 0 c0 -8 -4 -12 -9 -9 -5 3 -6 10 -3 15 9 13 12 11 12
-6z m236 0 c-3 -9 -8 -14 -10 -11 -3 3 -2 9 2 15 9 16 15 13 8 -4z m240 0 c-3
-9 -8 -14 -10 -11 -3 3 -2 9 2 15 9 16 15 13 8 -4z m43 -11 c1 -9 0 -13 -4
-10 -3 4 -7 14 -8 22 -1 9 0 13 4 10 3 -4 7 -14 8 -22z m219 -3 c-6 -5 -25 10
-25 20 0 5 6 4 14 -3 8 -7 12 -15 11 -17z m122 14 c0 -8 -4 -15 -9 -15 -10 0
-11 14 -1 23 9 10 10 9 10 -8z m-897 -1 c0 -8 -19 -13 -24 -6 -3 5 1 9 9 9 8
0 15 -2 15 -3z m130 1 c0 -2 -6 -8 -13 -14 -10 -8 -14 -7 -14 2 0 8 6 14 14
14 7 0 13 -1 13 -2z m40 -1 c0 -8 -19 -13 -24 -6 -3 5 1 9 9 9 8 0 15 -2 15
-3z m75 -4 c3 -6 -1 -7 -9 -4 -18 7 -21 14 -7 14 6 0 13 -4 16 -10z m441 -2
c3 -4 -1 -5 -10 -4 -8 1 -18 5 -22 8 -3 4 1 5 10 4 8 -1 18 -5 22 -8z m292 0
c-2 -6 -10 -13 -16 -14 -7 -1 -8 0 -2 3 5 2 8 9 4 14 -3 5 0 9 6 9 7 0 10 -5
8 -12z m102 7 c0 -2 -10 -9 -22 -15 -22 -11 -22 -10 -4 4 21 17 26 19 26 11z
m-708 -22 c-1 -4 7 -17 16 -28 17 -20 17 -20 -4 -2 -11 9 -21 24 -21 32 0 8 2
13 5 11 2 -2 4 -8 4 -13z m43 -1 c-3 -3 0 -11 6 -19 17 -20 5 -16 -14 5 -15
16 -15 19 -2 19 8 0 13 -3 10 -5z m51 -4 c3 -4 -1 -5 -10 -4 -8 1 -18 5 -22 8
-3 4 1 5 10 4 8 -1 18 -5 22 -8z m159 2 c-4 -6 -1 -18 7 -27 12 -15 11 -15 -9
-3 -16 11 -19 17 -11 27 13 16 22 17 13 3z m237 -8 c-4 -11 -1 -13 8 -7 9 6
11 4 5 -5 -6 -10 -11 -10 -20 3 -7 9 -16 13 -20 9 -5 -4 -5 -2 -2 4 10 17 36
13 29 -4z m71 1 c-3 -7 -6 -13 -8 -13 -2 0 -5 6 -8 13 -3 8 1 14 8 14 7 0 11
-6 8 -14z m76 -6 c0 -9 -2 -8 -6 1 -2 6 -10 9 -15 6 -7 -4 -8 -2 -4 5 9 13 26
5 25 -12z m91 13 c0 -5 -4 -10 -10 -10 -5 0 -10 5 -10 10 0 6 5 10 10 10 6 0
10 -4 10 -10z m-1104 -20 c0 -12 -4 -16 -9 -11 -5 5 -6 14 -3 20 10 15 12 14
12 -9z m38 -10 c-6 -6 -10 -3 -10 10 0 13 4 16 10 10 7 -7 7 -13 0 -20z m243
15 c0 -8 -3 -13 -5 -10 -3 3 -12 -1 -21 -7 -10 -8 -9 -4 3 10 23 26 23 26 23
7z m244 -2 c13 -16 12 -17 -3 -4 -10 7 -18 15 -18 17 0 8 8 3 21 -13z m66 -5
c-3 -8 -6 -5 -6 6 -1 11 2 17 5 13 3 -3 4 -12 1 -19z m167 7 c-4 -8 -11 -12
-16 -9 -6 4 -5 10 3 15 19 12 19 11 13 -6z m59 1 c3 3 4 -1 3 -10 -1 -8 -6
-19 -11 -23 -4 -5 -5 -2 0 6 6 10 4 13 -6 9 -10 -4 -15 1 -15 13 0 12 4 15 12
9 6 -6 13 -7 17 -4z m-660 -16 c10 -12 9 -12 -4 -2 -9 6 -18 9 -21 6 -3 -3 -9
-1 -12 4 -9 15 22 8 37 -8z m817 5 c19 -22 8 -25 -12 -3 -10 10 -14 18 -9 18
5 0 14 -7 21 -15z m70 5 c0 -5 -4 -10 -10 -10 -5 0 -10 5 -10 10 0 6 5 10 10
10 6 0 10 -4 10 -10z m-700 -4 c0 -2 -8 -10 -17 -17 -16 -13 -17 -12 -4 4 13
16 21 21 21 13z m157 -9 c0 -8 -6 -14 -14 -14 -9 0 -10 4 -2 14 6 7 12 13 14
13 1 0 2 -6 2 -13z m-523 -13 c3 -8 2 -12 -4 -9 -6 3 -10 10 -10 16 0 14 7 11
14 -7z m256 12 c0 -2 -8 -10 -17 -17 -16 -13 -17 -12 -4 4 13 16 21 21 21 13z
m384 -4 c3 -5 -1 -9 -9 -9 -8 0 -12 4 -9 9 3 4 7 8 9 8 2 0 6 -4 9 -8z m88
-10 c-3 -10 -1 -13 6 -8 6 3 14 1 18 -5 4 -7 3 -9 -4 -5 -5 3 -12 1 -14 -5 -2
-6 -9 0 -15 13 -9 19 -8 25 2 25 8 0 11 -7 7 -15z m198 8 c0 -5 -4 -10 -10
-10 -5 0 -10 5 -10 10 0 6 5 10 10 10 6 0 10 -4 10 -10z m60 -10 c6 -11 8 -20
6 -20 -3 0 -10 9 -16 20 -6 11 -8 20 -6 20 3 0 10 -9 16 -20z m-1044 -5 c-1
-8 -5 -17 -8 -21 -5 -4 -4 16 1 34 3 9 9 -1 7 -13z m440 0 c-1 -8 -5 -17 -8
-21 -5 -4 -4 16 1 34 3 9 9 -1 7 -13z m96 0 c3 0 8 -2 10 -5 2 -3 1 -4 -1 -3
-2 1 -11 -2 -20 -7 -13 -6 -17 -4 -17 10 0 10 5 16 11 12 5 -4 13 -7 17 -7z
m202 3 c-5 -7 -2 -9 8 -6 8 4 15 1 15 -7 0 -8 -7 -11 -15 -7 -11 4 -13 1 -7
-8 5 -8 4 -11 -3 -7 -5 4 -9 15 -7 25 5 23 4 22 11 22 3 0 2 -5 -2 -12z m387
-16 c-6 -2 -8 -9 -5 -14 4 -7 2 -8 -4 -4 -9 5 -8 12 1 27 7 12 13 15 16 7 2
-7 -1 -14 -8 -16z m-461 6 c0 -3 -9 -6 -20 -5 -11 1 -20 5 -20 9 0 3 9 6 20 5
11 -1 20 -5 20 -9z m200 -4 c0 -8 5 -12 10 -9 6 3 10 4 10 1 0 -16 -21 -13
-30 4 -7 13 -7 20 0 20 5 0 10 -7 10 -16z m70 10 c0 -8 -19 -13 -24 -6 -3 5 1
9 9 9 8 0 15 -2 15 -3z m83 -9 c-3 -9 -8 -14 -10 -11 -3 3 -2 9 2 15 9 16 15
13 8 -4z m77 5 c0 -5 -2 -10 -4 -10 -3 0 -8 5 -11 10 -3 6 -1 10 4 10 6 0 11
-4 11 -10z m-128 -7 c-6 -2 -9 -10 -6 -15 4 -7 2 -8 -5 -4 -13 9 -5 26 12 25
9 0 8 -2 -1 -6z m-902 -7 c0 -2 -7 -7 -16 -10 -8 -3 -12 -2 -9 4 6 10 25 14
25 6z m35 -4 c-3 -3 0 -11 6 -19 17 -20 5 -16 -14 5 -15 16 -15 19 -2 19 8 0
13 -3 10 -5z m45 -6 c-7 -7 -13 -7 -20 0 -6 6 -3 10 10 10 13 0 16 -4 10 -10z
m50 9 c0 -1 -10 -10 -22 -21 -14 -12 -18 -13 -10 -3 6 9 10 18 7 21 -3 2 2 5
10 5 8 0 15 -1 15 -2z m425 -13 c-3 -3 -11 0 -18 7 -9 10 -8 11 6 5 10 -3 15
-9 12 -12z m98 -5 c4 3 7 1 7 -5 0 -12 -46 -10 -58 3 -4 4 -1 4 7 0 11 -6 13
-4 7 10 -6 18 -6 18 12 2 10 -9 22 -14 25 -10z m184 -8 c0 -21 -3 -26 -9 -16
-4 9 -5 22 -2 31 9 23 11 20 11 -15z m181 13 c2 -7 7 -10 11 -8 4 3 8 -5 8
-17 2 -20 1 -20 -15 4 -9 14 -24 23 -34 21 -9 -2 -18 1 -21 5 -3 5 6 8 21 7
14 0 28 -6 30 -12z m-1058 5 c0 -2 -8 -11 -18 -20 -15 -14 -19 -15 -19 -2 0 8
4 12 8 9 4 -2 10 0 14 6 6 10 15 14 15 7z m224 -13 c3 -8 2 -12 -4 -9 -6 3
-10 10 -10 16 0 14 7 11 14 -7z m157 -1 c8 -9 9 -14 2 -10 -6 4 -13 1 -16 -5
-3 -7 -4 -3 -4 10 1 26 1 26 18 5z m157 -14 c-3 -8 -7 -3 -11 10 -4 17 -3 21
5 13 5 -5 8 -16 6 -23z m372 16 c5 3 14 -5 20 -17 9 -20 9 -21 -2 -7 -7 9 -17
16 -23 17 -5 0 -10 5 -11 11 -2 7 -1 8 3 1 2 -5 9 -8 13 -5z m-859 -12 c13
-16 12 -17 -3 -4 -10 7 -18 15 -18 17 0 8 8 3 21 -13z m148 14 c-2 -1 -13 -9
-24 -17 -19 -14 -19 -14 -6 3 7 9 18 17 24 17 6 0 8 -1 6 -3z m236 -7 c3 -5 1
-10 -4 -10 -6 0 -11 5 -11 10 0 6 2 10 4 10 3 0 8 -4 11 -10z m182 -5 c0 -5
-12 -10 -27 -10 -15 0 -27 5 -27 10 0 6 12 10 27 10 15 0 27 -4 27 -10z m143
5 c0 -5 -4 -10 -10 -10 -5 0 -10 5 -10 10 0 6 5 10 10 10 6 0 10 -4 10 -10z
m60 -2 c0 -6 -3 -8 -7 -5 -3 4 -13 1 -22 -6 -14 -11 -14 -10 -2 6 15 20 31 22
31 5z m180 0 c0 -4 -4 -8 -9 -8 -6 0 -12 4 -15 8 -3 5 1 9 9 9 8 0 15 -4 15
-9z m-1002 -28 c-7 -10 -14 -17 -17 -15 -4 4 18 35 25 35 2 0 -1 -9 -8 -20z
m321 -14 c-3 -3 -11 5 -18 17 -13 21 -12 21 5 5 10 -10 16 -20 13 -22z m536
24 c4 -6 -1 -7 -11 -3 -11 4 -15 2 -11 -4 4 -6 0 -14 -8 -17 -13 -4 -14 -2 -5
14 12 22 25 26 35 10z m121 -2 c4 -7 3 -8 -4 -4 -7 4 -12 2 -12 -5 0 -7 -3
-10 -6 -6 -6 5 3 27 11 27 2 0 7 -5 11 -12z m64 2 c0 -5 -7 -7 -15 -3 -10 3
-15 0 -13 -8 2 -8 -7 -14 -22 -16 l-25 -2 25 8 c14 5 21 9 17 10 -5 1 -5 6 -2
11 8 13 35 13 35 0z m-703 -22 c-3 -8 -6 -5 -6 6 -1 11 2 17 5 13 3 -3 4 -12
1 -19z m445 8 c6 4 5 -2 -1 -15 -14 -25 -23 -28 -14 -4 4 11 3 14 -5 9 -8 -5
-10 -1 -5 10 4 11 8 13 11 6 2 -7 8 -9 14 -6z m273 -6 c-5 -16 -3 -19 12 -14
15 5 15 4 3 -5 -19 -13 -33 0 -24 22 9 24 17 21 9 -3z m-1016 7 c-2 -1 -13 -9
-24 -17 -19 -14 -19 -14 -6 3 7 9 18 17 24 17 6 0 8 -1 6 -3z m78 -17 c-1 -11
-5 -20 -9 -20 -10 0 -10 4 -2 24 8 22 13 20 11 -4z m285 -6 c9 -18 8 -18 -5
-2 -8 10 -16 15 -19 12 -4 -3 -9 -1 -12 4 -3 6 1 9 10 8 9 -1 21 -11 26 -22z
m98 16 c0 -5 -4 -10 -10 -10 -5 0 -10 5 -10 10 0 6 5 10 10 10 6 0 10 -4 10
-10z m64 1 c3 -5 -1 -11 -9 -14 -9 -4 -12 -1 -8 9 6 16 10 17 17 5z m86 -1 c8
-5 11 -10 5 -10 -5 0 -17 5 -25 10 -8 5 -10 10 -5 10 6 0 17 -5 25 -10z m61
-13 c-10 -9 -11 -8 -5 6 3 10 9 15 12 12 3 -3 0 -11 -7 -18z m214 13 c3 -5 1
-10 -4 -10 -6 0 -11 5 -11 10 0 6 2 10 4 10 3 0 8 -4 11 -10z m-47 -25 c-3 -3
-9 2 -12 12 -6 14 -5 15 5 6 7 -7 10 -15 7 -18z m-834 7 c3 -5 -1 -9 -9 -9 -8
0 -12 4 -9 9 3 4 7 8 9 8 2 0 6 -4 9 -8z m219 -23 c-8 -8 -13 -7 -18 2 -6 8
-4 10 5 4 10 -6 12 -4 6 11 -6 15 -5 17 5 7 9 -10 10 -16 2 -24z m368 8 c-8
-8 -14 -7 -23 2 -11 10 -9 11 6 5 15 -6 17 -4 11 6 -6 9 -4 11 4 5 9 -5 10
-10 2 -18z m104 13 c-3 -5 -1 -10 6 -10 7 0 10 -3 6 -6 -9 -9 -28 6 -22 17 4
5 8 9 11 9 3 0 2 -4 -1 -10z m63 -16 c0 -17 -3 -22 -8 -13 -5 6 -6 18 -3 26 8
19 11 16 11 -13z m162 16 c0 -5 -4 -10 -10 -10 -5 0 -10 5 -10 10 0 6 5 10 10
10 6 0 10 -4 10 -10z m80 -15 c14 -19 14 -19 -2 -6 -10 7 -18 18 -18 24 0 6 1
8 3 6 1 -2 9 -13 17 -24z m-1063 2 c0 -8 -6 -14 -14 -14 -9 0 -10 4 -2 14 6 7
12 13 14 13 1 0 2 -6 2 -13z m-61 -14 c-2 -9 -8 -18 -15 -19 -6 -1 -7 0 -2 2
6 3 7 12 4 20 -3 8 -1 14 5 14 6 0 9 -8 8 -17z m264 5 c0 -5 -11 -6 -25 -4
-14 3 -25 0 -25 -6 0 -6 -3 -9 -6 -5 -3 3 -4 10 -1 14 7 11 57 12 57 1z m245
2 c-3 -5 -12 -10 -18 -10 -7 0 -6 4 3 10 19 12 23 12 15 0z m91 1 c-4 -5 -1
-11 6 -13 8 -3 6 -6 -4 -10 -11 -5 -15 -2 -13 10 5 23 4 22 11 22 3 0 3 -4 0
-9z m80 -3 c4 -7 3 -8 -4 -4 -7 4 -12 2 -12 -5 0 -7 -3 -10 -6 -6 -6 5 3 27
11 27 2 0 7 -5 11 -12z m137 -11 c4 3 7 4 7 0 0 -18 -21 -14 -30 5 -10 21 -10
21 3 6 8 -10 17 -15 20 -11z m104 17 c-3 -3 -12 -4 -19 -1 -8 3 -5 6 6 6 11 1
17 -2 13 -5z m-280 -19 c0 -8 -4 -12 -9 -9 -5 3 -6 10 -3 15 9 13 12 11 12 -6z
m135 1 c7 4 8 2 4 -5 -4 -6 -12 -8 -18 -5 -8 5 -9 1 -4 -12 5 -14 4 -16 -4 -8
-6 6 -7 19 -3 29 4 11 8 14 11 7 2 -7 9 -9 14 -6z m72 -13 c-16 -11 -17 -15
-5 -23 15 -9 23 -38 15 -52 -3 -4 -16 -1 -29 8 -14 9 -22 20 -19 25 3 5 -4 9
-15 9 -14 0 -19 -5 -16 -19 3 -17 0 -18 -26 -9 -36 12 -38 21 -4 12 19 -5 25
-3 23 7 -2 9 6 14 22 14 14 0 24 -5 23 -11 -1 -5 7 -16 18 -22 17 -11 20 -10
17 5 -2 10 -10 24 -18 31 -13 11 -13 14 2 25 10 8 14 18 10 22 -4 5 -1 5 7 0
11 -7 11 -11 -5 -22z m-690 5 c-5 -7 -2 -9 9 -5 11 4 14 2 10 -9 -3 -8 -8 -12
-11 -10 -3 3 -11 -2 -19 -12 -13 -15 -13 -15 -3 6 6 12 8 22 5 22 -4 0 -3 5 0
10 3 6 8 10 11 10 3 0 2 -5 -2 -12z m375 -12 c-7 -6 -18 -17 -25 -25 -9 -11
-12 -12 -19 -1 -5 9 -4 11 3 6 11 -6 16 5 13 26 0 4 7 4 16 1 12 -5 14 -3 8 7
-6 9 -4 11 4 5 10 -6 10 -10 0 -19z m-491 0 c-7 -8 -15 -12 -17 -11 -5 6 10
25 20 25 5 0 4 -6 -3 -14z m262 4 c0 -5 -9 -14 -20 -20 -16 -9 -18 -8 -14 5 3
8 10 12 15 9 5 -3 9 0 9 5 0 6 2 11 5 11 3 0 5 -4 5 -10z m147 -22 c-3 -7 -5
-2 -5 12 0 14 2 19 5 13 2 -7 2 -19 0 -25z m230 17 c0 -8 -4 -15 -9 -15 -10 0
-11 14 -1 23 9 10 10 9 10 -8z m-587 -5 c-8 -5 -19 -10 -25 -10 -5 0 -3 5 5
10 8 5 20 10 25 10 6 0 3 -5 -5 -10z m330 -15 c0 -2 -6 -7 -12 -11 -7 -4 -10
-4 -6 1 4 4 0 14 -10 22 -15 13 -15 13 6 3 12 -6 22 -13 22 -15z m205 14 c11
-16 1 -19 -13 -3 -7 8 -8 14 -3 14 5 0 13 -5 16 -11z m90 0 c11 -16 1 -19 -13
-3 -7 8 -8 14 -3 14 5 0 13 -5 16 -11z m185 1 c0 -5 -4 -10 -10 -10 -5 0 -10
5 -10 10 0 6 5 10 10 10 6 0 10 -4 10 -10z m90 0 c-8 -5 -19 -10 -25 -10 -5 0
-3 5 5 10 8 5 20 10 25 10 6 0 3 -5 -5 -10z m82 1 c-10 -6 -9 -10 7 -14 24 -6
20 -32 -7 -42 -14 -5 -14 -3 2 13 16 19 16 20 -11 26 -21 6 -24 9 -12 17 7 5
19 9 24 9 6 0 4 -4 -3 -9z m-717 -11 c4 -6 -1 -7 -11 -3 -13 5 -15 3 -9 -7 5
-9 4 -11 -4 -6 -6 4 -9 12 -6 17 8 12 22 12 30 -1z m-246 -14 c9 -10 8 -15 -3
-19 -9 -4 -18 -1 -22 5 -5 7 -2 8 6 3 10 -6 12 -4 7 8 -8 21 -3 22 12 3z m446
-7 c-6 -32 -12 -34 -12 -4 0 14 3 25 8 25 4 0 6 -10 4 -21z m140 11 c-3 -5 -1
-10 6 -10 7 0 10 -3 6 -6 -9 -9 -28 6 -22 17 4 5 8 9 11 9 3 0 2 -4 -1 -10z
m263 -3 c7 -8 6 -18 -4 -31 -8 -11 -14 -15 -14 -9 0 7 5 15 10 18 6 4 8 11 5
16 -9 13 -25 11 -22 -3 1 -7 -4 -13 -12 -13 -8 0 -15 6 -17 13 -1 7 0 8 3 2 5
-12 24 -14 22 -2 -4 24 12 30 29 9z m56 5 c2 -4 1 -14 -4 -22 -7 -11 -12 -12
-21 -3 -6 6 -8 16 -5 22 8 13 23 14 30 3z m-137 -24 c-3 -8 -6 -5 -6 6 -1 11
2 17 5 13 3 -3 4 -12 1 -19z m174 7 c5 4 6 -1 2 -10 -5 -13 -7 -14 -14 -3 -5
7 -8 18 -8 23 0 6 3 4 6 -3 2 -6 9 -10 14 -7z m-995 -10 c-1 -8 -6 -18 -11
-22 -4 -4 -5 -2 -1 5 4 6 2 12 -3 12 -6 0 -11 -5 -11 -12 0 -6 -3 -8 -7 -4 -5
4 1 14 11 22 24 17 25 17 22 -1z m127 0 c-3 -9 -8 -14 -10 -11 -3 3 -2 9 2 15
9 16 15 13 8 -4z m83 2 c4 -3 -4 -4 -16 -2 -30 6 -40 16 -12 12 12 -2 24 -6
28 -10z m62 5 c8 -6 2 -9 -18 -9 -20 0 -26 3 -18 9 7 4 15 8 18 8 3 0 11 -4
18 -8z m117 -2 c3 -6 -1 -7 -9 -4 -10 4 -16 1 -16 -7 0 -7 -3 -10 -6 -6 -7 7
4 27 16 27 5 0 12 -4 15 -10z m151 1 c-4 -5 0 -12 6 -14 8 -3 6 -6 -4 -6 -18
-1 -24 10 -11 22 9 10 15 8 9 -2z m54 4 c0 -7 -30 -13 -34 -7 -3 4 4 9 15 9
10 1 19 0 19 -2z m-492 -30 c-3 -3 -9 2 -12 12 -6 14 -5 15 5 6 7 -7 10 -15 7
-18z m-87 -8 c-10 -9 -11 -8 -5 6 3 10 9 15 12 12 3 -3 0 -11 -7 -18z m44 -7
c-17 -33 -21 -35 -31 -18 -4 6 -3 8 3 5 6 -4 15 5 21 18 7 14 14 25 17 25 3 0
-1 -13 -10 -30z m240 20 c-3 -5 -12 -10 -18 -10 -7 0 -6 4 3 10 19 12 23 12
15 0z m45 0 c0 -5 -7 -7 -15 -4 -8 4 -15 8 -15 10 0 2 7 4 15 4 8 0 15 -4 15
-10z m80 6 c0 -3 -4 -8 -10 -11 -5 -3 -10 -1 -10 4 0 6 5 11 10 11 6 0 10 -2
10 -4z m37 -2 c-3 -3 -12 -4 -19 -1 -8 3 -5 6 6 6 11 1 17 -2 13 -5z m143 -14
c7 -14 7 -20 0 -20 -5 0 -10 7 -10 16 0 9 -5 12 -12 8 -7 -4 -8 -3 -4 4 10 16
14 15 26 -8z m73 3 c-3 -16 47 -9 58 8 5 8 9 10 9 5 0 -5 -8 -18 -17 -29 -17
-19 -17 -20 0 -14 11 4 16 3 12 -3 -3 -6 -1 -10 6 -10 7 0 10 -3 7 -6 -10 -9
-49 16 -43 26 4 6 -4 9 -17 7 -13 -1 -22 3 -21 10 2 6 -6 11 -17 10 -11 -1
-20 -6 -20 -11 0 -5 -3 -7 -6 -3 -3 3 -3 10 0 15 8 13 51 9 49 -5z m197 -16
c0 -4 6 -5 13 -1 6 4 5 -1 -5 -11 -17 -19 -43 -12 -34 10 8 23 -8 26 -19 4
-11 -19 -13 -19 -18 -5 -4 10 -3 15 2 12 5 -3 12 1 15 9 5 13 9 13 26 3 11 -7
20 -16 20 -21z m-920 9 c0 -8 -7 -16 -15 -20 -12 -4 -13 -2 -2 14 14 24 17 25
17 6z m305 3 c-4 -6 1 -17 11 -25 18 -14 18 -14 -3 -4 -23 11 -28 21 -16 33
10 11 15 8 8 -4z m147 -23 c7 4 8 2 4 -5 -11 -17 -26 -3 -25 22 2 22 2 22 6
-1 3 -13 9 -19 15 -16z m-500 17 c-6 -2 -10 -8 -7 -13 3 -4 -2 -11 -10 -14
-13 -4 -14 -2 -5 14 6 11 16 20 23 19 9 0 9 -2 -1 -6z m223 -3 c3 -5 1 -10 -4
-10 -6 0 -11 5 -11 10 0 6 2 10 4 10 3 0 8 -4 11 -10z m195 0 c0 -5 -4 -10
-10 -10 -5 0 -10 5 -10 10 0 6 5 10 10 10 6 0 10 -4 10 -10z m43 -5 c-3 -9 -8
-14 -10 -11 -3 3 -2 9 2 15 9 16 15 13 8 -4z m73 0 c-3 -9 0 -15 9 -15 8 0 15
-5 15 -10 0 -17 -33 5 -36 24 -1 9 2 16 8 16 6 0 8 -7 4 -15z m84 4 c0 -4 -13
-6 -30 -5 -16 0 -30 4 -30 7 0 4 14 6 30 5 17 0 30 -4 30 -7z m38 -6 c-2 -10
-9 -17 -16 -16 -7 2 -11 -7 -9 -20 1 -12 -3 -21 -9 -20 -7 1 -15 -9 -18 -22
-4 -14 -11 -25 -16 -25 -5 0 -8 -6 -6 -12 1 -7 1 -10 -1 -5 -3 4 -9 4 -15 1
-5 -3 -4 3 4 15 7 12 16 21 19 21 4 0 9 9 12 21 3 12 10 18 16 14 7 -4 10 3 8
17 -1 15 3 22 12 20 8 -2 11 3 8 13 -4 8 -2 15 4 15 6 0 9 -8 7 -17z m206 2
c-4 -8 -8 -15 -10 -15 -2 0 -4 7 -4 15 0 8 4 15 10 15 5 0 7 -7 4 -15z m-538
-11 c18 -15 18 -15 -3 -5 -28 14 -36 14 -27 -1 4 -7 3 -8 -5 -4 -11 7 -6 26 8
26 4 0 16 -7 27 -16z m432 -9 c-3 -3 -9 2 -12 12 -6 14 -5 15 5 6 7 -7 10 -15
7 -18z m142 4 c0 -6 -4 -7 -10 -4 -5 3 -10 11 -10 16 0 6 5 7 10 4 6 -3 10
-11 10 -16z m-786 -5 c3 -8 2 -12 -4 -9 -6 3 -10 10 -10 16 0 14 7 11 14 -7z
m81 -5 c-6 -32 -12 -34 -12 -4 0 14 3 25 8 25 4 0 6 -10 4 -21z m78 8 c3 -8 2
-20 -3 -26 -5 -9 -7 -4 -7 13 0 29 2 32 10 13z m167 3 c0 -5 -5 -10 -11 -10
-5 0 -7 5 -4 10 3 6 8 10 11 10 2 0 4 -4 4 -10z m234 -15 c-4 -16 -2 -25 6
-25 6 0 9 4 6 9 -3 5 5 16 19 25 23 15 25 15 35 -5 7 -11 9 -23 6 -27 -3 -3
-6 0 -6 7 0 7 -4 9 -10 6 -6 -4 -7 1 -3 10 5 15 3 15 -15 4 -11 -7 -19 -16
-16 -20 2 -4 -1 -11 -7 -14 -17 -11 -32 10 -24 34 9 30 17 26 9 -4z m-74 0 c0
-8 -4 -15 -10 -15 -5 0 -7 7 -4 15 4 8 8 15 10 15 2 0 4 -7 4 -15z m-580 1 c0
-2 -7 -7 -16 -10 -8 -3 -12 -2 -9 4 6 10 25 14 25 6z m65 -7 c11 -16 1 -19
-13 -3 -7 8 -8 14 -3 14 5 0 13 -5 16 -11z m85 7 c0 -2 -7 -7 -16 -10 -8 -3
-12 -2 -9 4 6 10 25 14 25 6z m68 -10 c-7 -8 -15 -12 -17 -11 -5 6 10 25 20
25 5 0 4 -6 -3 -14z m75 -1 c-3 -10 0 -15 8 -13 9 2 14 -6 14 -22 0 -19 -5
-24 -20 -22 -15 2 -21 -3 -22 -18 -2 -18 1 -19 13 -10 10 9 14 9 14 1 0 -6 -5
-11 -11 -11 -5 0 -7 -6 -3 -12 6 -9 3 -9 -9 1 -23 19 -16 56 12 55 14 0 21 5
21 17 0 12 -6 17 -20 14 -11 -2 -23 1 -26 7 -4 6 -3 8 3 5 6 -4 13 0 17 8 3 8
8 15 10 15 3 0 3 -7 -1 -15z m150 -4 c-9 -11 -19 -18 -23 -16 -3 2 -12 -5 -18
-16 -11 -17 -10 -20 5 -17 10 2 26 14 35 28 10 14 18 21 18 15 -1 -17 -29 -49
-47 -51 -28 -4 -34 6 -17 31 9 14 20 23 24 20 4 -3 10 2 14 10 3 8 10 15 16
15 5 0 2 -9 -7 -19z m57 9 c0 -5 -8 -10 -17 -10 -15 0 -16 2 -3 10 19 12 20
12 20 0z m288 1 c11 -7 10 -9 -3 -14 -9 -4 -13 -3 -10 2 3 5 -3 12 -12 14 -13
3 -14 5 -3 6 8 0 21 -3 28 -8z m72 -1 c0 -5 -4 -10 -10 -10 -5 0 -10 5 -10 10
0 6 5 10 10 10 6 0 10 -4 10 -10z m60 0 c0 -5 -4 -10 -10 -10 -5 0 -10 5 -10
10 0 6 5 10 10 10 6 0 10 -4 10 -10z m-885 -9 c3 -5 0 -13 -6 -17 -7 -4 -9 -3
-5 4 3 5 0 13 -6 15 -9 4 -10 6 -1 6 6 1 14 -3 18 -8z m327 2 c-6 -2 -9 -10
-6 -15 4 -7 2 -8 -5 -4 -13 9 -5 26 12 25 9 0 8 -2 -1 -6z m-349 -32 c3 -13 1
-18 -9 -14 -7 2 -10 12 -7 20 5 12 3 14 -7 8 -9 -5 -11 -4 -6 4 9 15 22 7 29
-18z m97 25 c0 -2 -7 -6 -15 -10 -8 -3 -15 -1 -15 4 0 6 7 10 15 10 8 0 15 -2
15 -4z m445 -16 c0 -7 -6 -14 -13 -16 -7 -1 -8 0 -2 3 16 8 12 19 -9 20 -14 1
-19 -4 -16 -18 4 -19 -30 -47 -43 -35 -3 3 0 6 7 6 7 0 9 4 6 10 -3 5 0 7 9 4
10 -4 14 0 12 13 -2 10 -2 21 1 25 7 13 48 2 48 -12z m213 -6 c7 -14 8 -23 2
-19 -5 3 -10 1 -10 -4 0 -6 -5 -11 -11 -11 -8 0 -8 5 1 15 10 12 10 18 0 30
-7 8 -8 15 -3 15 5 0 15 -12 21 -26z m71 -26 c-6 -11 -13 -17 -16 -14 -3 3 0
12 6 20 8 10 9 16 1 21 -5 3 -10 12 -10 18 0 7 7 4 15 -7 11 -14 12 -24 4 -38z
m177 40 c4 -7 3 -8 -4 -4 -7 4 -12 2 -12 -5 0 -7 -3 -10 -6 -6 -6 5 3 27 11
27 2 0 7 -5 11 -12z m-641 -17 c-3 -6 -11 -11 -16 -11 -5 0 -4 6 3 14 14 16
24 13 13 -3z m359 6 c3 3 6 1 6 -6 0 -9 -6 -11 -17 -6 -10 4 -23 8 -30 8 -7 0
-10 4 -7 9 3 4 13 4 23 -2 10 -5 21 -6 25 -3z m80 -3 c4 -10 2 -13 -6 -8 -8 5
-9 2 -5 -9 9 -24 0 -21 -14 4 -8 15 -8 19 0 15 6 -4 11 -2 11 3 0 16 7 13 14
-5z m-749 -27 c16 -3 11 -40 -5 -44 -9 -3 -11 -1 -5 4 15 12 18 44 4 41 -7 -2
-14 6 -16 17 -3 18 -2 18 5 2 4 -10 12 -19 17 -20z m49 18 c-4 -10 0 -13 15
-10 11 2 24 -2 27 -8 4 -7 3 -8 -1 -4 -5 4 -15 -3 -22 -15 l-14 -23 6 23 c5
15 2 22 -6 20 -7 -2 -15 5 -17 15 -2 9 1 17 7 17 6 0 8 -7 5 -15z m86 2 c0 -4
-12 -5 -26 -3 -38 7 -40 14 -5 12 17 0 31 -4 31 -9z m40 5 c0 -5 -7 -9 -15 -9
-8 0 -12 4 -9 9 3 4 9 8 15 8 5 0 9 -4 9 -8z m238 -6 c-7 -8 -15 -12 -17 -11
-5 6 10 25 20 25 5 0 4 -6 -3 -14z m172 4 c8 -5 11 -10 5 -10 -5 0 -17 5 -25
10 -8 5 -10 10 -5 10 6 0 17 -5 25 -10z m-670 -20 c0 -5 -4 -10 -10 -10 -5 0
-10 5 -10 10 0 6 5 10 10 10 6 0 10 -4 10 -10z m354 -15 c-5 -21 -3 -24 12
-19 16 6 17 5 7 -7 -18 -18 -37 2 -28 30 9 30 17 26 9 -4z m307 8 c8 -9 9 -14
3 -10 -13 7 -25 -15 -20 -35 1 -7 1 -10 -1 -6 -3 4 -15 1 -27 -7 -13 -9 -31
-12 -40 -9 -25 10 2 26 29 17 17 -5 18 -4 6 11 -9 10 -10 16 -2 16 6 0 11 -6
11 -12 1 -7 7 -2 15 12 12 22 12 26 -3 32 -15 6 -15 7 -1 7 9 1 23 -7 30 -16z
m50 8 c-21 -6 -22 -8 -7 -20 13 -11 16 -11 16 -1 0 8 2 11 5 8 8 -8 -6 -38
-18 -38 -6 0 -8 3 -4 6 3 4 -1 13 -9 21 -18 18 -9 33 19 32 21 -1 21 -1 -2 -8z
m175 -12 c-8 -12 -12 -28 -9 -35 3 -8 1 -14 -5 -14 -5 0 -8 8 -7 18 2 26 16
52 27 52 5 0 2 -10 -6 -21z m-686 -4 c0 -8 -4 -15 -10 -15 -5 0 -7 7 -4 15 4
8 8 15 10 15 2 0 4 -7 4 -15z m45 -14 c-6 -5 -25 10 -25 20 0 5 6 4 14 -3 8
-7 12 -15 11 -17z m305 14 c-7 -8 -17 -15 -23 -15 -6 0 -2 7 9 15 25 19 30 19
14 0z m200 -26 c-5 -9 -6 -19 -3 -23 3 -3 1 -6 -6 -6 -9 0 -11 6 -6 18 4 9 7
26 7 37 -1 15 1 17 8 5 5 -8 5 -21 0 -31z m-788 14 c-6 -3 -9 -10 -6 -15 4 -7
2 -8 -5 -4 -9 6 -9 11 0 22 6 8 15 12 18 8 3 -4 0 -9 -7 -11z m103 7 c3 -6 -1
-7 -9 -4 -18 7 -21 14 -7 14 6 0 13 -4 16 -10z m52 -12 c-3 -8 -6 -5 -6 6 -1
11 2 17 5 13 3 -3 4 -12 1 -19z m283 12 c0 -5 -7 -7 -15 -4 -8 4 -15 8 -15 10
0 2 7 4 15 4 8 0 15 -4 15 -10z m80 5 c0 -12 -33 -55 -42 -55 -5 0 0 10 11 22
11 11 18 25 15 30 -3 4 0 8 5 8 6 0 11 -2 11 -5z m320 -5 c-8 -5 -19 -10 -25
-10 -5 0 -3 5 5 10 8 5 20 10 25 10 6 0 3 -5 -5 -10z m134 -31 c-3 -5 -11 -9
-17 -8 -9 0 -8 2 1 6 6 2 9 9 6 14 -3 6 -11 5 -20 -2 -10 -8 -14 -8 -14 0 0 6
5 11 11 11 5 0 7 6 3 13 -4 6 2 4 14 -7 12 -10 19 -23 16 -27z m-943 12 c-6
-10 -7 -22 -3 -26 4 -5 1 -5 -6 -1 -9 5 -9 12 -2 27 6 10 13 19 16 19 2 0 0
-8 -5 -19z m451 12 c-6 -2 -10 -9 -7 -14 4 -5 -2 -6 -11 -2 -13 5 -15 3 -9 -8
4 -8 5 -11 0 -7 -4 4 -14 3 -22 -3 -7 -6 -13 -7 -13 -3 0 11 50 44 65 43 6 0
4 -3 -3 -6z m-392 -18 c0 -17 -30 -46 -40 -40 -11 7 -14 38 -5 47 9 9 45 4 45
-7z m139 -24 c-1 -13 -2 -13 -6 2 -2 9 -9 17 -14 17 -5 0 -9 5 -9 11 0 8 5 8
15 -1 8 -7 14 -20 14 -29z m51 22 c0 -3 -7 -2 -16 1 -12 4 -14 1 -9 -13 3 -11
1 -22 -4 -25 -8 -5 -9 37 -2 51 2 4 31 -9 31 -14z m26 -4 c-1 -12 6 -24 14
-27 13 -5 13 -3 0 14 -14 18 -14 18 3 5 17 -13 17 -16 3 -26 -9 -7 -13 -15 -9
-19 4 -4 0 -4 -10 0 -14 5 -16 2 -11 -12 6 -16 5 -17 -7 -6 -12 11 -11 15 3
26 13 9 14 16 6 24 -6 6 -8 18 -5 26 9 22 14 20 13 -5z m428 -11 l19 -33 -26
28 c-28 29 -32 37 -19 37 4 0 16 -15 26 -32z m116 22 c0 -5 -5 -10 -11 -10 -5
0 -7 5 -4 10 3 6 8 10 11 10 2 0 4 -4 4 -10z m-240 -4 c0 -2 -7 -6 -15 -10 -8
-3 -15 -1 -15 4 0 6 7 10 15 10 8 0 15 -2 15 -4z m210 0 c0 -3 -4 -8 -10 -11
-5 -3 -10 -1 -10 4 0 6 5 11 10 11 6 0 10 -2 10 -4z m-630 -16 c8 -5 12 -11
10 -14 -3 -2 -14 2 -24 10 -22 15 -10 19 14 4z m190 0 c0 -5 -4 -10 -10 -10
-5 0 -10 5 -10 10 0 6 5 10 10 10 6 0 10 -4 10 -10z m-260 -35 c0 -5 -5 -3
-10 5 -5 8 -10 20 -10 25 0 6 5 3 10 -5 5 -8 10 -19 10 -25z m55 15 c3 -4 -2
-13 -11 -20 -12 -10 -17 -11 -27 -1 -9 10 -8 11 4 6 10 -4 20 -2 24 4 3 7 -2
11 -14 11 -11 0 -22 4 -25 9 -3 4 6 6 19 3 14 -2 27 -8 30 -12z m540 10 c3 -5
1 -10 -4 -10 -6 0 -11 5 -11 10 0 6 2 10 4 10 3 0 8 -4 11 -10z m128 -46 c-7
-11 -11 -24 -8 -27 3 -4 2 -4 -2 -1 -5 3 -9 23 -9 44 -2 35 -1 37 15 21 15
-14 15 -19 4 -37z m-836 11 c-12 -8 -14 -15 -8 -20 6 -3 11 -10 11 -16 0 -5
-8 -1 -18 9 -17 16 -17 18 -2 27 10 6 15 17 12 25 -4 12 -2 13 9 2 12 -11 11
-15 -4 -27z m264 8 c-12 -20 -14 -14 -5 12 4 9 9 14 11 11 3 -2 0 -13 -6 -23z
m145 15 c5 -8 2 -9 -10 -5 -14 6 -17 3 -12 -8 4 -11 2 -14 -6 -9 -8 5 -9 1 -5
-12 7 -18 6 -18 -9 1 -8 11 -20 19 -25 17 -6 -1 -8 2 -4 8 5 8 11 8 20 0 9 -8
14 -6 19 5 6 18 22 20 32 3z m54 2 c13 -8 13 -10 -2 -10 -9 0 -20 5 -23 10 -8
13 5 13 25 0z m66 -5 c-3 -10 -1 -15 7 -14 6 1 23 -3 37 -9 17 -7 20 -11 8
-11 -9 -1 -19 3 -23 9 -3 5 -12 7 -19 4 -16 -6 -30 11 -21 26 10 16 18 12 11
-5z m274 5 c0 -5 -5 -10 -11 -10 -5 0 -7 5 -4 10 3 6 8 10 11 10 2 0 4 -4 4
-10z m-710 -18 c0 -4 -9 -13 -21 -20 -12 -8 -18 -9 -15 -4 3 6 3 12 -1 15 -5
2 -2 2 5 1 6 -2 12 1 12 6 0 6 5 10 10 10 6 0 10 -3 10 -8z m120 -2 c0 -5 -4
-10 -10 -10 -5 0 -10 5 -10 10 0 6 5 10 10 10 6 0 10 -4 10 -10z m215 -8 c-6
-4 -16 -14 -23 -23 -10 -13 -9 -19 5 -30 15 -12 16 -12 11 2 -3 9 -2 22 3 30
7 11 9 11 9 1 0 -8 5 -10 12 -6 6 4 4 -3 -5 -17 -25 -35 -21 -47 7 -19 13 14
21 28 19 33 -5 8 11 10 20 1 3 -3 -8 -18 -24 -31 -18 -15 -28 -32 -25 -40 3
-8 -1 -21 -9 -30 -14 -14 -15 -12 -10 16 4 21 1 30 -7 27 -7 -1 -10 -1 -5 1
15 9 6 24 -12 18 -10 -3 -24 1 -31 10 -8 10 -9 15 -1 15 6 0 11 -4 11 -10 0
-5 5 -10 11 -10 6 0 9 6 6 14 -6 16 31 71 41 61 4 -3 2 -9 -3 -13z m-249 -1
c-4 -5 0 -11 6 -14 13 -5 9 -15 -30 -74 -8 -13 -10 -23 -4 -23 10 0 55 67 56
84 1 5 7 10 14 12 7 1 8 0 2 -3 -5 -2 -8 -8 -5 -13 2 -4 -4 -18 -15 -30 -18
-21 -23 -33 -22 -50 1 -10 -37 -9 -43 1 -4 5 6 25 21 44 20 27 24 39 16 47 -9
9 -12 8 -12 -5 0 -9 -3 -17 -7 -17 -12 1 -43 26 -43 35 0 5 8 1 18 -8 16 -15
19 -15 30 3 7 11 15 20 18 20 3 0 3 -4 0 -9z m-135 -22 c9 -17 8 -24 -6 -38
-16 -15 -17 -15 -8 4 12 23 6 48 -8 39 -5 -3 -9 0 -9 5 0 19 19 12 31 -10z
m292 9 c-13 -6 -23 -15 -23 -20 0 -4 -5 -8 -12 -8 -6 0 -3 9 7 20 10 11 25 20
34 19 11 0 9 -4 -6 -11z m134 6 c-3 -3 -12 -4 -19 -1 -8 3 -5 6 6 6 11 1 17
-2 13 -5z m-357 -39 c0 -5 -5 -3 -10 5 -5 8 -10 20 -10 25 0 6 5 3 10 -5 5 -8
10 -19 10 -25z m440 24 c0 -5 5 -7 12 -3 7 4 8 3 4 -4 -10 -16 -23 -15 -30 3
-3 8 -1 15 4 15 6 0 10 -5 10 -11z m60 -10 c13 -9 13 -10 -2 -6 -18 6 -45 -19
-33 -31 4 -4 10 -1 12 6 3 6 9 12 15 12 6 0 5 -6 -2 -15 -7 -9 -19 -14 -25
-11 -7 2 -22 -2 -34 -10 -11 -8 -21 -11 -21 -5 0 5 9 13 21 16 11 4 18 9 16
12 -5 5 23 41 33 42 3 0 12 -4 20 -10z m-599 -40 c7 -15 6 -17 -6 -13 -8 3
-12 10 -9 15 3 5 -2 9 -10 9 -9 0 -16 4 -16 10 0 15 29 0 41 -21z m44 -12
c-19 -19 -35 -41 -35 -49 0 -7 13 1 28 17 35 39 70 66 57 46 -6 -11 -4 -13 9
-8 11 4 15 3 11 -4 -4 -6 -13 -8 -20 -5 -17 6 -37 -16 -32 -35 2 -8 2 -11 0
-6 -9 16 -20 6 -20 -18 0 -14 3 -25 8 -25 5 0 9 4 9 10 0 5 13 1 30 -8 30 -17
39 -32 20 -32 -5 0 -10 5 -10 10 0 6 -5 10 -11 10 -5 0 -7 -4 -4 -10 3 -5 1
-10 -5 -10 -7 0 -9 7 -6 16 4 12 2 15 -9 10 -8 -3 -22 -3 -30 0 -12 5 -13 10
-4 20 8 10 8 14 1 14 -6 0 -16 -8 -22 -17 -11 -17 -11 -17 -6 0 4 11 -5 29
-24 49 -17 17 -30 33 -30 36 0 6 41 -28 52 -43 5 -6 8 -5 8 2 0 14 61 76 67
69 2 -2 -12 -19 -32 -39z m95 27 c0 -2 -7 -4 -15 -4 -8 0 -15 4 -15 10 0 5 7
7 15 4 8 -4 15 -8 15 -10z m580 2 c0 -3 -4 -8 -10 -11 -5 -3 -10 -1 -10 4 0 6
5 11 10 11 6 0 10 -2 10 -4z m-500 -16 c0 -5 -8 -10 -17 -10 -15 0 -16 2 -3
10 19 12 20 12 20 0z m150 -14 c0 -3 -4 -8 -10 -11 -5 -3 -10 -1 -10 4 0 6 5
11 10 11 6 0 10 -2 10 -4z m-30 -16 c0 -5 -5 -10 -11 -10 -5 0 -7 5 -4 10 3 6
8 10 11 10 2 0 4 -4 4 -10z m-242 -24 c-15 -29 -15 -30 -15 -3 0 13 5 24 13
24 10 0 10 -5 2 -21z"/>
<path d="M3760 829 c0 -5 5 -7 10 -4 6 3 10 8 10 11 0 2 -4 4 -10 4 -5 0 -10
-5 -10 -11z"/>
<path d="M3680 770 c0 -5 5 -10 11 -10 5 0 7 5 4 10 -3 6 -8 10 -11 10 -2 0
-4 -4 -4 -10z"/>
<path d="M2740 616 c0 -18 1 -19 20 -1 11 10 20 19 20 21 0 1 -9 2 -20 1 -13
-1 -20 -8 -20 -21z"/>
<path d="M3555 559 c-9 -14 -2 -20 14 -10 8 6 9 11 3 15 -6 3 -14 1 -17 -5z"/>
<path d="M1671 494 c6 -8 15 -11 20 -8 8 4 10 0 9 -21 -1 -29 60 -94 83 -87 4
1 7 -2 7 -8 0 -5 7 -7 15 -4 24 10 17 27 -9 22 -17 -3 -23 -1 -19 8 2 7 11 10
18 8 7 -3 18 3 24 14 8 16 7 21 -4 26 -8 3 -21 3 -29 0 -8 -3 -17 -1 -21 5 -3
7 0 8 9 5 10 -4 16 -1 16 9 0 9 5 19 11 22 6 4 9 0 7 -10 -2 -10 2 -20 7 -22
6 -2 11 6 12 17 2 29 -26 38 -43 15 -8 -10 -14 -15 -14 -9 -1 11 -30 -26 -30
-39 0 -4 4 -6 8 -3 4 2 14 1 22 -4 12 -8 12 -12 2 -22 -11 -11 -17 -8 -32 12
-11 14 -15 27 -9 31 6 3 4 11 -6 19 -8 7 -15 18 -15 25 0 7 -11 13 -25 13 -20
0 -23 -3 -14 -14z m139 -68 c0 -3 -4 -8 -10 -11 -5 -3 -10 -1 -10 4 0 6 5 11
10 11 6 0 10 -2 10 -4z"/>
<path d="M1835 500 c-3 -5 4 -11 15 -15 11 -4 17 -11 14 -17 -4 -6 -10 -5 -15
3 -5 8 -9 12 -10 9 0 -3 -2 -13 -4 -22 -2 -10 0 -18 4 -18 10 0 51 30 51 38 0
11 -50 31 -55 22z"/>
<path d="M1975 486 c-9 -14 -14 -29 -11 -34 9 -14 -28 -10 -46 5 -15 13 -20
12 -50 -9 -50 -35 -54 -43 -38 -68 9 -13 11 -13 20 0 15 22 12 30 -7 23 -15
-6 -16 -5 -3 9 13 13 16 14 23 2 4 -8 13 -14 19 -14 9 0 9 3 1 11 -9 9 -9 16
0 30 10 17 12 17 35 -2 13 -10 29 -16 36 -12 7 4 7 1 -1 -7 -10 -11 -15 -11
-28 0 -8 7 -15 8 -15 2 0 -5 7 -16 16 -23 14 -11 18 -10 30 6 8 10 14 22 14
26 0 4 9 11 20 14 11 4 17 11 14 17 -4 6 -10 5 -15 -3 -13 -20 -11 -1 2 23 16
30 3 34 -16 4z"/>
<path d="M3313 467 c0 -14 2 -26 6 -25 20 2 31 -3 25 -13 -5 -8 -9 -8 -14 1
-4 6 -10 11 -14 11 -24 -3 -28 0 -16 14 7 8 8 15 2 15 -5 0 -15 -7 -22 -15 -7
-8 -18 -15 -24 -14 -7 0 -6 2 2 6 14 5 16 23 3 23 -10 0 -21 -23 -27 -60 l-5
-25 26 28 c26 27 51 28 41 1 -8 -20 11 -27 22 -8 5 9 12 15 15 15 21 -3 24 2
24 27 0 15 -2 21 -4 14 -3 -8 -11 -5 -23 10 l-17 22 0 -27z"/>
<path d="M2230 470 c0 -5 5 -10 10 -10 6 0 10 5 10 10 0 6 -4 10 -10 10 -5 0
-10 -4 -10 -10z"/>
<path d="M3173 457 c-11 -12 -25 -36 -32 -54 -7 -18 -18 -31 -23 -30 -6 1 -13
-4 -15 -11 -8 -20 21 -9 34 13 15 25 17 11 2 -16 -5 -11 -14 -17 -20 -13 -6 3
-8 -5 -5 -20 3 -14 0 -29 -6 -32 -7 -4 -8 -2 -4 4 11 17 -9 15 -24 -3 -7 -8
-9 -15 -6 -15 4 0 1 -6 -6 -14 -9 -10 -15 -10 -20 -3 -4 6 -10 8 -15 4 -4 -5
-2 -12 6 -16 17 -11 60 10 54 27 -3 7 -2 12 3 11 30 -5 45 2 40 19 -4 10 0 27
8 37 11 16 17 17 29 7 12 -11 15 -10 13 5 0 11 5 17 14 15 12 -3 12 -1 3 9
-10 10 -16 9 -30 -1 -15 -12 -16 -12 -5 0 17 20 15 30 -5 24 -14 -4 -15 -3 -5
4 8 5 13 13 12 18 -1 5 4 10 12 12 11 3 11 2 0 -6 -10 -7 -10 -11 1 -21 12 -9
15 -7 15 14 0 14 -6 25 -12 25 -6 0 -4 4 4 10 8 5 12 11 9 14 -3 3 -15 -4 -26
-17z"/>
<path d="M2954 448 c-11 -17 7 -28 27 -18 11 6 24 8 31 4 6 -4 9 -1 6 7 -5 15
-56 20 -64 7z"/>
<path d="M2085 440 c-3 -6 -10 -8 -15 -5 -19 12 -38 -7 -34 -33 6 -37 6 -42
-1 -79 -6 -32 6 -45 20 -23 4 6 11 7 17 4 7 -5 8 -2 4 5 -5 7 -14 10 -20 8 -7
-3 -13 1 -13 7 0 8 10 12 24 10 13 -1 23 3 23 9 0 8 3 7 9 -2 5 -8 11 -9 15
-3 12 19 -23 26 -50 10 -6 -4 -10 1 -9 15 1 12 -1 24 -6 27 -4 3 -1 14 7 24 8
12 14 15 14 7 0 -11 3 -11 15 -1 8 6 19 8 26 4 7 -4 10 -2 7 6 -6 18 -25 24
-33 10z"/>
<path d="M1885 431 c-3 -5 -1 -12 5 -16 17 -11 11 -25 -12 -25 -12 0 -18 -3
-14 -7 11 -11 30 -10 39 2 5 5 5 0 2 -13 -6 -21 -5 -22 14 -10 l20 12 -20 22
c-12 13 -18 27 -14 33 3 6 2 11 -4 11 -5 0 -12 -4 -16 -9z"/>
<path d="M3027 434 c-4 -4 1 -14 11 -22 12 -10 10 -10 -9 1 -22 13 -32 14 -53
4 -14 -7 -24 -17 -22 -23 3 -6 0 -16 -5 -21 -13 -13 -2 -40 16 -40 20 0 19 14
-1 25 -15 8 -15 10 0 15 10 4 14 3 11 -3 -3 -5 4 -8 15 -7 26 2 25 11 -2 24
-21 10 -21 10 9 9 17 -1 35 -5 40 -9 4 -5 -1 -5 -11 -1 -24 9 -13 -12 14 -26
16 -9 18 -6 16 26 -3 36 -17 59 -29 48z"/>
<path d="M1750 420 c0 -5 5 -10 11 -10 5 0 7 5 4 10 -3 6 -8 10 -11 10 -2 0
-4 -4 -4 -10z"/>
<path d="M2895 410 c-7 -12 12 -50 26 -50 6 0 6 7 -1 20 -6 11 -8 25 -5 30 3
6 2 10 -4 10 -5 0 -13 -4 -16 -10z"/>
<path d="M2196 387 c-18 -13 -18 -14 4 -30 13 -9 28 -13 33 -10 6 3 7 1 3 -5
-3 -6 -1 -14 5 -17 7 -5 9 1 7 16 -2 16 -9 23 -20 21 -20 -3 -33 14 -17 24 8
5 9 3 4 -6 -5 -8 -3 -11 4 -9 14 5 17 22 4 26 -5 2 -17 -3 -27 -10z"/>
<path d="M2653 347 c1 -32 4 -57 8 -57 3 0 5 10 5 23 -1 12 1 29 5 38 5 10 3
24 -5 34 -11 16 -13 11 -13 -38z"/>
<path d="M3060 381 c0 -5 5 -11 11 -13 6 -2 -2 -17 -18 -32 -25 -27 -26 -29
-6 -24 14 4 20 2 17 -6 -6 -17 -32 -16 -38 0 -3 8 1 20 9 28 13 12 12 15 -1
20 -20 8 -24 8 -23 -1 3 -20 -2 -33 -12 -33 -8 0 -8 4 0 14 8 10 9 16 1 21 -5
3 -10 0 -11 -7 -1 -7 -2 -27 -4 -45 -2 -23 1 -30 11 -26 7 2 10 12 7 21 -4 14
-3 14 5 3 7 -9 7 -23 1 -39 -5 -13 -7 -28 -4 -32 3 -5 -4 -7 -15 -5 -13 3 -18
0 -14 -7 5 -7 2 -8 -6 -3 -9 6 -11 4 -5 -5 5 -9 4 -11 -3 -6 -14 8 -46 -13
-49 -31 -4 -19 14 -16 21 3 3 8 10 13 14 10 5 -3 20 5 33 17 13 12 25 21 26
20 2 -1 10 0 18 3 12 5 13 10 4 20 -13 16 -2 37 16 30 8 -3 17 3 20 14 3 10
15 22 25 25 18 6 18 8 3 41 -16 32 -33 45 -33 25z m27 -46 c0 -8 -4 -12 -9 -9
-5 3 -6 10 -3 15 9 13 12 11 12 -6z"/>
<path d="M2682 365 c-1 -5 -3 -25 -4 -43 -2 -18 -8 -36 -13 -40 -20 -14 -15
-32 8 -29 16 1 21 -3 19 -16 -3 -15 0 -16 17 -5 18 11 18 13 3 25 -9 7 -24 13
-32 13 -12 0 -11 3 3 11 9 5 17 15 17 20 0 6 -5 7 -12 3 -6 -4 -8 -3 -5 4 4 5
16 8 27 5 11 -3 20 0 20 6 0 10 -22 16 -45 11 -5 -1 -5 4 1 10 16 16 56 -5 52
-28 -2 -11 5 -18 21 -20 15 -2 21 0 16 7 -3 6 -10 9 -14 7 -4 -3 -8 0 -9 7 -1
7 -3 23 -4 37 -3 21 -8 25 -34 25 -17 1 -31 -4 -32 -10z m48 -5 c0 -5 -2 -10
-4 -10 -3 0 -8 5 -11 10 -3 6 -1 10 4 10 6 0 11 -4 11 -10z"/>
<path d="M1814 358 c-2 -3 4 -9 15 -13 10 -3 29 -15 42 -26 28 -24 44 -11 29
23 -9 19 -19 24 -47 24 -19 -1 -37 -4 -39 -8z m69 -11 c4 3 7 1 7 -5 0 -17
-16 -15 -31 6 -12 15 -12 16 2 5 9 -7 19 -10 22 -6z"/>
<path d="M2275 356 c-10 -7 -15 -18 -11 -24 11 -19 -18 -19 -43 -1 -26 21 -41
24 -41 10 0 -5 11 -12 25 -15 31 -8 32 -20 3 -40 -12 -9 -18 -16 -12 -16 6 0
19 6 29 14 11 8 26 11 34 8 9 -3 12 -1 7 6 -3 6 -1 14 5 17 17 11 23 -3 9 -20
-7 -8 -8 -15 -3 -15 15 0 32 22 27 35 -7 17 13 29 22 14 5 -8 3 -9 -6 -4 -8 5
-11 3 -8 -6 3 -8 -1 -22 -10 -31 -9 -11 -11 -18 -4 -18 6 0 19 12 28 26 17 25
16 26 -8 49 -22 20 -28 22 -43 11z m20 -16 c-3 -5 -12 -10 -18 -10 -7 0 -6 4
3 10 19 12 23 12 15 0z"/>
<path d="M1919 358 c-7 -19 -4 -70 4 -75 6 -4 7 -1 3 8 -4 8 -1 6 7 -3 8 -10
19 -18 26 -18 6 0 11 -4 11 -10 0 -6 3 -9 8 -9 21 4 32 -2 26 -13 -4 -7 -4
-10 1 -6 4 4 24 -5 43 -20 20 -15 33 -21 28 -14 -4 7 -2 12 4 12 6 0 8 5 4 11
-4 8 -9 7 -15 -2 -6 -10 -9 -10 -9 -2 0 6 4 14 8 17 5 3 8 15 6 28 -1 13 -3
27 -3 32 -1 5 -8 2 -17 -5 -15 -12 -19 -11 -32 9 -18 28 -28 28 -43 0 -10 -18
-9 -20 6 -14 10 3 24 1 31 -5 8 -6 20 -9 27 -6 9 3 13 -2 11 -16 -1 -12 -3
-26 -3 -30 -1 -11 -21 2 -21 14 0 6 5 7 12 3 7 -4 8 -3 4 5 -4 6 -12 9 -17 6
-5 -4 -9 -1 -9 5 0 6 -4 9 -9 5 -12 -7 -61 15 -61 27 0 5 5 6 10 3 6 -3 10 -2
10 4 0 5 -6 12 -12 14 -10 4 -10 8 1 15 8 6 9 12 3 16 -12 7 -25 -22 -15 -36
3 -7 1 -8 -6 -4 -6 4 -9 16 -6 26 3 10 1 21 -5 25 -5 3 -10 5 -11 3z"/>
<path d="M2880 346 c-7 -9 -17 -13 -23 -9 -5 3 -31 7 -58 8 -44 2 -47 0 -39
-16 6 -10 14 -21 20 -24 5 -3 7 -12 4 -20 -4 -8 -10 -12 -15 -9 -6 3 -16 1
-23 -5 -11 -9 -14 -8 -12 6 1 20 -25 25 -31 6 -7 -19 35 -37 53 -22 11 9 14 9
14 -1 0 -7 9 -1 20 13 24 30 25 37 6 37 -8 0 -17 7 -20 15 -5 14 -3 14 16 1
19 -14 23 -14 33 1 10 13 12 10 10 -18 -3 -34 9 -59 27 -59 6 0 5 6 -2 15 -6
8 -9 19 -5 25 4 6 1 19 -7 28 -12 15 -11 16 5 3 12 -10 17 -10 17 -2 0 8 8 10
20 6 16 -5 19 -3 14 12 -5 15 -4 15 5 3 8 -12 13 -12 23 -2 8 8 8 12 1 12 -6
0 -18 2 -26 5 -7 3 -20 -1 -27 -9z"/>
<path d="M2121 337 c-16 -16 -14 -23 10 -24 18 -2 19 0 7 14 -11 14 -9 14 14
-1 16 -10 25 -23 21 -32 -3 -8 -9 -11 -14 -8 -5 3 -9 1 -9 -4 0 -5 12 -14 26
-20 14 -7 23 -16 20 -21 -3 -5 0 -14 7 -20 11 -8 14 -5 14 18 0 20 -5 28 -16
27 -9 -1 -15 5 -13 13 9 44 -39 86 -67 58z"/>
<path d="M2079 316 c5 -6 7 -28 6 -48 -2 -21 1 -38 6 -38 5 0 6 -12 3 -26 -5
-18 -3 -25 4 -20 5 3 9 17 8 31 -2 13 1 22 6 19 5 -3 7 -12 4 -20 -6 -16 -4
-17 18 -8 9 3 16 10 16 16 0 5 -4 7 -8 4 -11 -7 -34 35 -37 66 -4 34 -4 35
-20 35 -9 0 -11 -4 -6 -11z"/>
<path d="M2917 319 c-9 -6 -21 -7 -27 -4 -15 9 -33 -34 -21 -49 6 -7 8 -16 4
-19 -19 -20 -56 17 -47 47 4 11 5 19 3 16 -2 -3 -13 -16 -24 -29 -20 -24 -20
-24 0 -17 14 5 17 4 10 -3 -6 -6 -26 -13 -44 -15 -18 -2 -46 -14 -63 -26 -23
-17 -33 -19 -41 -10 -9 9 -7 15 7 26 20 14 11 20 -10 6 -14 -9 -13 -94 1 -89
5 2 9 11 7 21 -3 14 15 22 42 17 5 -1 6 5 2 14 -3 9 -2 13 4 10 6 -3 10 0 10
7 0 9 3 9 10 -2 5 -8 7 -22 5 -31 -3 -9 1 -16 10 -16 15 0 16 22 2 45 -12 18
1 15 24 -7 19 -17 19 -20 4 -35 -9 -9 -12 -16 -6 -16 5 0 13 5 16 10 4 7 12 7
25 0 25 -13 27 -13 27 5 0 9 -6 14 -14 11 -15 -6 -36 27 -25 39 4 5 -2 5 -13
1 -16 -6 -17 -5 -8 5 10 10 16 9 29 -2 16 -12 17 -12 11 3 -4 12 -2 15 9 11
11 -4 12 -9 5 -16 -24 -24 -9 -29 16 -6 15 13 22 17 15 8 -6 -9 -9 -19 -5 -22
3 -4 0 -14 -8 -23 -12 -15 -11 -16 11 -11 14 4 19 4 11 1 -11 -5 -11 -8 0 -16
10 -6 6 -7 -11 -3 -20 5 -22 4 -10 -5 12 -9 10 -10 -9 -5 -20 6 -23 4 -18 -9
4 -10 3 -15 -3 -11 -6 3 -10 1 -10 -6 0 -6 -9 -1 -19 12 -11 13 -23 21 -27 16
-4 -4 1 -14 12 -23 10 -8 13 -12 5 -8 -10 5 -12 3 -6 -6 5 -9 4 -11 -3 -6 -7
4 -17 4 -23 0 -8 -4 -7 -9 2 -15 11 -7 11 -9 1 -9 -7 0 -15 7 -18 15 -5 11 -9
12 -19 2 -15 -14 -9 -31 7 -21 7 4 8 2 4 -5 -4 -6 -12 -8 -18 -5 -7 5 -8 2 -3
-6 5 -9 4 -11 -4 -6 -6 4 -8 12 -5 18 4 6 1 9 -7 6 -8 -3 -13 -14 -13 -26 1
-12 -3 -19 -9 -15 -6 4 -7 1 -2 -7 5 -9 4 -11 -4 -6 -8 6 -9 12 -2 20 7 9 7
17 -2 26 -10 10 -9 11 2 5 9 -5 12 -4 7 3 -14 23 -23 12 -22 -27 0 -21 5 -38
11 -37 20 3 35 18 29 28 -5 7 -1 9 9 5 8 -3 21 1 27 9 7 8 18 14 24 14 7 0 22
9 34 20 12 11 24 20 28 19 13 -4 84 43 79 52 -4 5 -1 9 4 9 6 0 10 3 10 8 -3
18 2 33 10 28 10 -6 61 38 61 52 0 5 -7 15 -15 22 -10 9 -15 9 -15 1 0 -6 6
-11 13 -11 9 0 9 -2 -1 -9 -8 -4 -14 -12 -15 -17 -1 -5 -10 -8 -21 -6 -16 2
-17 0 -5 -15 13 -17 13 -17 -5 -3 -11 8 -17 10 -14 5 4 -6 3 -17 -3 -25 -5 -8
-9 -10 -10 -5 -6 59 -4 78 8 82 7 3 11 9 8 13 -3 5 0 12 6 16 8 5 9 3 4 -6 -5
-8 -3 -11 6 -8 8 3 13 12 11 19 -2 9 4 7 17 -5 12 -11 24 -16 29 -11 4 4 1 10
-6 12 -6 3 -10 8 -8 12 7 11 -27 11 -47 0z m-36 -36 c-12 -20 -14 -14 -5 12 4
9 9 14 11 11 3 -2 0 -13 -6 -23z"/>
<path d="M2196 305 c4 -8 10 -12 15 -9 11 6 2 24 -11 24 -5 0 -7 -7 -4 -15z"/>
<path d="M2117 296 c-4 -9 -2 -16 3 -16 5 0 7 -6 4 -14 -3 -8 3 -19 15 -25 20
-11 26 -55 5 -47 -16 6 -38 -10 -30 -23 4 -6 12 -9 17 -5 5 3 6 10 3 16 -4 7
-2 8 4 4 6 -4 9 -13 5 -21 -4 -11 -1 -13 13 -8 11 4 15 3 10 -5 -7 -12 88 -65
98 -55 3 4 6 2 6 -4 0 -11 40 -41 62 -45 7 -2 18 -9 24 -17 6 -8 19 -16 28
-17 14 -2 15 0 5 12 -9 11 -8 14 2 14 8 0 -2 10 -21 21 -32 20 -33 22 -16 35
17 12 17 13 -3 11 -26 -2 -35 -24 -14 -35 11 -6 12 -11 4 -16 -6 -4 -11 -2
-11 4 0 6 -4 9 -9 5 -6 -3 -8 6 -5 22 5 27 5 27 -11 8 -9 -11 -13 -14 -9 -6 5
10 3 12 -6 6 -8 -5 -11 -4 -6 3 4 7 -1 10 -13 7 -15 -3 -18 0 -14 13 6 14 4
15 -9 5 -18 -15 -29 -7 -20 15 5 15 4 16 -13 2 -14 -11 -19 -12 -22 -2 -3 6
-10 9 -15 6 -7 -4 -8 -2 -4 5 4 6 3 18 -3 25 -8 9 -6 18 5 32 8 10 12 13 8 5
-5 -9 -3 -12 4 -7 8 4 10 2 6 -8 -7 -19 18 -15 39 6 11 11 13 18 5 26 -12 12
-1 35 13 27 5 -4 9 -2 9 4 0 6 8 7 17 4 15 -6 14 -7 -3 -13 -10 -4 -22 -6 -26
-3 -11 6 -10 -15 1 -22 5 -3 13 0 16 6 4 5 13 8 20 5 7 -2 16 2 19 11 4 8 13
13 21 9 8 -3 15 -2 15 3 0 15 -13 21 -26 10 -9 -7 -21 -6 -43 6 -30 15 -32 15
-40 -8 -5 -13 -9 -31 -8 -40 2 -20 -10 -19 -48 5 -28 18 -28 19 -5 13 24 -6
24 -5 -2 10 -32 18 -35 30 -10 44 9 6 12 11 5 11 -6 0 -15 -5 -19 -11 -5 -8
-9 -8 -14 1 -5 8 -9 7 -13 -4z m260 -261 c0 -8 -4 -12 -9 -9 -5 3 -6 10 -3 15
9 13 12 11 12 -6z"/>
<path d="M2920 282 c-35 -24 -34 -39 1 -39 l31 0 -24 14 c-19 12 -20 13 -3 8
16 -4 21 0 21 15 0 11 0 20 -1 19 0 0 -11 -8 -25 -17z"/>
<path d="M2986 255 c-9 -26 -7 -32 5 -12 6 10 9 21 6 23 -2 3 -7 -2 -11 -11z"/>
<path d="M2307 236 c-8 -21 10 -31 28 -16 11 9 15 9 15 1 0 -6 4 -11 8 -11 13
0 10 27 -2 27 -6 0 -18 4 -27 7 -10 5 -19 1 -22 -8z"/>
<path d="M2247 201 c-24 -29 -40 -33 -66 -17 -8 5 -7 -1 4 -18 12 -18 21 -24
28 -17 5 5 16 7 23 4 12 -4 12 -8 2 -22 -12 -14 -11 -14 4 -2 15 11 19 11 23
-1 7 -18 63 -19 69 -1 4 11 1 11 -15 2 -18 -9 -19 -9 -10 9 10 19 6 32 -11 32
-5 0 -7 -4 -4 -8 2 -4 0 -14 -5 -22 -8 -13 -10 -13 -18 0 -5 8 -7 18 -4 23 3
5 -5 6 -18 2 -19 -5 -21 -4 -9 4 8 6 11 11 5 11 -5 0 -4 4 3 9 8 4 30 6 50 4
l36 -4 -26 21 c-33 25 -32 26 -61 -9z"/>
<path d="M2670 220 c0 -5 5 -10 11 -10 5 0 7 5 4 10 -3 6 -8 10 -11 10 -2 0
-4 -4 -4 -10z"/>
<path d="M2726 194 c-3 -9 -2 -22 2 -31 6 -10 9 -5 9 16 0 35 -2 38 -11 15z"/>
<path d="M2270 176 c7 -7 13 -7 20 0 6 6 3 10 -10 10 -13 0 -16 -4 -10 -10z"/>
<path d="M2700 182 c0 -7 -5 -10 -10 -7 -6 4 -10 3 -9 -2 3 -13 -12 -43 -20
-39 -4 3 -7 -3 -8 -13 -1 -9 7 -22 17 -29 15 -9 22 -8 35 5 9 9 26 16 37 17
15 1 22 8 23 24 2 32 -10 36 -23 7 -8 -17 -17 -23 -32 -20 -16 3 -20 0 -16
-10 3 -8 1 -17 -5 -20 -5 -4 -8 -1 -7 7 2 7 -4 12 -12 10 -10 -1 -9 2 4 13 11
8 16 15 10 15 -5 0 -2 5 6 10 11 7 19 5 28 -7 16 -23 15 -4 -3 27 -8 14 -14
19 -15 12z"/>
<path d="M2319 167 c6 -8 7 -17 3 -21 -4 -4 0 -6 8 -4 10 2 14 -3 12 -14 -2
-12 2 -16 11 -12 7 2 14 11 14 19 0 8 -3 13 -5 10 -3 -3 -11 4 -19 15 -8 11
-19 20 -25 20 -7 0 -7 -4 1 -13z"/>
<path d="M2796 161 c-3 -5 0 -14 8 -20 10 -9 15 -8 19 3 4 11 1 13 -10 9 -11
-4 -14 -2 -9 5 4 7 5 12 2 12 -3 0 -7 -4 -10 -9z"/>
</g>
</svg>
