<svg width="515" height="201" viewBox="0 0 515 201" fill="none" xmlns="http://www.w3.org/2000/svg">
<path d="M128.002 198.291H97.7569V160.646H0V137.083L96.1366 0.708008H97.7569V47.4372H128.002V135.458H155.817V160.646H128.002V198.291ZM97.7569 135.458V47.4372L32.1356 135.458H97.7569Z" fill="white"/>
<path d="M257.053 201C247.331 201 238.33 199.555 230.048 196.666C221.767 193.777 214.385 189.625 207.904 184.208C201.423 178.611 195.932 171.93 191.431 164.166C186.931 156.222 183.51 147.194 181.17 137.083C178.829 126.791 177.659 115.597 177.659 103.5C177.659 91.4024 178.829 80.2983 181.17 70.1872C183.51 60.0761 186.931 51.0483 191.431 43.1038C195.932 35.1594 201.423 28.4788 207.904 23.0622C214.385 17.465 221.767 13.2219 230.048 10.333C238.33 7.44412 247.331 5.99968 257.053 5.99968C267.134 5.99968 276.316 7.44412 284.598 10.333C292.879 13.2219 300.26 17.465 306.741 23.0622C313.222 28.4788 318.713 35.1594 323.214 43.1038C327.715 51.0483 331.136 60.0761 333.476 70.1872C335.816 80.2983 336.987 91.4024 336.987 103.5C336.987 115.597 335.816 126.791 333.476 137.083C331.136 147.194 327.715 156.222 323.214 164.166C318.713 171.93 313.222 178.611 306.741 184.208C300.26 189.625 292.879 193.777 284.598 196.666C276.316 199.555 267.134 201 257.053 201ZM257.053 175C262.994 175 268.395 174.007 273.256 172.021C278.296 170.034 282.707 167.055 286.488 163.083C290.449 158.93 293.689 153.965 296.21 148.187C298.73 142.409 300.62 135.819 301.88 128.416C303.321 120.833 304.041 112.527 304.041 103.5C304.041 94.4719 303.321 86.2566 301.88 78.8538C300.62 71.2705 298.73 64.59 296.21 58.8122C293.689 53.0344 290.449 48.1594 286.488 44.1872C282.707 40.215 278.296 37.2358 273.256 35.2497C268.395 33.2636 262.994 32.2705 257.053 32.2705C251.292 32.2705 245.981 33.2636 241.12 35.2497C236.259 37.2358 231.848 40.215 227.888 44.1872C224.107 48.1594 220.867 53.0344 218.166 58.8122C215.646 64.59 213.665 71.2705 212.225 78.8538C210.965 86.2566 210.335 94.4719 210.335 103.5C210.335 112.527 210.965 120.833 212.225 128.416C213.665 135.819 215.646 142.409 218.166 148.187C220.867 153.965 224.107 158.93 227.888 163.083C231.848 167.055 236.259 170.034 241.12 172.021C245.981 174.007 251.292 175 257.053 175Z" fill="white"/>
<path d="M487.185 198.291H456.94V160.646H359.183V137.083L455.32 8.70801H456.94V47.4372H487.185V135.458H515V160.646H487.185V198.291ZM456.94 135.458V47.4372L391.319 135.458H456.94Z" fill="white"/>
</svg>
