<svg width="79" height="78" viewBox="0 0 79 78" fill="none" xmlns="http://www.w3.org/2000/svg">
<rect x="16.146" width="64" height="63.9956" rx="12.4414" transform="rotate(13.9327 16.146 0)" fill="#749E85"/>
<g clip-path="url(#clip0_5181_38388)">
<path d="M20.5907 50.1526L47.0633 34.2038M47.0633 34.2038L50.0934 34.9556C51.7007 35.3543 53.4005 35.0982 54.819 34.2437C56.2375 33.3891 57.2583 32.0061 57.6571 30.3988L58.4088 27.3687L55.3787 26.617C53.7714 26.2182 52.0716 26.4743 50.6531 27.3289C49.2347 28.1834 48.2138 29.5665 47.8151 31.1737L47.0633 34.2038ZM26.3771 36.3575L29.2702 34.6146L31.0132 37.5077C31.7566 38.7471 31.9786 40.2306 31.6306 41.6333C31.2826 43.0361 30.393 44.2438 29.1565 44.992L26.2634 46.735L24.5204 43.8419C23.777 42.6025 23.555 41.119 23.903 39.7163C24.251 38.3135 25.1407 37.1058 26.3771 36.3575ZM33.9408 31.8008L36.8339 30.0578L38.5768 32.9509C39.3202 34.1903 39.5422 35.6738 39.1942 37.0765C38.8462 38.4793 37.9566 39.687 36.7201 40.4352L33.827 42.1782L32.084 39.2851C31.3407 38.0457 31.1187 36.5622 31.4667 35.1595C31.8146 33.7567 32.7043 32.549 33.9408 31.8008ZM41.5044 27.244L44.3975 25.501L46.1404 28.3941C46.8838 29.6335 47.1058 31.117 46.7578 32.5198C46.4098 33.9225 45.5202 35.1302 44.2837 35.8785L41.3906 37.6214L39.6477 34.7283C38.9043 33.4889 38.6823 32.0054 39.0303 30.6027C39.3783 29.2 40.2679 27.9923 41.5044 27.244Z" stroke="#FCB040" stroke-width="3.12195" stroke-linecap="round" stroke-linejoin="round"/>
<path d="M36.6413 46.8499L38.3843 49.743L35.4912 51.4859C34.2518 52.2293 32.7683 52.4513 31.3656 52.1033C29.9628 51.7553 28.7551 50.8657 28.0069 49.6292L26.2639 46.7361L29.157 44.9932C30.3964 44.2498 31.8799 44.0278 33.2826 44.3758C34.6854 44.7238 35.8931 45.6134 36.6413 46.8499ZM44.205 42.2931L45.9479 45.1862L43.0549 46.9292C41.8154 47.6726 40.332 47.8945 38.9292 47.5466C37.5265 47.1986 36.3188 46.3089 35.5705 45.0724L33.8275 42.1794L36.7206 40.4364C37.96 39.693 39.4435 39.471 40.8463 39.819C42.249 40.167 43.4567 41.0566 44.205 42.2931ZM51.7686 37.7363L53.5116 40.6294L50.6185 42.3724C49.3791 43.1158 47.8956 43.3378 46.4928 42.9898C45.0901 42.6418 43.8824 41.7522 43.1341 40.5157L41.3912 37.6226L44.2843 35.8796C45.5237 35.1362 47.0072 34.9142 48.4099 35.2622C49.8126 35.6102 51.0203 36.4999 51.7686 37.7363Z" stroke="#FCB040" stroke-width="3.12195" stroke-linecap="round" stroke-linejoin="round"/>
</g>
<rect x="6.44376" y="10.707" width="64" height="63.9956" rx="12.4414" fill="#0F582D"/>
<path d="M48.7789 33.98C50.0392 35.2453 50.7468 36.9585 50.7468 38.7444C50.7468 40.5303 50.0392 42.2434 48.7789 43.5087L38.3701 54L27.9614 43.5087C27.0253 42.5664 26.3881 41.3689 26.1293 40.0661C25.8706 38.7633 26.0019 37.4131 26.5068 36.1846C27.0117 34.956 27.8678 33.9038 28.9679 33.1594C30.068 32.4151 31.3632 32.0118 32.6914 32C34.4674 32.0108 36.1673 32.7224 37.4214 33.98C37.7871 34.3419 38.1059 34.7485 38.3701 35.19C38.6343 34.7485 38.9531 34.3419 39.3189 33.98C39.9368 33.3531 40.6731 32.8552 41.4851 32.5154C42.2972 32.1756 43.1686 32.0006 44.0489 32.0006C44.9291 32.0006 45.8006 32.1756 46.6126 32.5154C47.4246 32.8552 48.161 33.3531 48.7789 33.98Z" fill="#ECF4ED"/>
<defs>
<clipPath id="clip0_5181_38388">
<rect width="37.4634" height="37.4634" fill="white" transform="translate(25.83 16.0703) rotate(13.9327)"/>
</clipPath>
</defs>
</svg>
