<svg width="84" height="40" viewBox="0 0 84 40" fill="none" xmlns="http://www.w3.org/2000/svg">
<g clip-path="url(#clip0_1281_21525)">
<path fill-rule="evenodd" clip-rule="evenodd" d="M36.6246 16.3643C37.6959 16.5247 38.7458 16.8054 39.7543 17.201L40.9908 15.3267C41.1622 15.0671 41.4935 14.9642 41.7629 15.1198L44.3195 16.5957C44.5889 16.7512 44.6652 17.0901 44.5263 17.368L43.5197 19.3798C44.3652 20.0559 45.133 20.8236 45.8091 21.6691L47.8209 20.6625C48.0991 20.5234 48.4375 20.6 48.5931 20.8693L50.0693 23.4258C50.2249 23.6953 50.1215 24.027 49.8623 24.1981L48.0544 25.3912H45.6431C45.2367 25.3912 44.9014 25.486 44.6437 25.6614C42.8223 21.864 38.942 19.2421 34.449 19.2421C29.7082 19.2421 25.6501 22.1615 23.9724 26.3003H23.9004C23.7818 26.2178 23.6591 26.1415 23.5327 26.0716C23.254 25.9184 22.9616 25.7915 22.6593 25.6927C22.3559 25.5925 22.015 25.5165 21.6377 25.4649C21.3773 25.4295 21.1152 25.4069 20.8525 25.3971L19.0359 24.1981C18.7767 24.0272 18.6736 23.6951 18.829 23.4261L20.3049 20.8694C20.4603 20.6005 20.7992 20.5234 21.0773 20.6626L23.0889 21.6693C23.7649 20.8236 24.5328 20.0557 25.3785 19.3797L24.3719 17.368C24.2328 17.0902 24.3097 16.7512 24.5788 16.5958L27.1354 15.1199C27.4043 14.9645 27.7364 15.0668 27.9073 15.3267L29.1442 17.2009C30.1528 16.8056 31.2027 16.525 32.274 16.3644L32.4081 14.121C32.4267 13.8105 32.6622 13.5557 32.9734 13.5557H35.9252C36.2364 13.5557 36.4721 13.8108 36.4904 14.121L36.6246 16.3643Z" fill="#524945"/>
<path fill-rule="evenodd" clip-rule="evenodd" d="M6.16552 32.322L5.29308 29.771L5.13659 29.305L4.87901 30.0489L4.11166 32.322H6.16552ZM9.76978 36.1512C9.40988 36.1512 8.07998 36.1852 7.82717 36.1115C7.73711 36.086 7.65251 36.0442 7.57759 35.9881V35.9875C7.44819 35.8892 7.31971 35.7331 7.2637 35.5811L6.76054 34.0952H3.51111C3.40032 34.4223 3.0518 35.5831 2.88562 35.7959C2.70544 36.0266 2.45986 36.1512 2.16166 36.1512H0.263672L3.93656 26.6631H6.33494C7.55836 29.8262 8.78332 32.9885 10.0078 36.1512H9.76978ZM16.2396 28.5685H12.769V36.1513H10.304C10.304 32.9887 10.3033 29.8259 10.304 26.6632H16.4031V28.5686L16.2396 28.5685ZM20.5467 31.1587C21.5252 31.1587 21.9425 30.7082 21.9425 29.8194C21.9425 28.3887 20.577 28.5809 19.6036 28.5809V31.1587H20.5467ZM20.5467 26.6631C21.7958 26.6631 23.1368 26.9688 23.8788 28.0333H23.8794C24.68 29.1819 24.5713 31.1636 23.4476 32.1787V32.1793C22.3678 33.1543 20.9289 33.0892 19.6036 33.0892V36.1512H17.1513V26.6631H20.5467Z" fill="#2FA51C"/>
<path fill-rule="evenodd" clip-rule="evenodd" d="M53.1812 36.1504H50.8799V28.5675H47.7677V36.1504H45.3027V26.6623H53.3448V36.1504H53.1812ZM58.1861 31.1579C59.1646 31.1579 59.5821 30.7075 59.5821 29.8186C59.5821 28.3881 58.2178 28.5801 57.2432 28.5801V31.1579H58.1861ZM58.1861 26.6623C59.4353 26.6623 60.7763 26.968 61.5184 28.0325H61.519C62.3197 29.1816 62.2108 31.1633 61.0872 32.1779V32.1785C60.0075 33.1533 58.5684 33.0884 57.2432 33.0884V36.1504H54.7908V26.6623H58.1861ZM72.1071 31.4032C72.1071 28.1108 69.3025 26.073 66.1389 26.6544C60.9677 27.6049 60.9749 35.2089 66.1389 36.1582C69.311 36.7414 72.1071 34.7019 72.1071 31.4032ZM69.6044 31.4032C69.6044 32.6878 69.1002 33.867 67.7363 34.1168C67.0772 34.2375 66.2991 34.145 65.7446 33.7526V33.752C65.4871 33.57 65.2873 33.3349 65.1336 33.0551C64.4247 31.7662 64.5015 28.643 67.1902 28.643C68.8603 28.643 69.6044 29.8445 69.6044 31.4032ZM83.6574 26.8258V36.1504H81.4566L81.4574 30.6437L79.376 34.672C79.0985 35.2104 78.6715 35.2072 78.1999 35.2072C77.8128 35.2072 77.4912 35.0185 77.3129 34.672L75.2313 30.6324L75.2322 36.1504H73.0313V26.6623C73.2527 26.6623 74.9602 26.6378 75.1905 26.6849C75.2316 26.6934 75.269 26.7041 75.3027 26.7171V26.7177C75.4786 26.7852 75.5803 26.9114 75.6657 27.0767L78.0236 31.7232L78.3435 32.3929L78.6729 31.7017L81.0976 26.9536L81.0971 26.9532C81.2962 26.6669 81.5504 26.6623 81.8716 26.6623H83.6574V26.8258Z" fill="#524945"/>
<path fill-rule="evenodd" clip-rule="evenodd" d="M35.6465 22.6315C36.2361 22.7198 36.8139 22.8742 37.3689 23.0919L38.0495 22.0605C38.1438 21.9177 38.3261 21.8609 38.4743 21.9466L39.8813 22.7589C40.0296 22.8446 40.0716 23.031 39.9952 23.1839L39.4412 24.291C39.9065 24.6631 40.329 25.0857 40.7011 25.5509L41.8082 24.997C41.9613 24.9205 42.1475 24.9625 42.2331 25.1108L43.0455 26.5177C43.131 26.6659 43.0741 26.8485 42.9315 26.9427L41.9001 27.6232C42.1177 28.1782 42.2721 28.756 42.3605 29.3455L43.5951 29.4194C43.7659 29.4295 43.9062 29.5591 43.9062 29.7303V31.3549C43.9062 31.5262 43.7658 31.6557 43.5951 31.666L42.3605 31.7399C42.2721 32.3294 42.1177 32.9072 41.9001 33.4622L42.9315 34.1427C43.0744 34.237 43.1309 34.4194 43.0453 34.5677L42.2331 35.9745C42.1475 36.1229 41.961 36.1647 41.8082 36.0884L40.7011 35.5345C40.329 35.9999 39.9064 36.4225 39.4409 36.7945L39.9949 37.9016C40.0715 38.0546 40.0293 38.2409 39.881 38.3266L38.4742 39.1389C38.3258 39.2244 38.1433 39.1677 38.0492 39.025L37.3686 37.9936C36.8136 38.2113 36.2359 38.3657 35.6463 38.454L35.5726 39.6887C35.5625 39.8593 35.4324 39.9998 35.2615 39.9998H33.6369C33.466 39.9998 33.336 39.8596 33.3258 39.6887L33.2521 38.454C32.6625 38.3657 32.0847 38.2113 31.5297 37.9936L30.8491 39.025C30.7551 39.1678 30.5723 39.2244 30.4243 39.1389L29.0173 38.3266C28.8693 38.2411 28.8268 38.0547 28.9034 37.9016L29.4572 36.7945C28.9919 36.4224 28.5694 35.9999 28.1973 35.5346L27.0902 36.0886C26.9374 36.165 26.7508 36.1227 26.6654 35.9747L25.8529 34.5677C25.7675 34.4197 25.824 34.237 25.967 34.1429L26.9984 33.4623C26.7807 32.9073 26.6263 32.3295 26.538 31.7399L25.3033 31.666C25.1327 31.6559 24.9922 31.526 24.9922 31.3549V29.7303C24.9922 29.5595 25.1324 29.4295 25.3033 29.4192L26.538 29.3455C26.6262 28.7559 26.7807 28.1782 26.9984 27.6232L25.9671 26.9427C25.8243 26.8486 25.7677 26.6659 25.8531 26.5177L26.6654 25.1107C26.7509 24.9627 26.9373 24.9202 27.0904 24.9968L28.1975 25.5508C28.5695 25.0854 28.9921 24.6628 29.4574 24.2907L28.9034 23.1836C28.8269 23.0308 28.8693 22.8442 29.0174 22.7586L30.4243 21.9463C30.5723 21.8608 30.7551 21.9171 30.8491 22.0602L31.5298 23.0916C32.0849 22.874 32.6627 22.7196 33.2523 22.6312L33.326 21.3966C33.3361 21.2258 33.4658 21.0854 33.6371 21.0854H35.2617C35.4329 21.0854 35.5625 21.2259 35.5728 21.3966L35.6465 22.6315ZM34.4492 24.9408C31.3553 24.9408 28.8474 27.4489 28.8474 30.5428C28.8474 33.6366 31.3555 36.1446 34.4492 36.1446C37.5429 36.1446 40.0512 33.6365 40.0512 30.5428C40.0512 27.4489 37.5429 24.9408 34.4492 24.9408ZM42.9296 14.7555C43.5573 13.0776 45.0767 13.8434 46.5957 13.3438C45.5271 14.8889 45.3617 15.862 43.3511 15.6206C43.6159 15.11 44.0752 15.2084 44.368 14.5959C43.9112 14.7644 43.4629 14.8768 42.9296 14.7555Z" fill="#2FA51C"/>
<path fill-rule="evenodd" clip-rule="evenodd" d="M46.2363 13.0941C46.5624 11.3326 48.2339 11.9171 49.6121 11.2406C48.4453 13.0395 48.8234 13.867 46.8472 13.8653C47.0191 13.3163 47.2988 13.303 47.5415 12.7323C47.0982 12.9094 46.802 13.0775 46.2363 13.0941ZM49.2603 10.901C49.323 9.11054 51.0395 9.38889 52.303 8.5166C51.4144 10.4678 51.9332 11.2838 49.9783 11.5735C50.0674 11.0051 50.3419 10.9508 50.4979 10.3506C50.0856 10.5912 49.8172 10.8011 49.2603 10.901Z" fill="#2FA51C"/>
<path fill-rule="evenodd" clip-rule="evenodd" d="M51.9082 8.20975C52.4412 6.77044 52.8197 6.96986 53.7805 6.34776C54.0658 6.16296 54.4118 5.9477 54.7233 5.60272C55.5368 4.70119 56.4902 3.11033 58.318 0.334504C58.5331 0.061692 58.4946 0.155553 58.4111 0.311424C56.0373 4.09925 54.742 5.92415 54.2737 7.13419C53.8596 8.20467 53.8776 8.47887 52.7025 8.83677C52.7674 8.26514 53.0422 8.2139 53.1722 7.6078C52.7708 7.86508 52.4603 8.08619 51.9082 8.20975Z" fill="#2FA51C"/>
<path fill-rule="evenodd" clip-rule="evenodd" d="M52.5266 9.38999C52.8191 9.28766 53.1599 9.22658 53.5586 9.01423C53.8583 8.85467 54.1968 8.55247 54.5373 8.23673C55.4276 7.41167 56.5766 5.93652 58.7963 2.70478C59.035 2.45212 58.9882 2.54214 58.8911 2.69001C56.3636 6.55462 54.6027 8.54539 54.0288 9.7085C53.5212 10.7373 53.1064 11.122 51.8129 11.1987C51.8178 11.18 51.8229 11.1618 51.8285 11.1436C51.9703 10.9905 52.0657 10.8057 52.1485 10.5839C52.3304 10.3854 52.5617 10.2304 52.8138 10.0742C52.6468 10.0561 52.4782 10.0569 52.3113 10.0764C52.3721 9.87114 52.4392 9.64295 52.5266 9.38999ZM48.6964 10.927C48.9192 10.5668 48.7281 10.2738 48.8552 9.84021C48.9508 9.51431 49.1782 9.12164 49.4182 8.72419C50.0456 7.68526 51.2947 6.28811 52.7101 3.34119C52.8788 3.01052 52.7792 3.09192 52.7054 3.24532C50.942 6.70402 49.2087 8.7682 48.2014 9.61141C47.4656 10.2272 46.9454 10.6003 46.9043 11.4563C47.147 11.3266 47.4301 11.2489 47.7334 11.182C47.8261 10.9007 47.9312 10.5749 48.0629 10.424C48.1103 10.5766 48.1236 10.8651 48.0965 11.1056C48.256 11.0737 48.4148 11.0382 48.5727 10.9993C48.6132 10.9762 48.6544 10.9519 48.6964 10.927Z" fill="#2FA51C"/>
<path fill-rule="evenodd" clip-rule="evenodd" d="M52.295 6.48166C52.9601 5.46673 55.143 3.47257 56.3535 0.229441C56.5222 -0.101226 56.4226 -0.0196748 56.3488 0.13358C55.2229 3.29623 52.1498 6.32471 51.1427 7.16761C50.407 7.78325 49.8979 8.10345 49.7126 9.16439C49.9553 9.03467 50.2386 8.95697 50.5417 8.89004C50.5889 8.5406 50.7697 8.02882 50.985 7.86634C51.0324 8.01913 50.9317 8.57322 50.9047 8.81372C51.0642 8.78173 51.2229 8.74628 51.3809 8.70739C51.7879 8.45212 51.6038 7.53644 52.295 6.48166ZM49.942 11.8948C50.9491 11.7029 51.2326 12.2569 52.781 11.5446C53.309 11.3016 54.1484 10.7389 54.9856 9.97098C56.1393 8.91296 57.3315 7.49474 58.077 6.26008C58.2409 5.99681 58.2835 6.07806 58.1849 6.27763C55.1807 10.9002 52.5786 11.6335 51.5231 12.7633C50.644 13.7039 50.1401 13.9259 48.7357 13.6943C49.0885 13.5235 49.2733 13.2376 49.4772 12.8299C49.7776 12.8123 50.0725 12.8951 50.5061 12.6492C50.3043 12.5609 49.6962 12.6497 49.6049 12.5672C49.7009 12.3669 49.808 12.1432 49.942 11.8948ZM45.8789 13.0164C46.3646 12.087 45.8609 11.8957 46.4584 10.912C45.2162 11.8236 44.1464 12.0949 44.0176 13.2746C44.2295 13.2047 44.4606 13.1675 44.7046 13.1404C44.8617 12.8477 45.0387 12.5708 45.3104 12.4457C45.237 12.636 45.1559 12.864 45.091 13.1041C45.4003 13.0775 45.5512 13.0838 45.8789 13.0164ZM46.5781 14.1415C47.4173 13.9533 47.4163 14.3601 48.8202 14.1558C47.3841 14.8762 47.2101 16.0527 45.6077 15.5982C45.7632 15.4383 45.8982 15.247 46.0294 15.0396C46.3613 15.0267 46.6878 14.9892 46.9194 14.7997C46.716 14.7822 46.4757 14.7551 46.2315 14.7083C46.3912 14.4417 46.3739 14.4063 46.5781 14.1415ZM45.1207 18.2446C46.6494 15.9639 48.6449 17.6426 51.0864 17.4343C48.9468 19.3611 48.3566 20.7539 45.4435 19.6836C46.0188 19.0156 46.6689 19.3245 47.3219 18.5148C46.5814 18.6046 45.8733 18.6139 45.1207 18.2446Z" fill="#2FA51C"/>
<path fill-rule="evenodd" clip-rule="evenodd" d="M50.6387 16.9335C51.7472 14.4217 54.0334 15.8838 56.3276 15.3617C53.9521 17.6322 54.2237 18.9998 51.2772 18.2993C51.7276 17.5413 52.1492 17.6202 52.7127 16.855C51.9892 16.9624 51.4882 17.1085 50.6387 16.9335ZM55.9229 14.7309C56.6487 12.0831 59.1102 13.1044 61.3024 12.25C59.288 14.8459 59.7733 16.246 56.7558 15.9877C57.0894 15.1715 57.5181 15.1874 57.9626 14.3476C57.2629 14.5605 56.7887 14.7787 55.9229 14.7309Z" fill="#2FA51C"/>
<path fill-rule="evenodd" clip-rule="evenodd" d="M60.8223 11.654C62.1254 9.6957 62.6196 10.127 64.272 9.53845C64.7629 9.3638 65.3548 9.16485 65.9411 8.76017C67.4725 7.70323 69.4564 5.66737 73.1625 2.17344C73.5798 1.84246 73.4892 1.96879 73.3096 2.1719C68.4318 6.98204 65.8557 9.24594 64.7298 10.885C63.7341 12.335 63.6643 12.7505 61.7853 12.8688C62.0842 12.0395 62.5119 12.0601 62.9201 11.2021C62.2303 11.4447 61.6893 11.6648 60.8223 11.654Z" fill="#2FA51C"/>
<path fill-rule="evenodd" clip-rule="evenodd" d="M61.331 13.633C61.8034 13.5839 62.3332 13.613 63.0028 13.4371C63.5061 13.305 64.1176 12.9738 64.7371 12.6235C66.3561 11.7076 68.5906 9.91367 73.0422 5.87826C73.4874 5.58575 73.3858 5.70346 73.1889 5.88965C68.0545 10.7601 64.7257 13.1068 63.4589 14.6387C62.3382 15.9935 61.5838 16.4207 59.628 16.0785C59.642 16.0523 59.656 16.0269 59.6706 16.0019C59.9363 15.8237 60.1439 15.5818 60.3455 15.2802C60.6867 15.0485 61.0863 14.8991 61.5176 14.7552C61.2268 14.6558 61.0197 14.6123 60.7674 14.581C60.9306 14.296 61.1114 13.9797 61.331 13.633ZM55.0763 14.5724C55.5359 14.114 55.3544 13.6095 55.697 13.0078C55.9546 12.5556 56.4325 12.0505 56.9309 11.5424C58.2336 10.2146 60.5898 8.57238 63.7414 4.67761C64.1097 4.244 63.9325 4.33032 63.7682 4.53312C59.9168 9.06815 56.6029 11.5342 54.8029 12.4358C53.4881 13.0942 52.5805 13.4668 52.2168 14.7289C52.6246 14.6213 53.0743 14.6055 53.5499 14.6126C53.7875 14.2259 54.0594 13.7772 54.3091 13.5986C54.3259 13.8431 54.2436 14.2779 54.1183 14.627C54.3633 14.6341 54.6132 14.6403 54.866 14.6367C54.9348 14.6164 55.0049 14.5947 55.0763 14.5724Z" fill="#2FA51C"/>
<path fill-rule="evenodd" clip-rule="evenodd" d="M62.0113 9.21411C63.3615 7.93544 67.3214 5.73263 70.272 1.32409C70.6403 0.890487 70.4629 0.976808 70.2987 1.17961C67.6626 5.34473 61.8502 8.92898 60.0507 9.83036C58.7363 10.4886 57.8639 10.7864 57.2128 12.3029C57.6206 12.1952 58.0704 12.1795 58.546 12.1866C58.7397 11.682 59.1904 10.9828 59.5687 10.8167C59.5855 11.0612 59.2396 11.8519 59.1144 12.201C59.3593 12.2081 59.6092 12.2144 59.862 12.2107C60.5591 11.9735 60.608 10.5429 62.0113 9.21411ZM56.4992 16.4249C58.0688 16.4945 58.3869 17.4511 60.9477 16.9359C61.8211 16.7602 63.3076 16.2175 64.8273 15.368C66.9213 14.1977 69.1644 12.504 70.712 10.9259C71.0495 10.5911 71.0843 10.7276 70.8667 10.9902C64.702 16.8499 60.6712 16.9873 58.6412 18.3089C56.9877 19.3854 56.0924 19.5619 54.0797 18.7205C54.6663 18.5904 55.0579 18.1537 55.5058 17.6176C55.9602 17.6973 56.4313 17.9935 57.1648 17.7799C56.8951 17.577 55.8657 17.4642 55.7588 17.3088C55.9729 17.0438 56.2116 16.7479 56.4992 16.4249ZM50.1348 16.6928C51.1871 15.4785 50.5038 15.0152 51.7421 13.7594C49.5676 14.68 47.8764 14.7067 47.2676 16.4205C47.6082 16.3912 47.966 16.4172 48.3394 16.4631C48.677 16.0823 49.0388 15.7316 49.4884 15.641C49.3116 15.8989 49.1103 16.2103 48.9285 16.5453C49.3996 16.615 49.6224 16.6774 50.1348 16.6928ZM50.7801 18.6176C52.098 18.6333 51.9528 19.2397 54.1187 19.4308C51.7226 19.998 51.0476 21.691 48.8184 20.447C49.1069 20.2635 49.3756 20.0258 49.6447 19.7628C50.1442 19.8609 50.6444 19.9201 51.0568 19.7196C50.7597 19.6216 50.4108 19.4963 50.0631 19.3403C50.3953 18.9993 50.3821 18.9403 50.7801 18.6176ZM51.2564 21.8275C52.8497 20.4088 54.0248 22.0598 55.902 22.3776C53.9179 23.4111 53.203 24.3443 51.2194 22.9729C51.7821 22.5822 52.2111 22.9409 52.8598 22.4587C52.2853 22.3823 51.7509 22.2517 51.2564 21.8275Z" fill="#2FA51C"/>
<path fill-rule="evenodd" clip-rule="evenodd" d="M55.6621 21.9133C56.9843 20.2391 58.4201 21.7835 60.2476 21.8367C58.0192 23.0831 57.9575 24.1648 55.8771 23.0651C56.3631 22.5824 56.665 22.7238 57.2377 22.2575C56.6724 22.1978 56.2671 22.2102 55.6621 21.9133ZM60.0657 21.2836C61.1265 19.4326 62.7798 20.6796 64.5952 20.4628C62.5752 22.0243 62.6683 23.1718 60.4481 22.391C60.8577 21.8418 61.1771 21.937 61.6749 21.3916C61.107 21.4159 60.7078 21.4879 60.0657 21.2836Z" fill="#2FA51C"/>
<path fill-rule="evenodd" clip-rule="evenodd" d="M64.3516 19.9214C65.7127 18.7015 66.0006 19.122 67.3582 19.0005C67.7613 18.9645 68.2454 18.9299 68.7652 18.7394C70.1228 18.2419 72.0111 17.096 75.4784 15.1877C75.8566 15.0199 75.7638 15.0973 75.5893 15.2151C70.9845 17.8857 68.6064 19.0882 67.4407 20.1024C66.4097 20.9997 66.2763 21.2987 64.8398 21.0225C65.2259 20.4566 65.5437 20.5554 66.0175 19.9891C65.4516 20.0376 65.0017 20.098 64.3516 19.9214Z" fill="#2FA51C"/>
<path fill-rule="evenodd" clip-rule="evenodd" d="M64.3474 21.5086C64.7124 21.5635 65.1052 21.6883 65.6431 21.6863C66.0475 21.6846 66.572 21.5545 67.1061 21.411C68.5022 21.0368 70.5319 20.1215 74.6655 17.9508C75.0572 17.8173 74.9578 17.8862 74.7735 17.9879C69.9184 20.616 67.0489 21.6966 65.7527 22.6786C64.6637 23.5038 63.9956 23.6548 62.5906 23.017C62.6062 23.0002 62.6217 22.9836 62.6376 22.9676C62.8721 22.8853 63.0752 22.7436 63.2857 22.5558C63.5874 22.4478 63.9172 22.4131 64.2695 22.3887C64.07 22.2573 63.9227 22.1844 63.739 22.1118C63.9172 21.9296 64.1149 21.7268 64.3474 21.5086ZM59.4592 20.9994C59.8941 20.7439 59.8556 20.329 60.2303 19.9431C60.512 19.6529 60.9698 19.3658 61.4434 19.0805C62.6814 18.3349 64.7734 17.5574 67.9015 15.2398C68.2629 14.9851 68.1127 15.0156 67.9498 15.1362C64.1707 17.7994 61.1981 19.0105 59.6686 19.3389C58.5514 19.5786 57.7963 19.6826 57.2773 20.5614C57.6049 20.5597 57.9464 20.6352 58.3029 20.7329C58.5568 20.4883 58.8485 20.2036 59.0712 20.1176C59.0362 20.3049 58.8898 20.616 58.7277 20.8543C58.9107 20.9073 59.0975 20.9605 59.2883 21.007C59.3441 21.005 59.4012 21.0024 59.4592 20.9994Z" fill="#2FA51C"/>
<path fill-rule="evenodd" clip-rule="evenodd" d="M65.7197 18.316C66.9841 17.6165 70.3914 16.729 73.4682 13.9858C73.8296 13.7311 73.6795 13.7618 73.5165 13.8822C70.8125 16.2808 66.68 17.8752 64.125 18.3983C63.0059 18.6276 62.294 18.6924 61.5094 19.7069C61.837 19.7052 62.1784 19.7807 62.5351 19.8786C62.779 19.5367 63.2538 19.0981 63.5708 19.0468C63.5359 19.2339 63.122 19.7616 62.9598 19.9998C63.1427 20.0528 63.3295 20.1061 63.5203 20.1525C64.0907 20.1097 64.4055 19.0431 65.7197 18.316ZM60.2337 22.7101C61.4009 23.0675 61.3917 23.8086 63.4185 23.9186C64.1098 23.9561 65.3063 23.8298 66.6148 23.4862C68.4177 23.0128 70.4616 22.1817 71.9326 21.2953C72.2515 21.1091 72.2512 21.2183 72.0364 21.3737C66.3306 24.6387 63.0919 23.9648 61.4161 24.5033C59.9564 24.9725 59.3135 24.9595 57.963 23.9354C58.4295 23.9515 58.783 23.753 59.2243 23.4368C59.5503 23.5853 59.815 23.8364 60.4083 23.8183C60.2449 23.613 59.5549 23.3687 59.5046 23.2311C59.7174 23.0734 59.9545 22.8972 60.2337 22.7101ZM55.3309 21.6338C56.3587 20.9247 55.9345 20.4434 57.1104 19.7393C55.2956 20.0092 54.0181 19.7004 53.2267 20.8715C53.4887 20.9158 53.7528 21.0049 54.0248 21.112C54.3529 20.891 54.6931 20.6976 55.049 20.7169C54.8659 20.8766 54.6538 21.0717 54.452 21.2883C54.7928 21.4324 54.9482 21.5227 55.3309 21.6338ZM55.4423 23.2074C56.4307 23.4754 56.2035 23.9034 57.7959 24.4682C55.883 24.4291 55.0461 25.5716 53.6108 24.2025C53.8634 24.1206 54.1119 23.994 54.3653 23.8484C54.722 24.0192 55.087 24.1611 55.4361 24.0903C55.2316 23.9589 54.9936 23.7967 54.7623 23.6118C55.0785 23.4197 55.0801 23.3728 55.4423 23.2074ZM34.4493 23.898C38.1191 23.898 41.0939 26.8728 41.0939 30.5426C41.0939 34.2124 38.1191 37.1871 34.4493 37.1871C30.7795 37.1871 27.8047 34.2124 27.8047 30.5426C27.8047 26.8728 30.7795 23.898 34.4493 23.898ZM34.4493 25.0457C31.4134 25.0457 28.9524 27.5065 28.9524 30.5424C28.9524 33.5783 31.4134 36.0393 34.4493 36.0393C37.4851 36.0393 39.9461 33.5783 39.9461 30.5424C39.9461 27.5065 37.4851 25.0457 34.4493 25.0457Z" fill="#2FA51C"/>
</g>
<defs>
<clipPath id="clip0_1281_21525">
<rect width="83.3936" height="40" fill="white" transform="translate(0.265625)"/>
</clipPath>
</defs>
</svg>
