<svg width="210" height="210" viewBox="0 0 210 210" fill="none" xmlns="http://www.w3.org/2000/svg">
<circle cx="105" cy="105" r="49.5" stroke="#ECF0F4"/>
<circle opacity="0.7" cx="105" cy="105" r="78.5" stroke="#ECF0F4"/>
<circle opacity="0.5" cx="105" cy="105" r="104.5" stroke="#ECF0F4"/>
<rect x="79" y="79" width="52" height="52" rx="26" fill="#ECF0F4"/>
<path d="M117 117L111.213 111.213M114.333 103.667C114.333 105.776 113.708 107.839 112.536 109.593C111.364 111.347 109.698 112.714 107.749 113.521C105.8 114.329 103.655 114.54 101.586 114.128C99.5166 113.717 97.616 112.701 96.1242 111.209C94.6324 109.717 93.6165 107.817 93.205 105.748C92.7934 103.678 93.0046 101.534 93.812 99.5847C94.6193 97.6356 95.9865 95.9697 97.7406 94.7977C99.4947 93.6256 101.557 93 103.667 93C106.496 93 109.209 94.1238 111.209 96.1242C113.21 98.1246 114.333 100.838 114.333 103.667Z" stroke="#2C2C31" stroke-width="2.5" stroke-linecap="round" stroke-linejoin="round"/>
<g opacity="0.8">
<rect x="159" y="7" width="38.0026" height="38" rx="10.44" fill="#ECF0F4"/>
<g opacity="0.5">
<path d="M184.046 35.0719H171.955C171.688 35.0719 171.431 34.9658 171.242 34.7768C171.053 34.5878 170.947 34.3316 170.947 34.0643V17.9431C170.947 17.6759 171.053 17.4196 171.242 17.2307C171.431 17.0417 171.688 16.9355 171.955 16.9355H179.008L185.053 22.981V34.0643C185.053 34.3316 184.947 34.5878 184.758 34.7768C184.569 34.9658 184.313 35.0719 184.046 35.0719ZM185.053 22.981L179.008 16.9355L178 21.9734L185.053 22.981Z" stroke="#8C8C8C" stroke-width="2" stroke-linecap="round" stroke-linejoin="round"/>
</g>
</g>
<g opacity="0.8">
<rect x="129" y="155" width="47" height="46.9967" rx="10.44" fill="#ECF0F4"/>
<g opacity="0.5">
<path d="M141.037 189.962L157.086 173.913M157.086 173.913H159.379C160.595 173.913 161.761 173.43 162.621 172.57C163.481 171.71 163.964 170.544 163.964 169.328V167.035H161.671C160.455 167.035 159.289 167.518 158.429 168.378C157.569 169.238 157.086 170.404 157.086 171.621V173.913ZM142.722 179.106L144.476 177.352L146.23 179.106C146.979 179.858 147.4 180.876 147.4 181.938C147.4 182.999 146.979 184.017 146.23 184.769L144.476 186.523L142.722 184.769C141.973 184.017 141.553 182.999 141.553 181.938C141.553 180.876 141.973 179.858 142.722 179.106ZM147.308 174.521L149.061 172.767L150.815 174.521C151.564 175.273 151.985 176.291 151.985 177.352C151.985 178.414 151.564 179.432 150.815 180.184L149.061 181.938L147.308 180.184C146.559 179.432 146.138 178.414 146.138 177.352C146.138 176.291 146.559 175.273 147.308 174.521ZM151.893 169.935L153.647 168.181L155.401 169.935C156.15 170.687 156.57 171.705 156.57 172.767C156.57 173.828 156.15 174.846 155.401 175.598L153.647 177.352L151.893 175.598C151.144 174.846 150.723 173.828 150.723 172.767C150.723 171.705 151.144 170.687 151.893 169.935Z" stroke="#8C8C8C" stroke-width="2.5" stroke-linecap="round" stroke-linejoin="round"/>
<path d="M151.893 184.77L153.647 186.524L151.893 188.278C151.141 189.027 150.123 189.447 149.062 189.447C148.001 189.447 146.982 189.027 146.23 188.278L144.477 186.524L146.23 184.77C146.982 184.021 148.001 183.6 149.062 183.6C150.123 183.6 151.141 184.021 151.893 184.77ZM156.479 180.185L158.233 181.939L156.479 183.692C155.727 184.441 154.709 184.862 153.647 184.862C152.586 184.862 151.568 184.441 150.816 183.692L149.062 181.939L150.816 180.185C151.568 179.436 152.586 179.015 153.647 179.015C154.709 179.015 155.727 179.436 156.479 180.185ZM161.064 175.599L162.818 177.353L161.064 179.107C160.312 179.856 159.294 180.277 158.233 180.277C157.171 180.277 156.153 179.856 155.401 179.107L153.647 177.353L155.401 175.599C156.153 174.85 157.171 174.43 158.233 174.43C159.294 174.43 160.312 174.85 161.064 175.599Z" stroke="#8C8C8C" stroke-width="2.5" stroke-linecap="round" stroke-linejoin="round"/>
</g>
</g>
<g opacity="0.8">
<rect x="29" y="35" width="29.6885" height="29.6885" rx="8" fill="#ECF0F4"/>
<g opacity="0.5">
<path d="M50.1279 54.7925V44.8963C50.1279 44.7088 50.0535 44.5291 49.9209 44.3965C49.7883 44.2639 49.6085 44.1895 49.4211 44.1895H38.1112C37.9237 44.1895 37.7439 44.2639 37.6113 44.3965C37.4788 44.5291 37.4043 44.7088 37.4043 44.8963V54.7925M50.1279 54.7925C50.1279 54.98 50.0535 55.1597 49.9209 55.2923C49.7883 55.4249 49.6085 55.4993 49.4211 55.4993M50.1279 54.7925V52.481L46.0917 48.4307L42.7129 51.8236L46.3886 55.4993M49.4211 55.4993H38.1112M49.4211 55.4993H46.3886M38.1112 55.4993C37.9237 55.4993 37.7439 55.4249 37.6113 55.2923C37.4788 55.1597 37.4043 54.98 37.4043 54.7925M38.1112 55.4993H46.3886M37.4043 54.7925V53.1738L40.7336 49.8444L46.3886 55.4993" stroke="#8C8C8C" stroke-width="2" stroke-linecap="round" stroke-linejoin="round"/>
</g>
</g>
</svg>
