<?xml version="1.0" encoding="utf-8"?><svg width="25" height="25" fill="none" xmlns="http://www.w3.org/2000/svg" viewBox="0 0 25 25"><g clip-path="url(#ahclip0_1194_60781)"><path fill-rule="evenodd" clip-rule="evenodd" d="M17.81 1.454a25.674 25.674 0 00-11.201 0l-.398.088A5.75 5.75 0 001.893 5.74a22.821 22.821 0 000 11.227 5.75 5.75 0 004.037 4.127l.545 3.254a.586.586 0 00.968.34l3.202-2.864a25.67 25.67 0 007.165-.57l.399-.089a5.75 5.75 0 004.319-4.197 22.824 22.824 0 000-11.227 5.75 5.75 0 00-4.32-4.197l-.398-.089zM7.598 5.644a.964.964 0 00-.63.124h-.016c-.44.258-.836.583-1.173.965-.282.325-.434.653-.474.97-.023.187-.007.377.048.557l.021.011c.317.93.73 1.824 1.234 2.666a15.678 15.678 0 002.38 3.253l.028.04.044.033.027.032.033.028c.98.932 2.077 1.736 3.261 2.391 1.354.738 2.176 1.086 2.67 1.231v.007c.144.045.275.065.408.065.42-.031.818-.202 1.13-.486a4.62 4.62 0 00.954-1.177v-.008c.236-.445.156-.865-.184-1.15a14.212 14.212 0 00-2.205-1.582c-.525-.285-1.059-.113-1.275.175l-.46.582c-.237.288-.666.248-.666.248l-.012.007c-3.201-.817-4.056-4.058-4.056-4.058s-.04-.441.257-.666l.576-.464c.277-.225.47-.758.173-1.283a13.841 13.841 0 00-1.58-2.204.877.877 0 00-.515-.308l.002.001zm5.41-1.409a.586.586 0 100 1.172c1.482 0 2.713.484 3.687 1.413.5.508.891 1.109 1.147 1.768.257.66.374 1.364.343 2.07a.59.59 0 00.562.61.587.587 0 00.61-.56 6.281 6.281 0 00-.423-2.545 6.38 6.38 0 00-1.411-2.173l-.012-.012c-1.208-1.154-2.738-1.743-4.504-1.743zm-.04 1.927a.586.586 0 100 1.173h.02c1.069.076 1.847.432 2.392 1.017.56.603.849 1.352.826 2.278a.586.586 0 101.173.027c.028-1.216-.364-2.265-1.14-3.102v-.002c-.793-.851-1.882-1.302-3.193-1.39l-.02-.002-.059.001zm-.023 1.964a.586.586 0 10-.06 1.17c.49.026.802.173 1 .371.197.2.345.52.372 1.02a.586.586 0 101.17-.062c-.038-.703-.258-1.324-.71-1.782-.453-.457-1.07-.68-1.772-.717z" fill="#754A91"/></g><defs><clipPath id="ahclip0_1194_60781"><path fill="#fff" transform="translate(.31 .5)" d="M0 0h24v24H0z"/></clipPath></defs></svg>