<?xml version="1.0" encoding="utf-8"?><svg width="20" height="21" fill="none" xmlns="http://www.w3.org/2000/svg" viewBox="0 0 20 21"><path d="M4.167 6.197H5a1.667 1.667 0 001.667-1.666.833.833 0 01.833-.834h5a.833.833 0 01.833.834A1.667 1.667 0 0015 6.197h.833A1.666 1.666 0 0117.5 7.864v7.5a1.666 1.666 0 01-1.667 1.667H4.167A1.667 1.667 0 012.5 15.364v-7.5a1.667 1.667 0 011.667-1.667z" stroke="currentColor" stroke-width="1.667" stroke-linecap="round" stroke-linejoin="round"/><path d="M7.5 11.197a2.5 2.5 0 105 0 2.5 2.5 0 00-5 0z" stroke="currentColor" stroke-width="1.667" stroke-linecap="round" stroke-linejoin="round"/></svg>