<?xml version="1.0" encoding="utf-8"?><svg width="24" height="25" fill="none" xmlns="http://www.w3.org/2000/svg" viewBox="0 0 24 25"><path d="M14.996 14.497l-.74.123a.75.75 0 01.74-.873v.75zm-11 0v.75a.75.75 0 01-.75-.75h.75zm2-10.75h11.36v1.5H5.996v-1.5zm12.56 11.5h-3.56v-1.5h3.56v1.5zm-2.82-.873l.806 4.835-1.48.247-.806-4.836 1.48-.246zm-.92 6.873h-.214v-1.5h.213l.001 1.5zm-3.335-1.67l-2.515-3.773 1.248-.832 2.515 3.773-1.248.832zm-3.555-4.33h-3.93v-1.5h3.93v1.5zm-4.68-.75v-8h1.5v8h-1.5zm16.807-8.54l1.2 6-1.47.295-1.2-6 1.47-.295zM8.966 15.804a1.248 1.248 0 00-1.04-.556v-1.5c.92 0 1.778.459 2.288 1.224l-1.248.832zm7.576 3.405a1.753 1.753 0 01-.99 1.876 1.75 1.75 0 01-.736.162v-1.5a.253.253 0 00.19-.089.25.25 0 00.056-.202l1.48-.247zm2.014-5.461c.79 0 1.38-.722 1.226-1.495l1.471-.295a2.754 2.754 0 01-1.52 3.025c-.368.174-.77.264-1.177.264v-1.499zm-1.2-10a2.75 2.75 0 012.697 2.21l-1.47.295a1.25 1.25 0 00-1.227-1.006v-1.5zm-2.754 17.499a3.748 3.748 0 01-3.12-1.669l1.247-.833a2.252 2.252 0 001.873 1.002v1.5zm-8.606-16c-.69 0-1.25.56-1.25 1.25h-1.5a2.75 2.75 0 012.75-2.75v1.5z" fill="currentColor"/><path d="M7.996 14.498v-10" stroke="currentColor" stroke-width="1.5"/></svg>