<?xml version="1.0" encoding="utf-8"?><svg width="65" height="65" fill="none" xmlns="http://www.w3.org/2000/svg" viewBox="0 0 65 65"><rect x=".625" y=".115" width="64" height="63.996" rx="12.441" fill="#F8F1EC"/><path d="M17.016 47.721l21.853-21.853m0 0h3.122a6.244 6.244 0 006.244-6.244v-3.122h-3.122a6.244 6.244 0 00-6.244 6.244v3.122zM19.31 32.939l2.389-2.388 2.388 2.388a5.463 5.463 0 010 7.711l-2.388 2.389-2.389-2.389a5.463 5.463 0 010-7.711zm6.244-6.244l2.389-2.388 2.388 2.388a5.463 5.463 0 010 7.711l-2.389 2.389-2.388-2.389a5.463 5.463 0 010-7.71zm6.244-6.244l2.388-2.388 2.389 2.388a5.463 5.463 0 010 7.711l-2.389 2.389-2.388-2.389a5.463 5.463 0 010-7.71zM31.799 40.65l2.388 2.389-2.388 2.388a5.463 5.463 0 01-7.712 0L21.7 43.04l2.388-2.388a5.464 5.464 0 017.712 0zm6.244-6.243l2.388 2.388-2.388 2.388a5.463 5.463 0 01-7.712 0l-2.388-2.388 2.388-2.388a5.464 5.464 0 017.712 0zm6.243-6.244l2.389 2.388-2.389 2.389a5.463 5.463 0 01-7.71 0l-2.389-2.389 2.388-2.388a5.464 5.464 0 017.711 0z" stroke="#FCB040" stroke-width="3.122" stroke-linecap="round" stroke-linejoin="round"/></svg>