<?xml version="1.0" encoding="utf-8"?><svg width="65" height="65" fill="none" xmlns="http://www.w3.org/2000/svg" viewBox="0 0 65 65"><rect x=".625" y=".107" width="64" height="63.996" rx="12.441" fill="#F8F1EC"/><g clip-path="url(#bhclip0_1523_30017)"><path d="M44.882 19.85c-2.45-2.455-6.055-3.433-10.139-2.752-3.938.657-7.883 2.793-11.106 6.017-3.224 3.223-5.36 7.17-6.017 11.106-.68 4.084.292 7.684 2.752 10.14 1.945 1.945 4.61 2.962 7.663 2.962.83-.002 1.658-.073 2.476-.21 3.938-.657 7.883-2.794 11.107-6.017 3.223-3.224 5.36-7.17 6.017-11.107.68-4.084-.297-7.688-2.753-10.139zm-19.59 4.92c3.612-3.612 8.067-5.552 11.893-5.552a9.111 9.111 0 014.244.976 15.879 15.879 0 00-4.544 2.479c-2.81 2.218-4.628 5.315-5.405 9.202-1.422 7.109-6.541 9.538-9.874 10.366-3.508-4.172-1.944-11.84 3.686-17.471zm14.67 14.67c-5.076 5.075-11.81 6.846-16.142 4.576a15.906 15.906 0 004.549-2.478c2.81-2.219 4.628-5.315 5.405-9.203 1.423-7.109 6.541-9.538 9.874-10.366 3.508 4.172 1.944 11.84-3.686 17.472z" fill="#FCB040"/></g><g clip-path="url(#bhclip1_1523_30017)"><g clip-path="url(#bhclip2_1523_30017)"><path d="M45.297 19.443c-2.593-2.591-6.377-3.628-10.649-2.915-4.059.676-8.115 2.871-11.425 6.18-3.31 3.308-5.503 7.366-6.18 11.425-.712 4.274.324 8.055 2.916 10.648 2.057 2.058 4.865 3.134 8.074 3.134a15.721 15.721 0 002.574-.219c4.059-.676 8.115-2.871 11.425-6.18 3.31-3.308 5.504-7.366 6.18-11.425.712-4.271-.324-8.055-2.915-10.648zm-24.79 15.266c.556-3.342 2.403-6.722 5.2-9.511 2.796-2.789 6.176-4.646 9.518-5.206a12 12 0 011.978-.172 9.192 9.192 0 012.67.377 16.094 16.094 0 00-3.35 2.023c-2.927 2.308-4.811 5.52-5.616 9.548-1.31 6.545-5.897 8.94-9.083 9.817-1.305-1.742-1.772-4.145-1.317-6.876zm24.241-5.194c-.556 3.342-2.403 6.722-5.199 9.518-2.796 2.797-6.177 4.639-9.519 5.2-1.704.283-3.277.206-4.646-.208a16.008 16.008 0 003.347-2.021c2.926-2.308 4.813-5.52 5.617-9.548 1.317-6.545 5.898-8.94 9.083-9.817 1.305 1.742 1.772 4.145 1.317 6.876z" fill="#FCB040"/></g></g><defs><clipPath id="bhclip0_1523_30017"><path fill="#fff" transform="translate(13.895 13.373)" d="M0 0h37.463v37.463H0z"/></clipPath><clipPath id="bhclip1_1523_30017"><path fill="#fff" transform="translate(13.895 13.379)" d="M0 0h37.463v37.463H0z"/></clipPath><clipPath id="bhclip2_1523_30017"><path fill="#fff" transform="translate(13.896 13.38)" d="M0 0h37.46v37.46H0z"/></clipPath></defs></svg>