<?xml version="1.0" encoding="utf-8"?><svg width="18" height="21" fill="none" xmlns="http://www.w3.org/2000/svg" viewBox="0 0 18 21"><path fill-rule="evenodd" clip-rule="evenodd" d="M4.293 9.12a4.708 4.708 0 119.417 0 4.708 4.708 0 01-9.417 0zM9.001 5.9a3.221 3.221 0 100 6.443 3.221 3.221 0 000-6.443z" fill="#8C8C8C"/><path fill-rule="evenodd" clip-rule="evenodd" d="M.6 7.99A8.215 8.215 0 018.788.45h.428a8.215 8.215 0 018.188 7.54 8.865 8.865 0 01-1.973 6.34l-4.75 5.809a2.168 2.168 0 01-3.357 0l-4.751-5.81A8.865 8.865 0 01.6 7.99zm8.188-6.054a6.728 6.728 0 00-6.705 6.175 7.378 7.378 0 001.642 5.277l4.75 5.81a.682.682 0 001.055 0l4.751-5.81a7.378 7.378 0 001.64-5.277 6.729 6.729 0 00-6.706-6.175h-.427z" fill="#8C8C8C"/></svg>