<?xml version="1.0" encoding="utf-8"?><svg width="24" height="25" fill="none" xmlns="http://www.w3.org/2000/svg" viewBox="0 0 24 25"><path d="M15 10.495l-.74-.123a.749.749 0 00.74.873v-.75zm-11 0v-.75a.75.75 0 00-.75.75H4zm2 10.75h11.36v-1.5H6v1.5zm12.56-11.5H15v1.5h3.56v-1.5zm-2.82.873l.806-4.835-1.48-.247-.806 4.836 1.48.246zm-.92-6.873h-.214v1.5h.213l.001-1.5zm-3.335 1.67L8.97 9.188l1.248.832 2.515-3.773-1.248-.832zM7.93 9.745H4v1.5h3.93v-1.5zm-4.68.75v8h1.5v-8h-1.5zm16.807 8.54l1.2-6-1.47-.295-1.2 6 1.47.295zM8.97 9.188a1.247 1.247 0 01-1.04.556v1.5c.92 0 1.778-.459 2.288-1.224L8.97 9.188zm7.576-3.405a1.753 1.753 0 00-.99-1.876 1.75 1.75 0 00-.736-.162l-.001 1.5a.255.255 0 01.191.089.25.25 0 01.056.202l1.48.247zm2.014 5.461c.79 0 1.38.722 1.226 1.495l1.471.295a2.754 2.754 0 00-1.52-3.025 2.75 2.75 0 00-1.177-.264v1.5zm-1.2 10.001a2.75 2.75 0 002.697-2.21l-1.47-.296a1.25 1.25 0 01-1.227 1.006v1.5zm-2.754-17.5a3.75 3.75 0 00-3.12 1.67l1.247.832a2.253 2.253 0 011.873-1.002v-1.5zM6 19.745c-.69 0-1.25-.56-1.25-1.25h-1.5A2.75 2.75 0 006 21.245v-1.5z" fill="currentColor"/><path d="M8 10.494v10" stroke="currentColor" stroke-width="1.5"/></svg>