<?xml version="1.0" encoding="utf-8"?><svg width="25" height="25" fill="none" xmlns="http://www.w3.org/2000/svg" viewBox="0 0 25 25"><g clip-path="url(#bmclip0_1194_60778)"><path d="M12.31.5a11.998 11.998 0 00-8.484 20.485 11.999 11.999 0 1016.969-16.97A11.998 11.998 0 0012.31.5z" fill="url(#bmpaint0_linear_1194_60778)"/><path d="M5.741 12.374A584.088 584.088 0 0112.74 9.36c3.334-1.386 4.026-1.627 4.477-1.635.1-.002.321.023.465.14.12.098.154.23.171.324.015.094.036.307.019.473-.18 1.897-.962 6.502-1.36 8.627-.166.9-.498 1.2-.819 1.23-.697.065-1.226-.46-1.901-.902-1.056-.693-1.652-1.124-2.678-1.8-1.185-.78-.416-1.21.259-1.91.176-.184 3.248-2.977 3.306-3.23.007-.032.015-.15-.057-.212-.069-.063-.172-.041-.247-.024-.107.023-1.793 1.139-5.063 3.345-.478.329-.91.49-1.3.48-.428-.008-1.253-.241-1.866-.44-.75-.245-1.349-.374-1.296-.789.026-.216.324-.437.892-.663z" fill="#fff"/></g><defs><linearGradient id="bmpaint0_linear_1194_60778" x1="1200.31" y1=".5" x2="1200.31" y2="2400.5" gradientUnits="userSpaceOnUse"><stop stop-color="#2AABEE"/><stop offset="1" stop-color="#229ED9"/></linearGradient><clipPath id="bmclip0_1194_60778"><path fill="#fff" transform="translate(.31 .5)" d="M0 0h24v24H0z"/></clipPath></defs></svg>