<?xml version="1.0" encoding="utf-8"?><svg width="25" height="25" fill="none" xmlns="http://www.w3.org/2000/svg" viewBox="0 0 25 25"><g clip-path="url(#bnclip0_1194_60774)"><path d="M1 12.356c0 2.017.526 3.986 1.528 5.721l-1.624 5.93 6.068-1.591a11.442 11.442 0 005.47 1.392h.005c6.309 0 11.444-5.133 11.446-11.443a11.372 11.372 0 00-3.35-8.095A11.374 11.374 0 0012.448.914C6.137.914 1.003 6.047 1 12.356" fill="url(#bnpaint0_linear_1194_60774)"/><path d="M.594 12.353c-.001 2.089.545 4.128 1.582 5.926L.494 24.42l6.286-1.648a11.852 11.852 0 005.666 1.442h.005c6.535 0 11.854-5.317 11.857-11.853a11.782 11.782 0 00-3.47-8.386A11.783 11.783 0 0012.451.5C5.915.5.596 5.817.594 12.353zm3.743 5.616l-.235-.373a9.826 9.826 0 01-1.506-5.243c.002-5.432 4.423-9.851 9.859-9.851a9.791 9.791 0 016.967 2.89 9.792 9.792 0 012.884 6.97c-.002 5.432-4.423 9.851-9.855 9.851h-.004a9.844 9.844 0 01-5.016-1.373l-.36-.213-3.73.978.996-3.636z" fill="url(#bnpaint1_linear_1194_60774)"/><path d="M9.485 7.398c-.222-.494-.455-.504-.666-.512-.173-.008-.37-.007-.568-.007-.198 0-.519.074-.79.37-.272.297-1.037 1.014-1.037 2.471 0 1.458 1.061 2.867 1.21 3.064.148.198 2.05 3.285 5.06 4.472 2.503.987 3.012.791 3.556.741.543-.049 1.753-.716 2-1.408.246-.691.246-1.284.172-1.408-.074-.124-.271-.198-.568-.346-.296-.148-1.753-.865-2.024-.964-.272-.099-.47-.148-.667.149-.197.296-.765.963-.938 1.16-.172.199-.345.223-.641.075-.297-.149-1.251-.46-2.383-1.47-.88-.785-1.476-1.755-1.648-2.052-.173-.296-.019-.457.13-.604.133-.133.296-.346.444-.52.148-.172.197-.296.296-.493.1-.198.05-.37-.024-.52-.075-.147-.65-1.613-.914-2.198z" fill="#fff"/></g><defs><linearGradient id="bnpaint0_linear_1194_60774" x1="1150.36" y1="2310.17" x2="1150.36" y2=".914" gradientUnits="userSpaceOnUse"><stop stop-color="#1FAF38"/><stop offset="1" stop-color="#60D669"/></linearGradient><linearGradient id="bnpaint1_linear_1194_60774" x1="1191.19" y1="2392.57" x2="1191.19" y2=".5" gradientUnits="userSpaceOnUse"><stop stop-color="#1FAF38"/><stop offset="1" stop-color="#60D669"/></linearGradient><clipPath id="bnclip0_1194_60774"><path fill="#fff" transform="translate(.49 .5)" d="M0 0h23.82v24H0z"/></clipPath></defs></svg>