<?xml version="1.0" encoding="utf-8"?><svg width="65" height="41" fill="none" xmlns="http://www.w3.org/2000/svg" viewBox="0 0 65 41"><g clip-path="url(#blclip0_1366_23290)"><path d="M24.237 4.777h17.288v31.456H24.237V4.777z" fill="#FF5F00"/><path d="M25.335 20.507c0-6.39 2.964-12.06 7.519-15.728C29.506 2.112 25.28.5 20.67.5 9.749.5.913 9.448.913 20.507c0 11.06 8.836 20.008 19.757 20.008 4.61 0 8.836-1.612 12.184-4.28-4.555-3.612-7.519-9.337-7.519-15.728z" fill="red"/><path d="M64.85 20.507c0 11.06-8.836 20.008-19.757 20.008-4.61 0-8.836-1.612-12.184-4.28 4.61-3.668 7.519-9.337 7.519-15.728 0-6.39-2.964-12.06-7.519-15.728C36.257 2.112 40.483.5 45.093.5 56.014.5 64.85 9.503 64.85 20.507z" fill="#FCB040"/></g><defs><clipPath id="blclip0_1366_23290"><path fill="#fff" transform="translate(.914 .5)" d="M0 0h64v40H0z"/></clipPath></defs></svg>