<?xml version="1.0" encoding="utf-8"?><svg width="83" height="25" fill="none" xmlns="http://www.w3.org/2000/svg" viewBox="0 0 83 25"><path fill-rule="evenodd" clip-rule="evenodd" d="M8.032.504C8.769.5 10.96.29 11.888 3.63c.625 2.25 1.62 5.934 2.987 11.055h.556c1.466-5.399 2.472-9.084 3.02-11.055C19.39.254 21.733.504 22.671.504h7.234V24.5h-7.373V10.359h-.495l-4.11 14.14h-5.548L8.27 10.35h-.494v14.15H.4V.505h7.63zm32.461 0v14.152h.588l5-11.637c.97-2.316 3.04-2.515 3.04-2.515h7.134V24.5h-7.527V10.348h-.588l-4.902 11.637c-.97 2.305-3.137 2.515-3.137 2.515h-7.135V.504h7.527zm41.78 11.403c-1.05 3.173-4.347 5.445-7.998 5.445h-7.894V24.5h-7.158V11.907h23.05z" fill="#0F582D"/><path fill-rule="evenodd" clip-rule="evenodd" d="M74.62.504H58.846c.375 5.342 4.69 9.915 9.156 9.915H82.77c.852-4.44-2.08-9.915-8.15-9.915z" fill="#0084CF"/></svg>