<?xml version="1.0" encoding="utf-8"?><svg width="25" height="25" fill="none" xmlns="http://www.w3.org/2000/svg" viewBox="0 0 25 25"><path d="M2.01 10.95h8.735V2.26a1.472 1.472 0 01.419-1.074 1.6 1.6 0 012.262 0 1.44 1.44 0 01.441 1.052l-.056 8.746h8.802a1.44 1.44 0 01.996.384 1.6 1.6 0 010 2.263 1.471 1.471 0 01-1.087.475l-8.677-.056v8.711a1.474 1.474 0 01-.419 1.053 1.6 1.6 0 01-2.262 0 1.44 1.44 0 01-.442-1.053l.057-8.745H1.977a1.44 1.44 0 01-.996-.385 1.6 1.6 0 010-2.263 1.476 1.476 0 011.03-.418z" fill="currentColor"/></svg>