<?xml version="1.0" encoding="utf-8"?><svg width="15" height="14" fill="none" xmlns="http://www.w3.org/2000/svg" viewBox="0 0 15 14"><path d="M2.834 14v-1.66h-2v-1.6h2V9.48h-2V6.56h2V0h6.6c.76 0 1.447.113 2.06.34.627.227 1.16.553 1.6.98.454.413.8.92 1.04 1.52.24.587.36 1.24.36 1.96 0 .707-.126 1.347-.38 1.92a4.248 4.248 0 01-1.08 1.48 4.73 4.73 0 01-1.66.96c-.653.213-1.38.32-2.18.32h-2.66v1.26h3.86v1.6h-3.86V14h-3.7zm3.7-7.44h2.08c.454 0 .834-.067 1.14-.2.32-.133.56-.333.72-.6.16-.267.24-.587.24-.96 0-.4-.08-.74-.24-1.02a1.54 1.54 0 00-.72-.64c-.306-.147-.686-.22-1.14-.22h-2.08v3.64z" fill="#0F582D"/></svg>