<?xml version="1.0" encoding="utf-8"?><svg width="116" height="20" fill="none" xmlns="http://www.w3.org/2000/svg" viewBox="0 0 116 20"><path d="M10 0l2.245 6.91h7.266l-5.878 4.27 2.245 6.91L10 13.82l-5.878 4.27 2.245-6.91L.49 6.91h7.266L10 0z" fill="#FCB040"/><path d="M34 0l2.245 6.91h7.266l-5.878 4.27 2.245 6.91L34 13.82l-5.878 4.27 2.245-6.91-5.878-4.27h7.266L34 0zM58 0l2.245 6.91h7.266l-5.878 4.27 2.245 6.91L58 13.82l-5.878 4.27 2.245-6.91-5.878-4.27h7.266L58 0zM82 0l2.245 6.91h7.266l-5.878 4.27 2.245 6.91L82 13.82l-5.878 4.27 2.245-6.91-5.878-4.27h7.266L82 0zM106 0l2.245 6.91h7.266l-5.878 4.27 2.245 6.91L106 13.82l-5.878 4.27 2.245-6.91-5.878-4.27h7.266L106 0z" fill="#000" fill-opacity=".1"/></svg>