<?xml version="1.0" encoding="utf-8"?><svg width="25" height="24" fill="none" xmlns="http://www.w3.org/2000/svg" viewBox="0 0 25 24"><g clip-path="url(#cjclip0_3001_10874)"><path d="M12.41.477C6.049.477.89 5.634.89 11.997c0 6.362 5.158 11.52 11.52 11.52 6.363 0 11.52-5.158 11.52-11.52 0-6.363-5.157-11.52-11.52-11.52zm4.431 12.997s1.019 1.005 1.27 1.472c.007.01.01.02.013.024.102.172.126.305.075.405-.084.165-.372.247-.47.254h-1.8c-.125 0-.386-.032-.703-.25-.244-.171-.484-.45-.718-.723-.349-.406-.651-.756-.956-.756a.365.365 0 00-.114.018c-.23.074-.526.403-.526 1.279 0 .274-.216.43-.368.43h-.825c-.28 0-1.743-.098-3.04-1.464C7.094 12.489 5.666 9.13 5.654 9.1c-.09-.217.096-.334.3-.334H7.77c.243 0 .322.148.377.279.065.152.302.758.692 1.44.633 1.11 1.02 1.562 1.331 1.562a.36.36 0 00.167-.043c.406-.226.33-1.672.312-1.972 0-.056-.001-.647-.209-.93-.149-.205-.402-.283-.555-.312a.66.66 0 01.238-.203c.279-.139.78-.16 1.278-.16h.278c.54.008.679.043.874.092.396.095.405.35.37 1.225-.01.249-.022.53-.022.86 0 .073-.003.15-.003.231-.012.445-.027.95.288 1.158a.26.26 0 00.137.04c.109 0 .438 0 1.328-1.528.275-.492.513-1.003.714-1.529.018-.031.07-.127.133-.164a.32.32 0 01.149-.035h2.137c.233 0 .393.035.423.125.052.143-.01.578-.986 1.9l-.435.574c-.885 1.16-.885 1.218.055 2.098z" fill="#0F582D"/></g><defs><clipPath id="cjclip0_3001_10874"><path fill="#fff" transform="translate(.41)" d="M0 0h24v24H0z"/></clipPath></defs></svg>