<svg width="16" height="15" viewBox="0 0 16 15" fill="none" xmlns="http://www.w3.org/2000/svg"><path d="M2.859.48l5.146 5.146 5.12-5.12a1.227 1.227 0 01.88-.387 1.333 1.333 0 011.245 1.81 1.201 1.201 0 01-.271.403l-5.187 5.12 5.187 5.187a1.2 1.2 0 01.36.814 1.333 1.333 0 01-1.334 1.333 1.225 1.225 0 01-.92-.36l-5.08-5.147-5.133 5.133a1.228 1.228 0 01-.867.374 1.333 1.333 0 01-1.244-1.81 1.2 1.2 0 01.271-.404l5.187-5.12-5.187-5.186a1.2 1.2 0 01-.36-.814A1.333 1.333 0 012.005.12c.32.004.627.133.854.36z" fill="#2C2C31"/></svg>