<svg width="20" height="21" viewBox="0 0 20 21" fill="none" xmlns="http://www.w3.org/2000/svg">
<path d="M10.041 6.94434H9.95768" stroke="currentColor" stroke-width="2.5" stroke-linecap="round" stroke-linejoin="round"/>
<path d="M10 10.6943V14.861M17.5 10.6943C17.5 12.6835 16.7098 14.5911 15.3033 15.9976C13.8968 17.4042 11.9891 18.1943 10 18.1943V18.1943C8.01088 18.1943 6.10322 17.4042 4.6967 15.9976C3.29018 14.5911 2.5 12.6835 2.5 10.6943V10.6943C2.5 8.70521 3.29018 6.79756 4.6967 5.39104C6.10322 3.98451 8.01088 3.19434 10 3.19434V3.19434C11.9891 3.19434 13.8968 3.98451 15.3033 5.39104C16.7098 6.79756 17.5 8.70521 17.5 10.6943V10.6943Z" stroke="currentColor" stroke-width="1.66667" stroke-linecap="round" stroke-linejoin="round"/>
</svg>
