<svg width="25" height="25" viewBox="0 0 25 25" fill="none" xmlns="http://www.w3.org/2000/svg">
<path d="M21.4905 15.5V19.43C21.4936 19.719 21.434 20.0051 21.3159 20.2688C21.1977 20.5325 21.0239 20.7675 20.8062 20.9576C20.5886 21.1476 20.3324 21.2883 20.0552 21.3699C19.778 21.4514 19.4864 21.4719 19.2005 21.43C15.2375 20.9209 11.5565 19.1077 8.73749 16.2761C5.91851 13.4444 4.12182 9.75532 3.63052 5.79003C3.58874 5.50498 3.60904 5.21427 3.69002 4.93779C3.77101 4.66131 3.91077 4.40559 4.09974 4.18813C4.28871 3.97067 4.52243 3.79661 4.78491 3.67784C5.04739 3.55908 5.33243 3.49843 5.62052 3.50003H9.49052C9.73773 3.49853 9.97674 3.58866 10.1614 3.75302C10.3461 3.91737 10.4633 4.14431 10.4905 4.39003C10.5897 5.70061 10.9287 6.98183 11.4905 8.17003C11.5869 8.39506 11.5973 8.64761 11.5199 8.87983C11.4425 9.11205 11.2826 9.30781 11.0705 9.43003L10.2105 9.92003C10.0866 9.98821 9.97847 10.0819 9.8934 10.195C9.80834 10.308 9.74822 10.4378 9.71703 10.5758C9.68584 10.7138 9.68429 10.8568 9.71247 10.9955C9.74065 11.1341 9.79793 11.2652 9.88052 11.38C10.8698 12.8292 12.1213 14.0807 13.5705 15.07C13.6854 15.1526 13.8165 15.2099 13.9551 15.2381C14.0937 15.2663 14.2368 15.2647 14.3748 15.2335C14.5128 15.2023 14.6426 15.1422 14.7556 15.0571C14.8686 14.9721 14.9623 14.864 15.0305 14.74L15.5205 13.88C15.65 13.6652 15.8556 13.5068 16.0964 13.4364C16.3372 13.3661 16.5957 13.3888 16.8205 13.5C18.0087 14.0618 19.2899 14.4008 20.6005 14.5C20.8462 14.5272 21.0732 14.6445 21.2375 14.8291C21.4019 15.0138 21.492 15.2528 21.4905 15.5Z" stroke="currentColor" stroke-width="2" stroke-linecap="round" stroke-linejoin="round"/>
</svg>
