<svg width="24" height="25" viewBox="0 0 24 25" fill="none" xmlns="http://www.w3.org/2000/svg">
<path d="M21 16.6982V19.6982C21 19.9635 20.8946 20.2178 20.7071 20.4053C20.5196 20.5929 20.2652 20.6982 20 20.6982H4C3.73478 20.6982 3.48043 20.5929 3.29289 20.4053C3.10536 20.2178 3 19.9635 3 19.6982V5.69824C3 5.43303 3.10536 5.17867 3.29289 4.99114C3.48043 4.8036 3.73478 4.69824 4 4.69824H12" stroke="#8C8C8C" stroke-width="2" stroke-linecap="round" stroke-linejoin="round"/>
<path d="M18 12.6982L21 9.69824L18 6.69824" stroke="#8C8C8C" stroke-width="2" stroke-linecap="round" stroke-linejoin="round"/>
<path d="M21 9.69824H16.71C14.6939 9.69744 12.7174 10.2584 11.0022 11.3182C9.28713 12.378 7.90122 13.8947 7 15.6982" stroke="#8C8C8C" stroke-width="2" stroke-linecap="round" stroke-linejoin="round"/>
</svg>
