<svg width="65" height="65" viewBox="0 0 65 65" fill="none" xmlns="http://www.w3.org/2000/svg"><rect x=".625" y=".111" width="64" height="63.996" rx="12.441" fill="#F8F1EC"/><path d="M53.31 17.197h0a.213.213 0 00-.201-.202c-9.287-.538-16.317 2.313-19.241 7.14l19.442-6.938zm0 0c.545 9.285-2.313 16.316-7.14 19.237l-.002.001a9.913 9.913 0 01-5.175 1.442 12.296 12.296 0 01-5.538-1.397l-.912-.477-.645.802a11.448 11.448 0 00-2.526 7.204v5.406a.214.214 0 01-.063.151l.887.886-.887-.886a.214.214 0 01-.365-.15v-5.777l-.367-.367-4.584-4.584-.636-.636-.806.4a8.758 8.758 0 01-3.771.909 7.145 7.145 0 01-3.718-1.049l-.004-.002c-3.422-2.073-5.525-7.076-5.129-13.799h0a.214.214 0 01.201-.201h0c6.724-.395 11.726 1.706 13.799 5.127 1.317 2.187 1.4 4.856.126 7.518l-.383.799.625.627 2.983 2.994 1.525 1.53.572-2.083a11.82 11.82 0 012.349-4.476l.536-.638M53.31 17.197L34.262 35.708m0 0l-.382-.741m.382.741l-.382-.741m0 0c-1.96-3.811-1.919-7.683-.013-10.832l.014 10.832zm-16.608 2.978h0c1.818 1.1 3.914 1.254 5.983.569l1.93-.639-1.438-1.437-4.46-4.46a.214.214 0 01.302-.301l4.46 4.46 1.437 1.437.639-1.93c.684-2.068.532-4.166-.57-5.982-2.046-3.38-6.652-5.016-12.01-4.97l-1.233.01-.01 1.233c-.04 5.356 1.59 9.963 4.97 12.01zm28.676-1.874h0c4.796-2.904 7.176-9.557 6.996-17.485l-.027-1.197-1.197-.028c-7.93-.185-14.576 2.199-17.48 6.989-1.732 2.847-1.823 6.167-.45 9.417l.724 1.713 1.316-1.314 9.83-9.818a.214.214 0 01.303.302l-9.829 9.83-1.318 1.318 1.718.723c3.25 1.367 6.567 1.273 9.414-.45z" fill="#FCB040" stroke="#FCB040" stroke-width="2.506"/></svg>