<svg width="27" height="41" viewBox="0 0 27 41" fill="none" xmlns="http://www.w3.org/2000/svg"><path d="M.627 7.79l8.847 5.586a11.45 11.45 0 015.336 9.68v4.535l-8.59-5.114A11.45 11.45 0 01.627 12.64V7.79zM26.943.61L18.51 6.165a8.218 8.218 0 00-3.696 6.862v5.033l8.236-5.095a8.217 8.217 0 003.894-6.988V.609z" fill="currentColor"/><path d="M6.943 32.119l-.017-5.39 1.38.9c1.717 1.121 1.881 2.876 1.8 5.131v.687c.218-.114-.22.115 0 0l4.808-2.51c1.98-1.037 3.216-3.05 3.216-5.239V23.83c0-2.09 1.413-4.052 3.448-4.717v12.989c.001 1.43-2.648 4.408-4.76 6.54-1.282 1.295-3.049 1.968-4.871 1.968h-5.02v-1.934c0-.145.005-.29.016-.434v-6.123z" fill="currentColor"/></svg>