<svg width="25" height="25" viewBox="0 0 25 25" fill="none" xmlns="http://www.w3.org/2000/svg">
<path d="M21.8633 21.6094L17.5233 17.2694M19.8633 11.6094C19.8633 13.1916 19.3941 14.7383 18.515 16.0539C17.636 17.3695 16.3866 18.3949 14.9248 19.0004C13.4629 19.6059 11.8544 19.7643 10.3026 19.4557C8.75071 19.147 7.32525 18.385 6.20643 17.2662C5.08761 16.1474 4.32568 14.7219 4.017 13.1701C3.70832 11.6182 3.86675 10.0097 4.47225 8.54791C5.07775 7.0861 6.10313 5.83667 7.41872 4.95762C8.73432 4.07857 10.281 3.60938 11.8633 3.60938C13.985 3.60938 16.0198 4.45223 17.5201 5.95252C19.0204 7.45281 19.8633 9.48764 19.8633 11.6094Z" stroke="#2C2C31" stroke-width="2" stroke-linecap="round" stroke-linejoin="round"/>
</svg>
