<svg width="15" height="15" viewBox="0 0 15 15" fill="none" xmlns="http://www.w3.org/2000/svg"><g clip-path="url(#clip0_1250_18237)"><rect x=".141" y=".766" width="13.9" height="13.9" rx="1.158" fill="#D93025"/><g clip-path="url(#clip1_1250_18237)"><path fill="#fff" d="M-.148 2.502h14.595v12.162H-.148z"/><path d="M.235 14.968a.532.532 0 01-.532-.532V2.729a.532.532 0 01.532-.532H14.07a.532.532 0 01.532.532v11.707a.532.532 0 01-.532.532H.235zm5.247-3.8l-1.146-1.146a.532.532 0 00-.753 0L.767 12.84h12.949L9.69 8.01a.532.532 0 00-.819 0l-2.604 3.124a.533.533 0 01-.785.036z" fill="#D93025"/></g></g><defs><clipPath id="clip0_1250_18237"><rect x=".141" y=".766" width="13.9" height="13.9" rx="1.158" fill="#fff"/></clipPath><clipPath id="clip1_1250_18237"><path fill="#fff" transform="translate(-.148 2.502)" d="M0 0h14.595v12.162H0z"/></clipPath></defs></svg>