<svg width="25" height="24" viewBox="0 0 25 24" fill="none" xmlns="http://www.w3.org/2000/svg"><path fill-rule="evenodd" clip-rule="evenodd" d="M1.813 12a10.597 10.597 0 1121.194 0 10.597 10.597 0 01-21.194 0zM12.41 2.921a9.077 9.077 0 100 18.154 9.077 9.077 0 000-18.154zm3.767 5.312a.8.8 0 010 1.132l-2.636 2.633 2.636 2.634a.801.801 0 01-1.133 1.133L12.41 13.13l-2.633 2.635a.802.802 0 11-1.133-1.132l2.635-2.634-2.635-2.633a.801.801 0 111.133-1.133l2.633 2.635 2.634-2.635a.8.8 0 011.133.001z" fill="red"/></svg>