<svg width="25" height="24" viewBox="0 0 25 24" fill="none" xmlns="http://www.w3.org/2000/svg"><path d="M19.78 10c0 .76-.67 1.4-.89 2.08-.22.68-.07 1.61-.5 2.2-.43.59-1.35.72-1.89 1.16-.54.44-1 1.26-1.7 1.49-.7.23-1.49-.21-2.25-.21s-1.57.43-2.25.21c-.68-.22-1.11-1.07-1.7-1.49-.59-.42-1.51-.57-1.94-1.16-.43-.59-.27-1.5-.5-2.2-.23-.7-.94-1.32-.94-2.08s.67-1.4.89-2.08c.22-.68.07-1.61.5-2.2.43-.59 1.35-.72 1.94-1.16.59-.44.95-1.26 1.7-1.49.75-.23 1.49.21 2.25.21s1.57-.43 2.25-.21c.68.22 1.11 1.07 1.75 1.49.64.42 1.51.57 1.94 1.16.43.59.27 1.5.5 2.2.23.7.84 1.32.84 2.08zM12.5 7a3 3 0 100 6 3 3 0 000-6z" stroke="#8C8C8C" stroke-width="2" stroke-linecap="round" stroke-linejoin="round"/><path d="M14.55 17.1L16.5 21l1.98-2.03 3.02.03-2.81-5.58v-.01m-8.24 3.69L8.5 21l-1.98-2.03L3.5 19l2.81-5.58v-.01" stroke="#8C8C8C" stroke-width="2" stroke-linecap="round" stroke-linejoin="round"/></svg>