<?xml version="1.0" encoding="utf-8"?><svg viewBox="0 0 47 47" xmlns="http://www.w3.org/2000/svg" xmlns:xlink="http://www.w3.org/1999/xlink"><style>:root>svg{display:none}:root>svg:target{display:block}</style><svg fill="none" viewBox="0 0 21 21" id="arrow-down" xmlns="http://www.w3.org/2000/svg"><path d="M6.334 9.028l4.166 4.166 4.167-4.166" stroke="#2C2C31" stroke-width=".833" stroke-linecap="round" stroke-linejoin="round"/></svg><svg fill="none" viewBox="0 0 25 25" id="basil_viber-solid" xmlns="http://www.w3.org/2000/svg"><g clip-path="url(#abclip0_1194_60781)"><path fill-rule="evenodd" clip-rule="evenodd" d="M17.81 1.454a25.674 25.674 0 00-11.201 0l-.398.088A5.75 5.75 0 001.893 5.74a22.821 22.821 0 000 11.227 5.75 5.75 0 004.037 4.127l.545 3.254a.586.586 0 00.968.34l3.202-2.864a25.67 25.67 0 007.165-.57l.399-.089a5.75 5.75 0 004.319-4.197 22.824 22.824 0 000-11.227 5.75 5.75 0 00-4.32-4.197l-.398-.089zM7.598 5.644a.964.964 0 00-.63.124h-.016c-.44.258-.836.583-1.173.965-.282.325-.434.653-.474.97-.023.187-.007.377.048.557l.021.011c.317.93.73 1.824 1.234 2.666a15.678 15.678 0 002.38 3.253l.028.04.044.033.027.032.033.028c.98.932 2.077 1.736 3.261 2.391 1.354.738 2.176 1.086 2.67 1.231v.007c.144.045.275.065.408.065.42-.031.818-.202 1.13-.486a4.62 4.62 0 00.954-1.177v-.008c.236-.445.156-.865-.184-1.15a14.212 14.212 0 00-2.205-1.582c-.525-.285-1.059-.113-1.275.175l-.46.582c-.237.288-.666.248-.666.248l-.012.007c-3.201-.817-4.056-4.058-4.056-4.058s-.04-.441.257-.666l.576-.464c.277-.225.47-.758.173-1.283a13.841 13.841 0 00-1.58-2.204.877.877 0 00-.515-.308l.002.001zm5.41-1.409a.586.586 0 100 1.172c1.482 0 2.713.484 3.687 1.413.5.508.891 1.109 1.147 1.768.257.66.374 1.364.343 2.07a.59.59 0 00.562.61.587.587 0 00.61-.56 6.281 6.281 0 00-.423-2.545 6.38 6.38 0 00-1.411-2.173l-.012-.012c-1.208-1.154-2.738-1.743-4.504-1.743zm-.04 1.927a.586.586 0 100 1.173h.02c1.069.076 1.847.432 2.392 1.017.56.603.849 1.352.826 2.278a.586.586 0 101.173.027c.028-1.216-.364-2.265-1.14-3.102v-.002c-.793-.851-1.882-1.302-3.193-1.39l-.02-.002-.059.001zm-.023 1.964a.586.586 0 10-.06 1.17c.49.026.802.173 1 .371.197.2.345.52.372 1.02a.586.586 0 101.17-.062c-.038-.703-.258-1.324-.71-1.782-.453-.457-1.07-.68-1.772-.717z" fill="#754A91"/></g><defs><clipPath id="abclip0_1194_60781"><path fill="#fff" transform="translate(.31 .5)" d="M0 0h24v24H0z"/></clipPath></defs></svg><svg fill="none" viewBox="0 0 24 24" id="cart" xmlns="http://www.w3.org/2000/svg"><path d="M3 3h2.14a1 1 0 011 .85L6.62 7 8 16l11-1 2-8H6.62" stroke="#8C8C8C" stroke-width="2" stroke-linecap="round" stroke-linejoin="round"/><path d="M10.95 20.5h.1M16.95 20.5h.1" stroke="#8C8C8C" stroke-width="3" stroke-linecap="round" stroke-linejoin="round"/></svg><svg fill="none" viewBox="0 0 20 21" id="caution-sign-circle" xmlns="http://www.w3.org/2000/svg"><path d="M10.041 6.944h-.083" stroke="currentColor" stroke-width="2.5" stroke-linecap="round" stroke-linejoin="round"/><path d="M10 10.694v4.167m7.5-4.167a7.5 7.5 0 01-7.5 7.5v0a7.5 7.5 0 01-7.5-7.5v0a7.5 7.5 0 017.5-7.5v0a7.5 7.5 0 017.5 7.5v0z" stroke="currentColor" stroke-width="1.667" stroke-linecap="round" stroke-linejoin="round"/></svg><svg fill="none" viewBox="0 0 24 25" id="check-mark-circle" xmlns="http://www.w3.org/2000/svg"><path d="M8 12.194l3 3 5-5m-4 11.5a9 9 0 01-9-9v0a9 9 0 019-9v0a9 9 0 019 9v0a9 9 0 01-9 9v0z" stroke="currentColor" stroke-width="2" stroke-linecap="round" stroke-linejoin="round"/></svg><svg fill="none" viewBox="0 0 21 17" id="contact-mail" xmlns="http://www.w3.org/2000/svg"><path d="M2.49 16.5c-.55 0-1.02-.196-1.412-.587A1.93 1.93 0 01.49 14.5v-12c0-.55.196-1.02.588-1.412A1.93 1.93 0 012.49.5h16c.55 0 1.021.196 1.413.588.392.392.588.863.587 1.412v12c0 .55-.195 1.021-.587 1.413a1.92 1.92 0 01-1.413.587h-16zm8-7l-8-5v10h16v-10l-8 5zm0-2l8-5h-16l8 5zm-8-3v-2 12-10z" fill="#8C8C8C"/></svg><svg fill="none" viewBox="0 0 25 25" id="contact-phone" xmlns="http://www.w3.org/2000/svg"><path d="M21.49 15.5v3.93a2 2 0 01-2.29 2A18 18 0 013.63 5.79 2 2 0 015.62 3.5h3.87a1 1 0 011 .89c.1 1.31.439 2.592 1 3.78a1 1 0 01-.42 1.26l-.86.49a1 1 0 00-.33 1.46c.99 1.45 2.241 2.7 3.69 3.69a1 1 0 001.46-.33l.49-.86a1 1 0 011.3-.38c1.189.562 2.47.9 3.78 1a1 1 0 01.89 1z" stroke="#8C8C8C" stroke-width="2" stroke-linecap="round" stroke-linejoin="round"/></svg><svg fill="none" viewBox="0 0 24 24" id="copy" xmlns="http://www.w3.org/2000/svg"><path d="M7 21h13a1 1 0 001-1V5" stroke="#8C8C8C" stroke-width="2" stroke-linecap="round" stroke-linejoin="round"/><path d="M16 17H4a1 1 0 01-1-1V4a1 1 0 011-1h12a1 1 0 011 1v12a1 1 0 01-1 1z" stroke="#8C8C8C" stroke-width="2" stroke-linecap="round" stroke-linejoin="round"/></svg><svg fill="none" viewBox="0 0 24 25" id="curve-arrow-right" xmlns="http://www.w3.org/2000/svg"><path d="M21 16.698v3a1 1 0 01-1 1H4a1 1 0 01-1-1v-14a1 1 0 011-1h8" stroke="#8C8C8C" stroke-width="2" stroke-linecap="round" stroke-linejoin="round"/><path d="M18 12.698l3-3-3-3" stroke="#8C8C8C" stroke-width="2" stroke-linecap="round" stroke-linejoin="round"/><path d="M21 9.698h-4.29a10.85 10.85 0 00-9.71 6" stroke="#8C8C8C" stroke-width="2" stroke-linecap="round" stroke-linejoin="round"/></svg><svg fill="none" viewBox="0 0 21 20" id="decrease-circle" xmlns="http://www.w3.org/2000/svg"><path d="M13.944 10H6.877m11.033 0a7.5 7.5 0 11-15 0 7.5 7.5 0 0115 0v0z" stroke="currentColor" stroke-width="1.667" stroke-linecap="round" stroke-linejoin="round"/></svg><svg fill="none" viewBox="0 0 24 24" id="dok" xmlns="http://www.w3.org/2000/svg"><path d="M17 21h2a1 1 0 001-1V7l-4-4H5a1 1 0 00-1 1v16a1 1 0 001 1h2" stroke="currentColor" stroke-width="2" stroke-linecap="round" stroke-linejoin="round"/><path d="M12 13v3m3-13H9v4h6V3z" stroke="currentColor" stroke-width="2" stroke-linecap="round" stroke-linejoin="round"/><path d="M12.05 20.5h-.1" stroke="currentColor" stroke-width="3" stroke-linecap="round" stroke-linejoin="round"/></svg><svg fill="none" viewBox="0 0 25 25" id="favourite" xmlns="http://www.w3.org/2000/svg"><path d="M19.934 6.05a4.91 4.91 0 010 6.93l-7.57 7.63-7.57-7.63a4.91 4.91 0 013.44-8.37 4.9 4.9 0 013.44 1.44c.266.263.498.558.69.88.192-.322.424-.617.69-.88a4.83 4.83 0 016.88 0v0z" stroke="#2C2C31" stroke-width="2" stroke-linecap="round" stroke-linejoin="round"/></svg><svg fill="none" viewBox="0 0 47 47" id="favourite-w" xmlns="http://www.w3.org/2000/svg"><path d="M38.262 10.7a9.58 9.58 0 010 13.522L23.492 39.11 8.72 24.222a9.58 9.58 0 016.712-16.331 9.56 9.56 0 016.712 2.81 8.7 8.7 0 011.346 1.716 8.701 8.701 0 011.347-1.717 9.424 9.424 0 0113.424 0v0z" stroke="#fff" stroke-width="2" stroke-linecap="round" stroke-linejoin="round"/></svg><svg fill="none" viewBox="0 0 18 21" id="input-map" xmlns="http://www.w3.org/2000/svg"><path fill-rule="evenodd" clip-rule="evenodd" d="M4.293 9.12a4.708 4.708 0 119.417 0 4.708 4.708 0 01-9.417 0zM9.001 5.9a3.221 3.221 0 100 6.443 3.221 3.221 0 000-6.443z" fill="#8C8C8C"/><path fill-rule="evenodd" clip-rule="evenodd" d="M.6 7.99A8.215 8.215 0 018.788.45h.428a8.215 8.215 0 018.188 7.54 8.865 8.865 0 01-1.973 6.34l-4.75 5.809a2.168 2.168 0 01-3.357 0l-4.751-5.81A8.865 8.865 0 01.6 7.99zm8.188-6.054a6.728 6.728 0 00-6.705 6.175 7.378 7.378 0 001.642 5.277l4.75 5.81a.682.682 0 001.055 0l4.751-5.81a7.378 7.378 0 001.64-5.277 6.729 6.729 0 00-6.706-6.175h-.427z" fill="#8C8C8C"/></svg><svg fill="none" viewBox="0 0 20 20" id="left-circle" xmlns="http://www.w3.org/2000/svg"><path d="M10 17.5a7.5 7.5 0 100-15 7.5 7.5 0 000 15z" stroke="#8C8C8C" stroke-width="1.667" stroke-linecap="round" stroke-linejoin="round"/><path d="M10.833 7.5l-2.5 2.5 2.5 2.5" stroke="#8C8C8C" stroke-width="1.667" stroke-linecap="round" stroke-linejoin="round"/></svg><svg fill="none" viewBox="0 0 27 41" id="logo" xmlns="http://www.w3.org/2000/svg"><path d="M.627 7.79l8.847 5.586a11.45 11.45 0 015.336 9.68v4.535l-8.59-5.114A11.45 11.45 0 01.627 12.64v-4.85zM26.943.61L18.51 6.165a8.218 8.218 0 00-3.696 6.862v5.033l8.236-5.095a8.217 8.217 0 003.894-6.988V.609z" fill="currentColor"/><path d="M6.943 32.119l-.017-5.39 1.38.9c1.717 1.121 1.881 2.876 1.8 5.131v.687c.218-.114-.22.115 0 0l4.808-2.51c1.98-1.037 3.216-3.05 3.216-5.239V23.83c0-2.09 1.413-4.052 3.448-4.717v12.989c.001 1.43-2.648 4.408-4.76 6.54-1.282 1.295-3.049 1.968-4.871 1.968h-5.02v-1.934c0-.145.005-.29.016-.434v-6.123z" fill="currentColor"/></svg><svg fill="none" viewBox="0 0 25 25" id="logos_telegram" xmlns="http://www.w3.org/2000/svg"><g clip-path="url(#aqclip0_1194_60778)"><path d="M12.31.5a11.998 11.998 0 00-8.484 20.485 11.999 11.999 0 1016.969-16.97A11.998 11.998 0 0012.31.5z" fill="url(#aqpaint0_linear_1194_60778)"/><path d="M5.741 12.374A584.088 584.088 0 0112.74 9.36c3.334-1.386 4.026-1.627 4.477-1.635.1-.002.321.023.465.14.12.098.154.23.171.324.015.094.036.307.019.473-.18 1.897-.962 6.502-1.36 8.627-.166.9-.498 1.2-.819 1.23-.697.065-1.226-.46-1.901-.902-1.056-.693-1.652-1.124-2.678-1.8-1.185-.78-.416-1.21.259-1.91.176-.184 3.248-2.977 3.306-3.23.007-.032.015-.15-.057-.212-.069-.063-.172-.041-.247-.024-.107.023-1.793 1.139-5.063 3.345-.478.329-.91.49-1.3.48-.428-.008-1.253-.241-1.866-.44-.75-.245-1.349-.374-1.296-.789.026-.216.324-.437.892-.663z" fill="#fff"/></g><defs><linearGradient id="aqpaint0_linear_1194_60778" x1="1200.31" y1=".5" x2="1200.31" y2="2400.5" gradientUnits="userSpaceOnUse"><stop stop-color="#2AABEE"/><stop offset="1" stop-color="#229ED9"/></linearGradient><clipPath id="aqclip0_1194_60778"><path fill="#fff" transform="translate(.31 .5)" d="M0 0h24v24H0z"/></clipPath></defs></svg><svg fill="none" viewBox="0 0 25 25" id="logos_whatsapp-icon" xmlns="http://www.w3.org/2000/svg"><g clip-path="url(#arclip0_1194_60774)"><path d="M1 12.356c0 2.017.526 3.986 1.528 5.721l-1.624 5.93 6.068-1.591a11.442 11.442 0 005.47 1.392h.005c6.309 0 11.444-5.133 11.446-11.443a11.372 11.372 0 00-3.35-8.095A11.374 11.374 0 0012.448.914C6.137.914 1.003 6.047 1 12.356" fill="url(#arpaint0_linear_1194_60774)"/><path d="M.594 12.353c-.001 2.089.545 4.128 1.582 5.926L.494 24.42l6.286-1.648a11.852 11.852 0 005.666 1.442h.005c6.535 0 11.854-5.317 11.857-11.853a11.782 11.782 0 00-3.47-8.386A11.783 11.783 0 0012.451.5C5.915.5.596 5.817.594 12.353zm3.743 5.616l-.235-.373a9.826 9.826 0 01-1.506-5.243c.002-5.432 4.423-9.851 9.859-9.851a9.791 9.791 0 016.967 2.89 9.792 9.792 0 012.884 6.97c-.002 5.432-4.423 9.851-9.855 9.851h-.004a9.844 9.844 0 01-5.016-1.373l-.36-.213-3.73.978.996-3.636z" fill="url(#arpaint1_linear_1194_60774)"/><path d="M9.485 7.398c-.222-.494-.455-.504-.666-.512-.173-.008-.37-.007-.568-.007-.198 0-.519.074-.79.37-.272.297-1.037 1.014-1.037 2.471 0 1.458 1.061 2.867 1.21 3.064.148.198 2.05 3.285 5.06 4.472 2.503.987 3.012.791 3.556.741.543-.049 1.753-.716 2-1.408.246-.691.246-1.284.172-1.408-.074-.124-.271-.198-.568-.346-.296-.148-1.753-.865-2.024-.964-.272-.099-.47-.148-.667.149-.197.296-.765.963-.938 1.16-.172.199-.345.223-.641.075-.297-.149-1.251-.46-2.383-1.47-.88-.785-1.476-1.755-1.648-2.052-.173-.296-.019-.457.13-.604.133-.133.296-.346.444-.52.148-.172.197-.296.296-.493.1-.198.05-.37-.024-.52-.075-.147-.65-1.613-.914-2.198z" fill="#fff"/></g><defs><linearGradient id="arpaint0_linear_1194_60774" x1="1150.36" y1="2310.17" x2="1150.36" y2=".914" gradientUnits="userSpaceOnUse"><stop stop-color="#1FAF38"/><stop offset="1" stop-color="#60D669"/></linearGradient><linearGradient id="arpaint1_linear_1194_60774" x1="1191.19" y1="2392.57" x2="1191.19" y2=".5" gradientUnits="userSpaceOnUse"><stop stop-color="#1FAF38"/><stop offset="1" stop-color="#60D669"/></linearGradient><clipPath id="arclip0_1194_60774"><path fill="#fff" transform="translate(.49 .5)" d="M0 0h23.82v24H0z"/></clipPath></defs></svg><svg fill="none" viewBox="0 0 25 25" id="magnific" xmlns="http://www.w3.org/2000/svg"><path d="M21.863 21.61l-4.34-4.34m2.34-5.66a8 8 0 11-15.999 0 8 8 0 0116 0z" stroke="#2C2C31" stroke-width="2" stroke-linecap="round" stroke-linejoin="round"/></svg><svg fill="none" viewBox="0 0 20 20" id="open-more" xmlns="http://www.w3.org/2000/svg"><path fill-rule="evenodd" clip-rule="evenodd" d="M10 1.25a.625.625 0 01.624.626v14.741l3.933-3.934a.625.625 0 11.885.885l-5 5a.624.624 0 01-.885 0l-5-5a.626.626 0 01.885-.885l3.932 3.934V1.876A.625.625 0 0110 1.25z" fill="#2C2C31"/></svg><svg fill="none" viewBox="0 0 20 20" id="ph_currency-rub-bold" xmlns="http://www.w3.org/2000/svg"><path d="M11.563 12.188a5 5 0 100-10H6.875a.937.937 0 00-.938.937v7.188H4.375a.938.938 0 000 1.874h1.563v1.25H4.375a.938.938 0 000 1.876h1.563v1.562a.937.937 0 001.875 0v-1.563h3.437a.938.938 0 000-1.874H7.812v-1.25h3.75zm-3.75-8.126h3.75a3.125 3.125 0 110 6.25h-3.75v-6.25z" fill="#8C8C8C"/></svg><svg fill="none" viewBox="0 0 25 24" id="radix-icons_cross-circled" xmlns="http://www.w3.org/2000/svg"><path fill-rule="evenodd" clip-rule="evenodd" d="M1.813 12a10.597 10.597 0 1121.194 0 10.597 10.597 0 01-21.194 0zM12.41 2.921a9.077 9.077 0 100 18.154 9.077 9.077 0 000-18.154zm3.767 5.312a.8.8 0 010 1.132l-2.636 2.633 2.636 2.634a.801.801 0 01-1.133 1.133L12.41 13.13l-2.633 2.635a.802.802 0 11-1.133-1.132l2.635-2.634-2.635-2.633a.801.801 0 111.133-1.133l2.633 2.635 2.634-2.635a.8.8 0 011.133.001z" fill="red"/></svg><svg fill="none" viewBox="0 0 25 24" id="reward" xmlns="http://www.w3.org/2000/svg"><path d="M19.78 10c0 .76-.67 1.4-.89 2.08-.22.68-.07 1.61-.5 2.2-.43.59-1.35.72-1.89 1.16-.54.44-1 1.26-1.7 1.49-.7.23-1.49-.21-2.25-.21s-1.57.43-2.25.21c-.68-.22-1.11-1.07-1.7-1.49-.59-.42-1.51-.57-1.94-1.16-.43-.59-.27-1.5-.5-2.2-.23-.7-.94-1.32-.94-2.08s.67-1.4.89-2.08c.22-.68.07-1.61.5-2.2.43-.59 1.35-.72 1.94-1.16.59-.44.95-1.26 1.7-1.49.75-.23 1.49.21 2.25.21s1.57-.43 2.25-.21c.68.22 1.11 1.07 1.75 1.49.64.42 1.51.57 1.94 1.16.43.59.27 1.5.5 2.2.23.7.84 1.32.84 2.08zM12.5 7a3 3 0 100 6 3 3 0 000-6z" stroke="#8C8C8C" stroke-width="2" stroke-linecap="round" stroke-linejoin="round"/><path d="M14.55 17.1L16.5 21l1.98-2.03 3.02.03-2.81-5.58v-.01M10.45 17.1L8.5 21l-1.98-2.03L3.5 19l2.81-5.58v-.01" stroke="#8C8C8C" stroke-width="2" stroke-linecap="round" stroke-linejoin="round"/></svg><svg fill="none" viewBox="0 0 25 24" id="tg-f" xmlns="http://www.w3.org/2000/svg"><g clip-path="url(#axclip0_3001_10878)"><path d="M12.41 0c-6.624 0-12 5.376-12 12s5.376 12 12 12 12-5.376 12-12-5.376-12-12-12zm5.568 8.16c-.18 1.896-.96 6.504-1.356 8.628-.168.9-.504 1.2-.816 1.236-.696.06-1.224-.456-1.896-.9-1.056-.696-1.656-1.128-2.676-1.8-1.188-.78-.42-1.212.264-1.908.18-.18 3.252-2.976 3.312-3.228a.24.24 0 00-.06-.216c-.072-.06-.168-.036-.252-.024-.108.024-1.788 1.14-5.064 3.348-.48.324-.912.492-1.296.48-.432-.012-1.248-.24-1.86-.444-.756-.24-1.344-.372-1.296-.792.024-.216.324-.432.888-.66 3.504-1.524 5.832-2.532 6.996-3.012 3.336-1.392 4.02-1.632 4.476-1.632.096 0 .324.024.468.144.12.096.156.228.168.324-.012.072.012.288 0 .456z" fill="#0F582D"/></g><defs><clipPath id="axclip0_3001_10878"><path fill="#fff" transform="translate(.41)" d="M0 0h24v24H0z"/></clipPath></defs></svg><svg fill="none" viewBox="0 0 25 25" id="true-user" xmlns="http://www.w3.org/2000/svg"><path d="M12.49 22.498c-2.316-.583-4.23-1.913-5.738-3.988S4.49 14.13 4.49 11.598v-6.1l8-3 8 3v6.1c0 2.533-.754 4.838-2.262 6.913s-3.42 3.404-5.738 3.987zm0-2.1c1.734-.55 3.167-1.65 4.3-3.3 1.134-1.65 1.7-3.483 1.7-5.5V6.873l-6-2.25-6 2.25v4.725c0 2.017.567 3.85 1.7 5.5 1.134 1.65 2.567 2.75 4.3 3.3z" fill="#0084CF"/></svg><svg fill="none" viewBox="0 0 25 25" id="user" xmlns="http://www.w3.org/2000/svg"><path d="M17.363 8.61a5 5 0 11-10 0 5 5 0 0110 0zm-4 5h-2a7 7 0 00-7 7v0a1 1 0 001 1h14a1 1 0 001-1 7 7 0 00-7-7v0z" stroke="#2C2C31" stroke-width="2" stroke-linecap="round" stroke-linejoin="round"/></svg><svg fill="none" viewBox="0 0 25 24" id="vk-f" xmlns="http://www.w3.org/2000/svg"><g clip-path="url(#baclip0_3001_10874)"><path d="M12.41.477C6.049.477.89 5.634.89 11.997c0 6.362 5.158 11.52 11.52 11.52 6.363 0 11.52-5.158 11.52-11.52 0-6.363-5.157-11.52-11.52-11.52zm4.431 12.997s1.019 1.005 1.27 1.472c.007.01.01.02.013.024.102.172.126.305.075.405-.084.165-.372.247-.47.254h-1.8c-.125 0-.386-.032-.703-.25-.244-.171-.484-.45-.718-.723-.349-.406-.651-.756-.956-.756a.365.365 0 00-.114.018c-.23.074-.526.403-.526 1.279 0 .274-.216.43-.368.43h-.825c-.28 0-1.743-.098-3.04-1.464C7.094 12.489 5.666 9.13 5.654 9.1c-.09-.217.096-.334.3-.334H7.77c.243 0 .322.148.377.279.065.152.302.758.692 1.44.633 1.11 1.02 1.562 1.331 1.562a.36.36 0 00.167-.043c.406-.226.33-1.672.312-1.972 0-.056-.001-.647-.209-.93-.149-.205-.402-.283-.555-.312a.66.66 0 01.238-.203c.279-.139.78-.16 1.278-.16h.278c.54.008.679.043.874.092.396.095.405.35.37 1.225-.01.249-.022.53-.022.86 0 .073-.003.15-.003.231-.012.445-.027.95.288 1.158a.26.26 0 00.137.04c.109 0 .438 0 1.328-1.528.275-.492.513-1.003.714-1.529.018-.031.07-.127.133-.164a.32.32 0 01.149-.035h2.137c.233 0 .393.035.423.125.052.143-.01.578-.986 1.9l-.435.574c-.885 1.16-.885 1.218.055 2.098z" fill="#0F582D"/></g><defs><clipPath id="baclip0_3001_10874"><path fill="#fff" transform="translate(.41)" d="M0 0h24v24H0z"/></clipPath></defs></svg><svg fill="none" viewBox="0 0 21 20" id="warning" xmlns="http://www.w3.org/2000/svg"><path d="M10.367 13.75h.083" stroke="currentColor" stroke-width="2.5" stroke-linecap="round" stroke-linejoin="round"/><path d="M10.41 10V5.833M2.91 10a7.5 7.5 0 017.5-7.5v0a7.5 7.5 0 017.5 7.5v0a7.5 7.5 0 01-7.5 7.5v0a7.5 7.5 0 01-7.5-7.5v0z" stroke="currentColor" stroke-width="1.667" stroke-linecap="round" stroke-linejoin="round"/></svg><svg fill="none" viewBox="0 0 25 25" id="x" xmlns="http://www.w3.org/2000/svg"><path fill-rule="evenodd" clip-rule="evenodd" d="M19.214 7.06a.92.92 0 10-1.3-1.302l-5.55 5.55-5.55-5.55A.92.92 0 105.512 7.06l5.55 5.55-5.55 5.548a.921.921 0 001.302 1.302l5.55-5.55 5.55 5.55a.92.92 0 001.3-1.302l-5.55-5.549 5.55-5.549z" fill="#2C2C31"/></svg></svg>