<svg width="116" height="20" viewBox="0 0 116 20" fill="none" xmlns="http://www.w3.org/2000/svg"><path d="M10 0l2.245 6.91h7.266l-5.878 4.27 2.245 6.91L10 13.82l-5.878 4.27 2.245-6.91L.49 6.91h7.266L10 0zm24 0l2.245 6.91h7.266l-5.878 4.27 2.245 6.91L34 13.82l-5.878 4.27 2.245-6.91-5.878-4.27h7.266L34 0zm24 0l2.245 6.91h7.266l-5.878 4.27 2.245 6.91L58 13.82l-5.878 4.27 2.245-6.91-5.878-4.27h7.266L58 0z" fill="#FCB040"/><path d="M82 0l2.245 6.91h7.266l-5.878 4.27 2.245 6.91L82 13.82l-5.878 4.27 2.245-6.91-5.878-4.27h7.266L82 0zm24 0l2.245 6.91h7.266l-5.878 4.27 2.245 6.91L106 13.82l-5.878 4.27 2.245-6.91-5.878-4.27h7.266L106 0z" fill="#000" fill-opacity=".1"/></svg>