<svg width="25" height="25" viewBox="0 0 25 25" fill="none" xmlns="http://www.w3.org/2000/svg">
<path d="M17.3633 8.60938C17.3633 9.59828 17.07 10.565 16.5206 11.3872C15.9712 12.2095 15.1903 12.8503 14.2767 13.2288C13.3631 13.6072 12.3577 13.7062 11.3878 13.5133C10.4179 13.3204 9.52701 12.8442 8.82775 12.1449C8.12848 11.4456 7.65228 10.5547 7.45935 9.58483C7.26643 8.61492 7.36545 7.60959 7.74388 6.69596C8.12232 5.78233 8.76318 5.00143 9.58543 4.45203C10.4077 3.90262 11.3744 3.60938 12.3633 3.60938C13.6894 3.60938 14.9611 4.13616 15.8988 5.07384C16.8365 6.01152 17.3633 7.28329 17.3633 8.60938ZM13.3633 13.6094H11.3633C9.50677 13.6094 7.72629 14.3469 6.41353 15.6596C5.10078 16.9724 4.36328 18.7529 4.36328 20.6094V20.6094C4.36328 20.8746 4.46864 21.1289 4.65617 21.3165C4.84371 21.504 5.09806 21.6094 5.36328 21.6094H19.3633C19.6285 21.6094 19.8829 21.504 20.0704 21.3165C20.2579 21.1289 20.3633 20.8746 20.3633 20.6094C20.3633 18.7529 19.6258 16.9724 18.313 15.6596C17.0003 14.3469 15.2198 13.6094 13.3633 13.6094V13.6094Z" stroke="#2C2C31" stroke-width="2" stroke-linecap="round" stroke-linejoin="round"/>
</svg>
