<svg width="25" height="24" viewBox="0 0 25 24" fill="none" xmlns="http://www.w3.org/2000/svg">
<path d="M17.4102 8C17.4102 8.98891 17.1169 9.95561 16.5675 10.7779C16.0181 11.6001 15.2372 12.241 14.3236 12.6194C13.4099 12.9978 12.4046 13.0969 11.4347 12.9039C10.4648 12.711 9.57388 12.2348 8.87462 11.5355C8.17536 10.8363 7.69916 9.94536 7.50623 8.97545C7.3133 8.00555 7.41232 7.00021 7.79076 6.08658C8.1692 5.17295 8.81006 4.39206 9.63231 3.84265C10.4546 3.29324 11.4212 3 12.4102 3C13.7362 3 15.008 3.52678 15.9457 4.46447C16.8834 5.40215 17.4102 6.67392 17.4102 8ZM13.4102 13H11.4102C9.55364 13 7.77316 13.7375 6.46041 15.0503C5.14765 16.363 4.41016 18.1435 4.41016 20V20C4.41016 20.2652 4.51551 20.5196 4.70305 20.7071C4.89059 20.8946 5.14494 21 5.41016 21H19.4102C19.6754 21 19.9297 20.8946 20.1173 20.7071C20.3048 20.5196 20.4102 20.2652 20.4102 20C20.4102 18.1435 19.6727 16.363 18.3599 15.0503C17.0471 13.7375 15.2667 13 13.4102 13V13Z" stroke="#8C8C8C" stroke-width="2" stroke-linecap="round" stroke-linejoin="round"/>
</svg>
