<svg width="75" height="25" viewBox="0 0 75 25" fill="none" xmlns="http://www.w3.org/2000/svg"><path d="M39.172 8.142c-.042 3.33 2.968 5.188 5.235 6.293 2.33 1.133 3.112 1.86 3.103 2.874-.018 1.552-1.858 2.236-3.58 2.263-3.006.047-4.754-.811-6.143-1.46l-1.082 5.065c1.394.643 3.974 1.203 6.65 1.227 6.282 0 10.392-3.1 10.414-7.908.025-6.102-8.44-6.44-8.382-9.167.02-.827.81-1.71 2.538-1.934.856-.113 3.22-.2 5.898 1.033l1.051-4.9C53.434 1.002 51.582.5 49.277.5c-5.913 0-10.071 3.143-10.105 7.642zM64.977.922c-1.147 0-2.114.67-2.545 1.696l-8.974 21.426h6.278l1.249-3.452h7.67l.725 3.452h5.533L70.085.922h-5.108zm.878 6.247l1.811 8.682h-4.96l3.149-8.682zM31.56.923l-4.948 23.121h5.982L37.541.922h-5.98m-8.849 0L16.486 16.66 13.967 3.28C13.672 1.785 12.505.922 11.21.922H1.031l-.142.672c2.09.453 4.463 1.185 5.901 1.967.88.478 1.132.896 1.42 2.032l4.77 18.451h6.322L28.994.922h-6.282" fill="url(#paint0_linear_1366_23284)"/><defs><linearGradient id="paint0_linear_1366_23284" x1="34.92" y1="24.884" x2="35.612" y2=".334" gradientUnits="userSpaceOnUse"><stop stop-color="#222357"/><stop offset="1" stop-color="#254AA5"/></linearGradient></defs></svg>